<?xml version="1.0" encoding="UTF-8"?>
<svg width="473px" height="305px" viewBox="0 0 473 305" version="1.1" xmlns="http://www.w3.org/2000/svg" xmlns:xlink="http://www.w3.org/1999/xlink">
    <!-- Generator: Sketch 49.3 (51167) - http://www.bohemiancoding.com/sketch -->
    <title>404 </title>
    <desc>Created with Sketch.</desc>
    <defs>
        <linearGradient x1="100%" y1="53.7344813%" x2="0%" y2="53.7344808%" id="linearGradient-1">
            <stop stop-color="#FFEE27" stop-opacity="0" offset="0%"></stop>
            <stop stop-color="#FFD811" offset="100%"></stop>
        </linearGradient>
        <polygon id="path-2" points="0 0 66 0 66 24 0 24"></polygon>
        <linearGradient x1="50%" y1="0%" x2="50%" y2="100%" id="linearGradient-4">
            <stop stop-color="#FFEE27" offset="0%"></stop>
            <stop stop-color="#FFD811" offset="100%"></stop>
        </linearGradient>
        <polygon id="path-5" points="0 0 56 0 56 27 0 27"></polygon>
        <polygon id="path-7" points="0 0 21 0 21 10 0 10"></polygon>
        <polygon id="path-9" points="0 0 91 0 91 37 0 37"></polygon>
        <polygon id="path-11" points="0.13303635 0.140323562 47.0771742 0.140323562 47.0771742 25.3134194 0.13303635 25.3134194"></polygon>
        <linearGradient x1="50%" y1="0%" x2="50%" y2="100%" id="linearGradient-13">
            <stop stop-color="#626262" offset="0%"></stop>
            <stop stop-color="#333333" offset="100%"></stop>
        </linearGradient>
    </defs>
    <g id="404-" stroke="none" stroke-width="1" fill="none" fill-rule="evenodd">
        <g id="Group-7">
            <g id="Group-3" transform="translate(100.000000, 13.000000)">
                <g id="Group-2" transform="translate(5.000000, 0.000000)">
                    <g id="Group-4" opacity="0.75" transform="translate(11.000000, 40.000000)" fill="url(#linearGradient-1)">
                        <rect id="Rectangle" opacity="0.0853147645" style="mix-blend-mode: multiply;" transform="translate(69.601465, 138.212878) rotate(-15.000000) translate(-69.601465, -138.212878) " x="19.2308611" y="57.2791206" width="100.741207" height="161.867515"></rect>
                        <rect id="Rectangle-Copy-2" opacity="0.0853147645" style="mix-blend-mode: multiply;" transform="translate(193.111336, 119.932050) scale(-1, 1) rotate(30.000000) translate(-193.111336, -119.932050) " x="142.740733" y="10.6564593" width="100.741207" height="218.551182"></rect>
                    </g>
                    <g id="Page-1">
                        <g id="Group" transform="translate(0.000000, 0.650485)">
                            <path d="M77.8296877,33.5364359 C78.2714813,34.5011058 77.8453265,35.6420573 76.8796361,36.0824359 C75.9126426,36.5241155 74.7697135,36.0986981 74.32792,35.1340282 L61.4298942,6.95695049 C60.9881006,5.99228058 61.4129523,4.8526301 62.3799458,4.41095049 C63.3456361,3.97057184 64.4885652,4.39533883 64.9303587,5.36000874 L77.8296877,33.5364359 Z" id="Fill-1" fill="#DCE1DE"></path>
                            <path d="M157.973644,95.7788505 C158.842895,96.4091709 159.035121,97.6229767 158.40436,98.4900738 L157.74167,99.3994524 C157.109605,100.26785 155.894347,100.459744 155.025095,99.8294233 L133.318566,84.0876757 C132.449966,83.4573553 132.256437,82.242899 132.886547,81.3764524 L133.549237,80.4657728 C134.18065,79.5999767 135.397212,79.4067825 136.266463,80.0358019 L157.973644,95.7788505 Z" id="Fill-3" fill="#DCE1DE"></path>
                            <path d="M86.1377523,126.761407 C86.2270232,127.699407 85.5369652,128.531378 84.597991,128.619844 L83.611449,128.713514 C82.6731265,128.80198 81.8371071,128.113766 81.749791,127.175116 L79.5271394,103.740727 C79.4391716,102.803378 80.1292297,101.971407 81.0695071,101.88164 L82.0547458,101.78797 C82.9930684,101.700805 83.8277845,102.388368 83.9164039,103.327669 L86.1377523,126.761407 Z" id="Fill-5" fill="#DCE1DE"></path>
                            <path d="M39.3355252,109.530503 C61.3619961,114.209445 85.0305316,112.129192 107.086325,102.066183 C129.142119,92.0044738 146.209815,75.5016583 157.080022,55.8121146 L39.3355252,109.530503 Z" id="Fill-7" fill="#AFCECA"></path>
                            <path d="M114.777899,42.0966291 C122.115712,58.1265417 114.862608,76.6517165 98.8055632,83.9774835 C82.7485181,91.3032505 63.9690342,84.6539883 56.6312213,68.6240757 C49.29406,52.5954641 56.3614535,33.6630854 72.4178471,26.3373184 C88.4748923,19.0122019 107.440086,26.0667165 114.777899,42.0966291" id="Fill-9" fill="#EF5555"></path>
                            <path d="M120.390371,28.754067 C118.651216,25.4522029 116.076042,24.8075718 105.563571,26.9866981 C97.4959516,28.6597466 81.8324806,35.8742806 77.7090742,37.8959893 C73.4801065,39.6848243 57.7658097,46.7855233 51.2184032,51.7799505 C42.6868355,58.2880573 41.4898226,60.6551738 42.8529968,64.128766 C44.216171,67.6023583 47.9909645,76.3461835 47.6834032,77.1690476 C47.3901774,77.953533 83.9580419,60.6811932 87.3966032,59.0556301 C90.8775194,57.5243874 127.891087,41.2271252 127.105894,40.9350573 C126.282255,40.6280282 122.128874,32.0565816 120.390371,28.754067" id="Fill-11" fill="#DCE1DE"></path>
                            <path d="M143.536639,38.2169388 C139.572226,37.5222204 123.309271,38.3437835 117.087019,41.1831524 C112.430594,43.3069874 93.5214387,51.9337252 86.9056129,54.9519777 C86.9368903,54.937667 86.6853677,55.0521524 86.1034774,55.318201 C85.9040839,55.4092689 85.6753677,55.5133466 85.4108129,55.6336864 C85.1690645,55.7449194 84.9006,55.8665602 84.6086774,55.9992592 C77.9928516,59.0181621 59.0830452,67.6449 54.427271,69.7693854 C48.2063226,72.6081039 36.9392839,84.3461136 34.8704129,87.7923854 C32.8034968,91.2386573 32.1564452,93.8087252 36.2231613,94.2289388 C39.8637226,94.6049194 82.9229548,73.3496573 91.9002258,68.8957835 C101.150523,65.0345019 145.429574,46.4442786 147.527116,43.4494437 C149.871619,40.1046476 147.5004,38.9103563 143.536639,38.2169388" id="Fill-13" fill="#AFCECA"></path>
                            <path d="M98.9046735,84.1838175 C132.78659,68.7250311 166.978022,54.7987883 201.399474,42.3719146 C199.199628,39.8707981 195.659415,37.3924485 190.155241,37.0912738 C178.666654,36.4622544 152.971603,37.8412835 134.160841,44.4664777 C118.894203,49.8420893 97.1518348,60.0156816 89.502551,63.6564485 C81.7379316,67.0474291 59.8039897,76.8001573 45.74088,84.8050311 C28.4112348,94.6683417 10.5518284,113.159041 3.50919613,122.24372 C0.135144516,126.594817 -0.305345806,130.889973 0.14948,134.186633 C32.0934994,116.337313 65.0208026,99.6413029 98.9046735,84.1838175" id="Fill-15" fill="#DCE1DE"></path>
                            <path d="M103.222261,125.417179 C103.550022,126.498285 102.937506,127.639237 101.855177,127.965781 L100.718764,128.308586 C99.6364348,128.635781 98.4928542,128.024324 98.1663961,126.943868 L89.9860477,99.9396155 C89.6582865,98.8585087 90.2708026,97.7169068 91.35248,97.3903631 L92.4901961,97.0482078 C93.5725252,96.7216641 94.714151,97.3318194 95.0432155,98.4122757 L103.222261,125.417179 Z" id="Fill-17" fill="#DCE1DE"></path>
                            <path d="M62.4767103,48.8184204 C61.6015942,49.2692068 61.2028071,50.3288476 61.5885619,51.1738282 L65.115091,58.8788282 C65.5028006,59.7231583 66.2892974,60.1915078 66.8620652,59.9202553 C67.4354845,59.6490029 69.6587877,58.5822068 70.5365103,58.1353233 L74.2024845,56.293799 C75.0847684,55.8560223 75.4900716,54.8074398 75.1023619,53.9637602 L71.5393426,46.179401 C71.1529361,45.3350709 70.1110071,44.994867 69.2254652,45.4235369 L62.4767103,48.8184204 Z" id="Fill-19" fill="#C2414B"></path>
                            <path d="M52.5580542,54.7067447 C50.9974413,55.8665602 49.9750606,56.6907252 49.9750606,56.6907252 C49.2107187,57.3047835 48.9025058,58.4984243 49.2895639,59.3434049 L52.2270348,65.7623951 C52.6140929,66.6067252 53.6247445,66.8909874 54.4744477,66.3953175 L61.1156865,62.7428417 C61.9908026,62.2933563 62.3908929,61.2324146 62.0044865,60.3880845 L58.5574542,52.858065 C58.1690929,52.013735 57.1643058,51.7379291 56.3211187,52.2433563 C56.3211187,52.2433563 53.9700994,53.6549097 52.5580542,54.7067447" id="Fill-21" fill="#C2414B"></path>
                            <path d="M82.4854619,39.3524262 C82.4854619,39.3524262 81.51912,39.8025621 80.1969974,40.4062126 C78.0929394,41.3656786 75.6076877,42.4604456 75.6076877,42.4604456 C74.7065071,42.8565913 74.2855652,43.8726495 74.6726232,44.7163291 L75.8324942,47.2506204 L78.2160942,52.4564553 L78.2167458,52.4571058 C78.6031523,53.3020864 79.6483394,53.6487951 80.537791,53.2272806 C80.537791,53.2272806 81.2617329,52.8864262 82.258049,52.4206786 C82.3805523,52.3796981 82.4900232,52.3387175 82.5682168,52.3009893 C83.3527587,51.9256592 84.6364361,51.3408728 85.4216297,50.999368 C85.5265394,50.9531835 85.6633781,50.8777272 85.8204168,50.7788534 C86.7561329,50.3553874 87.3927587,50.0717757 87.3927587,50.0717757 C88.2685265,49.680834 88.6829523,48.7064068 88.3480232,47.8763874 C88.3434619,47.8646786 88.3441135,47.8497175 88.3389006,47.8380087 L88.3245652,47.8067854 L85.9553006,42.6321738 L84.8104168,40.1304068 C84.4240103,39.2854262 83.37752,38.9361155 82.4854619,39.3524262" id="Fill-23" fill="#C2414B"></path>
                            <path d="M88.8956387,36.4470981 C87.9912,36.8367388 87.5663484,37.8456417 87.9540581,38.6893214 L91.494271,46.4203408 C91.8800258,47.2653214 92.9375935,47.6426029 93.8446387,47.256865 L99.9489484,44.7193214 C100.861206,44.3485447 101.735019,43.9875252 101.893361,43.9166223 C102.0504,43.8463699 102.150097,42.9695155 101.76369,42.1251854 L98.2475871,34.4436029 C97.860529,33.5999233 96.7964452,33.2083311 95.8828839,33.5739039 L88.8956387,36.4470981 Z" id="Fill-25" fill="#C2414B"></path>
                            <path d="M106.902179,29.9136874 C105.163025,30.2961728 102.503792,31.1645709 102.503792,31.1645709 C101.567425,31.470299 101.119115,32.4115515 101.507476,33.2558816 L104.930399,40.7345126 C105.316154,41.5788427 106.375676,41.9593767 107.283373,41.5807942 L114.322095,38.8084252 C115.243476,38.4643184 115.683315,37.4905417 115.296257,36.6462117 L112.477379,30.490668 C112.090973,29.6463379 110.985186,29.0999301 110.019495,29.2749107 C110.019495,29.2749107 108.765141,29.5038816 106.902179,29.9136874" id="Fill-27" fill="#C2414B"></path>
                            <path d="M67.6997787,3.9390233 C68.85574,6.46485825 67.7427852,9.44603301 65.2138755,10.5999942 C62.6849658,11.7539553 59.6960174,10.6435767 58.5394045,8.11839223 C57.3840948,5.59255728 58.4977013,2.61008155 61.0272626,1.45612039 C63.5568239,0.302159223 66.544469,1.41383883 67.6997787,3.9390233" id="Fill-29" fill="#EF5555"></path>
                            <rect id="Rectangle" fill="#FFD811" style="mix-blend-mode: screen;" x="0" y="0.349514563" width="202" height="134"></rect>
                        </g>
                    </g>
                </g>
                <g id="Group" transform="translate(0.000000, 210.000000)">
                    <ellipse id="Oval" fill="#FDFAE1" cx="186.5" cy="41" rx="186.5" ry="41"></ellipse>
                    <ellipse id="Oval-Copy" fill="#FFD811" opacity="0.11728939" cx="190" cy="38" rx="57" ry="13"></ellipse>
                </g>
            </g>
            <g id="Group-5" opacity="0.300000012">
                <g id="Page-1" transform="translate(354.000000, 58.000000)">
                    <mask id="mask-3" fill="white">
                        <use xlink:href="#path-2"></use>
                    </mask>
                    <g id="Clip-2"></g>
                    <path d="M60.7389816,13.5807719 C58.9789816,13.5807719 57.42529,14.4398737 56.4699859,15.7541021 C55.5149929,14.4398737 53.9609901,13.5807719 52.2009901,13.5807719 C51.1417539,13.5807719 50.1575106,13.8935367 49.3316549,14.4272398 C49.6450071,13.6427086 49.8226874,12.7903859 49.8226874,11.8952315 C49.8226874,8.08720438 46.7053465,5.00023111 42.8598586,5.00023111 C40.8048656,5.00023111 38.9636492,5.88706571 37.6893918,7.28911486 C36.88843,3.13781681 33.2053748,0 28.7801697,0 C23.949505,0 20.0022631,3.73900316 19.7246959,8.45327787 C18.7606789,7.3716971 17.3541726,6.68577151 15.782744,6.68577151 C13.1100707,6.68577151 10.9085149,8.66065788 10.5715134,11.2163932 C9.51818953,10.5819274 8.28594059,10.2099992 6.96314003,10.2099992 C3.11765205,10.2099992 0,13.2969725 0,17.1049996 C0,20.9130267 3.11765205,24 6.96314003,24 L60.7389816,24 C63.644413,24 66,21.6676681 66,18.79054 C66,15.9131038 63.644413,13.5807719 60.7389816,13.5807719" id="Fill-1" fill="url(#linearGradient-4)" mask="url(#mask-3)"></path>
                </g>
                <g id="Page-1" transform="translate(40.000000, 142.000000)">
                    <mask id="mask-6" fill="white">
                        <use xlink:href="#path-5"></use>
                    </mask>
                    <g id="Clip-2"></g>
                    <path d="M50.2642728,15.4346582 C48.9328817,15.4346582 47.710911,15.8960696 46.7375934,16.6633271 C45.6905644,13.6134537 42.8184419,11.4226577 39.4372196,11.4226577 C39.1083031,11.4226577 38.7846283,11.4457778 38.4665228,11.4860729 C38.4668504,11.4646042 38.4697988,11.4441264 38.4697988,11.4226577 C38.4697988,8.22910933 35.9016948,5.63998679 32.7340716,5.63998679 C31.5186531,5.63998679 30.3933262,6.02378069 29.4658734,6.67411648 C28.0774788,2.78300121 24.385686,0 20.0481815,0 C14.5217946,0 10.0417815,4.51634922 10.0417815,10.0882968 C10.0417815,10.147088 10.0450575,10.2048883 10.046368,10.2636794 C9.49697257,10.1487394 8.92792081,10.0882968 8.34445439,10.0882968 C3.7360197,10.0882968 0,13.8545635 0,18.5010459 C0,23.1471981 3.7360197,26.913795 8.34445439,26.913795 L38.288305,26.913795 C38.6630864,26.9699439 39.0467131,27 39.4372196,27 C39.8280536,27 40.2113527,26.9699439 40.5864617,26.913795 L49.3112667,26.913795 C49.6218373,26.9663107 49.93896,27 50.2642728,27 C53.431896,27 56,24.4108775 56,21.2173291 C56,18.0237807 53.431896,15.4346582 50.2642728,15.4346582" id="Fill-1" fill="url(#linearGradient-4)" mask="url(#mask-6)"></path>
                </g>
                <g id="Page-1-Copy" transform="translate(328.000000, 0.000000)">
                    <mask id="mask-8" fill="white">
                        <use xlink:href="#path-7"></use>
                    </mask>
                    <g id="Clip-2"></g>
                    <path d="M18.8491023,5.71654006 C18.3498306,5.71654006 17.8915916,5.88743318 17.5265975,6.17160263 C17.1339616,5.04201989 16.0569157,4.23061397 14.7889573,4.23061397 C14.6656136,4.23061397 14.5442356,4.23917697 14.424946,4.25410107 C14.4250689,4.24614971 14.4261746,4.23856533 14.4261746,4.23061397 C14.4261746,3.04781827 13.4631355,2.088884 12.2752769,2.088884 C11.8194949,2.088884 11.3974973,2.23102988 11.0497025,2.47189499 C10.5290546,1.03074119 9.14463223,0 7.51806806,0 C5.44567297,0 3.76566805,1.67272193 3.76566805,3.73640623 C3.76566805,3.75818073 3.76689658,3.77958824 3.76738799,3.80136274 C3.56136471,3.75879237 3.3479703,3.73640623 3.1291704,3.73640623 C1.40100739,3.73640623 0,5.1313198 0,6.85223923 C0,8.57303632 1.40100739,9.96807222 3.1291704,9.96807222 L14.3581144,9.96807222 C14.4986574,9.98886809 14.6425174,10 14.7889573,10 C14.9355201,10 15.0792573,9.98886809 15.2199231,9.96807222 L18.491725,9.96807222 C18.608189,9.98752248 18.72711,10 18.8491023,10 C20.036961,10 21,9.04106573 21,7.85827003 C21,6.67547433 20.036961,5.71654006 18.8491023,5.71654006" id="Fill-1" fill="url(#linearGradient-4)" mask="url(#mask-8)"></path>
                </g>
                <g id="Group-3" transform="translate(0.000000, 61.000000)">
                    <mask id="mask-10" fill="white">
                        <use xlink:href="#path-9"></use>
                    </mask>
                    <g id="Clip-2"></g>
                    <path d="M86.2037863,27.3359857 C85.5166485,27.3359857 84.8643187,27.4840567 84.2734403,27.7464281 C83.7869863,23.6506629 80.3298105,20.4749295 76.1334996,20.4749295 C73.6165725,20.4749295 71.3656481,21.6183667 69.8611642,23.4168666 C69.0614372,19.6977732 65.7787317,16.9117003 61.8479937,16.9117003 C60.7848423,16.9117003 59.7698207,17.1177875 58.8373072,17.4888309 C59.5781612,16.0613745 59.9992964,14.4395207 59.9992964,12.7172211 C59.9992964,7.02038404 55.4153692,2.40204074 49.7609853,2.40204074 C45.9234987,2.40204074 42.580631,4.53088616 40.8277634,7.67934331 C38.560939,3.12637639 33.8884875,0 28.4889333,0 C20.8676763,0 14.6894518,6.22461063 14.6894518,13.903088 C14.6894518,15.207152 14.8716572,16.4679203 15.2051275,17.6650441 C13.7337328,16.8406955 12.0405977,16.3696392 10.2383111,16.3696392 C4.58349743,16.3696392 0,20.9879825 0,26.6848196 C0,32.3816567 4.58349743,37 10.2383111,37 L86.2037863,37 C88.8526405,37 91,34.8365181 91,32.1682093 C91,29.4994676 88.8526405,27.3359857 86.2037863,27.3359857" id="Fill-1" fill="url(#linearGradient-4)" mask="url(#mask-10)"></path>
                </g>
                <g id="Group-6" transform="translate(411.000000, 110.000000)">
                    <mask id="mask-12" fill="white">
                        <use xlink:href="#path-11"></use>
                    </mask>
                    <g id="Clip-5"></g>
                    <path d="M42.1135095,15.3859365 C41.6524975,15.3859365 41.2081054,15.4536947 40.7844244,15.5713129 C41.6218145,14.3603574 42.1135095,12.8921761 42.1135095,11.3086779 C42.1135095,7.16340532 38.7529545,3.80310603 34.6079376,3.80310603 C32.1267061,3.80310603 29.9275025,5.00792495 28.5613422,6.86347905 C27.9216017,3.04830437 24.6055371,0.140323562 20.6085657,0.140323562 C16.1536506,0.140323562 12.5425178,3.75145633 12.5425178,8.20611575 C12.5425178,9.32323244 12.769572,10.3869096 13.179957,11.3539353 C12.9705456,11.3270877 12.7588329,11.3086779 12.5425178,11.3086779 C9.87207451,11.3086779 7.70048557,13.4189008 7.58925971,16.0619851 C6.85619184,15.6347244 6.00652858,15.3859365 5.09677779,15.3859365 C2.35525223,15.3859365 0.13303635,17.608408 0.13303635,20.3496779 C0.13303635,23.0912035 2.35525223,25.3134194 5.09677779,25.3134194 L42.1135095,25.3134194 C44.8547793,25.3134194 47.0772509,23.0912035 47.0772509,20.3496779 C47.0772509,17.608408 44.8547793,15.3859365 42.1135095,15.3859365" id="Fill-4" fill="url(#linearGradient-4)" mask="url(#mask-12)"></path>
                </g>
            </g>
            <g id="404" transform="translate(203.000000, 175.000000)" opacity="0.850000024">
                <g id="Group">
                    <path d="M45.2642487,60.7196687 L45.2642487,74.9927567 C45.2642487,80.0405821 41.1721777,84.1326531 36.1243523,84.1326531 C31.0765269,84.1326531 26.984456,80.0405821 26.984456,74.9927567 L26.984456,60.7576531 L9.35751295,60.7576531 C6.92019507,60.7576531 4.85285823,59.9119983 3.15544041,58.2206633 C1.4580226,56.5293283 0.609326425,54.426033 0.609326425,51.9107143 L6.70259067,8.97704082 C6.70259067,6.46172212 7.55128685,4.38011028 9.24870466,2.73214286 C10.9461225,1.08417543 13.0134593,0.260204082 15.4507772,0.260204082 C17.9751422,0.260204082 20.1077633,1.08417543 21.8487047,2.73214286 C23.589646,4.38011028 24.4601036,6.46172212 24.4601036,8.97704082 L19.2373057,43.1938776 L26.984456,43.1938776 L26.984456,36.8949984 C26.984456,31.847173 31.0765269,27.755102 36.1243523,27.755102 C41.1721777,27.755102 45.2642487,31.847173 45.2642487,36.8949984 L45.2642487,43.2318619 C47.3600212,43.4784101 49.1662226,44.3981388 50.6829016,45.9910714 C52.2932723,47.6824064 53.0984456,49.655601 53.0984456,51.9107143 C53.0984456,54.2525627 52.2932723,56.2691242 50.6829016,57.9604592 C49.1662226,59.5533918 47.3600212,60.4731206 45.2642487,60.7196687 Z" id="Path" fill="url(#linearGradient-4)"></path>
                    <path d="M83.3906736,7.63010204 C80.7242241,7.63010204 78.3018847,8.10668433 76.0635772,9.05379226 C73.7669388,10.025582 71.7874564,11.3507807 70.0782288,13.0538832 C68.3703651,14.7556266 67.0426075,16.7247421 66.0694839,19.0080793 C65.1224462,21.2302085 64.646114,23.6339559 64.646114,26.2806122 L64.646114,57.1147959 C64.646114,59.7614523 65.1224462,62.1651996 66.0694839,64.3873289 C67.0344558,66.6515389 68.3459595,68.5813538 70.0292687,70.2281348 C71.7673864,71.9285349 73.7914967,73.2836105 76.1429503,74.3106909 C78.3600695,75.2790959 80.7541176,75.7653061 83.3906736,75.7653061 C86.0272295,75.7653061 88.4212776,75.2790959 90.6383969,74.3106909 C92.9708032,73.2919301 94.9555004,71.9527781 96.6378333,70.276474 C98.318879,68.6014525 99.6607361,66.6269739 100.681081,64.3076536 C101.649349,62.1067087 102.135233,59.7313802 102.135233,57.1147959 L102.135233,26.2806122 C102.135233,23.664028 101.649349,21.2886995 100.681081,19.0877545 C99.6523581,16.7493904 98.2944938,14.7356255 96.5893155,13.0050936 C94.9353294,11.3265151 92.9952777,10.0174872 90.71777,9.05379226 C88.4794624,8.10668433 86.0571231,7.63010204 83.3906736,7.63010204 Z" id="Path" stroke="url(#linearGradient-13)" stroke-width="15"></path>
                    <path d="M160.165803,60.703388 L160.165803,74.9927567 C160.165803,80.0405821 156.073732,84.1326531 151.025907,84.1326531 C145.978081,84.1326531 141.88601,80.0405821 141.88601,74.9927567 L141.88601,60.7576531 L124.128497,60.7576531 C121.69118,60.7576531 119.623843,59.9119983 117.926425,58.2206633 C116.229007,56.5293283 115.380311,54.426033 115.380311,51.9107143 L121.473575,8.97704082 C121.473575,6.46172212 122.322271,4.38011028 124.019689,2.73214286 C125.717107,1.08417543 127.784444,0.260204082 130.221762,0.260204082 C131.411529,0.260204082 132.514276,0.443238106 133.530008,0.809308742 C134.669386,1.2199412 135.699277,1.86088469 136.619689,2.73214286 C138.36063,4.38011028 139.231088,6.46172212 139.231088,8.97704082 L134.00829,43.1938776 L141.88601,43.1938776 L141.88601,36.8949984 C141.88601,31.847173 145.978081,27.755102 151.025907,27.755102 C156.073732,27.755102 160.165803,31.847173 160.165803,36.8949984 L160.165803,43.2481426 C162.206116,43.5170127 163.968795,44.431315 165.453886,45.9910714 C167.064257,47.6824064 167.86943,49.655601 167.86943,51.9107143 C167.86943,54.2525627 167.064257,56.2691242 165.453886,57.9604592 C163.968795,59.5202156 162.206116,60.4345179 160.165803,60.703388 Z" id="Path" fill="url(#linearGradient-4)"></path>
                </g>
            </g>
        </g>
    </g>
</svg>