<?xml version="1.0" encoding="UTF-8"?>
<svg width="1561px" height="454px" viewBox="0 0 1561 454" version="1.1" xmlns="http://www.w3.org/2000/svg" xmlns:xlink="http://www.w3.org/1999/xlink">
    <!-- Generator: Sketch 49.3 (51167) - http://www.bohemiancoding.com/sketch -->
    <title>bg</title>
    <desc>Created with Sketch.</desc>
    <defs>
        <polygon id="path-1" points="0 453.501 1560.904 453.501 1560.904 -5.68434189e-14 0 -5.68434189e-14"></polygon>
    </defs>
    <g id="bg" stroke="none" stroke-width="1" fill="none" fill-rule="evenodd">
        <g id="Page-1">
            <path d="M564.3286,370.1841 C564.3286,390.6231 578.1876,407.1931 595.2846,407.1931 C612.3806,407.1931 626.2396,390.6231 626.2396,370.1841 C626.2396,349.7451 612.3806,333.1751 595.2846,333.1751 C578.1876,333.1751 564.3286,349.7451 564.3286,370.1841" id="Fill-1" fill="#FABF62"></path>
            <path d="M237.6704,354.9868 C244.9644,351.0038 249.9144,343.2638 249.9144,334.3678 C249.9144,321.3998 239.4014,310.8868 226.4334,310.8868 C213.4654,310.8868 202.9534,321.3998 202.9534,334.3678 C202.9534,343.2638 207.9024,351.0038 215.1964,354.9868 C204.8744,359.3658 197.6334,369.5918 197.6334,381.5108 C197.6334,397.4178 210.5274,410.3118 226.4334,410.3118 C242.3394,410.3118 255.2334,397.4178 255.2334,381.5108 C255.2334,369.5918 247.9924,359.3648 237.6704,354.9868" id="Fill-3" fill="#25CE9E"></path>
            <path d="M626.2128,176.3804 C626.2128,192.8834 639.5918,206.2624 656.0948,206.2624 C672.5978,206.2624 685.9768,192.8834 685.9768,176.3804 C685.9768,159.8764 672.5978,146.4974 656.0948,146.4974 C639.5918,146.4974 626.2128,159.8764 626.2128,176.3804" id="Fill-5" fill="#FABF62"></path>
            <path d="M656.0947,130.7915 C654.9107,130.7915 653.9507,129.8315 653.9507,128.6475 L653.9507,113.9825 C653.9507,112.7985 654.9107,111.8385 656.0947,111.8385 C657.2797,111.8385 658.2397,112.7985 658.2397,113.9825 L658.2397,128.6475 C658.2397,129.8315 657.2797,130.7915 656.0947,130.7915" id="Fill-7" fill="#1C3E58"></path>
            <path d="M656.0947,240.9223 C654.9107,240.9223 653.9507,239.9613 653.9507,238.7773 L653.9507,224.1123 C653.9507,222.9283 654.9107,221.9683 656.0947,221.9683 C657.2797,221.9683 658.2397,222.9283 658.2397,224.1123 L658.2397,238.7773 C658.2397,239.9613 657.2797,240.9223 656.0947,240.9223" id="Fill-9" fill="#1C3E58"></path>
            <path d="M608.3622,178.5249 L593.6972,178.5249 C592.5132,178.5249 591.5532,177.5649 591.5532,176.3799 C591.5532,175.1959 592.5132,174.2359 593.6972,174.2359 L608.3622,174.2359 C609.5472,174.2359 610.5072,175.1959 610.5072,176.3799 C610.5072,177.5649 609.5472,178.5249 608.3622,178.5249" id="Fill-11" fill="#1C3E58"></path>
            <path d="M718.4926,178.5249 L703.8276,178.5249 C702.6426,178.5249 701.6826,177.5649 701.6826,176.3799 C701.6826,175.1959 702.6426,174.2359 703.8276,174.2359 L718.4926,174.2359 C719.6776,174.2359 720.6376,175.1959 720.6376,176.3799 C720.6376,177.5649 719.6776,178.5249 718.4926,178.5249" id="Fill-13" fill="#1C3E58"></path>
            <path d="M689.8466,144.7729 C689.2986,144.7729 688.7496,144.5629 688.3306,144.1439 C687.4926,143.3059 687.4926,141.9499 688.3306,141.1119 L698.7006,130.7429 C699.5376,129.9049 700.8946,129.9049 701.7326,130.7429 C702.5706,131.5809 702.5706,132.9369 701.7326,133.7749 L691.3636,144.1439 C690.9446,144.5629 690.3956,144.7729 689.8466,144.7729" id="Fill-15" fill="#1C3E58"></path>
            <path d="M611.9736,222.646 C611.4246,222.646 610.8766,222.436 610.4576,222.017 C609.6196,221.18 609.6196,219.823 610.4576,218.985 L620.8276,208.616 C621.6646,207.778 623.0216,207.778 623.8596,208.616 C624.6966,209.454 624.6966,210.81 623.8596,211.648 L613.4896,222.017 C613.0706,222.436 612.5226,222.646 611.9736,222.646" id="Fill-17" fill="#1C3E58"></path>
            <path d="M622.3432,144.7729 C621.7942,144.7729 621.2452,144.5629 620.8272,144.1439 L610.4572,133.7749 C609.6192,132.9369 609.6192,131.5809 610.4572,130.7429 C611.2952,129.9049 612.6522,129.9049 613.4892,130.7429 L623.8592,141.1119 C624.6972,141.9499 624.6972,143.3059 623.8592,144.1439 C623.4402,144.5629 622.8912,144.7729 622.3432,144.7729" id="Fill-19" fill="#1C3E58"></path>
            <path d="M700.2162,222.646 C699.6672,222.646 699.1192,222.436 698.7002,222.017 L688.3302,211.648 C687.4932,210.81 687.4932,209.454 688.3302,208.616 C689.1682,207.778 690.5252,207.778 691.3632,208.616 L701.7322,218.985 C702.5702,219.823 702.5702,221.18 701.7322,222.017 C701.3132,222.436 700.7652,222.646 700.2162,222.646" id="Fill-21" fill="#1C3E58"></path>
            <path d="M997.6382,291.5141 C991.7052,285.0721 981.6722,284.6591 975.2292,290.5911 L968.8132,296.5001 L962.3962,290.5911 C955.9522,284.6591 945.9192,285.0721 939.9872,291.5141 C934.0532,297.9571 934.4662,307.9911 940.9092,313.9231 L968.8132,339.6181 L996.7152,313.9231 C1003.1592,307.9911 1003.5722,297.9571 997.6382,291.5141" id="Fill-23" fill="#FABF62"></path>
            <path d="M988.1772,261.9663 L1062.9952,261.9663 L1078.0522,242.0413 L973.1212,242.0413 L988.1772,261.9663 Z M1064.0632,266.2553 L987.1102,266.2553 C986.4382,266.2553 985.8052,265.9403 985.4002,265.4043 L967.1022,241.1913 C966.6112,240.5403 966.5312,239.6693 966.8922,238.9423 C967.2542,238.2133 967.9982,237.7523 968.8122,237.7523 L1082.3612,237.7523 C1083.1752,237.7523 1083.9182,238.2133 1084.2812,238.9423 C1084.6432,239.6693 1084.5622,240.5403 1084.0722,241.1913 L1065.7732,265.4043 C1065.3672,265.9403 1064.7352,266.2553 1064.0632,266.2553 Z" id="Fill-25" fill="#1C3E58"></path>
            <path d="M916.4771,246.352 C915.2921,246.352 914.3321,245.392 914.3321,244.207 L914.3321,232.1 C914.3321,230.915 915.2921,229.956 916.4771,229.956 C917.6621,229.956 918.6221,230.915 918.6221,232.1 L918.6221,244.207 C918.6221,245.392 917.6621,246.352 916.4771,246.352" id="Fill-27" fill="#1C3E58"></path>
            <path d="M916.4771,280.7466 C915.2921,280.7466 914.3321,279.7866 914.3321,278.6016 L914.3321,266.4946 C914.3321,265.3096 915.2921,264.3506 916.4771,264.3506 C917.6621,264.3506 918.6221,265.3096 918.6221,266.4946 L918.6221,278.6016 C918.6221,279.7866 917.6621,280.7466 916.4771,280.7466" id="Fill-29" fill="#1C3E58"></path>
            <path d="M905.3325,257.4946 L893.2255,257.4946 C892.0405,257.4946 891.0805,256.5346 891.0805,255.3496 C891.0805,254.1666 892.0405,253.2066 893.2255,253.2066 L905.3325,253.2066 C906.5175,253.2066 907.4775,254.1666 907.4775,255.3496 C907.4775,256.5346 906.5175,257.4946 905.3325,257.4946" id="Fill-31" fill="#1C3E58"></path>
            <path d="M939.7271,257.4946 L927.6221,257.4946 C926.4371,257.4946 925.4771,256.5346 925.4771,255.3496 C925.4771,254.1666 926.4371,253.2066 927.6221,253.2066 L939.7271,253.2066 C940.9121,253.2066 941.8721,254.1666 941.8721,255.3496 C941.8721,256.5346 940.9121,257.4946 939.7271,257.4946" id="Fill-33" fill="#1C3E58"></path>
            <path d="M1105.4282,391.1772 C1104.2432,391.1772 1103.2832,390.2172 1103.2832,389.0322 L1103.2832,376.9252 C1103.2832,375.7402 1104.2432,374.7812 1105.4282,374.7812 C1106.6132,374.7812 1107.5732,375.7402 1107.5732,376.9252 L1107.5732,389.0322 C1107.5732,390.2172 1106.6132,391.1772 1105.4282,391.1772" id="Fill-35" fill="#1C3E58"></path>
            <path d="M1105.4282,425.5718 C1104.2432,425.5718 1103.2832,424.6118 1103.2832,423.4268 L1103.2832,411.3218 C1103.2832,410.1368 1104.2432,409.1768 1105.4282,409.1768 C1106.6132,409.1768 1107.5732,410.1368 1107.5732,411.3218 L1107.5732,423.4268 C1107.5732,424.6118 1106.6132,425.5718 1105.4282,425.5718" id="Fill-37" fill="#1C3E58"></path>
            <path d="M1094.2856,402.3218 L1082.1786,402.3218 C1080.9936,402.3218 1080.0336,401.3618 1080.0336,400.1768 C1080.0336,398.9928 1080.9936,398.0328 1082.1786,398.0328 L1094.2856,398.0328 C1095.4706,398.0328 1096.4306,398.9928 1096.4306,400.1768 C1096.4306,401.3618 1095.4706,402.3218 1094.2856,402.3218" id="Fill-39" fill="#1C3E58"></path>
            <path d="M1128.6802,402.3218 L1116.5732,402.3218 C1115.3882,402.3218 1114.4282,401.3618 1114.4282,400.1768 C1114.4282,398.9928 1115.3882,398.0328 1116.5732,398.0328 L1128.6802,398.0328 C1129.8652,398.0328 1130.8252,398.9928 1130.8252,400.1768 C1130.8252,401.3618 1129.8652,402.3218 1128.6802,402.3218" id="Fill-41" fill="#1C3E58"></path>
            <path d="M1025.5874,442.9067 C1024.4024,442.9067 1023.4424,441.9467 1023.4424,440.7617 L1023.4424,239.8967 C1023.4424,238.7127 1024.4024,237.7527 1025.5874,237.7527 C1026.7724,237.7527 1027.7324,238.7127 1027.7324,239.8967 L1027.7324,440.7617 C1027.7324,441.9467 1026.7724,442.9067 1025.5874,442.9067" id="Fill-43" fill="#1C3E58"></path>
            <mask id="mask-2" fill="white">
                <use xlink:href="#path-1"></use>
            </mask>
            <g id="Clip-46"></g>
            <polygon id="Fill-45" fill="#FABF62" mask="url(#mask-2)" points="1055.212 359.316 1110.519 359.316 1110.519 305.384 1055.212 305.384"></polygon>
            <path d="M1057.357,357.171 L1108.376,357.171 L1108.376,307.528 L1057.357,307.528 L1057.357,357.171 Z M1110.52,361.46 L1055.212,361.46 C1054.028,361.46 1053.068,360.5 1053.068,359.316 L1053.068,305.384 C1053.068,304.2 1054.028,303.24 1055.212,303.24 L1110.52,303.24 C1111.705,303.24 1112.664,304.2 1112.664,305.384 L1112.664,359.316 C1112.664,360.5 1111.705,361.46 1110.52,361.46 Z" id="Fill-47" fill="#1C3E58" mask="url(#mask-2)"></path>
            <polygon id="Fill-48" fill="#FABF62" mask="url(#mask-2)" points="1098.688 305.384 1110.519 305.384 1110.519 285.986 1098.688 285.986"></polygon>
            <path d="M1100.833,303.24 L1108.376,303.24 L1108.376,288.13 L1100.833,288.13 L1100.833,303.24 Z M1110.52,307.529 L1098.689,307.529 C1097.504,307.529 1096.544,306.569 1096.544,305.384 L1096.544,285.986 C1096.544,284.801 1097.504,283.841 1098.689,283.841 L1110.52,283.841 C1111.705,283.841 1112.664,284.801 1112.664,285.986 L1112.664,305.384 C1112.664,306.569 1111.705,307.529 1110.52,307.529 Z" id="Fill-49" fill="#1C3E58" mask="url(#mask-2)"></path>
            <polygon id="Fill-50" fill="#FABF62" mask="url(#mask-2)" points="1086.764 305.384 1098.596 305.384 1098.596 285.986 1086.764 285.986"></polygon>
            <path d="M1088.908,303.24 L1096.452,303.24 L1096.452,288.13 L1088.908,288.13 L1088.908,303.24 Z M1098.596,307.529 L1086.763,307.529 C1085.58,307.529 1084.619,306.569 1084.619,305.384 L1084.619,285.986 C1084.619,284.801 1085.58,283.841 1086.763,283.841 L1098.596,283.841 C1099.781,283.841 1100.741,284.801 1100.741,285.986 L1100.741,305.384 C1100.741,306.569 1099.781,307.529 1098.596,307.529 Z" id="Fill-51" fill="#1C3E58" mask="url(#mask-2)"></path>
            <polygon id="Fill-52" fill="#FABF62" mask="url(#mask-2)" points="1074.84 305.384 1086.672 305.384 1086.672 285.986 1074.84 285.986"></polygon>
            <path d="M1076.985,303.24 L1084.529,303.24 L1084.529,288.13 L1076.985,288.13 L1076.985,303.24 Z M1086.673,307.529 L1074.84,307.529 C1073.656,307.529 1072.696,306.569 1072.696,305.384 L1072.696,285.986 C1072.696,284.801 1073.656,283.841 1074.84,283.841 L1086.673,283.841 C1087.858,283.841 1088.818,284.801 1088.818,285.986 L1088.818,305.384 C1088.818,306.569 1087.858,307.529 1086.673,307.529 Z" id="Fill-53" fill="#1C3E58" mask="url(#mask-2)"></path>
            <polygon id="Fill-54" fill="#FABF62" mask="url(#mask-2)" points="1074.8403 285.9858 1055.2123 305.3838 1074.8403 305.3838"></polygon>
            <path d="M1060.4321,303.2397 L1072.6961,303.2397 L1072.6961,291.1207 L1060.4321,303.2397 Z M1074.8401,307.5287 L1055.2121,307.5287 C1054.3421,307.5287 1053.5591,307.0047 1053.2291,306.1977 C1052.8991,305.3937 1053.0861,304.4687 1053.7041,303.8597 L1073.3321,284.4607 C1073.9491,283.8507 1074.8691,283.6707 1075.6661,284.0077 C1076.4651,284.3407 1076.9851,285.1207 1076.9851,285.9857 L1076.9851,305.3847 C1076.9851,306.5687 1076.0251,307.5287 1074.8401,307.5287 Z" id="Fill-55" fill="#1C3E58" mask="url(#mask-2)"></path>
            <polygon id="Fill-56" fill="#2B71B5" mask="url(#mask-2)" points="1055.212 346.108 1091.396 346.108 1091.396 322.719 1055.212 322.719"></polygon>
            <path d="M1057.357,343.963 L1089.252,343.963 L1089.252,324.862 L1057.357,324.862 L1057.357,343.963 Z M1091.396,348.252 L1055.212,348.252 C1054.028,348.252 1053.068,347.292 1053.068,346.108 L1053.068,322.718 C1053.068,321.534 1054.028,320.574 1055.212,320.574 L1091.396,320.574 C1092.581,320.574 1093.541,321.534 1093.541,322.718 L1093.541,346.108 C1093.541,347.292 1092.581,348.252 1091.396,348.252 Z" id="Fill-57" fill="#1C3E58" mask="url(#mask-2)"></path>
            <path d="M975.5542,367.7886 C971.9562,367.7886 969.0302,370.7156 969.0302,374.3116 C969.0302,377.9086 971.9562,380.8356 975.5542,380.8356 C979.1512,380.8356 982.0772,377.9086 982.0772,374.3116 C982.0772,370.7156 979.1512,367.7886 975.5542,367.7886 M975.5542,385.1246 C969.5912,385.1246 964.7412,380.2736 964.7412,374.3116 C964.7412,368.3496 969.5912,363.4996 975.5542,363.4996 C981.5162,363.4996 986.3672,368.3496 986.3672,374.3116 C986.3672,380.2736 981.5162,385.1246 975.5542,385.1246" id="Fill-58" fill="#1C3E58" mask="url(#mask-2)"></path>
            <path d="M1377.48,453.5014 L200.018,453.5014 C198.834,453.5014 197.874,452.5414 197.874,451.3564 C197.874,450.1724 198.834,449.2124 200.018,449.2124 L1377.48,449.2124 C1378.665,449.2124 1379.625,450.1724 1379.625,451.3564 C1379.625,452.5414 1378.665,453.5014 1377.48,453.5014" id="Fill-59" fill="#1C3E58" mask="url(#mask-2)"></path>
            <polygon id="Fill-60" fill="#EBF0F6" mask="url(#mask-2)" points="233.037 451.356 521.954 451.356 521.954 250.903 233.037 250.903"></polygon>
            <path d="M235.182,449.212 L519.81,449.212 L519.81,253.047 L235.182,253.047 L235.182,449.212 Z M521.954,453.501 L233.037,453.501 C231.853,453.501 230.893,452.541 230.893,451.357 L230.893,250.903 C230.893,249.718 231.853,248.758 233.037,248.758 L521.954,248.758 C523.139,248.758 524.099,249.718 524.099,250.903 L524.099,451.357 C524.099,452.541 523.139,453.501 521.954,453.501 Z" id="Fill-61" fill="#1C3E58" mask="url(#mask-2)"></path>
            <path d="M304.2114,281.1137 L209.9244,281.1137 C208.7394,281.1137 207.7794,280.1537 207.7794,278.9687 C207.7794,277.7847 208.7394,276.8247 209.9244,276.8247 L304.2114,276.8247 C305.3964,276.8247 306.3564,277.7847 306.3564,278.9687 C306.3564,280.1537 305.3964,281.1137 304.2114,281.1137" id="Fill-62" fill="#1C3E58" mask="url(#mask-2)"></path>
            <path d="M550.0209,281.1137 L344.9349,281.1137 C343.7509,281.1137 342.7909,280.1537 342.7909,278.9687 C342.7909,277.7847 343.7509,276.8247 344.9349,276.8247 L550.0209,276.8247 C551.2059,276.8247 552.1649,277.7847 552.1649,278.9687 C552.1649,280.1537 551.2059,281.1137 550.0209,281.1137" id="Fill-63" fill="#1C3E58" mask="url(#mask-2)"></path>
            <path d="M921.771,339.4956 C923.218,336.5666 924.053,333.2756 924.053,329.7816 C924.053,317.7256 914.362,307.9526 902.408,307.9526 C890.453,307.9526 880.761,317.7256 880.761,329.7816 C880.761,333.2756 881.596,336.5666 883.043,339.4956 C870.535,346.5416 862.051,360.1976 862.051,375.8936 C862.051,398.8026 880.12,417.3736 902.408,417.3736 C924.696,417.3736 942.764,398.8026 942.764,375.8936 C942.764,360.1976 934.281,346.5416 921.771,339.4956" id="Fill-64" fill="#25CE9E" mask="url(#mask-2)"></path>
            <path d="M829.5825,396.0493 C829.5825,416.3363 842.2405,432.7823 857.8545,432.7823 C873.4695,432.7823 886.1275,416.3363 886.1275,396.0493 C886.1275,375.7623 873.4695,359.3163 857.8545,359.3163 C842.2405,359.3163 829.5825,375.7623 829.5825,396.0493" id="Fill-65" fill="#FABF62" mask="url(#mask-2)"></path>
            <path d="M902.4077,453.5014 C901.2227,453.5014 900.2627,452.5414 900.2627,451.3564 L900.2627,382.9804 C900.2627,381.7954 901.2227,380.8354 902.4077,380.8354 C903.5927,380.8354 904.5527,381.7954 904.5527,382.9804 L904.5527,451.3564 C904.5527,452.5414 903.5927,453.5014 902.4077,453.5014" id="Fill-66" fill="#1C3E58" mask="url(#mask-2)"></path>
            <path d="M857.8539,453.5014 C856.6689,453.5014 855.7089,452.5414 855.7089,451.3564 L855.7089,423.7014 C855.7089,422.5184 856.6689,421.5574 857.8539,421.5574 C859.0389,421.5574 859.9989,422.5184 859.9989,423.7014 L859.9989,451.3564 C859.9989,452.5414 859.0389,453.5014 857.8539,453.5014" id="Fill-67" fill="#1C3E58" mask="url(#mask-2)"></path>
            <path d="M672.409,449.212 L794.694,449.212 L794.694,385.124 L672.409,385.124 L672.409,449.212 Z M796.838,453.501 L670.265,453.501 C669.08,453.501 668.12,452.541 668.12,451.357 L668.12,382.98 C668.12,381.795 669.08,380.835 670.265,380.835 L796.838,380.835 C798.023,380.835 798.983,381.795 798.983,382.98 L798.983,451.357 C798.983,452.541 798.023,453.501 796.838,453.501 Z" id="Fill-68" fill="#1C3E58" mask="url(#mask-2)"></path>
            <polygon id="Fill-69" fill="#4088DA" mask="url(#mask-2)" points="670.265 427.188 722.27 427.188 722.27 400.406 670.265 400.406"></polygon>
            <path d="M672.409,425.044 L720.125,425.044 L720.125,402.551 L672.409,402.551 L672.409,425.044 Z M722.27,429.332 L670.265,429.332 C669.08,429.332 668.12,428.373 668.12,427.188 L668.12,400.407 C668.12,399.222 669.08,398.262 670.265,398.262 L722.27,398.262 C723.455,398.262 724.414,399.222 724.414,400.407 L724.414,427.188 C724.414,428.373 723.455,429.332 722.27,429.332 Z" id="Fill-70" fill="#1C3E58" mask="url(#mask-2)"></path>
            <polygon id="Fill-71" fill="#4088DA" mask="url(#mask-2)" points="743.733 451.356 769.414 451.356 769.414 410.495 743.733 410.495"></polygon>
            <path d="M745.877,449.212 L767.269,449.212 L767.269,412.64 L745.877,412.64 L745.877,449.212 Z M769.414,453.501 L743.733,453.501 C742.548,453.501 741.588,452.541 741.588,451.357 L741.588,410.496 C741.588,409.311 742.548,408.351 743.733,408.351 L769.414,408.351 C770.598,408.351 771.558,409.311 771.558,410.496 L771.558,451.357 C771.558,452.541 770.598,453.501 769.414,453.501 Z" id="Fill-72" fill="#1C3E58" mask="url(#mask-2)"></path>
            <polygon id="Fill-73" fill="#FABF62" mask="url(#mask-2)" points="796.8383 382.979 670.2653 382.979 733.5513 336.569"></polygon>
            <path d="M676.8154,380.8354 L790.2884,380.8354 L733.5514,339.2274 L676.8154,380.8354 Z M796.8384,385.1244 L670.2644,385.1244 C669.3384,385.1244 668.5154,384.5274 668.2274,383.6474 C667.9374,382.7654 668.2494,381.7994 668.9964,381.2514 L732.2834,334.8394 C733.0374,334.2864 734.0654,334.2864 734.8194,334.8394 L798.1074,381.2514 C798.8544,381.7994 799.1654,382.7654 798.8754,383.6474 C798.5874,384.5274 797.7654,385.1244 796.8384,385.1244 Z" id="Fill-74" fill="#1C3E58" mask="url(#mask-2)"></path>
            <path d="M658.9848,393.3784 C658.3248,393.3784 657.6728,393.0754 657.2538,392.5024 C656.5538,391.5474 656.7598,390.2054 657.7148,389.5054 L732.2838,334.8394 C733.2388,334.1364 734.5818,334.3434 735.2808,335.3004 C735.9808,336.2554 735.7748,337.5974 734.8198,338.2974 L660.2518,392.9634 C659.8688,393.2444 659.4248,393.3784 658.9848,393.3784" id="Fill-75" fill="#1C3E58" mask="url(#mask-2)"></path>
            <path d="M808.1186,393.3784 C807.6786,393.3784 807.2336,393.2444 806.8516,392.9634 L732.2836,338.2974 C731.3286,337.5974 731.1226,336.2554 731.8226,335.3004 C732.5206,334.3454 733.8666,334.1364 734.8196,334.8394 L809.3886,389.5054 C810.3436,390.2054 810.5496,391.5474 809.8486,392.5024 C809.4306,393.0754 808.7786,393.3784 808.1186,393.3784" id="Fill-76" fill="#1C3E58" mask="url(#mask-2)"></path>
            <path d="M576.9511,354.6079 C582.1081,349.5409 585.3091,342.4899 585.3091,334.6889 C585.3091,319.2639 572.8051,306.7599 557.3811,306.7599 C541.9561,306.7599 529.4521,319.2639 529.4521,334.6889 C529.4521,342.4899 532.6541,349.5409 537.8111,354.6069 C531.1061,361.0999 526.8381,370.8589 526.8381,381.7749 C526.8381,401.3219 540.5131,417.1679 557.3811,417.1679 C574.2491,417.1679 587.9241,401.3219 587.9241,381.7749 C587.9241,370.8589 583.6561,361.0999 576.9511,354.6079" id="Fill-77" fill="#25CE9E" mask="url(#mask-2)"></path>
            <path d="M595.2836,453.5014 C594.0996,453.5014 593.1396,452.5414 593.1396,451.3564 L593.1396,394.8114 C593.1396,393.6264 594.0996,392.6664 595.2836,392.6664 C596.4686,392.6664 597.4286,393.6264 597.4286,394.8114 L597.4286,451.3564 C597.4286,452.5414 596.4686,453.5014 595.2836,453.5014" id="Fill-78" fill="#1C3E58" mask="url(#mask-2)"></path>
            <path d="M557.3813,453.5014 C556.1963,453.5014 555.2363,452.5414 555.2363,451.3564 L555.2363,384.6304 C555.2363,383.4454 556.1963,382.4854 557.3813,382.4854 C558.5663,382.4854 559.5263,383.4454 559.5263,384.6304 L559.5263,451.3564 C559.5263,452.5414 558.5663,453.5014 557.3813,453.5014" id="Fill-79" fill="#1C3E58" mask="url(#mask-2)"></path>
            <path d="M1225.5542,376.4565 C1224.3692,376.4565 1223.4092,375.4965 1223.4092,374.3115 L1223.4092,259.8905 C1223.4092,258.7065 1224.3692,257.7465 1225.5542,257.7465 C1226.7392,257.7465 1227.6992,258.7065 1227.6992,259.8905 L1227.6992,374.3115 C1227.6992,375.4965 1226.7392,376.4565 1225.5542,376.4565" id="Fill-80" fill="#1C3E58" mask="url(#mask-2)"></path>
            <path d="M636.145,333.0268 C635.275,333.0268 634.458,332.4958 634.136,331.6328 C633.723,330.5238 634.286,329.2878 635.395,328.8738 L717.667,298.1478 C718.781,297.7348 720.012,298.2958 720.427,299.4068 C720.841,300.5148 720.278,301.7518 719.169,302.1658 L636.895,332.8908 C636.647,332.9828 636.395,333.0268 636.145,333.0268" id="Fill-81" fill="#1C3E58" mask="url(#mask-2)"></path>
            <polygon id="Fill-82" fill="#25CE9E" mask="url(#mask-2)" points="781.888 319.142 831.784 319.142 831.784 280.253 781.888 280.253"></polygon>
            <path d="M784.033,316.998 L829.638,316.998 L829.638,282.397 L784.033,282.397 L784.033,316.998 Z M831.783,321.287 L781.888,321.287 C780.704,321.287 779.744,320.327 779.744,319.142 L779.744,280.252 C779.744,279.068 780.704,278.108 781.888,278.108 L831.783,278.108 C832.967,278.108 833.927,279.068 833.927,280.252 L833.927,319.142 C833.927,320.327 832.967,321.287 831.783,321.287 Z" id="Fill-83" fill="#1C3E58" mask="url(#mask-2)"></path>
            <path d="M827.645,265.2915 L788.571,265.2915 C787.386,265.2915 786.426,264.3315 786.426,263.1465 C786.426,261.9635 787.386,261.0035 788.571,261.0035 L827.645,261.0035 C828.829,261.0035 829.789,261.9635 829.789,263.1465 C829.789,264.3315 828.829,265.2915 827.645,265.2915" id="Fill-84" fill="#1C3E58" mask="url(#mask-2)"></path>
            <path d="M827.645,248.0942 L788.571,248.0942 C787.386,248.0942 786.426,247.1342 786.426,245.9502 C786.426,244.7662 787.386,243.8062 788.571,243.8062 L827.645,243.8062 C828.829,243.8062 829.789,244.7662 829.789,245.9502 C829.789,247.1342 828.829,248.0942 827.645,248.0942" id="Fill-85" fill="#1C3E58" mask="url(#mask-2)"></path>
            <polygon id="Fill-86" fill="#4088DA" mask="url(#mask-2)" points="1170.7798 255.0307 1125.6528 255.0307 1125.6528 340.3297 1170.7798 340.3297 1215.9058 340.3297 1215.9058 255.0307"></polygon>
            <path d="M1127.797,338.185 L1213.761,338.185 L1213.761,257.175 L1127.797,257.175 L1127.797,338.185 Z M1215.906,342.474 L1125.653,342.474 C1124.468,342.474 1123.508,341.514 1123.508,340.33 L1123.508,255.031 C1123.508,253.846 1124.468,252.886 1125.653,252.886 L1215.906,252.886 C1217.09,252.886 1218.05,253.846 1218.05,255.031 L1218.05,340.33 C1218.05,341.514 1217.09,342.474 1215.906,342.474 Z" id="Fill-87" fill="#1C3E58" mask="url(#mask-2)"></path>
            <path d="M1170.7798,340.3296 L1125.6528,340.3296 C1125.6528,349.0536 1129.8528,357.2436 1136.9358,362.3356 L1137.0728,362.4336 L1170.7798,362.4336 L1204.4858,362.4336 L1204.6228,362.3356 C1211.7068,357.2436 1215.9058,349.0536 1215.9058,340.3296 L1170.7798,340.3296 Z" id="Fill-88" fill="#FABF62" mask="url(#mask-2)"></path>
            <path d="M1137.772,360.2895 L1203.782,360.2895 C1209.506,355.9415 1213.061,349.4605 1213.668,342.4745 L1127.889,342.4745 C1128.501,349.5075 1132.089,356.0215 1137.772,360.2895 M1204.487,364.5785 L1137.072,364.5785 C1136.625,364.5785 1136.187,364.4375 1135.824,364.1785 C1128.06,358.5955 1123.508,349.7185 1123.508,340.3295 C1123.508,339.1445 1124.468,338.1855 1125.653,338.1855 L1215.906,338.1855 C1217.09,338.1855 1218.05,339.1445 1218.05,340.3295 C1218.05,349.7185 1213.499,358.5955 1205.874,364.0775 C1205.51,364.3405 1204.936,364.5785 1204.487,364.5785" id="Fill-89" fill="#1C3E58" mask="url(#mask-2)"></path>
            <polygon id="Fill-90" fill="#FABF62" mask="url(#mask-2)" points="1170.7798 362.4341 1137.0728 362.4341 1145.4648 381.8781 1170.7798 381.8781 1196.0938 381.8781 1204.4858 362.4341"></polygon>
            <path d="M1146.8755,379.7348 L1194.6835,379.7348 L1201.2255,364.5788 L1140.3335,364.5788 L1146.8755,379.7348 Z M1196.0935,384.0238 L1145.4655,384.0238 C1144.6085,384.0238 1143.8355,383.5138 1143.4965,382.7288 L1135.1035,363.2838 C1134.8165,362.6218 1134.8845,361.8588 1135.2785,361.2558 C1135.6765,360.6528 1136.3505,360.2898 1137.0715,360.2898 L1204.4865,360.2898 C1205.2085,360.2898 1205.8825,360.6528 1206.2795,361.2558 C1206.6755,361.8588 1206.7415,362.6218 1206.4555,363.2838 L1198.0625,382.7288 C1197.7235,383.5138 1196.9495,384.0238 1196.0935,384.0238 Z" id="Fill-91" fill="#1C3E58" mask="url(#mask-2)"></path>
            <polygon id="Fill-92" fill="#FABF62" mask="url(#mask-2)" points="1170.7798 234.9438 1109.5098 234.9438 1125.6528 255.0308 1170.7798 255.0308 1215.9058 255.0308 1232.0488 234.9438"></polygon>
            <path d="M1126.6802,252.8862 L1214.8792,252.8862 L1227.5732,237.0872 L1113.9862,237.0872 L1126.6802,252.8862 Z M1215.9062,257.1752 L1125.6532,257.1752 C1125.0022,257.1752 1124.3882,256.8802 1123.9812,256.3742 L1107.8392,236.2862 C1107.3232,235.6442 1107.2212,234.7602 1107.5772,234.0172 C1107.9352,233.2732 1108.6852,232.7992 1109.5112,232.7992 L1232.0472,232.7992 C1232.8732,232.7992 1233.6242,233.2732 1233.9812,234.0172 C1234.3372,234.7602 1234.2362,235.6442 1233.7192,236.2862 L1217.5772,256.3742 C1217.1702,256.8802 1216.5562,257.1752 1215.9062,257.1752 Z" id="Fill-93" fill="#1C3E58" mask="url(#mask-2)"></path>
            <polygon id="Fill-94" fill="#4088DA" mask="url(#mask-2)" points="1151.243 398.938 1164.267 398.938 1164.267 381.878 1151.243 381.878"></polygon>
            <path d="M1153.388,396.794 L1162.122,396.794 L1162.122,384.023 L1153.388,384.023 L1153.388,396.794 Z M1164.267,401.083 L1151.244,401.083 C1150.059,401.083 1149.099,400.124 1149.099,398.939 L1149.099,381.879 C1149.099,380.695 1150.059,379.735 1151.244,379.735 L1164.267,379.735 C1165.452,379.735 1166.412,380.695 1166.412,381.879 L1166.412,398.939 C1166.412,400.124 1165.452,401.083 1164.267,401.083 Z" id="Fill-95" fill="#1C3E58" mask="url(#mask-2)"></path>
            <polygon id="Fill-96" fill="#4088DA" mask="url(#mask-2)" points="1164.268 398.938 1177.292 398.938 1177.292 381.878 1164.268 381.878"></polygon>
            <path d="M1166.412,396.794 L1175.147,396.794 L1175.147,384.023 L1166.412,384.023 L1166.412,396.794 Z M1177.292,401.083 L1164.267,401.083 C1163.083,401.083 1162.123,400.124 1162.123,398.939 L1162.123,381.879 C1162.123,380.695 1163.083,379.735 1164.267,379.735 L1177.292,379.735 C1178.476,379.735 1179.436,380.695 1179.436,381.879 L1179.436,398.939 C1179.436,400.124 1178.476,401.083 1177.292,401.083 Z" id="Fill-97" fill="#1C3E58" mask="url(#mask-2)"></path>
            <polygon id="Fill-98" fill="#4088DA" mask="url(#mask-2)" points="1177.292 398.938 1190.316 398.938 1190.316 381.878 1177.292 381.878"></polygon>
            <path d="M1179.436,396.794 L1188.171,396.794 L1188.171,384.023 L1179.436,384.023 L1179.436,396.794 Z M1190.315,401.083 L1177.292,401.083 C1176.107,401.083 1175.147,400.124 1175.147,398.939 L1175.147,381.879 C1175.147,380.695 1176.107,379.735 1177.292,379.735 L1190.315,379.735 C1191.5,379.735 1192.459,380.695 1192.459,381.879 L1192.459,398.939 C1192.459,400.124 1191.5,401.083 1190.315,401.083 Z" id="Fill-99" fill="#1C3E58" mask="url(#mask-2)"></path>
            <path d="M1201.5972,422.3618 L1151.2432,422.3618 C1150.0592,422.3618 1149.0992,421.4018 1149.0992,420.2168 C1149.0992,419.0328 1150.0592,418.0728 1151.2432,418.0728 L1201.5972,418.0728 C1202.7822,418.0728 1203.7422,419.0328 1203.7422,420.2168 C1203.7422,421.4018 1202.7822,422.3618 1201.5972,422.3618" id="Fill-100" fill="#1C3E58" mask="url(#mask-2)"></path>
            <polygon id="Fill-101" fill="#2B71B5" mask="url(#mask-2)" points="273.761 360.6 481.231 360.6 481.231 318.041 273.761 318.041"></polygon>
            <path d="M275.905,358.455 L479.086,358.455 L479.086,320.185 L275.905,320.185 L275.905,358.455 Z M481.23,362.744 L273.761,362.744 C272.576,362.744 271.616,361.784 271.616,360.599 L271.616,318.041 C271.616,316.857 272.576,315.897 273.761,315.897 L481.23,315.897 C482.415,315.897 483.375,316.857 483.375,318.041 L483.375,360.599 C483.375,361.784 482.415,362.744 481.23,362.744 Z" id="Fill-102" fill="#1C3E58" mask="url(#mask-2)"></path>
            <polygon id="Fill-103" fill="#4088DA" mask="url(#mask-2)" points="297.15 451.356 377.496 451.356 377.496 360.6 297.15 360.6"></polygon>
            <path d="M299.293,449.212 L375.351,449.212 L375.351,362.743 L299.293,362.743 L299.293,449.212 Z M377.496,453.501 L297.149,453.501 C295.965,453.501 295.005,452.541 295.005,451.357 L295.005,360.599 C295.005,359.415 295.965,358.455 297.149,358.455 L377.496,358.455 C378.681,358.455 379.641,359.415 379.641,360.599 L379.641,451.357 C379.641,452.541 378.681,453.501 377.496,453.501 Z" id="Fill-104" fill="#1C3E58" mask="url(#mask-2)"></path>
            <polygon id="Fill-105" fill="#4088DA" mask="url(#mask-2)" points="377.495 451.356 457.842 451.356 457.842 360.6 377.495 360.6"></polygon>
            <path d="M379.641,449.212 L455.698,449.212 L455.698,362.743 L379.641,362.743 L379.641,449.212 Z M457.842,453.501 L377.496,453.501 C376.311,453.501 375.352,452.541 375.352,451.357 L375.352,360.599 C375.352,359.415 376.311,358.455 377.496,358.455 L457.842,358.455 C459.026,358.455 459.986,359.415 459.986,360.599 L459.986,451.357 C459.986,452.541 459.026,453.501 457.842,453.501 Z" id="Fill-106" fill="#1C3E58" mask="url(#mask-2)"></path>
            <path d="M835.4516,334.4946 L777.1186,334.4946 C775.9336,334.4946 774.9736,333.5346 774.9736,332.3496 C774.9736,331.1656 775.9336,330.2056 777.1186,330.2056 L835.4516,330.2056 C836.6366,330.2056 837.5966,331.1656 837.5966,332.3496 C837.5966,333.5346 836.6366,334.4946 835.4516,334.4946" id="Fill-107" fill="#1C3E58" mask="url(#mask-2)"></path>
            <path d="M1037.144,453.5014 C1035.959,453.5014 1034.999,452.5414 1034.999,451.3564 C1034.999,446.6974 1030.778,442.9064 1025.587,442.9064 C1020.397,442.9064 1016.175,446.6974 1016.175,451.3564 C1016.175,452.5414 1015.215,453.5014 1014.031,453.5014 C1012.846,453.5014 1011.886,452.5414 1011.886,451.3564 C1011.886,444.3314 1018.034,438.6174 1025.587,438.6174 C1033.141,438.6174 1039.289,444.3314 1039.289,451.3564 C1039.289,452.5414 1038.329,453.5014 1037.144,453.5014" id="Fill-108" fill="#1C3E58" mask="url(#mask-2)"></path>
            <path d="M972.0024,453.5014 C970.8174,453.5014 969.8574,452.5414 969.8574,451.3564 C969.8574,446.6974 965.6344,442.9064 960.4434,442.9064 C955.2544,442.9064 951.0314,446.6974 951.0314,451.3564 C951.0314,452.5414 950.0714,453.5014 948.8884,453.5014 C947.7034,453.5014 946.7434,452.5414 946.7434,451.3564 C946.7434,444.3314 952.8904,438.6174 960.4434,438.6174 C967.9994,438.6174 974.1474,444.3314 974.1474,451.3564 C974.1474,452.5414 973.1874,453.5014 972.0024,453.5014" id="Fill-109" fill="#1C3E58" mask="url(#mask-2)"></path>
            <path d="M960.4438,442.9067 C959.8798,442.9067 959.3148,442.6827 958.8928,442.2427 C958.0758,441.3857 958.1068,440.0277 958.9638,439.2107 L1024.1058,377.0257 C1024.9628,376.2117 1026.3178,376.2397 1027.1388,377.0957 C1027.9568,377.9537 1027.9238,379.3107 1027.0688,380.1287 L961.9248,442.3127 C961.5088,442.7087 960.9768,442.9067 960.4438,442.9067" id="Fill-110" fill="#1C3E58" mask="url(#mask-2)"></path>
            <path d="M1102.2876,453.5014 C1101.1026,453.5014 1100.1426,452.5414 1100.1426,451.3564 C1100.1426,446.6974 1095.9196,442.9064 1090.7286,442.9064 C1085.5386,442.9064 1081.3166,446.6974 1081.3166,451.3564 C1081.3166,452.5414 1080.3566,453.5014 1079.1726,453.5014 C1077.9876,453.5014 1077.0276,452.5414 1077.0276,451.3564 C1077.0276,444.3314 1083.1756,438.6174 1090.7286,438.6174 C1098.2846,438.6174 1104.4316,444.3314 1104.4316,451.3564 C1104.4316,452.5414 1103.4716,453.5014 1102.2876,453.5014" id="Fill-111" fill="#1C3E58" mask="url(#mask-2)"></path>
            <path d="M1090.729,442.9067 C1090.197,442.9067 1089.664,442.7107 1089.248,442.3127 L1024.106,380.1287 C1023.25,379.3107 1023.218,377.9537 1024.036,377.0957 C1024.855,376.2387 1026.212,376.2087 1027.069,377.0257 L1092.21,439.2107 C1093.066,440.0277 1093.098,441.3857 1092.281,442.2427 C1091.858,442.6827 1091.293,442.9067 1090.729,442.9067" id="Fill-112" fill="#1C3E58" mask="url(#mask-2)"></path>
            <path d="M1144.6392,324.8628 C1143.4542,324.8628 1142.4942,323.9028 1142.4942,322.7178 L1142.4942,274.2918 C1142.4942,273.1068 1143.4542,272.1468 1144.6392,272.1468 C1145.8242,272.1468 1146.7842,273.1068 1146.7842,274.2918 L1146.7842,322.7178 C1146.7842,323.9028 1145.8242,324.8628 1144.6392,324.8628" id="Fill-113" fill="#1C3E58" mask="url(#mask-2)"></path>
            <path d="M1170.7798,324.8628 C1169.5948,324.8628 1168.6348,323.9028 1168.6348,322.7178 L1168.6348,274.2918 C1168.6348,273.1068 1169.5948,272.1468 1170.7798,272.1468 C1171.9638,272.1468 1172.9238,273.1068 1172.9238,274.2918 L1172.9238,322.7178 C1172.9238,323.9028 1171.9638,324.8628 1170.7798,324.8628" id="Fill-114" fill="#1C3E58" mask="url(#mask-2)"></path>
            <path d="M1196.9194,324.8628 C1195.7344,324.8628 1194.7744,323.9028 1194.7744,322.7178 L1194.7744,274.2918 C1194.7744,273.1068 1195.7344,272.1468 1196.9194,272.1468 C1198.1044,272.1468 1199.0644,273.1068 1199.0644,274.2918 L1199.0644,322.7178 C1199.0644,323.9028 1198.1044,324.8628 1196.9194,324.8628" id="Fill-115" fill="#1C3E58" mask="url(#mask-2)"></path>
            <g id="Group" mask="url(#mask-2)">
                <g transform="translate(0.000000, 160.000000)">
                    <path d="M108.499675,32.7824258 C92.3385578,32.7824258 79.1906519,45.8914207 79.1906519,62.0047088 L79.1906519,69.3529339 C79.1906519,70.1216853 78.5660174,70.7444712 77.7949841,70.7444712 C74.4837705,70.7444712 71.7906848,73.4302354 71.7906848,76.7316495 L71.7906848,79.5873825 C71.7906848,82.8887966 74.4837705,85.5745608 77.7949841,85.5745608 C78.5660174,85.5745608 79.1906519,86.1973467 79.1906519,86.9654494 C79.1906519,103.109228 92.3385578,116.218223 108.499675,116.218223 C124.660792,116.218223 137.808697,103.109228 137.808697,86.9952912 C137.808697,86.2271886 138.433332,85.5745608 139.203715,85.5745608 C142.514928,85.5745608 145.209315,82.8887966 145.209315,79.5873825 L145.209315,76.7316495 C145.209315,73.4302354 142.514928,70.7444712 139.203715,70.7444712 C138.433332,70.7444712 137.808697,70.1216853 137.808697,69.3529339 L137.808697,62.0047088 C137.808697,45.8914207 124.660792,32.7824258 108.499675,32.7824258 M108.499675,119 C91.2207223,119 77.087065,105.318821 76.4246922,88.2505941 C72.2233744,87.5921277 69,83.9585611 69,79.5873825 L69,76.7316495 C69,72.3695532 72.2110118,68.7405277 76.3999671,68.0716816 L76.3999671,62.0047088 C76.3999671,44.3571616 90.7997447,30 108.499675,30 C126.199605,30 140.599382,44.3571616 140.599382,62.0047088 L140.599382,68.0716816 C144.788338,68.7405277 148,72.3695532 148,76.7316495 L148,79.5873825 C148,83.9585611 144.775324,87.5927764 140.573356,88.2512428 C139.896018,105.333742 125.768867,119 108.499675,119" id="Fill-116" fill="#1C3E58"></path>
                    <path d="M142.677029,71 C142.677029,71 151.837253,52.4698916 146.124474,38.0557012 C140.411694,23.6421629 127.337217,24.000806 127.337217,24.000806 C127.337217,24.000806 119.828479,40.9567975 127.337217,52.6192175 C134.846598,64.2816375 138.82185,69.8738608 138.82185,69.8738608 C138.82185,69.8738608 140.632577,69.8288674 142.677029,71" id="Fill-117" fill="#4088DA"></path>
                    <path d="M140.092164,67.1821015 C140.683091,67.2462679 141.556213,67.4047588 142.556193,67.7884736 C144.42606,63.5502855 150.043427,49.1070793 145.420215,37.7194751 C140.923863,26.6443612 131.587475,25.0235189 128.687208,24.7899534 C127.332541,28.2485202 122.811594,41.5033655 128.93251,50.7831046 C135.095497,60.1289351 138.925196,65.5497093 140.092164,67.1821015 M143.233203,71 C142.996314,71 142.761367,70.9396836 142.551016,70.8229008 C140.87532,69.8854303 139.420332,69.8912053 139.369848,69.8918469 L139.35755,69.8918469 C138.911604,69.8918469 138.482486,69.6794563 138.221003,69.321408 C138.180874,69.2662249 134.108461,63.6619349 126.608931,52.2897308 C118.715233,40.3207794 126.183696,23.5207428 126.504726,22.8110628 C126.723492,22.3298151 127.201152,22.0141166 127.733828,22 C127.871689,22.0025667 141.945202,21.7888927 147.99557,36.6921717 C153.920374,51.2842439 144.86165,69.4741239 144.473308,70.2415536 C144.303085,70.5777853 144.001473,70.8306008 143.638373,70.9396836 C143.505042,70.9801084 143.369123,71 143.233203,71" id="Fill-118" fill="#1C3E58"></path>
                    <path d="M132.723299,36.6976047 C134.211222,33.8582074 135.077674,30.717534 134.99451,27.5080346 C134.895874,23.6816984 133.554292,18.8476456 128.213755,15.8381312 C118.28051,10.23985 96.3781185,10.2190723 83.9261053,19.4411075 C65.831844,32.8407513 63.251186,51.9393179 71.4302537,74 C71.4302537,74 72.9278476,69.07959 78.2490445,69.3178839 L78.2490445,65.5363495 C78.2490445,65.5363495 119.845151,61.2723838 132.723299,36.6976047" id="Fill-119" fill="#4088DA"></path>
                    <path d="M132.329889,37.1995047 L132.340881,37.1995047 L132.329889,37.1995047 Z M109.681303,13.8177573 C100.68058,13.8177573 90.8994066,16.0642491 84.208352,21.0189032 C68.3581567,32.7553579 63.9787102,49.6672088 71.1682962,71.318832 C72.2933865,70.0119597 73.9784356,68.8359701 76.3068554,68.5650888 L76.3068554,66.1206452 C76.3068554,65.4043724 76.8454762,64.8040056 77.5528606,64.7310761 C77.9628073,64.6887508 118.687198,60.2387436 131.103928,36.5476965 C132.561373,33.7653024 133.294622,30.8168633 133.222202,28.0207949 C133.098054,23.2471626 131.048967,19.7068217 127.129902,17.4987481 C122.894002,15.1122575 116.51267,13.8177573 109.681303,13.8177573 Z M70.8540468,76 C70.2772763,76 69.757407,75.6438171 69.55502,75.0968452 C60.5413651,50.7871989 64.9188719,31.8359241 82.5653321,18.7691555 C95.3415737,9.30914589 117.741217,9.00831133 128.484537,15.0614673 C134.50377,18.4533444 135.890735,23.941296 135.994192,27.9478653 C136.078897,31.2212318 135.235726,34.6463179 133.555849,37.8513129 C121.556179,60.7479484 86.3039944,66.426689 79.0801384,67.3617505 L79.0801384,69.9123327 C79.0801384,70.2939108 78.9256002,70.6579075 78.6520868,70.9216262 C78.3785735,71.1846936 78.0022501,71.3292505 77.6317462,71.30646 C73.4714984,71.1254383 72.2274329,74.8656844 72.1769978,75.0252179 C71.9965954,75.5917245 71.4786659,75.9856745 70.8883168,75.9993488 C70.8766779,76 70.8656856,76 70.8540468,76 Z" id="Fill-120" fill="#1C3E58"></path>
                    <path d="M148.600285,21 C148.188913,21 147.782111,20.8203215 147.505251,20.4733788 C124.055067,-8.89196057 88.3459859,7.13143705 87.9875043,7.2973946 C87.2836004,7.62212256 86.45302,7.31438238 86.1291459,6.61200298 C85.8052718,5.90962358 86.1115157,5.07722231 86.8134606,4.75314772 C87.1915314,4.57869628 124.888912,-12.3372132 149.693361,18.7242907 C150.17656,19.3286637 150.077961,20.2107216 149.473309,20.6935666 C149.215385,20.9000334 148.906529,21 148.600285,21" id="Fill-121" fill="#1C3E58"></path>
                    <path d="M98.8322944,126.857888 C104.864045,130.077905 112.137276,130.077905 118.167706,126.857888 L118.167706,117.276652 C111.916055,119.149804 105.085266,119.149804 98.8322944,117.276652 L98.8322944,126.857888 Z M108.50066,132 C104.413677,132 100.326694,130.935983 96.681494,128.80795 C96.2582017,128.561332 96,128.118945 96,127.642235 L96,115.363455 C96,114.915348 96.2291458,114.495843 96.612156,114.240962 C96.9958265,113.987988 97.4844947,113.930783 97.9203339,114.090322 C104.693671,116.573028 112.306989,116.573028 119.080326,114.090322 C119.515505,113.928876 120.003513,113.986717 120.387844,114.240962 C120.771515,114.495843 121,114.915348 121,115.363455 L121,127.642235 C121,128.118945 120.741798,128.561332 120.318506,128.80795 C116.673966,130.935983 112.586983,132 108.50066,132 Z" id="Fill-122" fill="#1C3E58"></path>
                    <path d="M100.633758,78 L88.366242,78 C87.611465,78 87,77.3285148 87,76.4996503 C87,75.6714852 87.611465,75 88.366242,75 L100.633758,75 C101.388535,75 102,75.6714852 102,76.4996503 C102,77.3285148 101.388535,78 100.633758,78" id="Fill-123" fill="#1C3E58"></path>
                    <path d="M127.633816,78 L115.366184,78 C114.612076,78 114,77.3285148 114,76.4996503 C114,75.6714852 114.612076,75 115.366184,75 L127.633816,75 C128.388561,75 129,75.6714852 129,76.4996503 C129,77.3285148 128.388561,78 127.633816,78" id="Fill-124" fill="#1C3E58"></path>
                    <path d="M94.9277886,97.82601 C95.9988853,103.735659 101.671707,108.174649 108.499949,108.174649 C115.327547,108.174649 121.001013,103.735659 122.07211,97.82601 L94.9277886,97.82601 Z M108.499949,111 C99.6370097,111 92.3903706,104.622534 92.0015831,96.4818597 C91.9835598,96.0950871 92.1200217,95.7188568 92.3807153,95.4388255 C92.6414089,95.1581353 93.0025179,95 93.3803627,95 L123.620179,95 C123.998024,95 124.359133,95.1581353 124.619183,95.4388255 C124.879877,95.7188568 125.016982,96.0950871 124.998315,96.4818597 C124.609528,104.623193 117.362245,111 108.499949,111 Z" id="Fill-125" fill="#1C3E58"></path>
                    <path d="M225.61105,294 L5.38895019,294 C4.62162806,294 4,293.328515 4,292.49965 C4,291.671485 4.62162806,291 5.38895019,291 L225.61105,291 C226.378372,291 227,291.671485 227,292.49965 C227,293.328515 226.378372,294 225.61105,294" id="Fill-126" fill="#1C3E58"></path>
                    <path d="M15,271.499685 C15,275.642345 18.3576551,279 22.5003145,279 C26.6423449,279 30,275.642345 30,271.499685 C30,267.357655 26.6423449,264 22.5003145,264 C18.3576551,264 15,267.357655 15,271.499685" id="Fill-127" fill="#4088DA"></path>
                    <path d="M15,245.5 C15,249.641857 18.3576551,253 22.5003145,253 C26.6423449,253 30,249.641857 30,245.5 C30,241.358143 26.6423449,238 22.5003145,238 C18.3576551,238 15,241.358143 15,245.5" id="Fill-128" fill="#4088DA"></path>
                    <path d="M150.172784,292 L169,292 L168.643289,213.797345 C168.643289,213.797345 170.427493,127.990943 119.120751,128 L97.3490463,128 C97.3490463,128 37,133.696664 37,218.900148 C37,289.209243 117.864479,290.909315 125.217918,291.92884 L125.217918,264.943759 C125.217918,264.943759 134.200554,259.128711 136.342118,251.534022 C138.483683,243.939333 143.59957,246.906049 143.24221,251.534022 C142.885499,256.162642 137.174877,264.943759 140.981958,264.943759 L150.172784,264.943759 C155.117449,264.943759 159.125586,268.940997 159.125586,273.873017 L159.125586,283.070095 C159.125586,288.001467 155.117449,292 150.172784,292" id="Fill-129" fill="#FABF62"></path>
                    <path d="M157.81141,291.221665 L168.207267,291.221665 L167.856473,214.308631 C167.867517,213.769677 168.634717,163.589287 146.306653,140.867057 C139.07704,133.509556 130.109046,129.778335 119.655372,129.778335 L119.646278,129.778335 L97.9132646,129.778335 C96.8784211,129.895583 82.5192365,131.709371 68.3679302,143.085709 C49.0151222,158.644124 38.7855675,185.036683 38.7855675,219.411853 C38.7855675,261.448982 68.0229823,286.172857 123.337414,290.91073 C123.708997,290.942472 124.051346,290.971622 124.361214,291.000124 L124.361214,265.51705 C124.361214,265.048056 124.599625,264.609508 124.995243,264.352987 C125.080343,264.297277 133.580611,258.714049 135.555454,251.713475 C137.211333,245.841984 140.436693,245.930082 141.383838,246.101744 C143.753649,246.520211 145.428367,249.197492 145.196453,252.196072 C145.045092,254.158202 144.105743,256.597099 143.197575,258.955024 C142.577188,260.566704 141.569629,263.182446 141.61965,264.128854 L150.749399,264.128854 C156.461501,264.128854 161.109527,268.76373 161.109527,274.459673 L161.109527,283.669182 C161.109527,286.647033 159.839522,289.33403 157.81141,291.221665 Z M169.607197,294 L150.749399,294 C149.9796,294 149.355966,293.37813 149.355966,292.610509 C149.355966,291.843536 149.9796,291.221665 150.749399,291.221665 C154.925152,291.221665 158.32331,287.833121 158.32331,283.669182 L158.32331,274.459673 C158.32331,270.294438 154.925152,266.906541 150.749399,266.906541 L141.543644,266.906541 C140.317813,266.906541 139.662347,266.329368 139.329092,265.845475 C138.193558,264.197519 139.254386,261.444448 140.596499,257.958736 C141.433209,255.787373 142.298502,253.540866 142.419331,251.9836 C142.547956,250.31038 141.72099,248.981781 140.897923,248.83603 C140.127474,248.699348 138.997786,249.768835 138.237082,252.466197 C136.294071,259.356001 129.315211,264.720279 127.147431,266.249691 L127.147431,292.539253 C127.147431,292.94023 126.972684,293.322421 126.668662,293.586068 C126.36529,293.850362 125.961876,293.968259 125.56236,293.915141 C125.06735,293.847124 124.229342,293.775868 123.098354,293.6787 C115.016441,292.986222 93.5465238,291.147818 73.8052435,281.163563 C48.7195455,268.477411 36,247.701117 36,219.411853 C36,174.788781 52.7186018,152.043878 66.743882,140.823008 C82.0053877,128.612328 97.0739565,127.066721 97.7079849,127.006478 C97.7515094,127.002591 97.7950339,127 97.839208,127 L119.646278,127 L119.656022,127 C130.888589,127 140.525041,131.013006 148.300984,138.926304 C171.448868,162.488706 170.686215,212.226014 170.642041,214.331951 L170.999981,292.604031 C171.00193,292.973914 170.855765,293.328898 170.593969,293.590602 C170.332822,293.851658 169.97748,294 169.607197,294 Z" id="Fill-130" fill="#1C3E58"></path>
                    <path d="M125.616288,267 L125.589174,267 C124.942953,266.987017 109.582778,266.619605 93.9572718,259.923086 C73.0503135,250.961721 62,234.893581 62,213.453167 C62,190.856636 68.1355483,175.401933 81.8953416,163.342876 C82.4718404,162.837197 83.3459495,162.898216 83.8488527,163.477248 C84.3517559,164.057578 84.2910718,164.936513 83.7152186,165.442192 C70.4344422,177.079957 64.7682272,191.438264 64.7682272,213.453167 C64.7682272,233.953628 74.930229,248.716998 94.9734074,257.331723 C110.108922,263.838044 125.488464,264.212597 125.642111,264.216492 C126.407118,264.231422 127.013958,264.86628 126.999756,265.634861 C126.984907,266.394353 126.368383,267 125.616288,267" id="Fill-131" fill="#1C3E58"></path>
                    <path d="M142.5,233 C141.671329,233 141,232.37954 141,231.613659 L141,171.385695 C141,170.62046 141.671329,170 142.5,170 C143.328671,170 144,170.62046 144,171.385695 L144,231.613659 C144,232.37954 143.328671,233 142.5,233" id="Fill-132" fill="#1C3E58"></path>
                    <path d="M23.4444423,209 C22.6865308,209 22.0623684,208.405717 22.0394213,207.655112 C20.7124206,162.974734 53.3262159,133.644939 53.6559992,133.354257 C54.2336117,132.843303 55.1226497,132.890458 55.6405995,133.46084 C56.159205,134.029285 56.1106882,134.905206 55.5330758,135.416806 C55.2137826,135.69909 23.5624561,164.2111 24.8507745,207.575013 C24.873066,208.339183 24.2620163,208.977391 23.4857471,208.998708 C23.4719788,209 23.4582105,209 23.4444423,209" id="Fill-133" fill="#1C3E58"></path>
                    <path d="M25.3572202,153 C24.5939529,153 23.9750875,152.379091 23.9750875,151.612656 L23.9750875,57.6897968 L7.38240366,57.6897968 C6.84540899,57.6897968 6.35805249,57.3780487 6.12984588,56.8903762 C5.90292856,56.4033506 5.97770813,55.8277161 6.32066271,55.4144234 L50.3116782,2.49808684 C50.5695387,2.18827904 50.9492385,2.00588698 51.3521456,2.00006595 C51.7382918,1.99618527 52.139265,2.16370139 52.4061507,2.46510104 L65.6505149,17.4147827 C66.1585003,17.9871833 66.1062835,18.8635707 65.535767,19.3725869 C64.9646058,19.8822498 64.0898138,19.8305074 63.584407,19.25746 L51.406941,5.5120834 L10.335552,54.9157558 L25.3572202,54.9157558 C26.1211322,54.9157558 26.7399976,55.5366649 26.7399976,56.3024529 L26.7399976,151.612656 C26.7399976,152.379091 26.1211322,153 25.3572202,153" id="Fill-134" fill="#1C3E58"></path>
                    <path d="M37.4996503,43.020916 C36.6714852,43.020916 36,42.3974175 36,41.6284359 L36,40.39248 C36,39.6234985 36.6714852,39 37.4996503,39 C38.3285148,39 39,39.6234985 39,40.39248 L39,41.6284359 C39,42.3974175 38.3285148,43.020916 37.4996503,43.020916 M37.4996503,50.436002 C36.6714852,50.436002 36,49.8125035 36,49.0428725 L36,47.8069166 C36,47.0379351 36.6714852,46.4144366 37.4996503,46.4144366 C38.3285148,46.4144366 39,47.0379351 39,47.8069166 L39,49.0428725 C39,49.8125035 38.3285148,50.436002 37.4996503,50.436002 M37.4996503,57.8504386 C36.6714852,57.8504386 36,57.2269401 36,56.4579585 L36,55.2220026 C36,54.4536706 36.6714852,53.8301721 37.4996503,53.8301721 C38.3285148,53.8301721 39,54.4536706 39,55.2220026 L39,56.4579585 C39,57.2269401 38.3285148,57.8504386 37.4996503,57.8504386 M37.4996503,65.2661741 C36.6714852,65.2661741 36,64.6426756 36,63.8730446 L36,62.6370887 C36,61.8681072 36.6714852,61.2446086 37.4996503,61.2446086 C38.3285148,61.2446086 39,61.8681072 39,62.6370887 L39,63.8730446 C39,64.6426756 38.3285148,65.2661741 37.4996503,65.2661741 M37.4996503,72.6806106 C36.6714852,72.6806106 36,72.0571121 36,71.2874811 L36,70.0515252 C36,69.2831932 36.6714852,68.6596947 37.4996503,68.6596947 C38.3285148,68.6596947 39,69.2831932 39,70.0515252 L39,71.2874811 C39,72.0571121 38.3285148,72.6806106 37.4996503,72.6806106 M37.4996503,80.0956967 C36.6714852,80.0956967 36,79.4721982 36,78.7025672 L36,77.4672607 C36,76.6982792 36.6714852,76.0747807 37.4996503,76.0747807 C38.3285148,76.0747807 39,76.6982792 39,77.4672607 L39,78.7025672 C39,79.4721982 38.3285148,80.0956967 37.4996503,80.0956967 M37.4996503,87.5107827 C36.6714852,87.5107827 36,86.8872842 36,86.1176532 L36,84.8816973 C36,84.1127158 36.6714852,83.4892173 37.4996503,83.4892173 C38.3285148,83.4892173 39,84.1127158 39,84.8816973 L39,86.1176532 C39,86.8872842 38.3285148,87.5107827 37.4996503,87.5107827 M37.4996503,94.9258688 C36.6714852,94.9258688 36,94.3023702 36,93.5327393 L36,92.2967833 C36,91.5278018 36.6714852,90.9043033 37.4996503,90.9043033 C38.3285148,90.9043033 39,91.5278018 39,92.2967833 L39,93.5327393 C39,94.3023702 38.3285148,94.9258688 37.4996503,94.9258688 M37.4996503,102.340305 C36.6714852,102.340305 36,101.716807 36,100.947176 L36,99.7118694 C36,98.9428879 36.6714852,98.3193894 37.4996503,98.3193894 C38.3285148,98.3193894 39,98.9428879 39,99.7118694 L39,100.947176 C39,101.716807 38.3285148,102.340305 37.4996503,102.340305 M37.4996503,109.755391 C36.6714852,109.755391 36,109.131243 36,108.362262 L36,107.126955 C36,106.357974 36.6714852,105.734475 37.4996503,105.734475 C38.3285148,105.734475 39,106.357974 39,107.126955 L39,108.362262 C39,109.131243 38.3285148,109.755391 37.4996503,109.755391 M37.4996503,117.170477 C36.6714852,117.170477 36,116.546979 36,115.777348 L36,114.541392 C36,113.77241 36.6714852,113.148912 37.4996503,113.148912 C38.3285148,113.148912 39,113.77241 39,114.541392 L39,115.777348 C39,116.546979 38.3285148,117.170477 37.4996503,117.170477 M37.4996503,124.584914 C36.6714852,124.584914 36,123.961415 36,123.191784 L36,121.957127 C36,121.188146 36.6714852,120.564647 37.4996503,120.564647 C38.3285148,120.564647 39,121.188146 39,121.957127 L39,123.191784 C39,123.961415 38.3285148,124.584914 37.4996503,124.584914 M37.4996503,132 C36.6714852,132 36,131.376501 36,130.60687 L36,129.371564 C36,128.602583 36.6714852,127.979084 37.4996503,127.979084 C38.3285148,127.979084 39,128.602583 39,129.371564 L39,130.60687 C39,131.376501 38.3285148,132 37.4996503,132" id="Fill-135" fill="#1C3E58"></path>
                    <path d="M9.5,159 C8.67132867,159 8,158.37788 8,157.609951 L8,79.3894009 C8,78.6221198 8.67132867,78 9.5,78 C10.327972,78 11,78.6221198 11,79.3894009 L11,157.609951 C11,158.37788 10.327972,159 9.5,159" id="Fill-136" fill="#1C3E58"></path>
                    <path d="M7.3850857,36 C7.07109488,36 6.75516585,35.891663 6.49609112,35.6717059 C5.90881199,35.1720424 5.83257554,34.2836787 6.32294392,33.6881533 L29.55245,5.50410846 C30.0434644,4.90792645 30.9163072,4.82913588 31.5042324,5.32879943 C32.0908655,5.8278064 32.167748,6.71617012 31.6767335,7.31235212 L8.44787356,35.4957403 C8.17329311,35.8279739 7.78048155,36 7.3850857,36" id="Fill-137" fill="#1C3E58"></path>
                    <path d="M10.4986738,169 C9.78959742,169 9.17221192,168.495798 9.030091,167.799847 C8.86581144,166.988541 9.39074193,166.195569 10.2006784,166.030558 C10.3015384,166.009931 10.4016343,166 10.5009661,166 C11.2108066,166 11.8281921,166.504966 11.9695489,167.201681 C12.0490144,167.593583 11.9718412,167.993888 11.7510189,168.327731 C11.5301966,168.661574 11.1917043,168.889228 10.7997257,168.969442 C10.7011579,168.989305 10.5995338,169 10.4986738,169" id="Fill-138" fill="#1C3E58"></path>
                    <path d="M1.49901015,45 C0.79009258,45 0.172081463,44.4949058 0.0307563004,43.7995415 C-0.0494552783,43.4067753 0.028464541,43.0071319 0.250001282,42.6724401 C0.470774104,42.3385125 0.808426655,42.1107998 1.20108143,42.0298013 C1.29962708,42.0099338 1.40122842,42 1.50130191,42 C2.21021948,42 2.82746668,42.5043301 2.96955576,43.2004585 C3.04900342,43.5932247 2.97184752,43.9936322 2.7510747,44.3267957 C2.52953796,44.6622517 2.19188541,44.8892002 1.79923063,44.9701987 C1.69839322,44.9900662 1.59755581,45 1.49901015,45" id="Fill-139" fill="#1C3E58"></path>
                    <path d="M91.4992514,161 C90.7902777,161 90.1729817,160.495034 90.0301174,159.799847 C89.8658616,158.989305 90.3899521,158.195569 91.2005351,158.029794 C91.3013805,158.009931 91.4022259,158 91.5007794,158 C92.209753,158 92.827813,158.504966 92.9699134,159.200917 C93.1341691,160.009931 92.6093147,160.803667 91.7994956,160.970206 C91.6986502,160.990069 91.5985688,161 91.4992514,161" id="Fill-140" fill="#1C3E58"></path>
                    <path d="M24.4986981,222 C23.7897805,222 23.1717694,221.494777 23.0304442,220.800764 C22.9509966,220.407134 23.0281525,220.007389 23.2489253,219.672611 C23.4696981,219.337834 23.8081146,219.110064 24.2007694,219.030573 C24.299315,219.009936 24.4009164,219 24.5017538,219 C25.2099074,219 25.8271546,219.503694 25.9692437,220.2 C26.0494553,220.592866 25.9715355,220.993376 25.7499987,221.327389 C25.5292259,221.662166 25.1915733,221.889936 24.7989186,221.969427 C24.6980812,221.990064 24.5980077,222 24.4986981,222" id="Fill-141" fill="#1C3E58"></path>
                </g>
            </g>
            <path d="M324.9258,280.9321 C323.9988,280.9321 323.1918,280.2721 323.0048,279.3621 C322.7898,278.3001 323.4768,277.2621 324.5378,277.0461 C324.6698,277.0201 324.8008,277.0061 324.9298,277.0061 C325.8578,277.0061 326.6668,277.6671 326.8528,278.5781 C326.9568,279.0921 326.8558,279.6151 326.5668,280.0511 C326.2768,280.4901 325.8348,280.7871 325.3208,280.8911 C325.1918,280.9181 325.0588,280.9321 324.9268,280.9321 L324.9258,280.9321 Z" id="Fill-142" fill="#1C3E58" mask="url(#mask-2)"></path>
            <path d="M849.3588,334.313 C848.4318,334.313 847.6228,333.652 847.4368,332.742 C847.2208,331.683 847.9078,330.644 848.9678,330.426 C849.0998,330.4 849.2318,330.386 849.3608,330.386 C850.2908,330.386 851.0978,331.047 851.2828,331.958 C851.3878,332.472 851.2858,332.995 850.9968,333.433 C850.7078,333.871 850.2648,334.169 849.7528,334.273 C849.6208,334.299 849.4878,334.313 849.3588,334.313" id="Fill-143" fill="#1C3E58" mask="url(#mask-2)"></path>
            <path d="M1531.1509,398.9819 L1309.6899,398.9819 C1295.3669,398.9819 1283.7139,387.3299 1283.7139,373.0059 L1283.7139,348.2909 L1283.7139,283.8409 L1283.7139,259.1259 C1283.7139,244.8019 1295.3669,233.1499 1309.6899,233.1499 L1531.1509,233.1499 C1532.4939,233.1499 1533.8129,233.2529 1535.1009,233.4499 C1547.5559,235.3589 1557.1269,246.1459 1557.1269,259.1269 L1557.1269,373.0049 C1557.1269,385.9859 1547.5559,396.7739 1535.1009,398.6819 C1533.8129,398.8789 1532.4939,398.9819 1531.1509,398.9819 M1535.6759,229.7169 C1534.1999,229.4909 1532.6889,229.3739 1531.1509,229.3739 L1309.6899,229.3739 C1293.2839,229.3739 1279.9369,242.7199 1279.9369,259.1259 L1279.9369,283.8409 L1279.9369,348.2909 L1279.9369,373.0059 C1279.9369,389.4119 1293.2839,402.7579 1309.6899,402.7579 L1531.1509,402.7579 C1532.6889,402.7579 1534.1999,402.6409 1535.6759,402.4159 C1549.9419,400.2289 1560.9039,387.8749 1560.9039,373.0059 L1560.9039,373.0049 L1560.9039,259.1269 L1560.9039,259.1259 C1560.9039,244.2579 1549.9419,231.9029 1535.6759,229.7169" id="Fill-144" fill="#1C3E58" mask="url(#mask-2)"></path>
            <path d="M1558.145,381.8286 L1340.948,381.8286 C1339.905,381.8286 1339.059,380.9826 1339.059,379.9396 C1339.059,378.8966 1339.905,378.0526 1340.948,378.0526 L1558.145,378.0526 C1559.188,378.0526 1560.034,378.8966 1560.034,379.9396 C1560.034,380.9826 1559.188,381.8286 1558.145,381.8286" id="Fill-145" fill="#1C3E58" mask="url(#mask-2)"></path>
            <path d="M1430.353,381.8276 C1429.959,381.8276 1429.562,381.7056 1429.223,381.4506 C1428.388,380.8256 1428.218,379.6436 1428.842,378.8086 C1429.226,378.2966 1468.258,327.5046 1559.015,327.5046 C1560.058,327.5046 1560.904,328.3486 1560.904,329.3916 C1560.904,330.4346 1560.058,331.2806 1559.015,331.2806 C1470.255,331.2806 1432.24,380.5746 1431.865,381.0726 C1431.495,381.5666 1430.927,381.8276 1430.353,381.8276" id="Fill-146" fill="#1C3E58" mask="url(#mask-2)"></path>
            <path d="M1315.5063,365.687 C1314.8663,365.687 1314.2423,365.362 1313.8883,364.774 C1313.3503,363.88 1313.6373,362.72 1314.5293,362.182 C1314.8633,361.981 1348.4653,342.021 1405.1273,333.823 C1462.5843,325.505 1476.2813,344.932 1476.8363,345.762 C1477.4163,346.63 1477.1833,347.802 1476.3163,348.381 C1475.4553,348.96 1474.2873,348.731 1473.7043,347.872 C1473.5163,347.605 1460.2413,329.663 1405.6673,337.561 C1349.7533,345.651 1316.8063,365.219 1316.4803,365.416 C1316.1753,365.6 1315.8383,365.687 1315.5063,365.687" id="Fill-147" fill="#1C3E58" mask="url(#mask-2)"></path>
            <path d="M1479.7554,289.9878 C1482.0954,287.4898 1483.5384,284.1408 1483.5384,280.4478 C1483.5384,272.7308 1477.2824,266.4748 1469.5674,266.4748 C1461.8504,266.4748 1455.5944,272.7308 1455.5944,280.4478 C1455.5944,284.1408 1457.0374,287.4898 1459.3774,289.9878 C1454.1444,293.3488 1450.6674,299.2078 1450.6674,305.8888 C1450.6674,316.3268 1459.1284,324.7888 1469.5674,324.7888 C1480.0044,324.7888 1488.4654,316.3268 1488.4654,305.8888 C1488.4654,299.2078 1484.9884,293.3488 1479.7554,289.9878" id="Fill-148" fill="#25CE9E" mask="url(#mask-2)"></path>
            <path d="M1469.5669,343.1538 C1468.5239,343.1538 1467.6779,342.3078 1467.6779,341.2648 L1467.6779,313.9658 C1467.6779,312.9228 1468.5239,312.0778 1469.5669,312.0778 C1470.6099,312.0778 1471.4549,312.9228 1471.4549,313.9658 L1471.4549,341.2648 C1471.4549,342.3078 1470.6099,343.1538 1469.5669,343.1538" id="Fill-149" fill="#1C3E58" mask="url(#mask-2)"></path>
            <path d="M1415.0903,245.7495 L1307.5093,245.7495 C1306.4663,245.7495 1305.6203,244.9045 1305.6203,243.8605 C1305.6203,242.8175 1306.4663,241.9735 1307.5093,241.9735 L1415.0903,241.9735 C1416.1333,241.9735 1416.9783,242.8175 1416.9783,243.8605 C1416.9783,244.9045 1416.1333,245.7495 1415.0903,245.7495" id="Fill-150" fill="#1C3E58" mask="url(#mask-2)"></path>
            <path d="M1340.9478,368.0298 C1340.1398,368.0298 1339.3948,367.5098 1339.1428,366.6998 C1338.8348,365.7038 1339.3918,364.6458 1340.3878,364.3378 C1342.2688,363.7548 1386.7078,350.0398 1409.0988,347.9458 C1410.1218,347.8568 1411.0568,348.6118 1411.1538,349.6508 C1411.2518,350.6878 1410.4888,351.6088 1409.4508,351.7068 C1387.4468,353.7638 1341.9638,367.8018 1341.5068,367.9438 C1341.3208,368.0018 1341.1318,368.0298 1340.9478,368.0298" id="Fill-151" fill="#1C3E58" mask="url(#mask-2)"></path>
            <path d="M1399.0981,328.4536 C1398.6001,328.4536 1398.1031,328.2576 1397.7311,327.8676 L1343.8711,271.3316 L1303.0771,315.2506 C1302.3681,316.0156 1301.1701,316.0596 1300.4091,315.3496 C1299.6451,314.6406 1299.6001,313.4446 1300.3101,312.6816 L1342.4701,267.2906 C1342.8241,266.9086 1343.3211,266.6906 1343.8411,266.6866 L1343.8531,266.6866 C1344.3691,266.6866 1344.8641,266.8986 1345.2211,267.2726 L1400.4661,325.2626 C1401.1841,326.0176 1401.1571,327.2126 1400.4011,327.9326 C1400.0351,328.2806 1399.5661,328.4536 1399.0981,328.4536" id="Fill-152" fill="#1C3E58" mask="url(#mask-2)"></path>
            <path d="M1436.4136,325.3032 C1435.8886,325.3032 1435.3676,325.0862 1434.9946,324.6612 L1403.8816,289.2722 L1387.0366,302.8372 C1386.2246,303.4902 1385.0346,303.3652 1384.3816,302.5512 C1383.7276,301.7382 1383.8556,300.5492 1384.6676,299.8962 L1402.9216,285.1962 C1403.7106,284.5632 1404.8576,284.6622 1405.5226,285.4202 L1437.8296,322.1682 C1438.5186,322.9522 1438.4416,324.1452 1437.6586,324.8332 C1437.3006,325.1492 1436.8556,325.3032 1436.4136,325.3032" id="Fill-153" fill="#1C3E58" mask="url(#mask-2)"></path>
            <path d="M1359.8647,302.0962 C1357.8297,302.0962 1355.7427,301.4282 1353.6307,300.0972 C1345.3857,294.9042 1343.0917,295.3202 1333.6097,298.1292 C1322.8357,301.3222 1318.0487,296.6592 1317.8507,296.4592 C1317.1157,295.7192 1317.1187,294.5232 1317.8597,293.7872 C1318.5957,293.0612 1319.7757,293.0582 1320.5097,293.7782 C1320.6977,293.9502 1324.1557,296.9932 1332.5357,294.5082 C1342.5117,291.5522 1346.1207,290.9032 1355.6417,296.9022 C1357.7027,298.2002 1359.6387,298.6022 1361.3847,298.1042 C1364.6457,297.1702 1366.5447,293.4112 1366.5617,293.3732 C1367.0157,292.4352 1368.1427,292.0402 1369.0847,292.4972 C1370.0227,292.9512 1370.4157,294.0802 1369.9617,295.0202 C1369.8557,295.2352 1367.3427,300.3262 1362.4247,301.7352 C1361.5817,301.9762 1360.7267,302.0962 1359.8647,302.0962" id="Fill-154" fill="#1C3E58" mask="url(#mask-2)"></path>
            <path d="M1414.0034,316.9214 C1410.0604,316.9214 1406.3144,314.5794 1403.3504,312.7264 C1402.3244,312.0864 1401.3584,311.4814 1400.5764,311.1024 C1399.8194,310.7344 1399.3624,310.8324 1399.0824,310.9384 C1398.0894,311.3134 1397.3224,312.6954 1397.1304,313.1504 C1396.7294,314.1094 1395.6244,314.5654 1394.6664,314.1724 C1393.7064,313.7754 1393.2444,312.6844 1393.6354,311.7214 C1393.7704,311.3894 1395.0294,308.4494 1397.7194,307.4164 C1399.1474,306.8684 1400.7064,306.9654 1402.2234,307.7034 C1403.1884,308.1714 1404.2394,308.8284 1405.3524,309.5244 C1409.0624,311.8444 1413.2714,314.4714 1416.9214,312.3364 C1423.8244,308.2944 1427.9864,311.1244 1428.1594,311.2464 C1429.0124,311.8484 1429.2174,313.0254 1428.6154,313.8784 C1428.0154,314.7324 1426.8374,314.9344 1425.9844,314.3344 C1425.9244,314.3004 1423.5024,312.8594 1418.8284,315.5964 C1417.2134,316.5404 1415.5914,316.9214 1414.0034,316.9214" id="Fill-155" fill="#1C3E58" mask="url(#mask-2)"></path>
            <path d="M1499.4097,440.5561 C1498.3667,440.5561 1497.5207,439.7111 1497.5207,438.6681 L1497.5207,413.4691 C1497.5207,412.4261 1498.3667,411.5811 1499.4097,411.5811 C1500.4527,411.5811 1501.2977,412.4261 1501.2977,413.4691 L1501.2977,438.6681 C1501.2977,439.7111 1500.4527,440.5561 1499.4097,440.5561" id="Fill-156" fill="#1C3E58" mask="url(#mask-2)"></path>
            <path d="M1512.0093,427.9575 L1486.8093,427.9575 C1485.7663,427.9575 1484.9213,427.1115 1484.9213,426.0685 C1484.9213,425.0255 1485.7663,424.1805 1486.8093,424.1805 L1512.0093,424.1805 C1513.0523,424.1805 1513.8983,425.0255 1513.8983,426.0685 C1513.8983,427.1115 1513.0523,427.9575 1512.0093,427.9575" id="Fill-157" fill="#1C3E58" mask="url(#mask-2)"></path>
            <path d="M1471.3882,453.3989 C1471.0472,453.3989 1470.7022,453.3059 1470.3912,453.1129 C1439.6892,433.9929 1445.6392,400.8469 1445.7022,400.5149 C1445.8992,399.4909 1446.8922,398.8259 1447.9092,399.0169 C1448.9342,399.2109 1449.6072,400.1989 1449.4112,401.2229 C1449.1762,402.4789 1443.9302,432.1839 1472.3892,449.9079 C1473.2742,450.4589 1473.5432,451.6239 1472.9932,452.5079 C1472.6352,453.0829 1472.0182,453.3989 1471.3882,453.3989" id="Fill-158" fill="#1C3E58" mask="url(#mask-2)"></path>
            <path d="M1399.0796,431.1294 C1398.8226,431.1294 1398.5596,431.0764 1398.3086,430.9644 C1397.3576,430.5384 1396.9316,429.4214 1397.3576,428.4704 C1403.5896,414.5394 1401.1996,401.3554 1401.1756,401.2234 C1400.9806,400.1994 1401.6536,399.2114 1402.6776,399.0174 C1403.6966,398.8254 1404.6876,399.4904 1404.8846,400.5154 C1404.9966,401.0974 1407.5396,414.9544 1400.8046,430.0114 C1400.4906,430.7134 1399.8026,431.1294 1399.0796,431.1294" id="Fill-159" fill="#1C3E58" mask="url(#mask-2)"></path>
            <path d="M1427.0698,245.5893 C1426.2528,245.5893 1425.5418,245.0083 1425.3788,244.2053 C1425.1888,243.2723 1425.7938,242.3573 1426.7248,242.1673 C1426.8418,242.1433 1426.9578,242.1323 1427.0718,242.1323 C1427.8898,242.1323 1428.6018,242.7143 1428.7638,243.5173 C1428.9548,244.4493 1428.3498,245.3643 1427.4178,245.5553 C1427.3018,245.5773 1427.1858,245.5893 1427.0698,245.5893" id="Fill-160" fill="#1C3E58" mask="url(#mask-2)"></path>
            <path d="M1421.6079,350.4536 C1420.7899,350.4536 1420.0779,349.8716 1419.9149,349.0696 C1419.8229,348.6176 1419.9129,348.1556 1420.1679,347.7706 C1420.4219,347.3866 1420.8119,347.1236 1421.2629,347.0306 C1421.3779,347.0076 1421.4949,346.9956 1421.6099,346.9956 C1422.4269,346.9956 1423.1389,347.5776 1423.3019,348.3796 C1423.3939,348.8316 1423.3039,349.2936 1423.0489,349.6786 C1422.7949,350.0626 1422.4049,350.3256 1421.9539,350.4186 C1421.8369,350.4416 1421.7209,350.4536 1421.6079,350.4536" id="Fill-161" fill="#1C3E58" mask="url(#mask-2)"></path>
            <path d="M1225.5522,394.6645 C1224.6242,394.6645 1223.8162,394.0045 1223.6312,393.0945 C1223.5272,392.5795 1223.6282,392.0565 1223.9182,391.6185 C1224.2072,391.1815 1224.6502,390.8825 1225.1622,390.7785 C1225.2942,390.7525 1225.4262,390.7385 1225.5562,390.7385 C1226.4842,390.7385 1227.2922,391.3995 1227.4762,392.3105 C1227.5822,392.8215 1227.4812,393.3445 1227.1932,393.7825 C1226.9042,394.2205 1226.4612,394.5185 1225.9472,394.6235 C1225.8182,394.6505 1225.6852,394.6645 1225.5522,394.6645" id="Fill-162" fill="#1C3E58" mask="url(#mask-2)"></path>
            <path d="M1217.2534,422.1811 C1216.3264,422.1811 1215.5174,421.5201 1215.3304,420.6101 C1215.1144,419.5481 1215.8014,418.5101 1216.8614,418.2941 C1216.9934,418.2671 1217.1254,418.2541 1217.2544,418.2541 C1218.1844,418.2541 1218.9924,418.9151 1219.1774,419.8261 C1219.2814,420.3391 1219.1804,420.8631 1218.8904,421.3011 C1218.6014,421.7391 1218.1584,422.0371 1217.6464,422.1401 C1217.5144,422.1671 1217.3824,422.1811 1217.2534,422.1811" id="Fill-163" fill="#1C3E58" mask="url(#mask-2)"></path>
            <path d="M299.0522,385.1245 L297.1492,385.1245 C295.9652,385.1245 295.0052,384.1645 295.0052,382.9795 C295.0052,381.7955 295.9652,380.8355 297.1492,380.8355 L299.0522,380.8355 C300.2372,380.8355 301.1972,381.7955 301.1972,382.9795 C301.1972,384.1645 300.2372,385.1245 299.0522,385.1245 M310.4692,385.1245 L308.5652,385.1245 C307.3812,385.1245 306.4212,384.1645 306.4212,382.9795 C306.4212,381.7955 307.3812,380.8355 308.5652,380.8355 L310.4692,380.8355 C311.6532,380.8355 312.6132,381.7955 312.6132,382.9795 C312.6132,384.1645 311.6532,385.1245 310.4692,385.1245 M321.8852,385.1245 L319.9832,385.1245 C318.7982,385.1245 317.8392,384.1645 317.8392,382.9795 C317.8392,381.7955 318.7982,380.8355 319.9832,380.8355 L321.8852,380.8355 C323.0702,380.8355 324.0302,381.7955 324.0302,382.9795 C324.0302,384.1645 323.0702,385.1245 321.8852,385.1245 M333.3022,385.1245 L331.3992,385.1245 C330.2152,385.1245 329.2552,384.1645 329.2552,382.9795 C329.2552,381.7955 330.2152,380.8355 331.3992,380.8355 L333.3022,380.8355 C334.4872,380.8355 335.4472,381.7955 335.4472,382.9795 C335.4472,384.1645 334.4872,385.1245 333.3022,385.1245 M344.7192,385.1245 L342.8162,385.1245 C341.6312,385.1245 340.6712,384.1645 340.6712,382.9795 C340.6712,381.7955 341.6312,380.8355 342.8162,380.8355 L344.7192,380.8355 C345.9042,380.8355 346.8642,381.7955 346.8642,382.9795 C346.8642,384.1645 345.9042,385.1245 344.7192,385.1245 M356.1352,385.1245 L354.2332,385.1245 C353.0492,385.1245 352.0892,384.1645 352.0892,382.9795 C352.0892,381.7955 353.0492,380.8355 354.2332,380.8355 L356.1352,380.8355 C357.3202,380.8355 358.2802,381.7955 358.2802,382.9795 C358.2802,384.1645 357.3202,385.1245 356.1352,385.1245 M367.5522,385.1245 L365.6502,385.1245 C364.4652,385.1245 363.5052,384.1645 363.5052,382.9795 C363.5052,381.7955 364.4652,380.8355 365.6502,380.8355 L367.5522,380.8355 C368.7372,380.8355 369.6972,381.7955 369.6972,382.9795 C369.6972,384.1645 368.7372,385.1245 367.5522,385.1245 M378.9692,385.1245 L377.0662,385.1245 C375.8822,385.1245 374.9222,384.1645 374.9222,382.9795 C374.9222,381.7955 375.8822,380.8355 377.0662,380.8355 L378.9692,380.8355 C380.1542,380.8355 381.1142,381.7955 381.1142,382.9795 C381.1142,384.1645 380.1542,385.1245 378.9692,385.1245 M390.3852,385.1245 L388.4832,385.1245 C387.2992,385.1245 386.3392,384.1645 386.3392,382.9795 C386.3392,381.7955 387.2992,380.8355 388.4832,380.8355 L390.3852,380.8355 C391.5702,380.8355 392.5302,381.7955 392.5302,382.9795 C392.5302,384.1645 391.5702,385.1245 390.3852,385.1245 M401.8022,385.1245 L399.9002,385.1245 C398.7162,385.1245 397.7562,384.1645 397.7562,382.9795 C397.7562,381.7955 398.7162,380.8355 399.9002,380.8355 L401.8022,380.8355 C402.9872,380.8355 403.9472,381.7955 403.9472,382.9795 C403.9472,384.1645 402.9872,385.1245 401.8022,385.1245 M413.2192,385.1245 L411.3162,385.1245 C410.1322,385.1245 409.1722,384.1645 409.1722,382.9795 C409.1722,381.7955 410.1322,380.8355 411.3162,380.8355 L413.2192,380.8355 C414.4042,380.8355 415.3642,381.7955 415.3642,382.9795 C415.3642,384.1645 414.4042,385.1245 413.2192,385.1245 M424.6362,385.1245 L422.7342,385.1245 C421.5492,385.1245 420.5892,384.1645 420.5892,382.9795 C420.5892,381.7955 421.5492,380.8355 422.7342,380.8355 L424.6362,380.8355 C425.8212,380.8355 426.7802,381.7955 426.7802,382.9795 C426.7802,384.1645 425.8212,385.1245 424.6362,385.1245 M436.0522,385.1245 L434.1502,385.1245 C432.9662,385.1245 432.0062,384.1645 432.0062,382.9795 C432.0062,381.7955 432.9662,380.8355 434.1502,380.8355 L436.0522,380.8355 C437.2372,380.8355 438.1972,381.7955 438.1972,382.9795 C438.1972,384.1645 437.2372,385.1245 436.0522,385.1245 M447.4702,385.1245 L445.5672,385.1245 C444.3822,385.1245 443.4222,384.1645 443.4222,382.9795 C443.4222,381.7955 444.3822,380.8355 445.5672,380.8355 L447.4702,380.8355 C448.6542,380.8355 449.6142,381.7955 449.6142,382.9795 C449.6142,384.1645 448.6542,385.1245 447.4702,385.1245 M457.8422,385.1245 L456.9842,385.1245 C455.8002,385.1245 454.8402,384.1645 454.8402,382.9795 C454.8402,381.7955 455.8002,380.8355 456.9842,380.8355 L457.8422,380.8355 C459.0262,380.8355 459.9862,381.7955 459.9862,382.9795 C459.9862,384.1645 459.0262,385.1245 457.8422,385.1245" id="Fill-164" fill="#1C3E58" mask="url(#mask-2)"></path>
        </g>
    </g>
</svg>