<?xml version="1.0" encoding="UTF-8"?>
<svg width="33px" height="52px" viewBox="0 0 33 52" version="1.1" xmlns="http://www.w3.org/2000/svg" xmlns:xlink="http://www.w3.org/1999/xlink">
    <!-- Generator: Sketch 49.3 (51167) - http://www.bohemiancoding.com/sketch -->
    <title>笔尖</title>
    <desc>Created with Sketch.</desc>
    <defs>
        <polygon id="path-1" points="0 0.0332439306 32.8964763 0.0332439306 32.8964763 51.699422 0 51.699422"></polygon>
    </defs>
    <g id="申请成为老师" stroke="none" stroke-width="1" fill="none" fill-rule="evenodd">
        <g id="01_申请成为tutor" transform="translate(-1034.000000, -1581.000000)">
            <g id="申请资格" transform="translate(555.000000, 1123.000000)">
                <g id="Group-17-Copy-4" transform="translate(297.000000, 458.000000)">
                    <g id="042" transform="translate(182.000000, 0.000000)">
                        <g id="Page-1">
                            <path d="M20.76381,31.0635977 C20.76381,33.5006844 18.79221,35.4763838 16.35951,35.4763838 C13.92711,35.4763838 11.95521,33.5006844 11.95521,31.0635977 C11.95521,28.626511 13.92711,26.650511 16.35951,26.650511 C18.79221,26.650511 20.76381,28.626511 20.76381,31.0635977" id="Fill-1" fill="#FFDA00"></path>
                            <path d="M19.77942,33.0411306 C19.06062,34.2022636 17.81772,34.8953965 16.45392,34.8953965 C15.74592,34.8953965 15.05112,34.7018243 14.43852,34.3351191 C14.29572,34.2722983 14.15952,34.1845295 14.04222,34.0796277 C12.45192,32.8839283 12.03222,30.6211769 13.09122,28.9018705 C13.63872,28.0241827 14.50272,27.4016855 15.52692,27.1452925 C15.83112,27.0689457 16.14402,27.0304717 16.45632,27.0304717 C17.17812,27.0304717 17.88642,27.2351653 18.50502,27.6226104 C20.34282,28.7774312 20.91372,31.2079052 19.77942,33.0411306 M19.80372,26.4013618 L19.79022,26.3911422 L19.77672,26.380622 C19.66542,26.2913503 19.56942,26.2141017 19.48572,26.1720208 L19.45362,26.1563908 L19.42302,26.1377549 C18.51972,25.591304 17.48772,25.3024486 16.43862,25.3024486 C15.99972,25.3024486 15.56052,25.3532462 15.13272,25.4533387 C13.68132,25.7926913 12.43872,26.6929225 11.63382,27.9881133 C10.84602,29.2799977 10.60872,30.8180555 10.96992,32.3122289 C11.32332,33.774541 12.21462,35.0051075 13.47972,35.7775931 C14.38032,36.3402751 15.40542,36.6348416 16.45242,36.6348416 C18.43512,36.6348416 20.23272,35.6245988 21.26112,33.9323445 C22.77492,31.4372462 22.13532,28.1287838 19.80372,26.4013618" id="Fill-3" fill="#333333"></path>
                            <g id="Group-7" transform="translate(0.000000, 0.267514)">
                                <mask id="mask-2" fill="white">
                                    <use xlink:href="#path-1"></use>
                                </mask>
                                <g id="Clip-6"></g>
                                <path d="M4.52775,44.6429318 C4.54245,43.6940069 5.32485,42.9215214 6.27225,42.9215214 L26.88735,43.025822 C27.59565,43.0297295 28.23435,43.4511399 28.52895,44.1734289 C28.60005,44.3477642 28.62855,44.5365272 28.62465,44.724689 L28.54545,48.5684809 C28.52565,49.5098913 27.74085,50.2802728 26.80065,50.2802728 L26.79885,50.2802728 L26.79585,50.2802728 L6.20715,50.2021225 C5.68515,50.2000185 5.20005,49.9706775 4.86315,49.560689 C4.58865,49.227348 4.46355,48.7945156 4.47045,48.3622844 L4.52775,44.6429318 Z M1.92675,23.2063075 L1.78305,22.7695676 L2.05125,22.3965503 L14.05725,5.71326705 L15.71565,3.4081341 L15.68685,6.25009942 L15.54615,20.194215 C15.54645,20.5534058 15.93405,20.8648046 16.39365,20.8648046 L16.40685,20.8648046 L16.42005,20.8651052 L16.44885,20.8657064 C16.88565,20.8657064 17.26905,20.5606197 17.26905,20.213452 L17.40975,6.06253873 L17.43765,3.26265434 L19.04595,5.55215723 L30.88275,22.4052671 L31.13895,22.7701688 L31.00455,23.1957873 L25.39635,40.9566428 L25.19685,41.5878566 L24.53655,41.5866543 L8.61345,41.5584 L7.96365,41.5571977 L7.76025,40.9389087 L1.92675,23.2063075 Z M5.61315,51.6424925 L27.18975,51.6990012 L27.24645,51.6996023 C28.72305,51.6996023 29.91105,50.7061919 29.95155,49.4377526 L30.09225,44.021637 C30.11175,43.3309087 29.77335,42.6792555 29.16315,42.2310936 C28.82655,41.9780069 28.41645,41.7997642 27.96915,41.7101919 L26.98515,41.5133133 L27.28725,40.5544694 L32.81085,23.0199491 L32.82885,22.9634405 L32.85375,22.909637 C32.91945,22.7686659 32.90925,22.636111 32.82405,22.5164809 L17.43165,0.468781503 L17.42565,0.460665896 L17.42025,0.452249711 C17.32185,0.304665896 17.25885,0.258376879 17.24685,0.25056185 L17.22615,0.23673526 L17.20635,0.221706358 C17.04135,0.0978682081 16.84395,0.0350473988 16.61895,0.0350473988 L16.59945,0.0350473988 L16.57995,0.0341456647 C16.56585,0.0335445087 16.55145,0.0332439306 16.53735,0.0332439306 C16.24125,0.0332439306 15.97245,0.171509827 15.83685,0.393937572 L15.82005,0.421891329 L15.80085,0.448642775 L0.10335,22.4320185 C0.00015,22.5768971 -0.02745,22.7551399 0.02775,22.921059 L5.80605,40.4300301 L6.11985,41.3804578 L5.14335,41.5938682 C3.97035,41.8505618 3.13725,42.7492902 3.11775,43.7799723 L2.97645,49.2078104 C2.96805,49.7299145 3.22095,50.3010127 3.67065,50.7663075 C4.19895,51.3124578 4.90695,51.6319723 5.61315,51.6424925 Z" id="Fill-5" fill="#333333" mask="url(#mask-2)"></path>
                            </g>
                        </g>
                    </g>
                </g>
            </g>
        </g>
    </g>
</svg>