<?xml version="1.0" encoding="UTF-8"?>
<svg width="52px" height="54px" viewBox="0 0 52 54" version="1.1" xmlns="http://www.w3.org/2000/svg" xmlns:xlink="http://www.w3.org/1999/xlink">
    <!-- Generator: Sketch 49.3 (51167) - http://www.bohemiancoding.com/sketch -->
    <title>灯泡</title>
    <desc>Created with Sketch.</desc>
    <defs>
        <polygon id="path-1" points="0 0.073 5.24725967 0.073 5.24725967 1.73728571 0 1.73728571"></polygon>
        <polygon id="path-3" points="0.192055249 0.073 5.43902762 0.073 5.43902762 1.73728571 0.192055249 1.73728571"></polygon>
    </defs>
    <g id="申请成为老师" stroke="none" stroke-width="1" fill="none" fill-rule="evenodd">
        <g id="01_申请成为tutor" transform="translate(-1146.000000, -1447.000000)">
            <g id="申请资格" transform="translate(555.000000, 1123.000000)">
                <g id="Group-17-Copy-2" transform="translate(591.000000, 324.000000)">
                    <g id="044">
                        <g id="Page-1">
                            <path d="M23.3455006,27.5673143 L28.9847713,27.5673143 L26.1845282,32.7233143 L23.3455006,27.5673143 Z M31.1110254,42.9781714 L31.1110254,45.5973143 C31.0759757,47.0993143 29.8357326,48.3158857 28.3461193,48.3158857 L24.0189149,48.3158857 C22.5117768,48.3158857 21.2853238,47.0967429 21.2853238,45.5973143 L21.2853238,42.9781714 L21.2853238,42.6924571 L21.5726166,42.6924571 L30.8237326,42.6924571 L31.1110254,42.6924571 L31.1110254,42.9781714 Z M28.3515779,50.2136 L28.3515779,51.2427429 C28.3515779,51.8033143 27.8752464,52.2770286 27.3112906,52.2770286 L25.0531691,52.2770286 C24.4895006,52.2770286 24.0134564,51.8033143 24.0134564,51.2427429 L24.0134564,50.2136 L24.0134564,49.9278857 L24.3007492,49.9278857 L28.0642851,49.9278857 L28.3515779,49.9278857 L28.3515779,50.2136 Z" id="Fill-1" fill="#FFDA00"></path>
                            <path d="M31.5661547,37.4836 L31.5112818,37.5076 L31.5098453,37.5076 L31.079768,37.6910286 L31.079768,40.8084571 L31.079768,41.0941714 L30.7924751,41.0941714 L27.2800331,41.0941714 L26.9927403,41.0941714 L26.9927403,40.8084571 L26.9927403,34.6696 L30.6649171,27.8856 C30.8910166,27.5104571 30.8789503,27.0373143 30.6399227,26.6407429 C30.3764751,26.2216 29.9050276,25.9684571 29.3812928,25.9684571 L22.9528287,25.9684571 C22.4288066,25.9684571 21.9573591,26.2216 21.691326,26.6450286 C21.4545967,27.0373143 21.4448287,27.4896 21.6663315,27.8821714 L25.3724088,34.7010286 L25.3724088,40.8084571 L25.3724088,41.0941714 L25.085116,41.0941714 L21.5729613,41.0941714 L21.2856685,41.0941714 L21.2856685,40.8084571 L21.2856685,37.6910286 L20.8010055,37.4844571 C15.8187735,35.3567429 12.5990829,30.4793143 12.5990829,25.0593143 C12.5990829,17.5933143 18.7069282,11.5193143 26.2141768,11.5193143 C33.7214254,11.5193143 39.8292707,17.5933143 39.8292707,25.0593143 C39.7968066,30.4456 36.553558,35.3218857 31.5661547,37.4836 Z M23.345558,27.5804571 L28.9848287,27.5804571 L26.1845856,32.7364571 L23.345558,27.5804571 Z M31.1110829,42.9910286 L31.1110829,45.6104571 C31.0760331,47.1124571 29.8357901,48.3290286 28.3461768,48.3290286 L24.0186851,48.3290286 C22.511547,48.3290286 21.2853812,47.1096 21.2853812,45.6104571 L21.2853812,42.9910286 L21.2853812,42.7053143 L21.572674,42.7053143 L30.8237901,42.7053143 L31.1110829,42.7053143 L31.1110829,42.9910286 Z M28.3516354,50.2267429 L28.3516354,51.2558857 C28.3516354,51.8164571 27.8750166,52.2901714 27.3110608,52.2901714 L25.0532265,52.2901714 C24.489558,52.2901714 24.0135138,51.8164571 24.0135138,51.2558857 L24.0135138,50.2267429 L24.0135138,49.9410286 L24.3008066,49.9410286 L28.0643425,49.9410286 L28.3516354,49.9410286 L28.3516354,50.2267429 Z M39.1529834,33.0976 C40.6756354,30.6830286 41.4806298,27.9036 41.4806298,25.0590286 C41.4191492,16.7364571 34.6068619,9.95788571 26.2753702,9.90731429 L26.1828619,9.90731429 C17.7821326,9.90731429 10.9471492,16.7041714 10.9471492,25.0590286 C10.9471492,27.9093143 11.7484088,30.6893143 13.2633039,33.0976 C14.7759006,35.5018857 16.9334696,37.4321714 19.5038785,38.6801714 L19.6647624,38.7584571 L19.6647624,38.9370286 L19.6647624,45.6104571 C19.6647624,47.3181714 20.6809171,48.8681714 22.253558,49.5596 L22.4247845,49.6347429 L22.4247845,49.8210286 L22.4247845,51.2556 C22.4247845,52.7147429 23.6181989,53.9013143 25.085116,53.9013143 L27.3432376,53.9013143 C28.8098674,53.9013143 30.0035691,52.7147429 30.0035691,51.2556 L30.0035691,49.8213143 L30.0035691,49.6350286 L30.1745083,49.5598857 C31.7468619,48.8684571 32.7630166,47.3181714 32.7630166,45.6104571 L32.7630166,38.9370286 L32.7630166,38.7590286 L32.9236133,38.6804571 C35.4842541,37.4301714 37.6383757,35.4996 39.1529834,33.0976 Z" id="Fill-3" fill="#333333"></path>
                            <g id="Group-7" transform="translate(0.000000, 22.187143)">
                                <mask id="mask-2" fill="white">
                                    <use xlink:href="#path-1"></use>
                                </mask>
                                <g id="Clip-6"></g>
                                <path d="M-0.000143646409,0.905 C-0.000143646409,1.36442857 0.374773481,1.73728571 0.836740331,1.73728571 L4.41066298,1.73728571 C4.87262983,1.73728571 5.24725967,1.36442857 5.24725967,0.905 C5.24725967,0.445571429 4.87262983,0.073 4.41066298,0.073 L0.836740331,0.073 C0.374773481,0.073 -0.000143646409,0.445571429 -0.000143646409,0.905" id="Fill-5" fill="#333333" mask="url(#mask-2)"></path>
                            </g>
                            <path d="M12.0063978,10.3237429 C12.333337,9.9986 12.333337,9.47174286 12.0063978,9.1466 L9.47965746,6.63402857 C9.15300552,6.30888571 8.62323757,6.30888571 8.29629834,6.63374286 C7.96935912,6.95888571 7.96935912,7.48574286 8.29629834,7.81088571 L10.8230387,10.3237429 C11.1499779,10.6486 11.6794586,10.6486 12.0063978,10.3237429" id="Fill-8" fill="#333333"></path>
                            <path d="M40.0337083,10.3234571 L40.0337083,10.3237429 C40.3603602,10.6486 40.8901282,10.6486 41.2170674,10.3237429 L43.7438077,7.8106 C44.070747,7.48574286 44.070747,6.95888571 43.7438077,6.63402857 C43.4168685,6.30888571 42.8873878,6.30888571 42.5604486,6.63402857 L40.0337083,9.14688571 C39.7067691,9.47174286 39.7067691,9.9986 40.0337083,10.3234571" id="Fill-10" fill="#333333"></path>
                            <g id="Group-14" transform="translate(46.541436, 22.187143)">
                                <mask id="mask-4" fill="white">
                                    <use xlink:href="#path-3"></use>
                                </mask>
                                <g id="Clip-13"></g>
                                <path d="M0.192055249,0.905 C0.192055249,1.36442857 0.566972376,1.73728571 1.02893923,1.73728571 L4.60257459,1.73728571 C5.06454144,1.73728571 5.43917127,1.36442857 5.43917127,0.905 C5.43917127,0.445571429 5.06454144,0.073 4.60257459,0.073 L1.02893923,0.073 C0.566972376,0.073 0.192055249,0.445571429 0.192055249,0.905" id="Fill-12" fill="#333333" mask="url(#mask-4)"></path>
                            </g>
                            <path d="M25.1534055,0.832114286 L25.1534055,4.38582857 C25.1534055,4.84554286 25.5280354,5.21811429 25.9902895,5.21811429 C26.4522564,5.21811429 26.8271735,4.84554286 26.8271735,4.38582857 L26.8271735,0.832114286 C26.8271735,0.372685714 26.4522564,0.000114285714 25.9902895,0.000114285714 C25.5280354,0.000114285714 25.1534055,0.372685714 25.1534055,0.832114286" id="Fill-15" fill="#333333"></path>
                        </g>
                    </g>
                </g>
            </g>
        </g>
    </g>
</svg>