<?xml version="1.0" encoding="UTF-8"?>
<svg width="157px" height="169px" viewBox="0 0 157 169" version="1.1" xmlns="http://www.w3.org/2000/svg" xmlns:xlink="http://www.w3.org/1999/xlink">
    <!-- Generator: Sketch 49.3 (51167) - http://www.bohemiancoding.com/sketch -->
    <title>点赞</title>
    <desc>Created with Sketch.</desc>
    <defs>
        <polygon id="path-1" points="0 168.106 156.871 168.106 156.871 0 0 0"></polygon>
    </defs>
    <g id="点赞" stroke="none" stroke-width="1" fill="none" fill-rule="evenodd">
        <g id="Page-1">
            <path d="M43.2118,158.8936 L43.2118,65.8626 C50.8058,65.3666 56.2858,64.2966 59.5218,62.6786 C68.0548,58.4516 78.9628,46.8646 82.4078,34.7556 C83.9478,29.3546 86.5838,15.9936 86.8968,14.4276 C87.5748,10.9306 90.9148,8.3476 94.8298,8.3476 C95.1428,8.3476 95.4558,8.3726 95.7688,8.3996 C101.2748,8.9736 104.2238,14.1926 103.8328,18.6816 C102.0058,38.9576 102.4048,51.1706 102.3528,51.2486 L97.8378,66.1756 L135.8258,66.1756 C139.2448,66.1756 142.3758,67.6116 144.6198,70.1946 C146.8648,72.7776 147.8038,76.0916 147.2818,79.4846 L138.3578,139.1396 C136.6348,150.5696 127.0058,158.8686 115.4448,158.8686 L43.2118,158.8686 L43.2118,158.8936 Z" id="Fill-1" fill="#FFD811"></path>
            <mask id="mask-2" fill="white">
                <use xlink:href="#path-1"></use>
            </mask>
            <g id="Clip-4"></g>
            <path d="M11.212,156.868 L33.611,156.868 L33.611,67.172 L11.212,67.172 L11.212,156.868 Z M44.823,156.868 L44.823,66.844 C52.172,66.363 57.475,65.328 60.606,63.763 C68.864,59.672 79.419,48.46 82.752,36.742 C84.243,31.515 86.793,18.586 87.096,17.07 C87.753,13.687 90.985,11.187 94.773,11.187 C95.076,11.187 95.379,11.212 95.682,11.237 C101.01,11.793 103.864,16.844 103.485,21.187 C101.717,40.808 98.232,52.626 98.182,52.702 L93.813,67.147 L134.445,67.147 C137.753,67.147 140.783,68.535 142.954,71.035 C145.126,73.535 146.035,76.742 145.53,80.025 L136.894,137.752 C135.227,148.814 125.909,156.844 114.722,156.844 L44.823,156.844 L44.823,156.868 Z M94.798,0 C85.707,0 77.778,6.212 76.111,15 C76.111,15 73.409,28.763 71.995,33.712 C69.672,41.868 61.54,50.884 55.657,53.763 C51.212,55.96 34.697,55.984 33.687,55.984 L11.212,55.984 C5.025,55.984 0,60.984 0,67.197 L0,156.894 C0,163.081 5,168.106 11.212,168.106 L114.697,168.106 C131.338,168.106 145.48,155.935 147.954,139.47 L156.616,81.742 C158.661,68.182 148.157,56.01 134.445,56.01 L108.939,56.01 C108.939,56.01 112.727,43.46 114.646,22.273 C115.606,11.54 108.005,1.314 96.844,0.151 C96.161,0.051 95.48,0 94.798,0 Z" id="Fill-3" fill="#333333" mask="url(#mask-2)"></path>
        </g>
    </g>
</svg>