<?xml version="1.0" encoding="UTF-8"?>
<svg width="49px" height="48px" viewBox="0 0 49 48" version="1.1" xmlns="http://www.w3.org/2000/svg" xmlns:xlink="http://www.w3.org/1999/xlink">
    <!-- Generator: Sketch 49.3 (51167) - http://www.bohemiancoding.com/sketch -->
    <title>地球</title>
    <desc>Created with Sketch.</desc>
    <defs>
        <polygon id="path-1" points="0 0.23664 47.7603721 0.23664 47.7603721 47.6307323 0 47.6307323"></polygon>
        <linearGradient x1="50%" y1="0%" x2="50%" y2="100%" id="linearGradient-3">
            <stop stop-color="#626262" offset="0%"></stop>
            <stop stop-color="#333333" offset="100%"></stop>
        </linearGradient>
        <linearGradient x1="50%" y1="0%" x2="50%" y2="100%" id="linearGradient-4">
            <stop stop-color="#FFEF00" offset="0%"></stop>
            <stop stop-color="#FFDA00" offset="100%"></stop>
        </linearGradient>
    </defs>
    <g id="申请成为老师" stroke="none" stroke-width="1" fill="none" fill-rule="evenodd">
        <g id="01_申请成为tutor" transform="translate(-1240.000000, -1851.000000)">
            <g id="福利" transform="translate(362.000000, 1745.000000)">
                <g id="Group-19-Copy-4" transform="translate(809.800000, 80.000000)">
                    <g id="036" transform="translate(69.000000, 26.000000)">
                        <g id="Page-1">
                            <g id="Group-3" transform="translate(0.000000, 0.132923)">
                                <mask id="mask-2" fill="white">
                                    <use xlink:href="#path-1"></use>
                                </mask>
                                <g id="Clip-2"></g>
                                <path d="M6.51564651,27.8931323 C6.57964651,27.6819323 6.96327442,27.1399015 7.13183256,26.9013785 C7.81127442,25.9435938 8.6440186,24.7698092 8.00364651,23.4804554 C7.56234419,22.5898708 6.4148093,21.9946708 4.16699535,21.4917785 C3.78634419,21.4072246 3.3748093,21.3252554 2.91304186,21.2429169 C4.26634419,10.8073477 13.2482977,2.95934769 23.8778791,2.95934769 C27.3554605,2.95934769 30.8088558,3.82334769 33.8656,5.45682462 L33.949693,5.50187077 L33.9660651,5.49411692 C34.1762977,5.58827077 34.865786,5.95750154 35.2810419,6.27134769 L35.2951814,6.28870154 L35.3197395,6.30457846 C39.0019721,8.66544 41.8190884,12.0372554 43.4674605,16.0552246 C43.8570419,16.89744 43.9489488,17.2157169 43.9686698,17.3316554 C43.9865302,17.4328246 44.0077395,17.5421169 44.0427163,17.6528862 C44.6879256,19.6855015 45.0149953,21.7986092 45.0149953,23.9335015 C45.0149953,35.4992862 35.5325767,44.9091323 23.877507,44.91024 C16.125693,44.9091323 9.01685581,40.7050708 5.30076279,33.9315323 C5.99657674,32.5949169 7.0228093,30.1192246 6.51564651,27.8931323 M3.8336,28.4517785 C3.95862326,28.9613169 3.93108837,29.5956554 3.75248372,30.3440862 C3.08569302,28.2889477 2.7456,26.1488862 2.74076279,23.9733785 C2.91713488,24.00624 3.11285581,24.0450092 3.33425116,24.0907938 C4.42597209,24.3219323 5.02615814,24.5323938 5.34020465,24.6701169 C5.20141395,24.8975631 5.00569302,25.1704246 4.90076279,25.3173785 C4.29164651,26.17584 3.53704186,27.2403323 3.8336,28.4517785 M47.7271814,22.6471015 C47.4425302,17.2703631 45.285507,12.1063015 41.6542512,8.10568615 C37.0481116,3.03097846 30.7355535,0.23664 23.8801116,0.23664 C23.4503442,0.23664 23.013507,0.247716923 22.5822512,0.27024 C17.1642047,0.553070769 11.9601116,2.69350154 7.92848372,6.29756308 C2.53015814,11.1234092 -0.347237209,18.02064 0.0334139535,25.2202708 C0.318437209,30.59664 2.47508837,35.7610708 6.10634419,39.7616862 C10.7124837,44.8363938 17.0246698,47.6307323 23.8801116,47.6307323 C24.3102512,47.6307323 24.7470884,47.6192862 25.1779721,47.5967631 C30.5963907,47.3143015 35.8004837,45.1738708 39.8321116,41.5698092 C45.2304372,36.7443323 48.1078326,29.8467323 47.7271814,22.6471015" id="Fill-1" fill="url(#linearGradient-3)" mask="url(#mask-2)"></path>
                            </g>
                            <path d="M18.9331721,18.1401231 C18.5543814,18.1836923 18.1968,18.2246769 17.8991256,18.2246769 C17.3774512,18.2246769 16.8382884,18.2246769 16.1123349,16.5771692 C15.0314047,14.1177231 15.8336372,10.1732308 19.0157767,8.08892308 C20.7731721,6.9384 21.9772651,6.44769231 23.040707,6.44769231 C23.8909395,6.44769231 24.8159628,6.74566154 26.1331721,7.44387692 C27.7625674,8.30529231 29.0399628,8.41569231 29.9716837,8.41569231 C30.348614,8.41569231 30.7013581,8.39427692 30.9852651,8.37803077 C31.2420093,8.36178462 31.4909395,8.34775385 31.7201488,8.34775385 C32.2172651,8.34775385 32.5949395,8.40830769 33.0537302,8.71735385 C33.9162419,9.30184615 34.3787535,10.6384615 34.8684279,12.0529846 C35.6405209,14.2838769 36.5153116,16.8123692 39.3328,17.7635077 L39.3975442,17.7856615 C39.7026605,17.8890462 40.1335442,18.0352615 40.5067535,18.1785231 C40.1104744,18.5621538 39.5523349,19.0554462 39.0507535,19.4992615 L38.9045209,19.6292308 C38.5331721,19.9589538 38.1197767,20.3259692 37.6680558,20.7347077 C36.1171721,22.1381538 36.3080558,23.8225846 36.4613581,25.1761846 L36.4617302,25.1761846 C36.6373581,26.7273231 36.8174512,28.3312615 34.8795907,30.4897846 C34.3195907,31.1145231 33.9981023,31.9633846 33.6583814,32.8628308 C32.8836837,34.9172308 32.2142884,36.6913846 29.3156837,36.756 C29.2230326,36.6053538 29.0295442,36.1918154 28.8490791,35.1864 C28.6541023,34.0890462 28.5391256,32.6693538 28.4174512,31.1658462 L28.4085209,31.0539692 C28.2180093,28.6672615 28.0025674,25.9619077 27.4053581,23.7048 C26.6299163,20.7786462 25.3182884,19.0458462 23.3960558,18.4085538 C22.5633116,18.1327385 21.7160558,17.9990769 20.8062884,17.9990769 C20.1461953,17.9990769 19.5504744,18.0684923 19.0250791,18.1297846 L19.0027535,18.1323692 L18.9331721,18.1401231 Z M43.6122419,18.1294154 C43.6114977,18.1161231 43.6107535,18.1017231 43.6100093,18.0862154 C43.5910326,17.7561231 43.5508465,17.0697231 43.0619163,16.5151385 L43.0552186,16.5077538 L43.0481488,16.5011077 C42.4252651,15.9299077 41.4012651,15.5835692 40.2154047,15.1829538 C38.672707,14.6616 38.1115907,13.0406769 37.4622884,11.1638769 C36.9476837,9.6792 36.364986,7.99624615 35.1021023,6.87083077 C34.4736372,6.23353846 34.2384744,6.14307692 33.8771721,6.03858462 C33.7692651,6.0072 33.6572651,5.97507692 33.5110326,5.91415385 C32.7992186,5.65901538 32.1796837,5.62689231 31.7175442,5.62689231 C31.4064744,5.62689231 31.100986,5.64387692 30.8170791,5.66270769 C30.5562419,5.67784615 30.2589395,5.6952 29.9664744,5.6952 C29.3168,5.6952 28.5063814,5.61766154 27.4194977,5.04203077 C25.672893,4.12006154 24.3627535,3.7272 23.0384744,3.7272 C21.3971721,3.7272 19.7417302,4.35230769 17.5028465,5.81741538 C15.5597767,7.08904615 14.096707,9.03489231 13.3830326,11.2960615 C12.684614,13.5040615 12.7601488,15.7659692 13.5962419,17.6652923 C14.5945674,19.9334769 15.9199628,20.9455385 17.8942884,20.9455385 C18.3664744,20.9455385 18.8200558,20.892 19.3008,20.8358769 L19.3071256,20.7420923 C19.3130791,20.7413538 19.3182884,20.7406154 19.3242419,20.7398769 L19.3350326,20.8318154 C19.8090791,20.7768 20.2994977,20.7195692 20.8014512,20.7195692 C21.420614,20.7195692 21.9672186,20.8048615 22.5223814,20.9876308 C23.4980093,21.3118154 24.2265674,22.4265231 24.7493581,24.3956308 C25.2810791,26.3961231 25.484986,28.9526769 25.6658233,31.2083077 L25.6699163,31.2666462 L25.6717767,31.2891692 C25.8235907,33.1907077 25.9664744,34.9866462 26.2834977,36.3509538 C26.4814512,37.2005538 26.7389395,37.8463385 27.0693581,38.3256 C27.5813581,39.0688615 28.3184744,39.4779692 29.1445209,39.4779692 C31.2933581,39.4779692 33.0131721,38.7875077 34.2559628,37.4257846 C35.2810791,36.3029538 35.7997767,34.9294154 36.216893,33.8254154 C36.4438698,33.2239385 36.6983814,32.5471385 36.9205209,32.2986462 C39.6710326,29.2332923 39.3871256,26.7121846 39.1794977,24.8712 C39.0302884,23.5464 39.0429395,23.1642462 39.5084279,22.7429538 C40.0103814,22.2895385 40.4669395,21.8833846 40.8695442,21.5263385 C41.7316837,20.7624 42.3549395,20.2104 42.7995907,19.7315077 C43.0221023,19.4889231 43.484986,18.9860308 43.6364279,18.3243692 L43.6777302,18.1438154 L43.6122419,18.1294154 Z" id="Fill-4" fill="url(#linearGradient-4)"></path>
                        </g>
                    </g>
                </g>
            </g>
        </g>
    </g>
</svg>