<?xml version="1.0" encoding="UTF-8"?>
<svg width="199px" height="157px" viewBox="0 0 199 157" version="1.1" xmlns="http://www.w3.org/2000/svg" xmlns:xlink="http://www.w3.org/1999/xlink">
    <!-- Generator: Sketch 49.3 (51167) - http://www.bohemiancoding.com/sketch -->
    <title>duiren</title>
    <desc>Created with Sketch.</desc>
    <defs>
        <polygon id="path-1" points="0 0.628 198.263 0.628 198.263 155.9999 0 155.9999"></polygon>
    </defs>
    <g id="duiren" stroke="none" stroke-width="1" fill="none" fill-rule="evenodd">
        <g id="Page-1">
            <path d="M181.5505,145.0878 C181.5505,147.3218 180.5295,148.4478 178.5505,148.4478 L146.0955,148.4478 C146.6725,148.4478 146.2435,145.9578 146.2435,144.1238 L146.2435,130.3308 C146.2435,122.4148 136.9335,117.9098 135.1675,117.1648 L108.4915,104.3638 C106.9165,103.6168 105.8695,102.2788 105.3775,100.5948 C104.8345,98.7508 104.8395,96.7228 105.8945,95.0288 C112.7065,84.1188 115.4625,92.6898 115.4625,83.8298 C115.4625,83.8298 117.4175,48.7528 115.3885,43.8538 C118.1515,43.3298 119.2975,42.7758 122.1545,42.7758 C137.6755,42.7758 153.0325,44.4738 153.0325,66.0798 L153.0325,71.0798 C153.0325,77.6098 151.4455,88.2468 146.1525,96.7258 C144.0335,100.1218 143.6125,104.2848 144.7445,108.1488 C145.8895,112.0598 148.7295,115.3048 152.4125,117.0508 L176.4165,128.5918 C178.9025,129.6228 181.5505,131.8008 181.5505,132.7438 L181.5505,145.0878 Z" id="Fill-1" fill="#FFD811"></path>
            <g id="Group-5" transform="translate(0.000000, 0.372000)">
                <mask id="mask-2" fill="white">
                    <use xlink:href="#path-1"></use>
                </mask>
                <g id="Clip-4"></g>
                <path d="M189.4362,143.8129 C189.4362,146.0469 188.4142,147.1729 186.4362,147.1729 L153.9812,147.1729 C154.5582,147.1729 154.1292,144.6829 154.1292,142.8489 L154.1292,129.0569 C154.1292,121.1399 144.8182,116.6349 143.0532,115.8899 L116.3772,103.0899 C114.8022,102.3429 113.7552,101.0039 113.2622,99.3209 C112.7202,97.4759 112.7252,95.4489 113.7802,93.7549 C120.5922,82.8439 123.3482,69.0209 123.3482,60.1619 L123.3482,42.7039 C123.3482,36.2589 122.5402,30.6079 120.5112,25.7099 C123.2742,25.1859 126.0732,24.8729 128.9302,24.8729 C144.4512,24.8729 160.9182,32.5719 160.9182,54.1779 L160.9182,69.8049 C160.9182,76.3349 159.3312,86.9719 154.0382,95.4509 C151.9192,98.8469 151.4982,103.0099 152.6292,106.8739 C153.7752,110.7849 156.6152,114.0299 160.2972,115.7759 L184.3022,127.3169 C186.7882,128.3489 189.4362,130.5269 189.4362,131.4699 L189.4362,143.8129 Z M137.2512,147.1729 L13.1582,147.1729 C10.1962,147.1729 8.8272,144.6349 8.8272,142.8509 L8.8272,129.0559 C8.8272,128.0569 12.0042,125.4029 15.2632,123.8409 L42.1782,110.9499 C46.1752,109.0639 49.2512,105.5489 50.4912,101.3049 C51.7112,97.1229 50.7932,92.6239 48.4892,88.9629 C42.5892,79.5909 39.6072,67.4639 39.6072,60.1609 L39.6072,42.7029 C39.6072,18.1549 59.7872,9.4439 77.0802,9.4439 C94.3572,9.4439 114.5222,18.1549 114.5222,42.7029 L114.5222,60.1609 C114.5222,67.5189 112.1992,79.7079 106.3442,89.0869 C103.9572,92.9099 103.4752,97.5439 104.7242,101.7999 C105.9352,105.9299 108.8242,109.2169 112.6972,111.0529 L139.4922,123.9239 C142.5932,125.2569 145.5292,127.8479 145.5292,129.0559 L145.5292,142.8479 C145.5292,145.3839 144.4642,147.1729 141.7822,147.1729 L137.2512,147.1729 Z M187.9232,119.2629 L163.9742,107.8119 C162.5602,107.1399 161.5862,105.8959 161.1462,104.3939 C160.7152,102.9189 160.6782,101.4019 161.4792,100.1169 C167.7572,90.0589 169.7462,77.5009 169.7462,69.8039 L169.7462,54.1779 C169.7462,27.8429 149.4762,16.0559 129.1052,16.0559 C124.6322,16.0559 120.2402,16.6199 116.1162,17.6629 C107.3762,6.0409 92.1902,0.6269 77.3482,0.6269 C54.3012,0.6269 30.7812,13.6369 30.7812,42.7029 L30.7812,60.1609 C30.7812,68.9759 34.1922,82.7509 41.0602,93.6599 C42.0352,95.2089 42.4542,97.0469 41.9322,98.8339 C41.4012,100.6569 40.1942,102.1679 38.4462,102.9919 L11.4152,115.8849 C9.5512,116.7699 -0.0008,121.5549 -0.0008,129.0559 L-0.0008,142.8509 C-0.0008,150.8169 5.9972,155.9999 13.1582,155.9999 L137.2512,155.9999 L141.7822,155.9999 L186.4362,155.9999 C193.3452,155.9999 198.2632,150.9869 198.2632,143.8129 L198.2632,131.4689 C198.2632,124.0689 189.5412,119.9279 187.9232,119.2629 Z" id="Fill-3" fill="#333333" mask="url(#mask-2)"></path>
            </g>
        </g>
    </g>
</svg>