<?xml version="1.0" encoding="UTF-8"?>
<svg width="127px" height="140px" viewBox="0 0 127 140" version="1.1" xmlns="http://www.w3.org/2000/svg" xmlns:xlink="http://www.w3.org/1999/xlink">
    <!-- Generator: Sketch 49.3 (51167) - http://www.bohemiancoding.com/sketch -->
    <title>对</title>
    <desc>Created with Sketch.</desc>
    <defs>
        <polygon id="path-1" points="0 0.658 126.425769 0.658 126.425769 139 0 139"></polygon>
    </defs>
    <g id="对" stroke="none" stroke-width="1" fill="none" fill-rule="evenodd">
        <g id="Page-1">
            <path d="M104.6785,135.4485 L6.0455,135.4485 C5.1495,135.4485 4.4315,134.7315 4.4315,133.8345 L4.4315,75.9095 L100.4645,75.9095 C102.7955,75.9095 104.6785,77.7925 104.6785,80.1245 L104.6785,135.4485 Z" id="Fill-1" fill="#FFDA00"></path>
            <path d="M96.5193,45.9456 C95.5533,45.9456 94.6363,46.3086 94.0033,46.9426 L53.0263,87.9196 L52.6723,88.2736 L52.3193,87.9196 L51.1533,86.7546 L30.4403,66.0416 C29.7633,65.3646 28.9173,65.0226 27.9243,65.0226 C27.0293,65.0226 26.1523,65.3816 25.3873,66.0616 C24.7803,66.6706 24.3893,67.6336 24.3893,68.5566 C24.3893,69.4516 24.7483,70.3296 25.4283,71.0946 L50.1563,95.8206 C50.7903,96.4546 51.7063,96.8176 52.6723,96.8176 C53.6373,96.8176 54.5543,96.4546 55.1883,95.8206 L99.0353,51.9736 C99.7103,51.2976 100.0543,50.4506 100.0543,49.4586 C100.0543,48.5636 99.6953,47.6856 99.0143,46.9216 C98.4013,46.3086 97.4843,45.9456 96.5193,45.9456" id="Fill-3" fill="#333333"></path>
            <g id="Group-7" transform="translate(0.000000, 0.342000)">
                <mask id="mask-2" fill="white">
                    <use xlink:href="#path-1"></use>
                </mask>
                <g id="Clip-6"></g>
                <path d="M116.8835,128.899 C115.0015,130.969 112.2815,132.02 108.8035,132.02 L18.7795,132.02 C18.6605,132.02 6.9805,131.885 6.9805,120.222 L6.9805,19.347 C6.9805,14.337 8.6145,10.865 11.8395,9.027 C14.4315,7.549 17.3665,7.549 18.7785,7.549 L74.6405,7.549 L76.2545,7.549 C91.8435,7.549 101.3745,9.807 108.1255,15.098 C115.9645,21.296 119.6145,31.621 119.6145,47.592 L119.6145,120.312 C119.6725,121.189 119.8055,125.719 116.8835,128.899 M126.4165,120.342 L126.4155,47.592 C126.6905,27.702 121.4445,14.627 110.3785,7.613 C100.9625,1.644 89.0595,1.199 79.4955,0.842 L79.3745,0.837 C78.5305,0.793 77.7175,0.771 76.9155,0.749 C76.1055,0.727 75.2685,0.704 74.4465,0.658 L18.6895,0.658 C11.7085,0.658 -0.0005,3.086 -0.0005,19.347 L-0.0005,120.222 C0.0875,138.787 18.0155,139 18.7785,139 L108.8035,139 C114.3975,139 118.7075,137.395 121.6155,134.23 C126.5155,128.998 126.4415,121.213 126.4165,120.342" id="Fill-5" fill="#333333" mask="url(#mask-2)"></path>
            </g>
        </g>
    </g>
</svg>