<?xml version="1.0" encoding="UTF-8"?>
<svg width="197px" height="131px" viewBox="0 0 197 131" version="1.1" xmlns="http://www.w3.org/2000/svg" xmlns:xlink="http://www.w3.org/1999/xlink">
    <!-- Generator: Sketch 49.3 (51167) - http://www.bohemiancoding.com/sketch -->
    <title>eye</title>
    <desc>Created with Sketch.</desc>
    <defs>
        <polygon id="path-1" points="0 -2.84217094e-14 196.11 -2.84217094e-14 196.11 130.6756 0 130.6756"></polygon>
    </defs>
    <g id="eye" stroke="none" stroke-width="1" fill="none" fill-rule="evenodd">
        <g>
            <mask id="mask-2" fill="white">
                <use xlink:href="#path-1"></use>
            </mask>
            <g id="Clip-2"></g>
            <path d="M98.055,91.8866 C83.506,91.8866 71.675,80.0556 71.675,65.5066 C71.675,50.9566 83.507,39.1256 98.055,39.1256 C112.603,39.1256 124.436,50.9566 124.436,65.5066 C124.436,80.0556 112.604,91.8866 98.055,91.8866 M98.055,24.3476 C75.366,24.3476 56.897,42.8106 56.897,65.5066 C56.897,88.2076 75.366,106.6636 98.055,106.6636 C120.756,106.6636 139.213,88.2076 139.213,65.5066 C139.213,42.8106 120.756,24.3476 98.055,24.3476 M98.055,115.8996 C50.212,115.8996 14.777,76.0396 14.777,65.5066 C14.777,57.3656 50.308,14.7776 98.055,14.7776 C143.914,14.7776 181.332,55.5626 181.332,65.5066 C181.332,76.0386 145.899,115.8996 98.055,115.8996 M98.055,-0.0004 C43.491,-0.0004 0,47.0376 0,65.5066 C0,86.9686 45.39,130.6756 98.055,130.6756 C150.72,130.6756 196.11,86.9686 196.11,65.5066 C196.11,44.4946 149.722,-0.0004 98.055,-0.0004" id="Fill-1" fill="#D2D2D2" mask="url(#mask-2)"></path>
        </g>
    </g>
</svg>