<?xml version="1.0" encoding="UTF-8"?>
<svg width="49px" height="51px" viewBox="0 0 49 51" version="1.1" xmlns="http://www.w3.org/2000/svg" xmlns:xlink="http://www.w3.org/1999/xlink">
    <!-- Generator: Sketch 49.3 (51167) - http://www.bohemiancoding.com/sketch -->
    <title>咖啡</title>
    <desc>Created with Sketch.</desc>
    <defs>
        <linearGradient x1="50%" y1="0%" x2="50%" y2="100%" id="linearGradient-1">
            <stop stop-color="#FFEF00" offset="0%"></stop>
            <stop stop-color="#FFDA00" offset="100%"></stop>
        </linearGradient>
        <polygon id="path-2" points="0.00258302564 0.230975207 7.58586357 0.230975207 7.58586357 17.072524 0.00258302564 17.072524"></polygon>
        <polygon id="path-4" points="0 0.0480495868 48.8447765 0.0480495868 48.8447765 31.6115702 0 31.6115702"></polygon>
        <linearGradient x1="50%" y1="0%" x2="50%" y2="100%" id="linearGradient-6">
            <stop stop-color="#626262" offset="0%"></stop>
            <stop stop-color="#333333" offset="100%"></stop>
        </linearGradient>
    </defs>
    <g id="申请成为老师" stroke="none" stroke-width="1" fill="none" fill-rule="evenodd">
        <g id="01_申请成为tutor" transform="translate(-1446.000000, -1848.000000)">
            <g id="福利" transform="translate(362.000000, 1745.000000)">
                <g id="Group-19-Copy-5" transform="translate(1015.000000, 80.000000)">
                    <g id="035" transform="translate(69.000000, 23.000000)">
                        <g id="Page-1">
                            <path d="M29.3725174,10.8679314 C30.4360304,11.7585347 31.0086913,12.649138 30.9268826,13.296543 C30.8450739,13.9443694 29.9456043,14.5104273 29.7001783,14.671857 C29.6959174,14.673543 29.6925087,14.6756504 29.6882478,14.6773364 C28.8799609,15.081543 28.5548565,16.0577083 28.9634739,16.8572702 C29.2089,17.4254355 29.7815609,17.7487165 30.4360304,17.7487165 C30.6810304,17.7487165 30.9268826,17.6677909 31.1706043,17.6665264 C31.4151783,17.5847579 33.8702913,16.2912124 34.1971,13.7816752 C34.4425261,12.0029975 33.5430565,10.2230554 31.4965609,8.44016281 C30.7611348,7.79233636 29.860813,6.82165041 29.9426217,5.85012149 C30.0244304,4.79850992 31.3337957,3.98883223 31.3337957,3.98883223 C32.1514565,3.50538595 32.3956043,2.53301405 31.9064565,1.72333636 C31.4177348,0.91323719 30.4339,0.670881818 29.615813,1.15601405 C29.3725174,1.31786529 26.9178304,2.85292314 26.6724043,5.5268405 C26.5100652,7.38812975 27.410387,9.16891488 29.3725174,10.8679314" id="Fill-1" fill="url(#linearGradient-1)"></path>
                            <path d="M20.534153,10.8679314 C21.5980922,11.7585347 22.170327,12.649138 22.0885183,13.296543 C22.0071357,13.9443694 21.1076661,14.5104273 20.8618139,14.671857 C20.8579791,14.673543 20.8541443,14.6756504 20.8503096,14.6773364 C20.0415965,15.081543 19.7169183,16.0577083 20.1251096,16.8572702 C20.3709617,17.4254355 20.9436226,17.7487165 21.5980922,17.7487165 C21.8447965,17.7487165 22.0902226,17.6677909 22.3352226,17.6665264 C22.5802226,17.5847579 25.0349096,16.2912124 25.3625704,13.7816752 C25.60544,12.0029975 24.7042661,10.2230554 22.6594748,8.44016281 C21.9231965,7.79233636 21.0224487,6.82165041 21.1051096,5.85012149 C21.1864922,4.79850992 22.4958574,3.98883223 22.4958574,3.98883223 C23.3135183,3.50538595 23.5576661,2.53301405 23.0685183,1.72333636 C22.5797965,0.91323719 21.5955357,0.670881818 20.7774487,1.15601405 C20.534153,1.31786529 18.0798922,2.85292314 17.8344661,5.5268405 C17.672127,7.38812975 18.5724487,9.16891488 20.534153,10.8679314" id="Fill-3" fill="url(#linearGradient-1)"></path>
                            <g id="Group-7" transform="translate(7.669565, 0.190512)">
                                <mask id="mask-3" fill="white">
                                    <use xlink:href="#path-2"></use>
                                </mask>
                                <g id="Clip-6"></g>
                                <path d="M2.72128957,10.1921603 C3.7852287,11.0819207 4.35746348,11.9737884 4.27565478,12.6207719 C4.19384609,13.2677554 3.29395043,13.8346562 3.04895043,13.996086 C3.04468957,13.9977719 3.0404287,13.9998793 3.03616783,14.0019868 C2.22830696,14.4061934 1.9036287,15.3819372 2.31224609,16.1814992 C2.55724609,16.749243 3.13033304,17.072524 3.7852287,17.072524 C4.02980261,17.072524 4.27565478,16.9920198 4.51937652,16.9907554 C4.76480261,16.9089868 7.21906348,15.6145983 7.54629826,13.1059041 C7.79215043,11.325119 6.89225478,9.54433388 4.84618522,7.76439174 C4.10990696,7.11656529 3.2100113,6.14545785 3.29182,5.17435041 C3.3736287,4.12231736 4.68299391,3.31263967 4.68299391,3.31263967 C5.50108087,2.8287719 5.74437652,1.85597851 5.25565478,1.04672231 C4.76650696,0.237466116 3.78309826,-0.0057322314 2.96458522,0.480242975 C2.72128957,0.642094215 0.266176522,2.17630909 0.0211765217,4.85022645 C-0.141162609,6.71193719 0.759585217,8.49272231 2.72128957,10.1921603" id="Fill-5" fill="url(#linearGradient-1)" mask="url(#mask-3)"></path>
                            </g>
                            <g id="Group-10" transform="translate(0.000000, 19.157455)">
                                <mask id="mask-5" fill="white">
                                    <use xlink:href="#path-4"></use>
                                </mask>
                                <g id="Clip-9"></g>
                                <path d="M45.49062,15.7480413 C45.49062,18.257157 43.3631678,20.3612231 40.8275243,20.3612231 L39.6080635,20.3612231 C40.1036026,19.1789504 40.438933,18.0666446 40.6609243,17.1254628 C41.3153939,14.5354215 41.2340113,12.5932066 41.2340113,12.2690826 L41.2340113,9.03205785 C43.5860113,9.01519835 45.49062,8.92626446 45.49062,11.3000826 L45.49062,15.7480413 Z M33.4634635,23.6808595 C30.5204809,26.6759504 26.1816374,28.2135372 20.6177939,28.2135372 C15.1361852,28.2135372 10.8812809,26.6759504 7.85435913,23.6808595 C5.39967217,21.2535124 4.33615913,18.1779174 3.84530696,16.0755372 C3.27264609,13.7286942 3.35445478,11.9474876 3.35445478,11.8669835 L3.35445478,3.28591736 C10.6358548,3.36642149 37.8815591,3.36642149 37.8815591,3.36642149 L37.8815591,12.1885785 C37.8815591,12.1885785 37.8815591,13.9710496 37.390707,16.235281 C36.9002809,18.3393471 35.8363417,21.2535124 33.4634635,23.6808595 Z M41.2340113,5.71579339 L41.2340113,3.44861157 C41.2340113,1.58690083 39.7610287,0.0493140496 37.8790026,0.0493140496 L37.8815591,0.0480495868 L3.35445478,0.0480495868 C1.47285478,0.0480495868 -0.000127826087,1.50513223 -0.000127826087,3.36642149 L-0.000127826087,11.8631901 C-0.000127826087,12.1063884 -0.000127826087,14.2104545 0.572533043,16.881 C1.14562,19.3905372 2.53594174,23.1139587 5.48190696,26.1082066 C9.08148957,29.750281 14.1544809,31.6115702 20.61822,31.6115702 C27.0819591,31.6115702 32.235907,29.7515455 35.8337852,26.1094711 C36.6015939,25.3280331 37.2560635,24.5082397 37.8176461,23.679595 L40.8275243,23.679595 C45.2451939,23.679595 48.8447765,20.1188678 48.8447765,15.7480413 L48.8447765,11.2979752 C48.8447765,7.01903306 47.5085678,5.76679339 41.2340113,5.71579339 Z" id="Fill-8" fill="url(#linearGradient-6)" mask="url(#mask-5)"></path>
                            </g>
                        </g>
                    </g>
                </g>
            </g>
        </g>
    </g>
</svg>