<?xml version="1.0" encoding="UTF-8"?>
<svg width="112px" height="102px" viewBox="0 0 112 102" version="1.1" xmlns="http://www.w3.org/2000/svg" xmlns:xlink="http://www.w3.org/1999/xlink">
    <!-- Generator: Sketch 49.3 (51167) - http://www.bohemiancoding.com/sketch -->
    <title>gouwuche</title>
    <desc>Created with Sketch.</desc>
    <defs>
        <polygon id="path-1" points="0 0.184 111.482424 0.184 111.482424 79.9357 0 79.9357"></polygon>
    </defs>
    <g id="gouwuche" stroke="none" stroke-width="1" fill="none" fill-rule="evenodd">
        <g id="Page-1">
            <polygon id="Fill-1" fill="#FFD811" points="32.4786 62.4252 23.4256 34.9972 91.1576 34.9972 86.3776 55.6122"></polygon>
            <g id="Group-9" transform="translate(0.000000, 0.816000)">
                <path d="M39.8751,94.9774 C38.5471,94.9774 37.6201,94.0504 37.6201,92.7224 C37.6201,91.3944 38.5471,90.4674 39.8751,90.4674 C41.2041,90.4674 42.1311,91.3944 42.1311,92.7224 C42.1311,94.0504 41.2041,94.9774 39.8751,94.9774 M39.8751,84.4454 C35.2341,84.4454 31.5981,88.0814 31.5981,92.7224 C31.5981,97.3644 35.2341,100.9994 39.8751,100.9994 C44.5171,100.9994 48.1521,97.3644 48.1521,92.7224 C48.1521,88.0814 44.5171,84.4454 39.8751,84.4454" id="Fill-2" fill="#333333"></path>
                <g id="Group-6">
                    <mask id="mask-2" fill="white">
                        <use xlink:href="#path-1"></use>
                    </mask>
                    <g id="Clip-5"></g>
                    <path d="M33.0728,60.7787 L22.0138,27.2727 L104.7538,27.2727 L98.9148,52.4557 L33.0728,60.7787 Z M104.3408,55.7377 L111.3618,24.8517 C111.6428,23.9987 111.4248,23.1397 110.7918,22.5077 C110.2078,21.6477 109.4028,21.2507 108.3368,21.2507 L20.0268,21.2507 L13.7718,2.2987 C13.1568,1.0807 11.8978,0.1837 10.7368,0.1837 L3.0108,0.1837 C1.1818,0.1837 -0.0002,1.3657 -0.0002,3.1957 C-0.0002,5.0237 1.1818,6.2047 3.0108,6.2047 L8.6408,6.2047 L31.9248,77.8227 C32.5398,79.0377 33.8008,79.9357 34.9608,79.9357 L104.1258,79.9357 C106.0728,79.9357 107.4878,78.6677 107.4878,76.9217 C107.4878,75.0937 106.3058,73.9127 104.4768,73.9127 L37.4078,73.9127 L35.0068,66.6377 L101.6098,58.1697 C103.0588,57.8797 104.0178,57.0367 104.3408,55.7377 Z" id="Fill-4" fill="#333333" mask="url(#mask-2)"></path>
                </g>
                <path d="M92.6881,94.9774 C91.3611,94.9774 90.4341,94.0504 90.4341,92.7224 C90.4341,91.3944 91.3611,90.4674 92.6881,90.4674 C94.0171,90.4674 94.9441,91.3944 94.9441,92.7224 C94.9441,94.0504 94.0171,94.9774 92.6881,94.9774 M92.6881,84.4454 C88.0461,84.4454 84.4111,88.0814 84.4111,92.7224 C84.4111,97.3644 88.0461,100.9994 92.6881,100.9994 C97.3301,100.9994 100.9651,97.3644 100.9651,92.7224 C100.9651,88.0814 97.3301,84.4454 92.6881,84.4454" id="Fill-7" fill="#333333"></path>
            </g>
        </g>
    </g>
</svg>