<?xml version="1.0" encoding="utf-8"?>
<!-- Generator: Adobe Illustrator 21.0.0, SVG Export Plug-In . SVG Version: 6.00 Build 0)  -->
<svg version="1.1" id="图层_1" xmlns="http://www.w3.org/2000/svg" xmlns:xlink="http://www.w3.org/1999/xlink" x="0px" y="0px"
	 viewBox="0 0 35 20" style="enable-background:new 0 0 35 20;" xml:space="preserve">
<style type="text/css">
	.st0{fill:#333333;}
	.st1{fill:#FFD811;}
</style>
<title>Group 8</title>
<desc>Created with Sketch.</desc>
<g id="私人订制">
	<g id="_x30_3_x5F_私人订制-选择班型" transform="translate(-550.000000, -415.000000)">
		<g id="Group-8" transform="translate(550.000000, 415.000000)">
			<path class="st0" d="M5,0C2.2,0,0,2.2,0,5v15h27c4.4,0,8-3.6,8-8V0H5z"/>
			<path id="拼团" class="st1" d="M11,4.2c0.4,0.6,0.8,1.2,1.2,1.9l-0.6,0.3c-0.4-0.7-0.8-1.4-1.2-1.9L11,4.2z M14.1,7.2h-2.2v2.2
				l0,0.9h2.3V7.2z M14.1,10.8h-2.3c-0.1,0.9-0.3,1.7-0.5,2.3c-0.4,0.9-1,1.6-1.9,2.1l-0.4-0.6c0.8-0.5,1.4-1.1,1.7-2
				c0.2-0.5,0.3-1.1,0.4-1.8H9.6v-0.6h1.7l0-0.9V7.2H9.8V6.6h3.9c0.4-0.8,0.8-1.6,1.1-2.4l0.6,0.2c-0.3,0.8-0.7,1.6-1.1,2.2h1.8v0.6
				h-1.5v3h1.7v0.6h-1.7v4.3h-0.6V10.8z M9.2,9.1v0.6c-0.4,0.2-0.9,0.5-1.3,0.7v3.7c0,0.6-0.3,0.9-0.9,0.9H6l-0.1-0.6
				c0.3,0,0.6,0,0.9,0c0.3,0,0.5-0.2,0.5-0.5v-3.3c-0.5,0.2-1.1,0.4-1.6,0.6l-0.2-0.6c0.6-0.2,1.2-0.4,1.8-0.6V7.1H5.7V6.5h1.6V4.3
				h0.6v2.2h1.3v0.6H7.9v2.7C8.4,9.6,8.8,9.3,9.2,9.1z M19.9,7.7H24V6.1h0.6v1.5h1.6v0.6h-1.6v3.8c0,0.6-0.3,1-0.9,1h-1.4l-0.1-0.6
				c0.4,0,0.9,0,1.3,0c0.3,0,0.5-0.2,0.5-0.6V8.3h0c-0.9,1.7-2.3,3-3.9,4l-0.3-0.6c1.6-0.8,2.8-2,3.7-3.4h-3.5V7.7z M27.8,4.8v10.4
				h-0.6v-0.6h-8.3v0.6h-0.6V4.8H27.8z M18.9,14h8.3V5.4h-8.3V14z"/>
		</g>
	</g>
</g>
</svg>
