<?xml version="1.0" encoding="utf-8"?>
<!-- Generator: Adobe Illustrator 21.0.0, SVG Export Plug-In . SVG Version: 6.00 Build 0)  -->
<svg version="1.1" id="图层_1" xmlns="http://www.w3.org/2000/svg" xmlns:xlink="http://www.w3.org/1999/xlink" x="0px" y="0px"
	 viewBox="0 0 17 17" style="enable-background:new 0 0 17 17;" xml:space="preserve">
<style type="text/css">
	.st0{fill:#333333;}
	.st1{fill:#FFD811;}
</style>
<title>Group 5</title>
<desc>Created with Sketch.</desc>
<g id="我要学习">
	<g id="Group-5" transform="translate(221.000000, 188.000000)">
		<path class="st0" d="M-221-171h14c1.7,0,3-1.3,3-3v-14L-221-171z"/>
		
			<g id="_x33_9" transform="translate(11.350266, 11.580030) rotate(-12.000000) translate(-11.350266, -11.580030) translate(8.350266, 9.580030)">
			<path id="Page-1" class="st1" d="M-171.2-229.7c-0.1-0.1-0.4-0.1-0.5,0l-3.1,2.8l-1.6-1.4c-0.1-0.1-0.4-0.1-0.5,0
				c-0.1,0.1-0.1,0.3,0,0.5l1.9,1.7c0.1,0.1,0.2,0.1,0.3,0.1c0.1,0,0.2,0,0.3-0.1l3.3-3C-171-229.4-171-229.6-171.2-229.7"/>
		</g>
	</g>
</g>
</svg>
