<?xml version="1.0" encoding="utf-8"?>
<!-- Generator: Adobe Illustrator 21.0.0, SVG Export Plug-In . SVG Version: 6.00 Build 0)  -->
<svg version="1.1" id="图层_1" xmlns="http://www.w3.org/2000/svg" xmlns:xlink="http://www.w3.org/1999/xlink" x="0px" y="0px"
	 viewBox="0 0 23 22" style="enable-background:new 0 0 23 22;" xml:space="preserve">
<style type="text/css">
	.st0{fill:#C9C9C9;}
	.st1{fill:#FFFFFF;}
</style>
<title>Group 15 Copy</title>
<desc>Created with Sketch.</desc>
<g id="我要学习">
	<g id="_x30_2.1_x5F_时间选择" transform="translate(-92.000000, -461.000000)">
		<g id="Group-14" transform="translate(0.000000, 257.000000)">
			<g id="Group-12" transform="translate(15.000000, 192.000000)">
				<g id="_x30_1">
					<g id="Group-15-Copy" transform="translate(77.000000, 0.000000)">
						<path class="st0" d="M21,12H0l23,22V14C23,12.9,22.1,12,21,12z"/>
						<path id="已满" class="st1" d="M14,19.1L10.9,16l-1.3,1.3c-0.2,0.2-0.2,0.4,0,0.5l2.5,2.5c0.1,0.1,0.2,0.1,0.3,0.1
							c0.1,0,0.5-0.2,1-0.7l0.3,0.7c-0.7,0.6-1.2,0.9-1.4,0.9c-0.2,0-0.5-0.1-0.7-0.3L9,18.2c-0.4-0.4-0.4-0.9,0-1.3l2.6-2.6
							l0.5,0.5l-0.7,0.7l2.5,2.5l1.1-1.1l-3.3-3.3l0.5-0.5l3.8,3.8L14,19.1z M17.5,18c0.1,0.5,0.1,1,0,1.5l-0.7,0c0-0.4,0-0.9,0-1.5
							L17.5,18z M16.2,19.1c0.1,0.6,0.1,1.1,0.1,1.6h-0.7c0-0.4,0-0.9-0.1-1.6L16.2,19.1z M15.3,20.9l0.3,0.6
							c-0.8,0.4-1.7,0.8-2.5,1.1l-0.3-0.7C13.7,21.6,14.5,21.2,15.3,20.9z M17.1,20l3.3,3.3l-0.5,0.5l-0.9-0.9l-0.4,0.4l0.8,0.8
							l-1.9,1.9c-0.3,0.3-0.7,0.3-1,0l-0.4-0.4l0.3-0.6l0.4,0.4c0.1,0.1,0.2,0.1,0.3,0l1.4-1.4l-0.4-0.4l-0.2,0.2
							c0,0.3-0.1,0.6-0.1,0.9l-0.6,0.1c0.1-0.3,0.2-0.5,0.3-0.7c-0.5,0.3-1,0.5-1.6,0.5l0-0.6c0.7-0.1,1.3-0.4,1.9-0.9l-0.5-0.5
							L17,22.8c0,0.3-0.1,0.5-0.1,0.8l-0.6,0.1c0.1-0.2,0.2-0.5,0.2-0.6c-0.4,0.2-0.8,0.4-1.3,0.5l0-0.5l-0.9,0.9l-0.5-0.5l2.4-2.4
							l0.8,0.8l0.4-0.4l-1-1L17.1,20z M16.7,22.3l-0.4-0.4l-1,1C15.9,22.8,16.3,22.6,16.7,22.3z M17.6,22.3l0.5,0.5l0.4-0.4L18,21.9
							L17.6,22.3z M18.1,19.2l0.7,0.7l0.3-0.3l0.5,0.5l-0.3,0.3l0.7,0.7l0.3-0.3l0.5,0.5l-0.3,0.3l0.7,0.7l-0.5,0.5l-0.7-0.7
							l-0.3,0.3l-0.5-0.5l0.3-0.3l-0.7-0.7l-0.3,0.3L18,20.6l0.3-0.3l-0.7-0.7L18.1,19.2z"/>
					</g>
				</g>
			</g>
		</g>
	</g>
</g>
</svg>
