<?xml version="1.0" encoding="UTF-8"?>
<svg width="77px" height="78px" viewBox="0 0 77 78" version="1.1" xmlns="http://www.w3.org/2000/svg" xmlns:xlink="http://www.w3.org/1999/xlink">
    <!-- Generator: Sketch 49.3 (51167) - http://www.bohemiancoding.com/sketch -->
    <title>guanbi</title>
    <desc>Created with Sketch.</desc>
    <defs></defs>
    <g id="guanbi" stroke="none" stroke-width="1" fill="none" fill-rule="evenodd">
        <g id="Page-1" fill="#8E8E8E">
            <path d="M65.1524,12.5885 C63.3964,10.8315 61.4724,9.2495 59.4094,7.8665 C58.2434,7.0835 56.6634,7.3935 55.8804,8.5585 C55.0964,9.7245 55.4064,11.3045 56.5714,12.0875 C58.3594,13.2885 60.0274,14.6605 61.5524,16.1835 C67.7754,22.3725 71.2644,30.7945 71.2424,39.5715 C71.2424,57.8155 56.4014,72.6555 38.1614,72.6555 C19.9214,72.6555 5.0854,57.8155 5.0854,39.5715 C5.0854,30.7345 8.5274,22.4285 14.7774,16.1835 C16.2764,14.6825 17.9174,13.3285 19.6734,12.1415 C20.8044,11.3055 21.0434,9.7115 20.2084,8.5815 C19.4204,7.5165 17.9474,7.2335 16.8214,7.9305 C14.7964,9.2995 12.9064,10.8595 11.1764,12.5885 C3.9974,19.7295 -0.0276,29.4455 0.0004,39.5715 C0.0004,60.6165 17.1194,77.7405 38.1634,77.7405 C59.2084,77.7405 76.3294,60.6195 76.3294,39.5715 C76.3294,29.3795 72.3584,19.7965 65.1524,12.5885" id="Fill-1"></path>
            <path d="M38.1631,35.1861 L38.1941,35.1861 C39.5991,35.1691 40.7231,34.0181 40.7061,32.6141 L40.7061,32.6131 L40.3401,2.5121 C40.3231,1.1081 39.1711,-0.0169 37.7671,0.0001 C36.3621,0.0171 35.2381,1.1681 35.2551,2.5731 L35.6211,32.6761 C35.6391,34.0681 36.7721,35.1861 38.1631,35.1861" id="Fill-3"></path>
        </g>
    </g>
</svg>