<?xml version="1.0" encoding="UTF-8"?>
<svg width="96px" height="111px" viewBox="0 0 96 111" version="1.1" xmlns="http://www.w3.org/2000/svg" xmlns:xlink="http://www.w3.org/1999/xlink">
    <!-- Generator: Sketch 49.3 (51167) - http://www.bohemiancoding.com/sketch -->
    <title>guanzhu</title>
    <desc>Created with Sketch.</desc>
    <defs>
        <polygon id="path-1" points="0.673123058 0.224 48.3629231 0.224 48.3629231 54.7859 0.673123058 54.7859"></polygon>
        <polygon id="path-3" points="0 0.6778 95.03 0.6778 95.03 54.9998 0 54.9998"></polygon>
    </defs>
    <g id="guanzhu" stroke="none" stroke-width="1" fill="none" fill-rule="evenodd">
        <g id="Page-1">
            <g id="Group-3" transform="translate(23.000000, 0.776000)">
                <mask id="mask-2" fill="white">
                    <use xlink:href="#path-1"></use>
                </mask>
                <g id="Clip-2"></g>
                <path d="M7.0645,25.4649 C6.8745,15.2559 14.5545,6.8009 24.1855,6.6139 L24.5405,6.6069 C33.9645,6.6079 41.7945,14.7479 41.9745,24.7559 C42.1925,37.2959 32.6675,48.2349 24.7105,48.4029 C15.5815,48.3909 7.2395,35.5709 7.0645,25.4649 M24.7235,54.7859 L25.0425,54.7829 C38.4795,54.5209 48.6055,38.3669 48.3585,24.6459 C48.1115,11.1789 37.4225,0.2239 24.5305,0.2239 L24.5195,0.2239 L24.5085,0.2239 L24.0685,0.2319 C10.9185,0.4889 0.4275,11.8599 0.6775,25.5779 C0.9185,39.0849 11.4735,54.7859 24.7235,54.7859" id="Fill-1" fill="#333333" mask="url(#mask-2)"></path>
            </g>
            <path d="M28.9727,26.114 C28.7707,15.267 36.9307,6.284 47.1627,6.087 L47.5387,6.078 C57.5517,6.079 65.8707,14.728 66.0627,25.36 C66.2937,38.683 56.1737,50.304 47.7207,50.484 C38.0217,50.47 29.1597,36.85 28.9727,26.114" id="Fill-4" fill="#FFD811"></path>
            <g id="Group-8" transform="translate(0.000000, 55.776000)">
                <mask id="mask-4" fill="white">
                    <use xlink:href="#path-3"></use>
                </mask>
                <g id="Clip-7"></g>
                <path d="M87.7432,47.5508 C87.0592,48.2798 86.2902,48.6158 85.3172,48.6158 L9.7162,48.6158 C8.7412,48.6158 7.9732,48.2808 7.3002,47.5618 C6.6322,46.8528 6.3392,46.0418 6.4002,45.0798 C6.7522,39.2468 7.6382,32.5298 8.8652,23.2318 L9.9982,14.7118 C10.5352,13.0568 12.6342,10.3028 16.1522,9.6768 L30.9032,7.0648 C31.0212,7.0878 31.1572,7.2388 31.2162,7.3228 L46.4592,28.7388 L47.5182,30.2278 L48.5772,28.7388 L63.8352,7.2958 C63.8942,7.2088 63.9672,7.1058 64.3142,7.0888 C65.4372,7.2878 74.1692,8.8388 78.8862,9.6768 C82.4222,10.3078 84.4972,13.0648 85.0642,14.8248 L86.1762,23.3038 L86.2002,23.4888 C87.4112,32.6568 88.2862,39.2798 88.6362,45.0678 C88.6982,46.0428 88.4062,46.8538 87.7432,47.5508 M95.0112,44.6808 C94.6432,38.6518 93.7542,31.9268 92.5232,22.6208 L92.5032,22.4688 L91.3112,13.4688 L91.3002,13.3878 L91.2802,13.3098 C90.2292,9.3078 86.2532,4.4978 80.0012,3.3968 L65.3232,0.7858 C64.9332,0.7148 64.5302,0.6778 64.1342,0.6778 C61.9582,0.6778 59.9452,1.7498 58.6102,3.6208 L47.5182,19.2118 L36.4232,3.6188 C35.0812,1.7478 33.0672,0.6778 30.8952,0.6778 C30.5012,0.6778 30.0992,0.7148 29.7022,0.7878 L15.0342,3.3968 C8.7802,4.4978 4.8112,9.2608 3.7722,13.2208 L3.7512,13.2978 L3.7412,13.3778 L2.5082,22.6118 C1.2792,31.9318 0.3912,38.6638 0.0182,44.6788 C-0.1438,47.4298 0.7632,49.9378 2.6412,51.9358 C4.5262,53.9408 6.9722,54.9998 9.7162,54.9998 L85.3162,54.9998 C88.0572,54.9998 90.5022,53.9408 92.3872,51.9358 C94.2692,49.9468 95.1782,47.4378 95.0112,44.6808" id="Fill-6" fill="#333333" mask="url(#mask-4)"></path>
            </g>
        </g>
    </g>
</svg>