<?xml version="1.0" encoding="UTF-8"?>
<svg width="148px" height="141px" viewBox="0 0 148 141" version="1.1" xmlns="http://www.w3.org/2000/svg" xmlns:xlink="http://www.w3.org/1999/xlink">
    <!-- Generator: Sketch 49.3 (51167) - http://www.bohemiancoding.com/sketch -->
    <title>合同</title>
    <desc>Created with Sketch.</desc>
    <defs>
        <polygon id="path-1" points="0 0.612 147.0158 0.612 147.0158 139.9996 0 139.9996"></polygon>
    </defs>
    <g id="合同" stroke="none" stroke-width="1" fill="none" fill-rule="evenodd">
        <g id="Page-1">
            <path d="M139.7256,132.2198 C139.7256,133.1268 138.8186,133.1268 138.8186,133.1268 L76.2406,133.1268 C75.3326,133.1268 75.3326,132.2198 75.3326,132.2198 L75.3326,119.5228 C75.3326,118.6158 76.2406,118.6158 76.2406,118.6158 L138.8186,118.6158 C139.7256,118.6158 139.7256,119.5228 139.7256,119.5228 L139.7256,132.2198 Z M107.0766,82.3388 C100.7276,82.3388 96.1926,77.8038 96.1926,71.4548 C96.1926,65.1068 100.7276,60.5728 107.0766,60.5728 C112.9236,60.5728 117.2226,64.4248 117.8666,69.9928 L117.8666,72.9178 C117.2226,78.4868 112.9236,82.3388 107.0766,82.3388 Z M121.5866,112.2668 L92.5656,112.2668 L106.1686,93.2218 L107.9836,93.2218 L121.5866,112.2668 Z" id="Fill-1" fill="#FFDA00"></path>
            <path d="M23.5801,39.0909 L99.7621,39.0909 C102.4831,39.0909 103.3911,37.2779 103.3911,35.4639 C103.3911,33.6499 101.5761,31.8359 99.7621,31.8359 L23.5801,31.8359 C21.7671,31.8359 19.9521,33.6499 19.9521,35.4639 C19.9521,37.2779 21.7671,39.0909 23.5801,39.0909" id="Fill-3" fill="#333333"></path>
            <path d="M62.5781,79.9029 L23.5801,79.9029 C21.7661,79.9029 19.9521,81.7169 19.9521,83.5309 C19.9521,85.3449 21.7661,87.1579 23.5801,87.1579 L61.6711,87.1579 C63.4851,87.1579 65.2991,85.3449 65.2991,83.5309 C65.2991,81.7169 64.3921,79.9029 62.5781,79.9029" id="Fill-5" fill="#333333"></path>
            <path d="M23.5801,63.5782 L72.5551,63.5782 C74.3681,63.5782 76.1821,61.7642 76.1821,59.9512 C76.1821,58.1372 74.3681,56.3232 72.5551,56.3232 L23.5801,56.3232 C21.7671,56.3232 19.9521,58.1372 19.9521,59.9512 C19.9521,61.7642 21.7671,63.5782 23.5801,63.5782" id="Fill-7" fill="#333333"></path>
            <g id="Group-11" transform="translate(0.000000, 0.388000)">
                <mask id="mask-2" fill="white">
                    <use xlink:href="#path-1"></use>
                </mask>
                <g id="Clip-10"></g>
                <path d="M139.7598,131.8376 C139.7598,132.7446 138.8538,132.7446 138.8538,132.7446 L76.2758,132.7446 C75.3678,132.7446 75.3678,131.8376 75.3678,131.8376 L75.3678,119.1406 C75.3678,118.2336 76.2758,118.2336 76.2758,118.2336 L138.8538,118.2336 C139.7598,118.2336 139.7598,119.1406 139.7598,119.1406 L139.7598,131.8376 Z M12.0838,121.2336 C9.4168,121.2336 7.2558,119.0716 7.2558,116.4056 L7.2558,13.6026 C7.2558,10.9356 9.4168,8.7746 12.0838,8.7746 L113.0728,8.7746 C115.7388,8.7746 117.9008,10.9356 117.9008,13.6026 L117.9008,56.5426 C114.8778,54.2886 111.1498,52.9346 107.1118,52.9346 C97.1348,52.9346 88.9728,61.0966 88.9728,71.0736 C88.9728,78.3286 93.5068,85.5846 100.7618,87.3986 L84.4378,110.9786 L76.2758,110.9786 C71.7398,110.9786 68.1138,114.6066 68.1138,119.1406 L68.1138,121.2336 L12.0838,121.2336 Z M107.1118,81.9566 C100.7618,81.9566 96.2278,77.4216 96.2278,71.0736 C96.2278,64.7246 100.7618,60.1906 107.1118,60.1906 C112.9588,60.1906 117.2578,64.0426 117.9008,69.6106 L117.9008,72.5356 C117.2578,78.1046 112.9588,81.9566 107.1118,81.9566 Z M121.6208,111.8856 L92.5998,111.8856 L106.2038,92.8396 L108.0178,92.8396 L121.6208,111.8856 Z M137.9468,110.9786 L129.7838,110.9786 L113.4588,87.3986 C120.7148,84.6776 125.2498,78.3286 125.2498,71.0736 C125.2498,69.0186 124.8868,67.0486 124.2498,65.2026 L124.2498,11.4956 C124.2498,5.4846 119.3768,0.6116 113.3658,0.6116 L10.8828,0.6116 C4.8728,0.6116 -0.0002,5.4846 -0.0002,11.4956 L-0.0002,118.5126 C-0.0002,124.5236 4.8728,129.3966 10.8828,129.3966 L68.1138,129.3966 L68.1138,131.8376 C68.1138,136.3726 71.7398,139.9996 76.2758,139.9996 L138.8538,139.9996 C143.3888,139.9996 147.0158,136.3726 147.0158,131.8376 L147.0158,119.1406 C146.1098,114.6066 142.4808,110.9786 137.9468,110.9786 Z" id="Fill-9" fill="#333333" mask="url(#mask-2)"></path>
            </g>
        </g>
    </g>
</svg>