<?xml version="1.0" encoding="UTF-8"?>
<svg width="46px" height="56px" viewBox="0 0 46 56" version="1.1" xmlns="http://www.w3.org/2000/svg" xmlns:xlink="http://www.w3.org/1999/xlink">
    <!-- Generator: Sketch 49.3 (51167) - http://www.bohemiancoding.com/sketch -->
    <title>资料</title>
    <desc>Created with Sketch.</desc>
    <defs>
        <polygon id="path-1" points="0.000185858586 0.183529412 45.7776202 0.183529412 45.7776202 54.7785412 0.000185858586 54.7785412"></polygon>
        <polygon id="path-3" points="0.236040404 0.398776471 9.67068687 0.398776471 9.67068687 8 0.236040404 8"></polygon>
        <polygon id="path-5" points="0 55.8164706 45.777899 55.8164706 45.777899 0.470588235 0 0.470588235"></polygon>
    </defs>
    <g id="资料" stroke="none" stroke-width="1" fill="none" fill-rule="evenodd" opacity="0.8">
        <g id="Page-1">
            <g>
                <g id="Group-3" transform="translate(0.000000, 0.287059)">
                    <mask id="mask-2" fill="white">
                        <use xlink:href="#path-1"></use>
                    </mask>
                    <g id="Clip-2"></g>
                    <path d="M42.8986707,51.8745412 C41.9610141,52.8241882 40.7222667,53.3470118 39.4105697,53.3470118 L6.36723636,53.3470118 C5.05553939,53.3470118 3.81679192,52.8241882 2.87913535,51.8745412 C1.94194343,50.9248941 1.42525657,49.6707765 1.42525657,48.3418353 C1.42525657,47.0133647 1.94194343,45.7592471 2.87913535,44.8096 C3.81679192,43.8604235 5.05553939,43.3371294 6.36723636,43.3371294 L39.4045293,43.3371294 C41.3430343,43.3371294 43.1426101,42.4528941 44.3465091,40.9390118 L44.3465091,42.9281882 C44.3167717,44.2100706 43.8024081,45.4227765 42.8986707,46.3380706 C41.9610141,47.2877176 40.7222667,47.8105412 39.4105697,47.8105412 L7.41176162,47.8105412 C7.02006465,47.8105412 6.70178182,48.1333647 6.70178182,48.5296 C6.70178182,48.9258353 7.02006465,49.2481882 7.41176162,49.2481882 L39.5959636,49.2481882 C41.4550141,49.1921882 43.1811758,48.3112471 44.3465091,46.8571294 L44.3465091,48.4208941 L44.3516202,48.4274824 C44.3302465,49.7244235 43.8163475,50.9456 42.8986707,51.8745412 Z M41.673398,1.62701176 C42.4721253,1.67924706 43.2090545,2.06465882 43.7266707,2.71877647 C44.1481051,3.25148235 44.3465091,3.93054118 44.3465091,4.61242353 L44.3465091,36.8886588 C44.3465091,38.2176 43.8302869,39.4717176 42.8926303,40.4208941 C41.9554384,41.3705412 40.7166909,41.8933647 39.4045293,41.8933647 L6.36723636,41.8933647 C4.4305899,41.8933647 2.63147879,42.7804235 1.42525657,44.2976 L1.42525657,2.43407059 C1.42525657,1.98842353 1.7825697,1.62701176 2.22212525,1.62701176 L41.673398,1.62701176 Z M45.766004,40.5691294 L45.766004,4.52254118 C45.766004,2.13618824 43.8377212,0.183247059 41.481499,0.183247059 L1.97214545,0.183247059 C0.883014141,0.183247059 0.000185858586,1.07783529 0.000185858586,2.18042353 L0.000185858586,48.6703059 L0.0187717172,48.6707765 C0.193478788,52.0594824 2.99483232,54.7785412 6.36723636,54.7785412 L39.4045293,54.7785412 C42.9177212,54.7785412 45.766004,51.8943059 45.766004,48.3357176 L45.766004,43.1587765 C45.7678626,43.1470118 45.7692566,43.1366588 45.7706505,43.1258353 C45.7766909,43.0863059 45.7776202,43.0524235 45.7776202,43.0110118 L45.7776202,40.6900706 C45.7766909,40.6467765 45.7729737,40.6067765 45.766004,40.5691294 Z" id="Fill-1" fill="#191919" mask="url(#mask-2)"></path>
                </g>
                <polygon id="Fill-4" fill="#FFD811" points="18.8994949 49.2999529 18.8994949 54.2260706 15.6827475 51.6816 15.1753535 51.2825412 14.6623838 51.6816 11.4516768 54.2260706 11.4516768 49.2999529"></polygon>
                <g id="Group-8" transform="translate(10.222222, 47.816471)">
                    <mask id="mask-4" fill="white">
                        <use xlink:href="#path-3"></use>
                    </mask>
                    <g id="Clip-7"></g>
                    <path d="M8.56111111,1.60112941 L8.56111111,6.17430588 L4.95313131,3.31689412 L1.34561616,6.17430588 L1.34561616,1.60112941 L8.56111111,1.60112941 Z M0.236040404,0.398776471 L0.236040404,7.48771765 C0.236040404,7.91407059 0.720666667,8.15312941 1.0519596,7.89054118 L4.95313131,4.80018824 L8.85476768,7.89054118 C9.18606061,8.15312941 9.67068687,7.91407059 9.67068687,7.48771765 L9.67068687,0.398776471 L0.236040404,0.398776471 Z" id="Fill-6" fill="#191919" mask="url(#mask-4)"></path>
                </g>
                <mask id="mask-6" fill="white">
                    <use xlink:href="#path-5"></use>
                </mask>
                <g id="Clip-10"></g>
                <path d="M32.5828687,11.1741176 L34.4093939,11.1741176 L34.4093939,1.90776471 L32.5828687,1.90776471 L32.5828687,11.1741176 Z M31.1638384,12.6117647 L35.8288889,12.6117647 L35.8288889,0.940705882 L31.1638384,0.940705882 L31.1638384,12.6117647 Z" id="Fill-9" fill="#191919" mask="url(#mask-6)"></path>
                <path d="M32.5828687,42.1802353 L34.4093939,42.1802353 L34.4093939,19.3388235 L32.5828687,19.3388235 L32.5828687,42.1802353 Z M31.1638384,43.1477647 L35.8288889,43.1477647 L35.8288889,17.9016471 L31.1638384,17.9016471 L31.1638384,43.1477647 Z" id="Fill-11" fill="#191919" mask="url(#mask-6)"></path>
                <path d="M28.2196525,14.2847529 C28.2196525,17.2362824 30.5819152,19.6287529 33.4957131,19.6287529 C36.4104404,19.6287529 38.772703,17.2362824 38.772703,14.2847529 C38.772703,11.3336941 36.4104404,8.94122353 33.4957131,8.94122353 C30.5819152,8.94122353 28.2196525,11.3336941 28.2196525,14.2847529" id="Fill-12" fill="#FFD811" mask="url(#mask-6)"></path>
                <path d="M37.7140525,14.2847529 C37.7140525,16.6400471 35.8220121,18.5562824 33.4959919,18.5562824 C31.1704364,18.5562824 29.278396,16.6400471 29.278396,14.2847529 C29.278396,11.9294588 31.1704364,10.0132235 33.4959919,10.0132235 C35.8220121,10.0132235 37.7140525,11.9294588 37.7140525,14.2847529 M37.403204,10.3393412 C36.3600727,9.28145882 34.9726384,8.69887059 33.4959919,8.69887059 C30.4548808,8.69887059 27.9806384,11.2042824 27.9806384,14.2847529 C27.9806384,17.3652235 30.4548808,19.8711059 33.4959919,19.8711059 C36.5375677,19.8711059 39.0118101,17.3652235 39.0118101,14.2847529 C39.014598,12.7953412 38.4430828,11.3939294 37.403204,10.3393412" id="Fill-13" fill="#191919" mask="url(#mask-6)"></path>
            </g>
        </g>
    </g>
</svg>