<?xml version="1.0" encoding="UTF-8"?>
<svg width="56px" height="56px" viewBox="0 0 56 56" version="1.1" xmlns="http://www.w3.org/2000/svg" xmlns:xlink="http://www.w3.org/1999/xlink">
    <!-- Generator: Sketch 49.3 (51167) - http://www.bohemiancoding.com/sketch -->
    <title>私人订制</title>
    <desc>Created with Sketch.</desc>
    <defs>
        <polygon id="path-1" points="0 0.00237068966 54.191213 0.00237068966 54.191213 54.5257672 0 54.5257672"></polygon>
    </defs>
    <g id="私人订制" stroke="none" stroke-width="1" fill="none" fill-rule="evenodd" opacity="0.799365942">
        <g id="siren">
            <g id="Page-1" transform="translate(0.318841, 0.000000)">
                <path d="M16.5490696,36.6959526 L8.81128696,36.6959526 C8.47315652,36.6959526 8.19911304,36.9676336 8.19911304,37.302375 L8.19911304,37.305694 C8.19911304,37.6409095 8.47315652,37.9125905 8.81128696,37.9125905 L16.5490696,37.9125905 C16.8872,37.9125905 17.1612435,37.6409095 17.1612435,37.305694 L17.1612435,37.302375 C17.1612435,36.9676336 16.8872,36.6959526 16.5490696,36.6959526" id="Fill-1" fill="#191919"></path>
                <path d="M16.5490696,31.5850776 L8.81128696,31.5850776 C8.47315652,31.5850776 8.19911304,31.8567586 8.19911304,32.1919741 L8.19911304,32.194819 C8.19911304,32.5300345 8.47315652,32.8017155 8.81128696,32.8017155 L16.5490696,32.8017155 C16.8872,32.8017155 17.1612435,32.5300345 17.1612435,32.194819 L17.1612435,32.1919741 C17.1612435,31.8567586 16.8872,31.5850776 16.5490696,31.5850776" id="Fill-3" fill="#191919"></path>
                <path d="M16.5490696,41.8064009 L8.81128696,41.8064009 C8.47315652,41.8064009 8.19911304,42.0780819 8.19911304,42.4132974 L8.19911304,42.4161422 C8.19911304,42.7513578 8.47315652,43.0230388 8.81128696,43.0230388 L16.5490696,43.0230388 C16.8872,43.0230388 17.1612435,42.7513578 17.1612435,42.4161422 L17.1612435,42.4132974 C17.1612435,42.0780819 16.8872,41.8064009 16.5490696,41.8064009" id="Fill-5" fill="#191919"></path>
                <path d="M39.1277652,20.3053362 L39.1277652,20.3020172 C39.1277652,19.9672759 38.8542,19.6955948 38.5160696,19.6955948 L8.81128696,19.6955948 C8.47315652,19.6955948 8.19911304,19.9672759 8.19911304,20.3020172 L8.19911304,20.3053362 C8.19911304,20.6405517 8.47315652,20.9122328 8.81128696,20.9122328 L38.5160696,20.9122328 C38.8542,20.9122328 39.1277652,20.6405517 39.1277652,20.3053362" id="Fill-7" fill="#191919"></path>
                <path d="M8.81143043,14.7782155 L38.5157348,14.7782155 C38.8538652,14.7782155 39.1279087,14.5065345 39.1279087,14.171319 C39.1279087,13.8361034 38.8538652,13.5639483 38.5157348,13.5639483 L8.81143043,13.5639483 C8.4733,13.5639483 8.19925652,13.8361034 8.19925652,14.171319 C8.19925652,14.5065345 8.4733,14.7782155 8.81143043,14.7782155" id="Fill-9" fill="#191919"></path>
                <path d="M8.81143043,8.64680603 L38.5157348,8.64680603 C38.8538652,8.64680603 39.1279087,8.37559914 39.1279087,8.04038362 L39.1279087,8.03706466 C39.1279087,7.70184914 38.8538652,7.4301681 38.5157348,7.4301681 L8.81143043,7.4301681 C8.4733,7.4301681 8.19925652,7.70184914 8.19925652,8.03706466 L8.19925652,8.04038362 C8.19925652,8.37559914 8.4733,8.64680603 8.81143043,8.64680603" id="Fill-11" fill="#191919"></path>
                <g id="Group-15" transform="translate(0.000000, 0.471767)">
                    <mask id="mask-2" fill="white">
                        <use xlink:href="#path-1"></use>
                    </mask>
                    <g id="Clip-14"></g>
                    <path d="M52.8520826,50.1992586 C52.8520826,51.8525776 51.4947783,53.198181 49.8270826,53.198181 L30.5235174,53.198181 C28.8553435,53.198181 27.4985174,51.8525776 27.4985174,50.1992586 L27.4985174,28.9886983 C27.4985174,27.334431 28.8553435,25.9893017 30.5235174,25.9893017 L49.8270826,25.9893017 C51.4947783,25.9893017 52.8520826,27.334431 52.8520826,28.9886983 L52.8520826,50.1992586 Z M26.1589087,28.9886983 L26.1589087,50.02525 L4.45303913,50.02525 C2.7643,50.02525 1.39073478,48.6635259 1.39073478,46.9893448 L1.39073478,4.41697414 C1.39073478,2.7427931 2.7643,1.38106897 4.45303913,1.38106897 L43.7684739,1.38106897 C45.457213,1.38106897 46.8307783,2.7427931 46.8307783,4.41697414 L46.8307783,24.6617155 L30.5235174,24.6617155 C28.1130826,24.6617155 26.1589087,26.5990431 26.1589087,28.9886983 Z M49.8270826,24.6617155 L48.2215609,24.6617155 L48.2215609,4.41697414 C48.2215609,1.98275 46.2243435,0.00227586207 43.7684739,0.00227586207 L4.45303913,0.00227586207 C1.99764783,0.00227586207 -4.7826087e-05,1.98275 -4.7826087e-05,4.41697414 L-4.7826087e-05,46.9893448 C-4.7826087e-05,49.423569 1.99764783,51.4040431 4.45303913,51.4040431 L26.2555174,51.4040431 L26.2555174,51.0996466 C26.6739957,53.0568879 28.425387,54.5257672 30.5235174,54.5257672 L49.8270826,54.5257672 C52.2370391,54.5257672 54.191213,52.5884397 54.191213,50.1992586 L54.191213,28.9886983 C54.191213,26.5990431 52.2370391,24.6617155 49.8270826,24.6617155 Z" id="Fill-13" fill="#191919" mask="url(#mask-2)"></path>
                </g>
                <path d="M39.9824652,41.9980948 L39.9671609,41.923181 C37.1521174,41.9146466 34.8684217,39.6368879 34.8765522,36.8456379 C34.8846826,34.0633966 37.1750739,31.7993879 39.9977696,31.7993879 C42.8056391,31.8055517 45.089813,34.0761983 45.0888565,36.8608103 C45.0802478,39.6520603 42.7893783,41.923181 39.9824652,41.923181 L39.9824652,41.9980948 Z" id="Fill-16" fill="#FFD811"></path>
                <path d="M40.0044174,41.7170259 L39.9895913,41.6459052 C37.3175478,41.6378448 35.1500696,39.4753017 35.1577217,36.8262931 C35.1653739,34.1848707 37.3395478,32.0360776 40.0187652,32.0360776 C42.6845913,32.0422414 44.8520696,34.1976724 44.851113,36.8405172 C44.8429826,39.49 42.6683304,41.6459052 40.0044174,41.6459052 L40.0044174,41.7170259 Z M47.8789826,47.1117672 L42.8199391,45.0985776 L42.8199391,42.2030172 L43.0533304,42.0688362 C44.9285913,40.98875 46.0926783,38.9850431 46.0922,36.8400431 L46.0922,36.8182328 C46.0807217,33.4973707 43.3460261,30.7962069 39.9958087,30.7962069 L39.9757217,30.7962069 C38.3467652,30.8018966 36.8182435,31.4348707 35.6704174,32.5803879 C34.5230696,33.7259052 33.8941565,35.2455172 33.8989391,36.8599569 C33.9070696,39.0149138 35.0869391,41.0186207 36.9784609,42.0901724 L37.2147217,42.2238793 L37.2147217,45.1009483 L32.1489826,47.1146121 C31.9213304,47.2084914 31.7716348,47.4299138 31.7678087,47.6783621 C31.7658957,47.8447845 31.8290261,48.0017241 31.9462,48.1207328 C32.0633739,48.2397414 32.2197652,48.3061207 32.388113,48.3084914 C32.4627217,48.3084914 32.5411565,48.293319 32.6143304,48.2653448 L38.0626783,46.0961638 C38.3013304,46.0018103 38.4558087,45.7761207 38.4558087,45.5205603 L38.4558087,42.7136638 L39.0005478,42.8023276 C39.3329391,42.8559052 39.6682,42.8838793 39.9967652,42.8838793 L40.0154174,42.8838793 C40.3497217,42.882931 40.6912,42.8530603 41.0307652,42.7956897 L41.5788522,42.7032328 L41.5788522,45.5181897 C41.5783739,45.7723276 41.7314174,45.9984914 41.969113,46.0952155 L47.4222435,48.2634483 C47.4968522,48.293319 47.9798957,48.38625 48.0602435,48.38625 L48.0607217,48.38625 C48.1343739,48.3857759 48.3213739,48.3687069 48.4528957,48.2203017 C48.5619391,48.0975 48.6025913,47.9201724 48.5743739,47.6925862 C48.5337217,47.3597414 47.9445043,47.1359483 47.8789826,47.1117672 Z" id="Fill-18" fill="#191919"></path>
            </g>
        </g>
    </g>
</svg>