<?xml version="1.0" encoding="UTF-8"?>
<svg width="56px" height="56px" viewBox="0 0 56 56" version="1.1" xmlns="http://www.w3.org/2000/svg" xmlns:xlink="http://www.w3.org/1999/xlink">
    <!-- Generator: Sketch 49.3 (51167) - http://www.bohemiancoding.com/sketch -->
    <title>公开课</title>
    <desc>Created with Sketch.</desc>
    <defs>
        <polygon id="path-1" points="0.148136752 0.292923077 39.330188 0.292923077 39.330188 35.1036718 0.148136752 35.1036718"></polygon>
    </defs>
    <g id="公开课" stroke="none" stroke-width="1" fill="none" fill-rule="evenodd" opacity="0.8">
        <g id="Page-1">
            <g>
                <path d="M9.57087863,43.9445402 C9.57087863,44.7706598 10.2352205,45.4345231 11.0608615,45.4345231 L30.7982291,45.4345231 L30.7982291,42.4545573 L11.0608615,42.4545573 C10.2390496,42.4545573 9.57087863,43.1184205 9.57087863,43.9445402" id="Fill-1" fill="#333333"></path>
                <path d="M44.8489641,43.9445402 C44.8489641,44.3590359 44.5115282,44.6964718 44.0970325,44.6964718 L31.5444171,44.6964718 L31.5444171,43.1969162 L44.0970325,43.1969162 L44.1544684,43.1950017 C44.5421607,43.2241983 44.8489641,43.5491897 44.8489641,43.9445402 M44.0970325,41.7121983 L11.0651692,41.7121983 C9.83460513,41.7121983 8.83282735,42.7134974 8.83282735,43.9445402 C8.83282735,45.1755829 9.83460513,46.1768821 11.0651692,46.1768821 L44.0970325,46.1768821 C45.3275966,46.1768821 46.3293744,45.1755829 46.3293744,43.9445402 C46.3293744,42.7134974 45.3275966,41.7121983 44.0970325,41.7121983" id="Fill-3" fill="#191919"></path>
                <path d="M30.1796444,44.8120615 L11.0611487,44.8120615 C10.5839521,44.8120615 10.1890803,44.4219761 10.1890803,43.9404718 C10.1890803,43.4632752 10.5796444,43.0684034 11.0611487,43.0684034 L30.1796444,43.0684034 L30.1796444,44.8077538 L30.1796444,44.8120615 Z" id="Fill-5" fill="#FFD811"></path>
                <g id="Group-9" transform="translate(15.794872, 0.185709)">
                    <mask id="mask-2" fill="white">
                        <use xlink:href="#path-1"></use>
                    </mask>
                    <g id="Clip-8"></g>
                    <path d="M3.56365812,26.0110906 C2.49439316,26.0110906 1.62423932,25.1414154 1.62423932,24.0716718 L1.62423932,3.71208205 C1.62423932,2.64281709 2.49439316,1.77266325 3.56365812,1.77266325 L35.9062906,1.77266325 C36.9760342,1.77266325 37.8457094,2.64281709 37.8457094,3.71208205 L37.8457094,24.0759795 C37.8457094,25.1447658 36.9760342,26.0153983 35.9062906,26.0153983 L18.7846496,26.0153983 C18.5788376,26.0153983 18.3768547,26.1044239 18.2299145,26.2609368 L13.1573675,31.8810393 L12.6571966,32.4352957 L12.6571966,31.6881504 L12.6571966,26.7491419 C12.6571966,26.3418256 12.3259829,26.0110906 11.9191453,26.0110906 L3.56365812,26.0110906 Z M11.1897094,34.3613128 C11.1897094,34.6681162 11.3797265,34.9452444 11.6630769,35.0515009 C11.7511453,35.086441 11.8416068,35.1036718 11.9277607,35.1036718 C12.1359658,35.1036718 12.3365128,35.0141675 12.478188,34.8576547 L19.0316239,27.5900991 L19.1172991,27.4953299 L19.245094,27.4953299 L35.914906,27.4953299 C37.7978462,27.4953299 39.3304274,25.9632274 39.3304274,24.0802872 L39.3304274,3.71638974 C39.3222906,1.83344957 37.786359,0.300868376 35.9062906,0.300868376 L35.6195897,0.300868376 L35.6195897,0.292731624 L3.56365812,0.292731624 C1.68023932,0.292731624 0.148136752,1.82483419 0.148136752,3.70777436 L0.148136752,24.0802872 C0.148136752,25.9632274 1.68023932,27.4953299 3.56365812,27.4953299 L10.9020513,27.4953299 L11.1897094,27.4953299 L11.1897094,27.7825094 L11.1897094,34.3613128 Z" id="Fill-7" fill="#191919" mask="url(#mask-2)"></path>
                </g>
                <polygon id="Fill-10" fill="#FFD811" points="30.9018051 19.2393504 30.9018051 8.55962393 40.1451556 13.8973333"></polygon>
                <path d="M30.7279179,7.19174017 C30.5446017,7.19174017 30.3617641,7.23960342 30.1961573,7.33485128 C29.8601573,7.52582564 29.6610462,7.87427009 29.6610462,8.26004786 L29.6610462,19.5423726 C29.6610462,19.9281504 29.8601573,20.2770735 30.1961573,20.4675692 C30.3617641,20.5671248 30.5446017,20.6087658 30.731747,20.6087658 C30.917935,20.6087658 31.0969436,20.5594667 31.2668581,20.4675692 L41.0376615,14.8268855 C41.3741402,14.6359111 41.5732513,14.2874667 41.5732513,13.9016889 C41.5732513,13.5154325 41.3698325,13.1665094 41.0376615,12.975535 L41.0338325,12.975535 L31.2625504,7.33485128 C31.0950291,7.23960342 30.9112342,7.19174017 30.7279179,7.19174017 M31.0969436,8.89710769 L39.7673709,13.9026462 L31.0969436,18.9081846 L31.0969436,8.89710769" id="Fill-12" fill="#191919"></path>
                <path d="M50.6851214,27.3513094 L50.6851214,48.8213265 C50.6851214,49.6230359 50.0332239,50.275412 49.2315145,50.275412 L5.90570256,50.275412 C5.10447179,50.275412 4.45209573,49.6230359 4.45209573,48.8213265 L4.45209573,19.0441641 C4.45209573,18.2429333 5.10447179,17.5900786 5.90570256,17.5900786 L16.4978393,17.5900786 L16.4978393,16.1139761 L5.90570256,16.1139761 C4.29031795,16.1139761 2.97599316,17.4287795 2.97599316,19.0441641 L2.97599316,48.8213265 C2.97599316,50.4414974 4.29031795,51.7596513 5.90570256,51.7596513 L49.2315145,51.7596513 C50.8468991,51.7596513 52.1612239,50.4453265 52.1612239,48.8299419 L52.1612239,27.3513094 L50.6851214,27.3513094 Z" id="Fill-14" fill="#191919"></path>
                <path d="M54.3786325,54.2309265 L0.738290598,54.2309265 C0.330974359,54.2309265 0.000239316239,54.5616615 0.000239316239,54.9689778 C0.000239316239,55.376294 0.330974359,55.7070291 0.738290598,55.7070291 L54.3786325,55.7070291 C54.7854701,55.7070291 55.1166838,55.376294 55.1166838,54.9689778 C55.1166838,54.5616615 54.7854701,54.2309265 54.3786325,54.2309265" id="Fill-16" fill="#191919"></path>
            </g>
        </g>
    </g>
</svg>