<?xml version="1.0" encoding="UTF-8"?>
<svg width="54px" height="55px" viewBox="0 0 54 55" version="1.1" xmlns="http://www.w3.org/2000/svg" xmlns:xlink="http://www.w3.org/1999/xlink">
    <!-- Generator: Sketch 49.3 (51167) - http://www.bohemiancoding.com/sketch -->
    <title>学习工具</title>
    <desc>Created with Sketch.</desc>
    <defs>
        <polygon id="path-1" points="4.43603911e-05 0.3915 53.8813846 0.3915 53.8813846 53.5421441 4.43603911e-05 53.5421441"></polygon>
    </defs>
    <g id="学习工具" stroke="none" stroke-width="1" fill="none" fill-rule="evenodd" opacity="0.8">
        <g id="dingzhi">
            <g id="Page-1">
                <path d="M17.1248308,47.5455814 L1.5696,52.1085814 L1.34067692,52.1753949 L1.41452308,51.9520729 L6.40421538,36.8512932 L6.44021538,36.7437508 L6.55190769,36.7689203 L10.2299077,37.5912763 L10.3272923,37.6132424 L10.3272923,37.7120898 L10.3272923,42.5560729 C10.3272923,42.9853271 10.6822154,43.3349542 11.1183692,43.3349542 L15.9271385,43.3349542 L16.0212923,43.3349542 L16.0476,43.4237339 L17.2097538,47.3931915 L17.2443692,47.5108017 L17.1248308,47.5455814 Z" id="Fill-1" fill="#FFD811"></path>
                <path d="M35.9433231,7.74543051 L41.8177846,1.91754915 L41.8182462,1.91754915 C42.0153231,1.72168475 42.2968615,1.6095661 42.5894769,1.6095661 C42.8825538,1.6095661 43.1640923,1.72168475 43.3616308,1.91754915 L52.4839385,10.9625492 C52.6897846,11.1666508 52.8028615,11.4380237 52.8028615,11.7267864 C52.8028615,12.0160068 52.6888615,12.2882949 52.4820923,12.4933119 L46.6076308,18.3193627 L46.5236308,18.4031085 L46.4391692,18.3193627 L35.9437846,7.91246441 L35.8588615,7.82917627 L35.9433231,7.74543051 Z" id="Fill-3" fill="#FFD811"></path>
                <g id="Group-7" transform="translate(0.000000, 0.066356)">
                    <mask id="mask-2" fill="white">
                        <use xlink:href="#path-1"></use>
                    </mask>
                    <g id="Clip-6"></g>
                    <path d="M51.6063231,43.1576695 L43.1827846,51.606839 C42.9732462,51.8164322 42.5015538,52.0415847 41.9620154,52.0415847 C41.7072462,52.0415847 41.2254,51.9875847 40.8621692,51.6256017 C40.8330923,51.5944831 40.1338615,50.8545 38.9121692,49.5873305 L38.8341692,49.5058729 L38.9140154,49.427161 L45.0547846,43.3388898 C45.3381692,43.0574492 45.3381692,42.6002797 45.0547846,42.318839 C44.9177077,42.1829237 44.7349385,42.1083305 44.5406308,42.1083305 C44.3463231,42.1083305 44.1635538,42.1829237 44.0264769,42.318839 L37.9110923,48.3823983 L37.8280154,48.4652288 L37.7467846,48.3810254 C36.5578615,47.1545847 35.2761692,45.8476017 33.9390923,44.4953136 L33.8587846,44.4143136 L33.9400154,44.3342288 L36.6294,41.6676356 C36.7664769,41.532178 36.8417077,41.3523305 36.8417077,41.1601271 C36.8417077,40.9679237 36.7664769,40.7862458 36.6289385,40.6498729 C36.4918615,40.5139576 36.3090923,40.4393644 36.1152462,40.4393644 C35.9209385,40.4393644 35.7381692,40.5139576 35.6006308,40.6503305 L32.9200154,43.3063983 L32.8378615,43.3878559 L32.7561692,43.3059407 C31.9429385,42.4904492 28.8852462,39.4124492 27.9644769,38.4985678 L38.3029385,28.1795339 L51.7392462,41.5376695 C52.1250923,41.9202458 52.0604769,42.707822 51.6063231,43.1576695 Z M17.8955538,46.5042966 L17.7570923,46.6425 L17.7030923,46.4553305 L16.7306308,43.1100763 L16.7117077,43.0450932 L16.7606308,42.9970424 L43.1947846,17.1209746 L43.2764769,17.0413475 L43.3577077,17.1214322 L45.2689385,19.017839 L45.3497077,19.098839 L45.2689385,19.179839 L17.8955538,46.5042966 Z M16.3604769,47.4525 L2.0574,51.6777712 L1.84647692,51.7400085 L1.91478462,51.533161 L6.50293846,37.5476186 L6.53570769,37.4483136 L6.63816923,37.4716525 L10.0203231,38.2336017 L10.1103231,38.2537373 L10.1103231,38.3448051 L10.1103231,42.8313814 C10.1103231,43.2290593 10.4366308,43.5521441 10.8377077,43.5521441 L15.2592462,43.5521441 L15.3464769,43.5521441 L15.3700154,43.6354322 L16.4384769,47.3110932 L16.4698615,47.4195508 L16.3604769,47.4525 Z M7.63647692,36.038822 L34.9540154,8.95141525 L35.0357077,8.86995763 L35.1169385,8.95141525 L36.8680154,10.6871949 L36.9497077,10.7681949 L36.8680154,10.8487373 L10.7103231,36.8556864 L10.6650923,36.9000763 L10.6027846,36.8863475 L7.69278462,36.2310254 L7.48878462,36.1857203 L7.63647692,36.038822 Z M10.3604769,21.0945508 L10.2778615,21.0140085 L10.3600154,20.9330085 L13.0378615,18.2778559 C13.3212462,17.9968729 13.3212462,17.5397034 13.0378615,17.2582627 C12.9003231,17.1218898 12.7175538,17.0472966 12.5232462,17.0472966 C12.3289385,17.0472966 12.1466308,17.1218898 12.0090923,17.2582627 L9.32524615,19.9202797 L9.24401538,19.9999068 L9.16232308,19.9207373 C7.91432308,18.6984153 6.63816923,17.4573305 5.26186154,16.1265508 L5.17786154,16.0455508 L5.26093846,15.9636356 L11.3523231,9.92341525 C11.4894,9.7875 11.5650923,9.60673729 11.5650923,9.41407627 C11.5650923,9.22141525 11.4894,9.03973729 11.3523231,8.90382203 C11.2152462,8.76836441 11.0329385,8.69285593 10.8381692,8.69285593 C10.6438615,8.69285593 10.4615538,8.76836441 10.3244769,8.90382203 L4.21370769,14.9628051 L4.13386154,15.0419746 L4.05216923,14.964178 C3.0234,13.9757034 2.35693846,13.3418898 2.15293846,13.1478559 L2.08416923,13.0824153 C1.89724615,12.8970763 1.67386154,12.5442458 1.61016923,12.1117881 C1.55801538,11.7617034 1.59816923,11.2427542 2.08416923,10.7604153 L10.5100154,2.4064322 C10.7167846,2.19775424 11.1483231,1.84721186 11.7017077,1.84721186 C12.0912462,1.84721186 12.4650923,2.0215678 12.8144769,2.36570339 C13.2778615,2.88511017 19.7814,9.84516102 25.8834,15.9068898 L15.5089385,26.1938898 C14.4270923,25.1216695 11.2055538,21.9260593 10.3604769,21.0945508 Z M42.2486308,16.0212966 L42.1655538,16.1027542 L15.6284769,42.0776695 L15.5947846,42.110161 L15.5472462,42.110161 L11.6800154,42.110161 L11.5646308,42.110161 L11.5646308,41.9957542 L11.5646308,38.0958559 L11.5646308,38.0487203 L11.5983231,38.0157712 L37.8981692,11.870161 L37.9798615,11.789161 L38.0610923,11.870161 L42.1660154,15.939839 L42.2486308,16.0212966 Z M36.1235538,7.74968644 L41.8041692,2.11400847 C41.9952462,1.92455085 42.2675538,1.81609322 42.5504769,1.81609322 C42.8338615,1.81609322 43.1061692,1.92455085 43.2967846,2.11400847 L52.1181692,10.8610932 C52.3175538,11.0578729 52.4269385,11.3210085 52.4269385,11.600161 C52.4269385,11.8793136 52.3166308,12.1429068 52.1163231,12.3406017 L46.4361692,17.9753644 L46.3544769,18.0559068 L46.2727846,17.9753644 L36.1235538,7.91122881 L36.0418615,7.83068644 L36.1235538,7.74968644 Z M39.3275538,27.1562797 L46.8930923,19.6045169 C46.9083231,19.5889576 46.9217077,19.5660763 46.9364769,19.5404492 C46.9470923,19.5216864 46.9581692,19.5029237 46.9697077,19.4850763 L53.1450923,13.358822 C53.6195538,12.8865508 53.8817077,12.2605169 53.8817077,11.5969576 C53.8817077,10.9329407 53.6200154,10.3091949 53.1450923,9.83966949 L44.3237077,1.09441525 C43.8727846,0.647313559 43.2261692,0.3915 42.5490923,0.3915 C41.8720154,0.3915 41.2254,0.647313559 40.7744769,1.09441525 L34.4740154,7.34148305 C34.4569385,7.35841525 34.4426308,7.38312712 34.4260154,7.41195763 C34.4167846,7.42888983 34.4066308,7.44536441 34.3964769,7.46138136 L34.3895538,7.47190678 L34.3812462,7.48060169 L26.9112462,14.8877542 C20.7889385,8.80680508 14.3250923,1.88519492 13.8810923,1.38683898 C13.2423231,0.754398305 12.4932462,0.420330508 11.7132462,0.420330508 C10.9134,0.420330508 10.0997077,0.772245763 9.48170769,1.3854661 L1.05447692,9.73944915 C0.240323077,10.5476186 0.104169231,11.4317542 0.133707692,12.0307881 C0.171553846,12.804178 0.511707692,13.5633814 1.06786154,14.1139068 C1.56863077,14.5893814 8.45386154,21.2409915 14.4801692,27.2143983 L5.53878462,36.0800085 C5.45709231,36.1610085 5.39570769,36.2603136 5.36155385,36.3664831 L0.0363230769,52.5994322 C-0.0481384615,52.8543305 0.0174,53.1330254 0.206630769,53.3266017 C0.343707692,53.4652627 0.528784615,53.5421441 0.726784615,53.5421441 C0.796476923,53.5421441 0.866169231,53.5320763 0.934938462,53.5119407 L17.7861692,48.5347881 C17.9043231,48.5000085 18.0081692,48.4382288 18.0940154,48.3521949 L26.9398615,39.521822 C33.1627846,45.6910932 39.7784769,52.5889068 39.8167846,52.6296356 C40.3697077,53.1792458 41.1326308,53.4835678 41.9620154,53.4835678 C42.8172462,53.4835678 43.6803231,53.1545339 44.2134,52.6236864 L52.6355538,44.1745169 C53.6518615,43.1672797 53.7127846,41.4585 52.7675538,40.5176186 L39.3275538,27.1562797 Z" id="Fill-5" fill="#191919" mask="url(#mask-2)"></path>
                </g>
            </g>
        </g>
    </g>
</svg>