<?xml version="1.0" encoding="UTF-8"?>
<svg width="47px" height="52px" viewBox="0 0 47 52" version="1.1" xmlns="http://www.w3.org/2000/svg" xmlns:xlink="http://www.w3.org/1999/xlink">
    <!-- Generator: Sketch 49.3 (51167) - http://www.bohemiancoding.com/sketch -->
    <title>奖杯</title>
    <desc>Created with Sketch.</desc>
    <defs>
        <polygon id="path-1" points="0 0.294468571 46.8283608 0.294468571 46.8283608 51.7028571 0 51.7028571"></polygon>
    </defs>
    <g id="申请成为老师" stroke="none" stroke-width="1" fill="none" fill-rule="evenodd">
        <g id="01_申请成为tutor" transform="translate(-1129.000000, -1245.000000)">
            <g id="申请资格" transform="translate(555.000000, 1123.000000)">
                <g id="Group-17" transform="translate(574.000000, 122.000000)">
                    <g id="047">
                        <g id="Page-1">
                            <g id="Group-3" transform="translate(0.000000, 0.002674)">
                                <mask id="mask-2" fill="white">
                                    <use xlink:href="#path-1"></use>
                                </mask>
                                <g id="Clip-2"></g>
                                <path d="M39.5185222,21.0065143 L39.4042943,21.0151314 L39.2145095,21.0299886 L39.2463386,20.8421943 L39.2653766,20.7295771 C39.4069715,19.8943086 39.4789589,19.0504229 39.4789589,18.2216914 L39.4789589,9.42566857 L39.4789589,9.32582857 L39.4789589,9.15972571 L39.6443513,9.17814857 L39.7437057,9.18944 C42.8549272,9.54066286 45.2013576,12.07648 45.2013576,15.0877257 C45.2013576,18.1601829 42.7050032,20.7598857 39.5185222,21.0065143 Z M37.8515095,5.23922286 L37.8515095,5.32836571 L37.8515095,5.47693714 L37.7027753,5.47693714 L37.6138323,5.47693714 L9.03456013,5.47693714 L8.94561709,5.47693714 L8.79688291,5.47693714 L8.79688291,5.32836571 L8.79688291,5.23922286 L8.79688291,3.25430857 C8.79688291,2.51828571 9.39598418,1.91984 10.1328133,1.91984 L36.5155791,1.91984 C37.2524082,1.91984 37.8515095,2.51828571 37.8515095,3.25430857 L37.8515095,5.23922286 Z M37.8515095,7.29723429 L37.8515095,7.38637714 L37.8515095,18.2216914 C37.8515095,23.4199086 34.8093006,28.2746286 29.9114842,30.8918629 C28.6653892,31.5547886 27.6673829,32.5555657 27.0260411,33.7866286 L27.0010538,33.8344686 L26.9591108,33.9144 L26.8689778,33.9144 L26.8148386,33.9144 L19.7008829,33.9144 L19.6491234,33.9144 L19.5628576,33.9144 L19.5200222,33.83952 L19.4944399,33.7946514 C18.8358449,32.6429257 17.8565791,31.7036571 16.6628386,31.0784686 C11.884307,28.5649371 8.79688291,23.5182629 8.79688291,18.2216914 L8.79688291,7.38637714 L8.79688291,7.29723429 L8.79688291,7.14866286 L8.94561709,7.14866286 L9.03456013,7.14866286 L37.6138323,7.14866286 L37.7027753,7.14866286 L37.8515095,7.14866286 L37.8515095,7.29723429 Z M31.1355665,42.1847771 L31.2170728,42.1841829 C31.9351614,42.1841829 32.4598956,42.3422629 32.7778892,42.6533714 C33.1827437,43.0524343 33.2523513,43.6981257 33.269307,44.1491886 L33.2728766,44.2413029 L33.2785285,44.3958171 L33.1241424,44.3958171 L33.0313323,44.3958171 L13.0982753,44.3958171 L12.9899968,44.3958171 L12.809731,44.3958171 L12.8439399,44.2190171 L12.8641677,44.1129371 C12.9664968,43.5834286 13.1809715,43.16208 13.5019399,42.8592914 C14.1566677,42.2379657 15.1201677,42.1898286 15.4000854,42.1898286 C15.4384589,42.1898286 15.4619589,42.19072 15.4679082,42.1910171 L15.5360285,42.19072 C18.2049146,42.19072 20.3758386,40.0218743 20.3758386,37.3559086 L20.3758386,37.0774857 C20.3758386,36.6864457 20.3368703,36.2790629 20.2595285,35.8681143 L20.2393006,35.7623314 L20.2062816,35.5861257 L20.3856551,35.5861257 L20.4933386,35.5861257 L26.1143006,35.5861257 L26.2181171,35.5861257 L26.3912437,35.5861257 L26.3650665,35.75728 L26.3495981,35.8594971 C26.2984335,36.19616 26.2725538,36.5298514 26.2725538,36.8510629 L26.2725538,37.3502629 C26.2725538,40.0162286 28.4541867,42.1847771 31.1355665,42.1847771 Z M37.1024842,46.0268343 L37.1720918,46.0268343 L37.2884019,46.0268343 L37.3163639,46.1394514 L37.3333196,46.2072 C37.3383766,46.2274057 37.3413513,46.2452343 37.343731,46.2630629 L38.0850222,49.7907429 L38.1073323,49.8980114 L38.1451108,50.0774857 L37.9618703,50.0774857 L37.851807,50.0774857 L8.80223734,50.0774857 L8.69247152,50.0774857 L8.50952848,50.0774857 L8.54700949,49.8983086 L8.56931962,49.79104 L9.30138924,46.28 L9.30436392,46.2648457 C9.30704114,46.2452343 9.31001582,46.2274057 9.31507278,46.2069029 L9.33173101,46.1394514 L9.35999051,46.0268343 L9.47630063,46.0268343 L9.54590823,46.0268343 L37.1024842,46.0268343 Z M7.23041456,20.99136 L7.11350949,20.97888 C3.98592722,20.6404343 1.62730063,18.1028343 1.62730063,15.0761371 C1.62730063,12.1590857 3.89281962,9.63485714 6.89784494,9.20518857 L6.99987658,9.19062857 L7.16943354,9.16626286 L7.16943354,9.33771429 L7.16943354,9.44052571 L7.16943354,18.2216914 C7.16943354,19.0370514 7.23814873,19.8726171 7.37409177,20.7040229 L7.39312975,20.8199086 L7.42436392,21.0127543 L7.23041456,20.99136 Z M39.6973006,7.55010286 L39.6151994,7.54326857 L39.4789589,7.53168 L39.4789589,7.39529143 L39.4789589,7.31328 L39.4789589,3.25430857 C39.4789589,1.6224 38.1495728,0.294468571 36.5155791,0.294468571 L10.1328133,0.294468571 C8.49881962,0.294468571 7.16943354,1.6224 7.16943354,3.25430857 L7.16943354,7.31773714 L7.16943354,7.39796571 L7.16943354,7.53168 L7.03646519,7.54564571 L6.9564462,7.55426286 C2.9905981,7.97353143 -0.000148734177,11.2097143 -0.000148734177,15.08208 C-0.000148734177,19.1731429 3.43114873,22.5691886 7.64865506,22.6517943 L7.7132057,22.65328 L7.82059177,22.65536 L7.85242089,22.7581714 L7.87116139,22.81968 C9.15206013,26.9722514 12.081231,30.5079543 15.9084589,32.5205029 C17.66025,33.43808 18.7486867,35.1840914 18.7486867,37.0774857 L18.7486867,37.3559086 C18.7486867,39.1069714 17.321731,40.5466286 15.5675601,40.5653486 C15.5140158,40.5629714 15.455712,40.5611886 15.3822373,40.5611886 C14.8390601,40.5611886 13.4611867,40.6678629 12.4045791,41.6558629 C11.7323006,42.2828343 11.3304209,43.1335543 11.2099462,44.1851429 L11.2010222,44.2641829 L11.1858513,44.3958171 L11.0531804,44.3958171 L10.9734589,44.3958171 L9.54590823,44.3958171 C8.63773734,44.3958171 7.84438924,45.0682514 7.70100949,45.9602743 L6.95525633,49.52272 L6.95228165,49.5378743 C6.9499019,49.5548114 6.94752215,49.5702629 6.94365506,49.5874971 C6.86988291,50.11344 7.03051582,50.6497829 7.38480063,51.05984 C7.74206013,51.4684114 8.25668038,51.7028571 8.79658544,51.7028571 L37.851807,51.7028571 C38.3973639,51.7028571 38.9116867,51.4669257 39.2626994,51.0550857 C39.6190665,50.6474057 39.7791044,50.1072 39.7026551,49.57056 C39.7002753,49.5598629 39.698193,49.5467886 39.6964082,49.5337143 L38.9494652,45.9709714 C38.7989462,45.0703314 38.0053006,44.3958171 37.1024842,44.3958171 L35.1490095,44.3958171 L35.0624462,44.3958171 L34.9178766,44.3958171 L34.913712,44.2514057 L34.9110348,44.1649371 C34.8768259,42.9933029 34.5582373,42.1232686 33.9365285,41.5058057 C33.3050032,40.88032 32.4149778,40.5626743 31.2914399,40.5626743 C31.2361108,40.5626743 31.1807816,40.5635657 31.1245601,40.5650514 C30.2624968,40.5650514 29.4554652,40.2310629 28.8477373,39.6242971 C28.240307,39.0175314 27.9056551,38.2119771 27.9056551,37.3559086 L27.9056551,36.8570057 C27.9056551,34.9832229 28.9685095,33.2485029 30.6801424,32.3297371 C34.5989905,30.2339886 37.4674778,26.8560686 38.7570032,22.8178971 L38.7778259,22.7537143 L38.8120348,22.6464457 L38.9244778,22.6503086 L38.9920032,22.6523886 C39.002712,22.6529829 39.0131234,22.6538743 39.0232373,22.6550629 C43.3290918,22.6500114 46.8285095,19.2599086 46.8285095,15.0936686 C46.8285095,11.1984229 43.6958703,7.88498286 39.6973006,7.55010286 Z" id="Fill-1" fill="#333333" mask="url(#mask-2)"></path>
                            </g>
                            <path d="M26.9095228,21.074768 L27.4886937,24.4306994 L24.4702823,22.842768 C24.1287886,22.6626994 23.7554658,22.5726651 23.3824405,22.5726651 C23.0091177,22.5726651 22.6357949,22.6626994 22.2880544,22.842768 L19.2693456,24.4306994 L19.8488139,21.074768 C19.9773203,20.3158651 19.7265544,19.5444823 19.1795101,19.0108137 L16.7334278,16.631888 L20.1123709,16.143088 C20.8724025,16.0337394 21.5295101,15.5577166 21.8698139,14.870128 L23.3758962,11.8095566 L24.8885228,14.870128 C25.229719,15.5583109 25.8862316,16.0340366 26.6456684,16.143088 L30.0249089,16.631888 L27.5788266,19.0108137 C27.0317823,19.5444823 26.780719,20.3158651 26.9095228,21.074768" id="Fill-4" fill="#FFDA00"></path>
                            <path d="M29.6186861,16.8410766 L29.4889899,16.9670651 L27.2811797,19.1142194 C26.8427114,19.5421051 26.6425152,20.1601623 26.7457367,20.7675223 L27.2683886,23.7960023 L27.2990278,23.9745851 L27.3504899,24.271728 L27.0833633,24.1311794 L26.9227304,24.0467909 L24.1979203,22.6133737 C23.9299013,22.4716366 23.6285658,22.3970537 23.3272304,22.3970537 C23.0223253,22.3970537 22.7269392,22.4698537 22.4488063,22.6142651 L19.7254835,24.0467909 L19.5651481,24.1311794 L19.2980215,24.271728 L19.3494835,23.9745851 L19.3801228,23.7960023 L19.9030722,20.7666309 C20.0059962,20.1598651 19.8055025,19.5421051 19.3670342,19.1142194 L17.1592241,16.9670651 L17.0298253,16.8410766 L16.8135658,16.6306994 L17.1122241,16.5873166 L17.2913,16.5617623 L20.3415405,16.1205051 C20.9498633,16.0325509 21.4760848,15.6516137 21.7485658,15.1013051 L23.1076987,12.3393623 L23.1877177,12.1768251 L23.3206861,11.9064251 L23.4542494,12.1768251 L23.5345658,12.3390651 L24.8999456,15.1016023 C25.1730215,15.6519109 25.6986481,16.032848 26.3066734,16.1205051 L29.3569139,16.5617623 L29.5362873,16.5873166 L29.8349456,16.6306994 L29.6186861,16.8410766 Z M31.1069203,16.2087566 C30.8861987,15.5271109 30.3076228,15.0397966 29.5966734,14.9369851 L26.5464329,14.495728 L26.5003253,14.4891909 L26.4229835,14.4781966 L26.3881797,14.4080709 L26.367357,14.3661737 L25.0019772,11.6095794 C24.6884456,10.9674537 24.0471038,10.5695794 23.3272304,10.5695794 C22.6124139,10.5695794 21.9704772,10.9677509 21.6521861,11.6095794 L20.2868063,14.3661737 L20.2659835,14.4080709 L20.2311797,14.4781966 L20.1541354,14.4891909 L20.1074329,14.495728 L17.0571924,14.9369851 C16.3483253,15.0397966 15.7694519,15.5268137 15.547243,16.2087566 C15.3259266,16.8921851 15.5073823,17.626128 16.0211101,18.123248 L18.2292177,20.2712937 L18.2628316,20.3036823 L18.3190532,20.3583566 L18.3059646,20.4356137 L18.2976354,20.481968 L17.7749835,23.5113394 C17.6518316,24.2137851 17.9365089,24.9141509 18.517762,25.3393623 C18.8390278,25.5752937 19.2183,25.6994994 19.6145278,25.6994994 C19.9191354,25.6994994 20.214819,25.6266994 20.4926544,25.4825851 L23.2162747,24.0500594 L23.2576228,24.0280709 L23.3272304,23.9915223 L23.396243,24.0280709 L23.4378886,24.0497623 L26.1683506,25.4831794 C26.4384519,25.623728 26.7394899,25.6980137 27.039338,25.6980137 C27.4334835,25.6980137 27.8133506,25.573808 28.1375911,25.338768 C28.7134899,24.9177166 28.9978696,24.2167566 28.8791797,23.5101509 L28.3565278,20.481968 L28.3481987,20.4356137 L28.3351101,20.3583566 L28.3910342,20.3036823 L28.4246481,20.2709966 L30.6324582,18.1238423 C31.1479709,17.6249394 31.3294266,16.8909966 31.1069203,16.2087566 Z" id="Fill-6" fill="#333333"></path>
                        </g>
                    </g>
                </g>
            </g>
        </g>
    </g>
</svg>