<?xml version="1.0" encoding="UTF-8"?>
<svg width="160px" height="172px" viewBox="0 0 160 172" version="1.1" xmlns="http://www.w3.org/2000/svg" xmlns:xlink="http://www.w3.org/1999/xlink">
    <!-- Generator: Sketch 49.3 (51167) - http://www.bohemiancoding.com/sketch -->
    <title>jubao </title>
    <desc>Created with Sketch.</desc>
    <defs>
        <polygon id="path-1" points="0 0.9038 159.2868 0.9038 159.2868 9.9998 0 9.9998"></polygon>
    </defs>
    <g id="jubao-" stroke="none" stroke-width="1" fill="none" fill-rule="evenodd">
        <g id="Page-1">
            <polygon id="Fill-1" fill="#FFDA00" points="20.504 149.058 141.26 149.058 141.26 103.759 20.504 103.759"></polygon>
            <g id="Group-13" transform="translate(0.000000, 0.348000)">
                <path d="M79.1836,26.3452 L79.2976,26.3452 C81.7706,26.3452 83.7836,24.3332 83.7836,21.8602 L83.7836,5.1372 C83.7836,2.6642 81.7706,0.6522 79.2976,0.6522 L79.1836,0.6522 C76.7106,0.6522 74.6986,2.6642 74.6986,5.1372 L74.6986,21.8602 C74.6986,24.3332 76.7106,26.3452 79.1836,26.3452" id="Fill-2" fill="#333333"></path>
                <path d="M133.1768,44.8095 C133.2378,44.8115 133.2978,44.8125 133.3588,44.8125 C134.5478,44.8125 135.6768,44.3705 136.5638,43.5475 L148.7488,31.3795 L148.7498,31.3785 C150.5808,29.5425 150.5778,26.5595 148.7418,24.7285 C146.9078,22.8975 143.9238,22.8995 142.0938,24.7345 L129.9018,36.9105 C128.2398,38.7045 128.2408,41.5145 129.9048,43.3075 C130.7578,44.2285 131.9208,44.7625 133.1768,44.8095" id="Fill-4" fill="#333333"></path>
                <path d="M23.8301,44.6382 C24.7051,45.4392 25.8031,45.8402 26.9001,45.8402 C27.9961,45.8402 29.0921,45.4412 29.9661,44.6422 C31.8161,42.9512 31.9471,40.0712 30.2441,38.2062 L18.5181,26.4952 C17.6591,25.6372 16.5181,25.1642 15.3061,25.1632 L15.3041,25.1632 C14.0911,25.1632 12.9501,25.6362 12.0931,26.4932 C11.2331,27.3512 10.7611,28.4922 10.7601,29.7052 C10.7601,30.9192 11.2321,32.0602 12.0911,32.9192 L23.8301,44.6382 Z" id="Fill-6" fill="#333333"></path>
                <path d="M23.5039,147.7099 L23.5039,101.6449 C23.5039,70.3329 48.9789,44.8569 80.2909,44.8569 L82.1569,44.8569 C113.4699,44.8569 138.9439,70.3329 138.9439,101.6449 L138.9439,147.7099 L23.5039,147.7099 Z M14.5329,152.1939 C14.5329,154.6679 16.5459,156.6789 19.0189,156.6789 L143.4299,156.6789 C145.9019,156.6789 147.9149,154.6679 147.9149,152.1939 L147.9149,101.6449 C147.9149,65.3869 118.4159,35.8879 82.1569,35.8879 L80.2909,35.8879 C44.0319,35.8879 14.5329,65.3869 14.5329,101.6449 L14.5329,152.1939 Z" id="Fill-8" fill="#333333"></path>
                <g id="Group-12" transform="translate(0.000000, 161.000000)">
                    <mask id="mask-2" fill="white">
                        <use xlink:href="#path-1"></use>
                    </mask>
                    <g id="Clip-11"></g>
                    <path d="M154.8018,0.9038 L4.4848,0.9038 C2.0118,0.9038 -0.0002,2.9158 -0.0002,5.3888 L-0.0002,5.5148 C-0.0002,7.9878 2.0118,9.9998 4.4848,9.9998 L154.8018,9.9998 C157.2748,9.9998 159.2868,7.9878 159.2868,5.5148 L159.2868,5.3888 C159.2868,2.9158 157.2748,0.9038 154.8018,0.9038" id="Fill-10" fill="#333333" mask="url(#mask-2)"></path>
                </g>
            </g>
        </g>
    </g>
</svg>