<?xml version="1.0" encoding="UTF-8"?>
<svg width="47px" height="43px" viewBox="0 0 47 43" version="1.1" xmlns="http://www.w3.org/2000/svg" xmlns:xlink="http://www.w3.org/1999/xlink">
    <!-- Generator: Sketch 49.3 (51167) - http://www.bohemiancoding.com/sketch -->
    <title>奖学金</title>
    <desc>Created with Sketch.</desc>
    <defs>
        <linearGradient x1="50%" y1="0%" x2="50%" y2="100%" id="linearGradient-1">
            <stop stop-color="#626262" offset="0%"></stop>
            <stop stop-color="#333333" offset="100%"></stop>
        </linearGradient>
        <polygon id="path-2" points="0.1963648 0.0934549396 34.5050048 0.0934549396 34.5050048 21.3162393 0.1963648 21.3162393"></polygon>
        <linearGradient x1="50%" y1="0%" x2="50%" y2="100%" id="linearGradient-4">
            <stop stop-color="#FFEF00" offset="0%"></stop>
            <stop stop-color="#FFDA00" offset="100%"></stop>
        </linearGradient>
    </defs>
    <g id="申请成为老师" stroke="none" stroke-width="1" fill="none" fill-rule="evenodd">
        <g id="01_申请成为tutor" transform="translate(-1037.000000, -1853.000000)">
            <g id="福利" transform="translate(362.000000, 1745.000000)">
                <g id="Group-19-Copy-3" transform="translate(606.600000, 80.000000)">
                    <g id="037" transform="translate(69.000000, 28.000000)">
                        <g id="Page-1">
                            <path d="M23.4810864,22.6241744 C23.0795984,22.8384393 22.5533584,22.8384393 22.1533424,22.6241744 L3.2620624,12.5077812 L22.1802064,2.99228547 C22.5820624,2.79713162 23.0508944,2.79713162 23.4527504,2.99228547 L23.4527504,2.99375556 L42.4794544,12.5077812 L23.4810864,22.6241744 Z M45.7384624,12.6904393 L45.7399344,12.6919094 C45.8172144,11.7010718 45.2773584,10.7201573 44.3006864,10.2306188 L24.7363344,0.448302564 C23.5252464,-0.150757265 22.1032944,-0.149287179 20.8936784,0.452712821 L1.4408304,10.233559 C1.0378704,10.4375333 0.6901104,10.7344906 0.4387664,11.102747 C-0.4230896,12.3593026 0.0343344,14.0124137 1.3779024,14.7320205 L20.7979984,25.1310376 C22.0583984,25.7980889 23.5671984,25.799559 24.8294384,25.1354479 L42.8853584,15.5199863 L42.8853584,29.9010974 C42.8853584,30.6890632 43.5256784,31.3285504 44.3150384,31.3285504 C45.1047664,31.3285504 45.7443504,30.6890632 45.7443504,29.9010974 L45.7443504,12.8187043 C45.7443504,12.7760718 45.7428784,12.7334393 45.7384624,12.6904393 Z" id="Fill-1" fill="url(#linearGradient-1)"></path>
                            <g id="Group-5" transform="translate(5.520000, 21.512128)">
                                <mask id="mask-3" fill="white">
                                    <use xlink:href="#path-2"></use>
                                </mask>
                                <g id="Clip-4"></g>
                                <path d="M31.6489568,14.1935282 C31.6489568,16.5537504 29.7291008,18.4666991 27.3602848,18.4666991 L7.3469728,18.4666991 L7.3455008,18.4666991 C4.9803648,18.4689043 3.0605088,16.5559556 3.0586688,14.1935282 L3.0586688,3.69895556 L15.3123328,9.82921197 C16.5605888,10.4426051 18.0226528,10.4440752 19.2720128,9.83362222 L19.2749568,9.83215214 L31.6489568,3.68057949 L31.6489568,14.1935282 Z M32.1078528,0.268878632 L17.9954208,7.28375897 C17.5736928,7.4939812 17.0161728,7.4939812 16.5962848,7.28375897 L2.5971968,0.284682051 C1.4946688,-0.2666 0.1963648,0.53422906 0.1963648,1.76579316 L0.1963648,14.1949983 C0.1963648,18.128212 3.3972288,21.3164598 7.3440288,21.3164598 L27.3573408,21.3164598 C31.3004608,21.3212376 34.5002208,18.1326222 34.5050048,14.1949983 L34.5050048,1.75145983 C34.5050048,0.522100855 33.2103808,-0.278728205 32.1078528,0.268878632 Z" id="Fill-3" fill="url(#linearGradient-4)" mask="url(#mask-3)"></path>
                            </g>
                        </g>
                    </g>
                </g>
            </g>
        </g>
    </g>
</svg>