<?xml version="1.0" encoding="UTF-8"?>
<svg width="102px" height="100px" viewBox="0 0 102 100" version="1.1" xmlns="http://www.w3.org/2000/svg" xmlns:xlink="http://www.w3.org/1999/xlink">
    <!-- Generator: Sketch 49.3 (51167) - http://www.bohemiancoding.com/sketch -->
    <title>kaoshigongju</title>
    <desc>Created with Sketch.</desc>
    <defs>
        <polygon id="path-1" points="0.0008 0.088 79.3188 0.088 79.3188 98.9996 0.0008 98.9996"></polygon>
        <polygon id="path-3" points="0.705759371 0.865608932 57.955 0.865608932 57.955 67.6301 0.705759371 67.6301"></polygon>
    </defs>
    <g id="kaoshigongju" stroke="none" stroke-width="1" fill="none" fill-rule="evenodd">
        <g id="Page-1">
            <path d="M33.5043,64.6913 L19.6103,64.6913 C17.7693,64.6913 16.4303,63.1843 16.4303,61.5103 C16.4303,59.8373 17.9373,58.3303 19.6103,58.3303 L33.5043,58.3303 C35.3453,58.3303 36.6853,59.8373 36.6853,61.5103 C36.6853,63.3523 35.3453,64.6913 33.5043,64.6913" id="Fill-1" fill="#333333"></path>
            <path d="M50.0756,46.8036 L19.6106,46.8036 C17.7686,46.8036 16.4296,45.2966 16.4296,43.6226 C16.4296,41.9496 17.9366,40.4426 19.6106,40.4426 L50.0756,40.4426 C51.9176,40.4426 53.2566,41.9496 53.2566,43.6226 C53.2566,45.4646 51.9176,46.8036 50.0756,46.8036" id="Fill-3" fill="#333333"></path>
            <path d="M50.0756,29.1913 L19.6106,29.1913 C17.7686,29.1913 16.4296,27.6843 16.4296,26.0103 C16.4296,24.3373 17.9366,22.8313 19.6106,22.8313 L50.0756,22.8313 C51.9176,22.8313 53.2566,24.3373 53.2566,26.0103 C53.2566,27.8523 51.9176,29.1913 50.0756,29.1913" id="Fill-5" fill="#333333"></path>
            <g id="Group-9" transform="translate(0.000000, 0.911900)">
                <mask id="mask-2" fill="white">
                    <use xlink:href="#path-1"></use>
                </mask>
                <g id="Clip-8"></g>
                <path d="M79.3188,12.2286 C79.3188,5.5346 73.8728,0.0876 67.1768,0.0876 L3.5628,0.0876 C1.5978,0.0876 0.0008,1.6866 0.0008,3.6516 L0.0008,86.7456 C0.0008,93.5026 5.4978,98.9996 12.2548,98.9996 L67.0638,98.9996 C73.8208,98.9996 79.3188,93.5026 79.3188,86.7456 L79.3188,62.1516 C77.2818,63.6856 75.4848,65.5986 73.7458,67.4516 C73.4298,67.7876 73.1148,68.1226 72.7988,68.4556 C72.7588,68.4966 72.7188,68.5306 72.6778,68.5636 L72.6778,86.7456 C72.6778,89.8406 70.1598,92.3606 67.0638,92.3606 L12.2548,92.3606 C9.1588,92.3606 6.6398,89.8406 6.6398,86.7456 L6.6398,6.9086 L6.6398,6.7276 L6.8198,6.7276 L67.1768,6.7276 C70.2108,6.7276 72.6778,9.1956 72.6778,12.2286 L72.6778,35.0016 C73.9128,33.6926 75.2068,32.4106 76.4608,31.1676 C77.4028,30.2326 78.3788,29.2666 79.3188,28.2976 L79.3188,12.2286 Z" id="Fill-7" fill="#333333" mask="url(#mask-2)"></path>
            </g>
            <path d="M86.7426,26.7773 C86.5566,26.7773 86.3706,26.7823 86.1826,26.7923 L54.8806,65.1413 L50.9116,81.8123 C55.3306,79.8503 61.9416,76.8793 66.6876,74.7363 L97.0406,34.9193 C95.9256,30.2163 91.6556,26.7773 86.7426,26.7773" id="Fill-10" fill="#FFD811"></path>
            <g id="Group-14" transform="translate(44.000000, 20.911900)">
                <mask id="mask-4" fill="white">
                    <use xlink:href="#path-3"></use>
                </mask>
                <g id="Clip-13"></g>
                <path d="M47.6694,18.8741 C46.6374,17.0371 45.2334,15.4351 43.5164,14.2311 C41.9904,13.0881 40.3224,12.2731 38.5664,11.7551 L42.0104,7.5361 C46.1944,7.5361 50.0444,10.2151 51.2164,14.2321 L47.6694,18.8741 Z M24.1534,49.6561 C23.1914,47.3611 21.6244,45.3371 19.5794,43.8601 C17.9844,42.7091 16.2004,41.8961 14.3304,41.4511 L33.9734,17.3841 C36.0974,17.3781 38.3754,17.9241 40.0004,19.2541 C41.7404,20.4141 42.9754,22.3271 43.4924,24.3421 L24.1534,49.6561 Z M10.9644,47.3031 C12.6374,47.1611 14.3994,47.6851 15.8974,48.8821 C17.5704,50.2221 18.5744,52.2291 18.9094,54.0711 C18.9184,54.1471 18.9444,54.2191 18.9594,54.2931 L8.1964,58.9261 L10.9644,47.3031 Z M57.9114,14.2311 C56.7404,6.0291 49.2074,-0.1629 40.3354,1.0081 C39.6664,1.1761 38.9964,1.5111 38.4944,2.1801 L6.5234,41.3501 C6.1884,41.6851 6.0204,42.1861 5.8534,42.6881 L0.8314,63.7791 C0.4964,65.1191 0.8314,66.1231 1.8354,66.9601 C2.1704,67.2951 2.8404,67.6301 3.6774,67.6301 C4.0124,67.6301 24.7684,58.2561 24.7684,58.2561 C25.2714,58.0891 25.7734,57.7541 26.1074,57.2511 L57.2424,16.4081 C57.7444,15.9061 58.0794,15.0691 57.9114,14.2311 Z" id="Fill-12" fill="#333333" mask="url(#mask-4)"></path>
            </g>
        </g>
    </g>
</svg>