<?xml version="1.0" encoding="UTF-8"?>
<svg width="107px" height="109px" viewBox="0 0 107 109" version="1.1" xmlns="http://www.w3.org/2000/svg" xmlns:xlink="http://www.w3.org/1999/xlink">
    <!-- Generator: Sketch 49.3 (51167) - http://www.bohemiancoding.com/sketch -->
    <title>kecheng</title>
    <desc>Created with Sketch.</desc>
    <defs>
        <polygon id="path-1" points="0.0003 0.1271 26.5343 0.1271 26.5343 83 0.0003 83"></polygon>
        <polygon id="path-3" points="0.9573 0.946 27.4913 0.946 27.4913 107.9996 0.9573 107.9996"></polygon>
    </defs>
    <g id="kecheng" stroke="none" stroke-width="1" fill="none" fill-rule="evenodd">
        <g id="Page-1">
            <path d="M20.8789,45.1406 L5.6549,45.1406 C5.1049,45.1406 4.6549,44.6906 4.6549,44.1406 L4.6549,31.1866 C4.6549,30.6366 5.1049,30.1866 5.6549,30.1866 L20.8789,30.1866 C21.4289,30.1866 21.8789,30.6366 21.8789,31.1866 L21.8789,44.1406 C21.8789,44.6906 21.4289,45.1406 20.8789,45.1406" id="Fill-1" fill="#FFD811"></path>
            <path d="M51.8359,20.1728 L36.6119,20.1728 C36.0619,20.1728 35.6119,19.7228 35.6119,19.1728 L35.6119,6.2178 C35.6119,5.6678 36.0619,5.2178 36.6119,5.2178 L51.8359,5.2178 C52.3859,5.2178 52.8359,5.6678 52.8359,6.2178 L52.8359,19.1728 C52.8359,19.7228 52.3859,20.1728 51.8359,20.1728" id="Fill-3" fill="#FFD811"></path>
            <path d="M85.0332,42.1445 L70.2612,45.8245 C69.7272,45.9575 69.1812,45.6285 69.0492,45.0955 L65.9182,32.5255 C65.7852,31.9915 66.1132,31.4465 66.6462,31.3135 L81.4202,27.6335 C81.9532,27.5005 82.4992,27.8295 82.6322,28.3625 L85.7622,40.9325 C85.8952,41.4655 85.5672,42.0115 85.0332,42.1445" id="Fill-5" fill="#FFD811"></path>
            <g id="Group-9" transform="translate(0.000000, 25.054000)">
                <mask id="mask-2" fill="white">
                    <use xlink:href="#path-1"></use>
                </mask>
                <g id="Clip-8"></g>
                <path d="M20.1123,17.6091 L20.1123,17.7891 L19.9323,17.7891 L6.6013,17.7891 L6.4213,17.7891 L6.4213,17.6091 L6.4213,7.8111 C6.4213,7.1151 6.9873,6.5481 7.6833,6.5481 L18.8493,6.5481 C19.5463,6.5481 20.1123,7.1151 20.1123,7.8111 L20.1123,17.6091 Z M20.1123,24.6501 L20.1123,75.3161 C20.1123,76.0121 19.5463,76.5791 18.8493,76.5791 L7.6833,76.5791 C6.9873,76.5791 6.4213,76.0121 6.4213,75.3161 L6.4213,24.6501 L6.4213,24.4701 L6.6013,24.4701 L19.9323,24.4701 L20.1123,24.4701 L20.1123,24.6501 Z M19.3253,0.1271 L7.2083,0.1271 C3.2333,0.1271 0.0003,3.3611 0.0003,7.3361 L0.0003,75.7921 C0.0003,79.7661 3.2333,83.0001 7.2083,83.0001 L19.3253,83.0001 C23.3003,83.0001 26.5343,79.7661 26.5343,75.7921 L26.5343,7.3361 C26.5343,3.3611 23.3003,0.1271 19.3253,0.1271 Z" id="Fill-7" fill="#333333" mask="url(#mask-2)"></path>
            </g>
            <path d="M99.5869,96.8056 C99.4239,97.1006 99.1549,97.3146 98.8309,97.4076 L88.1009,100.4916 C87.9849,100.5246 87.8679,100.5406 87.7509,100.5406 C87.1909,100.5406 86.6929,100.1646 86.5379,99.6266 L72.5369,50.9356 L72.4869,50.7616 L72.6599,50.7126 L85.4719,47.0316 L85.6459,46.9816 L85.6939,47.1546 L99.6959,95.8456 C99.7889,96.1696 99.7509,96.5106 99.5869,96.8056 Z M70.6369,44.3396 L70.5869,44.1666 L67.8799,34.7526 C67.7859,34.4286 67.8249,34.0876 67.9879,33.7926 C68.1509,33.4976 68.4199,33.2846 68.7439,33.1916 L79.4759,30.1076 C79.5899,30.0746 79.7079,30.0576 79.8249,30.0576 C80.3839,30.0576 80.8819,30.4336 81.0369,30.9716 L83.7439,40.3856 L83.7939,40.5586 L83.6209,40.6086 L70.8099,44.2896 L70.6369,44.3396 Z M87.0829,28.7356 C86.1969,25.6616 83.3479,23.5156 80.1519,23.5156 C79.4819,23.5156 78.8109,23.6106 78.1589,23.7976 L66.5119,27.1516 C62.6929,28.2486 60.4789,32.2486 61.5749,36.0686 L80.4929,101.8646 C81.3759,104.9366 84.2239,107.0826 87.4179,107.0826 C88.0889,107.0826 88.7599,106.9886 89.4089,106.8016 L101.0569,103.4526 C104.8759,102.3566 107.0909,98.3566 105.9939,94.5366 L87.0829,28.7356 Z" id="Fill-10" fill="#333333"></path>
            <g id="Group-14" transform="translate(30.000000, 0.054000)">
                <mask id="mask-4" fill="white">
                    <use xlink:href="#path-3"></use>
                </mask>
                <g id="Clip-13"></g>
                <path d="M21.0693,18.0436 L21.0693,18.2236 L20.8893,18.2236 L7.5583,18.2236 L7.3793,18.2236 L7.3793,18.0436 L7.3793,8.6296 C7.3793,7.9336 7.9443,7.3666 8.6403,7.3666 L19.8073,7.3666 C20.5033,7.3666 21.0693,7.9336 21.0693,8.6296 L21.0693,18.0436 Z M21.0693,25.0846 L21.0693,100.3156 C21.0693,101.0126 20.5033,101.5786 19.8073,101.5786 L8.6403,101.5786 C7.9443,101.5786 7.3793,101.0126 7.3793,100.3156 L7.3793,25.0846 L7.3793,24.9046 L7.5583,24.9046 L20.8893,24.9046 L21.0693,24.9046 L21.0693,25.0846 Z M20.2823,0.9456 L8.1653,0.9456 C4.1903,0.9456 0.9573,4.1796 0.9573,8.1536 L0.9573,100.7916 C0.9573,104.7666 4.1903,107.9996 8.1653,107.9996 L20.2823,107.9996 C24.2573,107.9996 27.4913,104.7666 27.4913,100.7916 L27.4913,8.1536 C27.4913,4.1796 24.2573,0.9456 20.2823,0.9456 Z" id="Fill-12" fill="#333333" mask="url(#mask-4)"></path>
            </g>
        </g>
    </g>
</svg>