<?xml version="1.0" encoding="UTF-8"?>
<svg width="148px" height="149px" viewBox="0 0 148 149" version="1.1" xmlns="http://www.w3.org/2000/svg" xmlns:xlink="http://www.w3.org/1999/xlink">
    <!-- Generator: Sketch 49.3 (51167) - http://www.bohemiancoding.com/sketch -->
    <title>科目</title>
    <desc>Created with Sketch.</desc>
    <defs>
        <polygon id="path-1" points="0 0.4 147.6 0.4 147.6 147.9998 0 147.9998"></polygon>
    </defs>
    <g id="科目" stroke="none" stroke-width="1" fill="none" fill-rule="evenodd">
        <g id="Page-1">
            <path d="M9.3171,50.8031 L9.3171,94.1141 C13.2481,91.8211 17.8351,89.5111 22.7491,89.5111 L111.2841,89.5111 C112.8651,89.5111 114.1471,88.2291 114.1471,86.6481 L114.1471,50.8031 L9.3171,50.8031 Z" id="Fill-1" fill="#FFD811"></path>
            <path d="M117.5496,113.4999 L30.0496,113.4999 C27.2656,113.4999 24.9996,115.7659 24.9996,118.5499 C24.9996,121.3339 27.2656,123.5999 30.0496,123.5999 L117.5496,123.5999 C120.3346,123.5999 122.6006,121.3339 122.6006,118.5499 C122.6006,115.7659 120.3346,113.4999 117.5496,113.4999" id="Fill-3" fill="#333333"></path>
            <g id="Group-7" transform="translate(0.000000, 0.600000)">
                <mask id="mask-2" fill="white">
                    <use xlink:href="#path-1"></use>
                </mask>
                <g id="Clip-6"></g>
                <path d="M123.7996,33.5308 L136.0166,33.5308 C136.8356,33.5308 137.4996,34.1958 137.4996,35.0148 L137.4996,136.4168 C137.4996,137.2358 136.8356,137.8998 136.0166,137.8998 L24.1116,137.8998 C16.3736,137.8998 10.1006,131.6268 10.1006,123.8868 L10.1006,112.0118 C10.1006,104.2738 16.3736,97.9998 24.1116,97.9998 L116.1616,97.9998 C119.7176,97.9998 122.6006,95.1168 122.6006,91.5618 L122.6006,34.7308 L122.6006,33.5308 L123.7996,33.5308 Z M10.1006,90.1368 L10.1006,24.3558 C10.1006,16.7038 16.3036,10.4998 23.9556,10.4998 L111.0166,10.4998 C111.8356,10.4998 112.4996,11.1638 112.4996,11.9838 L112.4996,86.5118 C112.4996,87.2788 111.8786,87.8998 111.1116,87.8998 L24.1116,87.8998 C19.7976,87.8998 15.5766,89.0318 11.9046,91.1738 L10.1006,92.2268 L10.1006,90.1368 Z M122.6006,9.5618 C122.6006,4.5098 118.4896,0.3998 113.4386,0.3998 L23.9556,0.3998 C10.7466,0.3998 -0.0004,11.1468 -0.0004,24.3558 L-0.0004,124.0438 C-0.0004,137.2538 10.7466,147.9998 23.9556,147.9998 L138.4386,147.9998 C143.4896,147.9998 147.6006,143.8898 147.6006,138.8388 L147.6006,32.5818 C147.6006,27.5358 143.4946,23.4258 138.4486,23.4198 L123.7986,23.4038 L122.6006,23.4028 L122.6006,22.2038 L122.6006,9.5618 Z" id="Fill-5" fill="#333333" mask="url(#mask-2)"></path>
            </g>
        </g>
    </g>
</svg>