<?xml version="1.0" encoding="UTF-8"?>
<svg width="172px" height="160px" viewBox="0 0 172 160" version="1.1" xmlns="http://www.w3.org/2000/svg" xmlns:xlink="http://www.w3.org/1999/xlink">
    <!-- Generator: Sketch 49.3 (51167) - http://www.bohemiancoding.com/sketch -->
    <title>选择科目</title>
    <desc>Created with Sketch.</desc>
    <defs>
        <polygon id="path-1" points="0 0.1 33.899 0.1 33.899 33.9999 0 33.9999"></polygon>
    </defs>
    <g id="选择科目" stroke="none" stroke-width="1" fill="none" fill-rule="evenodd">
        <g id="Page-1">
            <polygon id="Fill-1" fill="#FFD811" points="7.565 27.671 26.336 27.671 26.336 8.9 7.565 8.9"></polygon>
            <polygon id="Fill-2" fill="#FFD811" points="7.565 89.836 26.336 89.836 26.336 71.065 7.565 71.065"></polygon>
            <polygon id="Fill-3" fill="#FFD811" points="7.565 152.336 26.336 152.336 26.336 133.565 7.565 133.565"></polygon>
            <g id="Group-19" transform="translate(0.000000, 0.900000)">
                <path d="M166.9502,12.6002 L50.2002,12.6002 C47.7462,12.6002 45.7502,14.5962 45.7502,17.0502 C45.7502,19.5042 47.7462,21.5002 50.2002,21.5002 L160.9502,21.5002 C163.4032,21.5002 165.3992,19.5042 165.3992,17.0502 C165.3992,14.5962 163.4032,12.6002 160.9502,12.6002" id="Fill-4" fill="#333333"></path>
                <g id="Group-8">
                    <mask id="mask-2" fill="white">
                        <use xlink:href="#path-1"></use>
                    </mask>
                    <g id="Clip-7"></g>
                    <path d="M25,10.7999 L25,23.2999 L25,25.0999 L23.2,25.0999 L10.7,25.0999 L8.899,25.0999 L8.899,23.2999 L8.899,10.7999 L8.899,8.9999 L10.7,8.9999 L23.2,8.9999 L25,8.9999 L25,10.7999 Z M23.2,0.0999 L10.7,0.0999 C4.8,0.0999 0,4.8999 0,10.7999 L0,23.2999 C0,29.1999 4.8,33.9999 10.7,33.9999 L23.2,33.9999 C29.1,33.9999 33.899,29.1999 33.899,23.2999 L33.899,10.7999 C33.899,4.8999 29.1,0.0999 23.2,0.0999 Z" id="Fill-6" fill="#333333" mask="url(#mask-2)"></path>
                </g>
                <path d="M50.2002,75.1002 C47.7462,75.1002 45.7502,77.0962 45.7502,79.5502 C45.7502,82.0042 47.7462,84.0002 50.2002,84.0002 L160.9502,84.0002 C163.4032,84.0002 165.3992,82.0042 165.3992,79.5502 C165.3992,77.0962 163.4032,75.1002 160.9502,75.1002 L50.2002,75.1002 Z" id="Fill-9" fill="#333333"></path>
                <path d="M25,73.2999 L25,85.7999 L25,87.5999 L23.2,87.5999 L10.7,87.5999 L8.899,87.5999 L8.899,85.7999 L8.899,73.2999 L8.899,71.4999 L10.7,71.4999 L23.2,71.4999 L25,71.4999 L25,73.2999 Z M23.2,62.5999 L10.7,62.5999 C4.8,62.5999 0,67.3999 0,73.2999 L0,85.7999 C0,91.6999 4.8,96.4999 10.7,96.4999 L23.2,96.4999 C29.1,96.4999 33.899,91.6999 33.899,85.7999 L33.899,73.2999 C33.899,67.3999 29.1,62.5999 23.2,62.5999 Z" id="Fill-11" fill="#333333"></path>
                <path d="M74.9502,137.6002 L50.2002,137.6002 C47.7462,137.6002 45.7502,139.5962 45.7502,142.0502 C45.7502,144.5042 47.7462,146.5002 50.2002,146.5002 L74.9502,146.5002 C77.4032,146.5002 79.3992,144.5042 79.3992,142.0502 C79.3992,139.5962 77.4032,137.6002 74.9502,137.6002" id="Fill-13" fill="#333333"></path>
                <path d="M25,135.7999 L25,148.2999 L25,150.0999 L23.2,150.0999 L10.7,150.0999 L8.899,150.0999 L8.899,148.2999 L8.899,135.7999 L8.899,133.9999 L10.7,133.9999 L23.2,133.9999 L25,133.9999 L25,135.7999 Z M23.2,125.0999 L10.7,125.0999 C4.8,125.0999 0,129.8999 0,135.7999 L0,148.2999 C0,154.1999 4.8,158.9999 10.7,158.9999 L23.2,158.9999 C29.1,158.9999 33.899,154.1999 33.899,148.2999 L33.899,135.7999 C33.899,129.8999 29.1,125.0999 23.2,125.0999 Z" id="Fill-15" fill="#333333"></path>
                <path d="M113.7666,151.5206 C114.5996,152.3186 115.6916,152.7576 116.8456,152.7576 C116.9206,152.7576 117.1626,152.7496 117.1626,152.7496 C118.2506,152.7496 119.2756,152.3396 120.0596,151.5936 C120.1236,151.4766 163.8486,107.6566 163.8486,107.6566 C164.6106,106.7766 164.9916,105.6556 164.9206,104.4926 C164.8496,103.3126 164.3236,102.2306 163.4386,101.4476 C162.6276,100.7286 161.5856,100.3336 160.5036,100.3336 C159.4376,100.3336 158.4116,100.7176 157.6066,101.4146 L116.7996,142.2206 L94.6896,120.1106 C93.8956,119.3166 92.8406,118.8796 91.7186,118.8796 C90.5966,118.8796 89.5406,119.3166 88.7466,120.1106 C87.1096,121.7486 87.1096,124.4146 88.7466,126.0526 C88.7466,126.0526 113.6356,151.3716 113.7666,151.5206" id="Fill-17" fill="#333333"></path>
            </g>
        </g>
    </g>
</svg>