<?xml version="1.0" encoding="UTF-8"?>
<svg width="154px" height="154px" viewBox="0 0 154 154" version="1.1" xmlns="http://www.w3.org/2000/svg" xmlns:xlink="http://www.w3.org/1999/xlink">
    <!-- Generator: Sketch 49.3 (51167) - http://www.bohemiancoding.com/sketch -->
    <title>老师</title>
    <desc>Created with Sketch.</desc>
    <defs>
        <polygon id="path-1" points="0.6833 0.9865 32.437 0.9865 32.437 8.3975 0.6833 8.3975"></polygon>
    </defs>
    <g id="老师" stroke="none" stroke-width="1" fill="none" fill-rule="evenodd">
        <g id="Page-1">
            <path d="M124.1688,128.8898 L124.1448,128.7938 L124.1108,128.7008 L118.5288,112.8108 L10.7418,112.8108 L5.2848,128.2468 L5.2498,128.3458 L5.2248,128.4488 C4.2128,132.4438 4.8928,136.5748 7.1388,140.0828 C9.3828,143.5898 12.9258,146.0528 17.1108,147.0178 C18.3498,147.3038 19.6228,147.4488 20.8968,147.4488 L20.9468,147.4488 L108.3108,147.4358 C116.5618,147.4278 123.5278,141.5258 124.5158,133.7088 L124.5478,133.4578 L124.5228,133.2068 C124.4938,132.9038 124.5048,132.5978 124.5548,132.2988 L124.5898,132.0858 L124.5838,131.8698 C124.5598,130.8668 124.4188,129.8638 124.1688,128.8898" id="Fill-1" fill="#FFDA00"></path>
            <path d="M149.7294,6.0841 L113.2234,6.0841 C111.1794,6.0841 109.5174,7.7471 109.5174,9.7901 C109.5174,11.8331 111.1794,13.4961 113.2234,13.4961 L149.7294,13.4961 C151.7724,13.4961 153.4344,11.8331 153.4344,9.7901 C153.4344,7.7471 151.7724,6.0841 149.7294,6.0841" id="Fill-3" fill="#333333"></path>
            <g id="Group-7" transform="translate(121.000000, 29.435000)">
                <mask id="mask-2" fill="white">
                    <use xlink:href="#path-1"></use>
                </mask>
                <g id="Clip-6"></g>
                <path d="M28.7313,0.9865 L28.7293,0.9865 L4.3923,0.9865 C3.3973,0.9865 2.4673,1.3725 1.7673,2.0725 C1.0683,2.7735 0.6833,3.7035 0.6833,4.6935 C0.6843,6.7365 2.3473,8.3975 4.3893,8.3975 L28.7293,8.3975 C30.7763,8.3975 32.4383,6.7345 32.4373,4.6905 C32.4363,2.6485 30.7743,0.9865 28.7313,0.9865" id="Fill-5" fill="#333333" mask="url(#mask-2)"></path>
            </g>
            <path d="M121.7303,130.8868 C121.6823,131.1858 121.6723,131.4908 121.7013,131.7948 L121.7233,132.0458 L121.6933,132.2968 C120.7513,140.1138 114.1023,146.0148 106.2283,146.0238 L22.8593,146.0358 L22.8103,146.0358 C21.5953,146.0358 20.3793,145.8908 19.1983,145.6058 C15.2043,144.6408 11.8233,142.1778 9.6803,138.6698 C7.5383,135.1628 6.8893,131.0308 7.8553,127.0358 L7.8793,126.9338 L7.9133,126.8338 L15.4303,104.5508 C17.2943,97.3938 23.3503,92.5918 30.5253,92.5918 L98.5603,92.5918 L98.6163,92.5918 C105.6333,92.5918 111.7543,97.3198 113.5343,104.1008 L121.3073,127.2888 L121.3383,127.3818 L121.3623,127.4768 C121.6013,128.4508 121.7343,129.4538 121.7583,130.4578 L121.7633,130.6738 L121.7303,130.8868 Z M144.6023,55.0278 C144.2803,54.9388 143.9493,54.8938 143.6193,54.8938 C141.9653,54.8938 140.5023,56.0048 140.0553,57.5988 L125.3893,116.2348 L120.6773,102.0988 L120.6483,102.0128 L120.6263,101.9258 C118.1923,92.2228 108.9173,85.1798 98.5723,85.1798 L30.5253,85.1798 C20.0243,85.1798 10.9243,92.2548 8.3473,102.3838 L8.3253,102.4708 L8.2953,102.5558 L0.7903,124.8448 C0.2443,126.9368 0.0003,128.7488 0.0003,130.7098 C0.0423,143.2418 10.2683,153.4348 22.7953,153.4348 L22.8763,153.4348 L106.2383,153.4348 L106.3413,153.4348 C118.2273,153.4348 128.2043,144.1478 129.0543,132.2918 L147.2433,59.3898 C147.6643,57.4628 146.5083,55.5498 144.6023,55.0278 Z" id="Fill-8" fill="#333333"></path>
            <path d="M63.9403,66.9274 C47.5323,66.9274 34.1823,53.5784 34.1823,37.1694 C34.1823,20.7604 47.5323,7.4114 63.9403,7.4114 C80.3483,7.4114 93.6983,20.7604 93.6983,37.1694 C93.6983,53.5784 80.3483,66.9274 63.9403,66.9274 M63.9403,0.0004 C43.4453,0.0004 26.7703,16.6744 26.7703,37.1694 C26.7703,57.6644 43.4453,74.3384 63.9403,74.3384 C84.4353,74.3384 101.1093,57.6644 101.1093,37.1694 C101.1093,16.6744 84.4353,0.0004 63.9403,0.0004" id="Fill-10" fill="#333333"></path>
        </g>
    </g>
</svg>