<?xml version="1.0" encoding="UTF-8"?>
<svg width="157px" height="158px" viewBox="0 0 157 158" version="1.1" xmlns="http://www.w3.org/2000/svg" xmlns:xlink="http://www.w3.org/1999/xlink">
    <!-- Generator: Sketch 49.3 (51167) - http://www.bohemiancoding.com/sketch -->
    <title>类型</title>
    <desc>Created with Sketch.</desc>
    <defs>
        <polygon id="path-1" points="0 0.933 71.0666 0.933 71.0666 72 0 72"></polygon>
        <polygon id="path-3" points="0 0.6002 71.0666 0.6002 71.0666 71.6672 0 71.6672"></polygon>
        <polygon id="path-5" points="0.3327 0.9324 71.3997 0.9324 71.3997 72 0.3327 72"></polygon>
        <polygon id="path-7" points="0.3326 0.6 71.3996 0.6 71.3996 71.6667 0.3326 71.6667"></polygon>
    </defs>
    <g id="类型" stroke="none" stroke-width="1" fill="none" fill-rule="evenodd">
        <g id="Page-1">
            <path d="M149.9977,36.7411 C149.8917,52.8291 136.4657,65.6651 120.3777,65.6651 L95.5887,65.6651 C93.4597,65.6651 91.7337,63.9401 91.7337,61.8111 L91.7337,37.0241 C91.7337,20.9361 104.5707,7.5091 120.6587,7.4031 C137.1627,7.2931 150.1067,20.2381 149.9977,36.7411" id="Fill-1" fill="#FFDA00"></path>
            <g id="Group-5" transform="translate(0.000000, 85.400000)">
                <mask id="mask-2" fill="white">
                    <use xlink:href="#path-1"></use>
                </mask>
                <g id="Clip-4"></g>
                <path d="M63.9996,36.467 C63.9996,52.429 51.4966,64.933 35.5336,64.934 C19.6376,64.935 7.0646,52.363 7.0656,36.466 C7.0656,20.504 19.5696,8 35.5326,8 L60.2336,8 C62.3136,8 63.9996,9.686 63.9996,11.766 L63.9996,36.467 Z M62.1996,0.933 L35.5326,0.933 C16.2716,0.933 -0.0004,17.205 -0.0004,36.467 C-0.0004,55.728 16.2716,72 35.5326,72 C54.7946,72 71.0666,55.728 71.0666,36.467 L71.0666,9.8 C71.0666,4.413 67.5866,0.933 62.1996,0.933 Z" id="Fill-3" fill="#333333" mask="url(#mask-2)"></path>
            </g>
            <g id="Group-8" transform="translate(0.000000, 0.400000)">
                <mask id="mask-4" fill="white">
                    <use xlink:href="#path-3"></use>
                </mask>
                <g id="Clip-7"></g>
                <path d="M63.9996,60.8342 C63.9996,62.9142 62.3136,64.6002 60.2336,64.6002 L36.0126,64.6002 C20.2916,64.6002 7.1716,52.0572 7.0676,36.3362 C6.9606,20.2092 19.6086,7.5602 35.7366,7.6682 C51.4566,7.7722 63.9996,20.8922 63.9996,36.6132 L63.9996,60.8342 Z M35.5326,0.6002 C16.2716,0.6002 -0.0004,16.8722 -0.0004,36.1332 C-0.0004,55.3942 16.2716,71.6672 35.5326,71.6672 L62.1996,71.6672 C67.5866,71.6672 71.0666,68.1862 71.0666,62.8002 L71.0666,36.1332 C71.0666,16.8722 54.7946,0.6002 35.5326,0.6002 Z" id="Fill-6" fill="#333333" mask="url(#mask-4)"></path>
            </g>
            <g id="Group-11" transform="translate(85.000000, 85.400000)">
                <mask id="mask-6" fill="white">
                    <use xlink:href="#path-5"></use>
                </mask>
                <g id="Clip-10"></g>
                <path d="M35.6637,64.9324 C19.9427,64.8284 7.3997,51.7084 7.3997,35.9874 L7.3997,11.7654 C7.3997,9.6854 9.0857,7.9994 11.1657,7.9994 L35.3897,7.9994 C51.1097,7.9994 64.2287,20.5434 64.3337,36.2634 C64.4397,52.3904 51.7917,65.0394 35.6637,64.9324 M35.8667,0.9324 L9.1997,0.9324 C3.8127,0.9324 0.3327,4.4134 0.3327,9.8004 L0.3327,36.4674 C0.3327,55.7274 16.6047,72.0004 35.8667,72.0004 C55.1277,72.0004 71.3997,55.7274 71.3997,36.4664 C71.3997,17.2054 55.1277,0.9324 35.8667,0.9324" id="Fill-9" fill="#333333" mask="url(#mask-6)"></path>
            </g>
            <g id="Group-14" transform="translate(85.000000, 0.400000)">
                <mask id="mask-8" fill="white">
                    <use xlink:href="#path-7"></use>
                </mask>
                <g id="Clip-13"></g>
                <path d="M64.3336,36.3367 C64.2296,52.0567 51.1096,64.5997 35.3896,64.5997 L11.1656,64.5997 C9.0856,64.5997 7.3996,62.9137 7.3996,60.8347 L7.3996,36.6127 C7.3996,20.8917 19.9426,7.7717 35.6636,7.6677 C51.7916,7.5607 64.4396,20.2097 64.3336,36.3367 M71.3996,36.1337 C71.3996,16.8727 55.1276,0.5997 35.8666,0.5997 C16.6046,0.5997 0.3326,16.8727 0.3326,36.1327 L0.3326,62.7997 C0.3326,68.1867 3.8136,71.6667 9.1996,71.6667 L35.8666,71.6667 C55.1276,71.6667 71.3996,55.3947 71.3996,36.1337" id="Fill-12" fill="#333333" mask="url(#mask-8)"></path>
            </g>
        </g>
    </g>
</svg>