<?xml version="1.0" encoding="UTF-8"?>
<svg width="37px" height="52px" viewBox="0 0 37 52" version="1.1" xmlns="http://www.w3.org/2000/svg" xmlns:xlink="http://www.w3.org/1999/xlink">
    <!-- Generator: Sketch 49.3 (51167) - http://www.bohemiancoding.com/sketch -->
    <title>领带</title>
    <desc>Created with Sketch.</desc>
    <defs>
        <polygon id="path-1" points="0.353758709 0.2548 29.5408346 0.2548 29.5408346 24.1562691 0.353758709 24.1562691"></polygon>
        <linearGradient x1="50%" y1="0%" x2="50%" y2="100%" id="linearGradient-3">
            <stop stop-color="#FFEF00" offset="0%"></stop>
            <stop stop-color="#FFDA00" offset="100%"></stop>
        </linearGradient>
        <polygon id="path-4" points="0 0.401014545 36.8438889 0.401014545 36.8438889 32.6181818 0 32.6181818"></polygon>
        <linearGradient x1="50%" y1="0%" x2="50%" y2="100%" id="linearGradient-6">
            <stop stop-color="#626262" offset="0%"></stop>
            <stop stop-color="#333333" offset="100%"></stop>
        </linearGradient>
    </defs>
    <g id="申请成为老师" stroke="none" stroke-width="1" fill="none" fill-rule="evenodd">
        <g id="01_申请成为tutor" transform="translate(-637.000000, -1849.000000)">
            <g id="福利" transform="translate(362.000000, 1745.000000)">
                <g id="Group-19-Copy" transform="translate(202.200000, 80.000000)">
                    <g id="039" transform="translate(73.000000, 24.000000)">
                        <g id="Page-1">
                            <g id="Group-3" transform="translate(4.215190, 0.217927)">
                                <mask id="mask-2" fill="white">
                                    <use xlink:href="#path-1"></use>
                                </mask>
                                <g id="Clip-2"></g>
                                <path d="M4.32487848,11.0390327 L9.43603038,3.66212364 L9.57606835,3.46026909 L9.81961266,3.46026909 L19.9899291,3.46026909 L20.239562,3.46026909 L20.3791316,3.66968727 L25.5670937,11.48576 L25.810638,11.8525964 L25.4645241,12.1229964 L15.0478532,20.25296 L14.7481063,20.4864873 L14.4591316,20.2401964 L4.40637215,11.6710691 L4.07992911,11.3926327 L4.32487848,11.0390327 Z M0.920878481,12.9171782 L13.6826,23.7813964 C13.9664228,24.0234327 14.3279924,24.1562691 14.7022076,24.1562691 C15.0483215,24.1562691 15.3860051,24.0395055 15.6782582,23.8177964 L28.9219165,13.4915418 C29.5837013,12.9748509 29.7377899,12.0227782 29.2722456,11.32456 L22.4033595,0.982232727 C22.1054861,0.533141818 21.6020051,0.254705455 21.0886886,0.254705455 L8.75035949,0.254705455 C8.24219494,0.254705455 7.7574481,0.516123636 7.45442278,0.953869091 L0.645017722,10.7743055 C0.168701266,11.4583418 0.287663291,12.3792145 0.920878481,12.9171782 Z" id="Fill-1" fill="url(#linearGradient-3)" mask="url(#mask-2)"></path>
                            </g>
                            <g id="Group-6" transform="translate(0.000000, 19.127018)">
                                <mask id="mask-5" fill="white">
                                    <use xlink:href="#path-4"></use>
                                </mask>
                                <g id="Clip-5"></g>
                                <path d="M33.1822089,12.2503964 L20.1357278,28.5278145 C19.7338797,29.1896327 19.0767785,29.3177418 18.7943608,29.3730509 C18.7634494,29.3787236 18.7367532,29.3834509 18.7166139,29.3886509 L18.6407405,29.4165418 L18.5709557,29.41276 C18.3306899,29.41276 17.5148165,29.3489418 17.0146139,28.5367964 L3.70913291,12.2721418 L3.49368987,11.9851964 L3.71006962,11.6991964 L9.30784177,4.31661455 L17.897462,11.6292327 C18.1817532,11.8707964 18.5433228,12.0041055 18.917538,12.0041055 C19.2636519,12.0041055 19.6013354,11.8868691 19.8935886,11.6656327 L28.4330949,5.00726909 L33.1873608,11.6925782 L33.3868797,11.9733782 L33.1822089,12.2503964 Z M36.5459304,10.9286509 L29.9524367,1.65279636 C29.6545633,1.23443273 29.1716899,0.984832727 28.6602468,0.984832727 C28.3281835,0.984832727 28.0101709,1.08883273 27.7408671,1.28596 L19.2627152,8.10079636 L18.9634367,8.33432364 L18.6739937,8.08756 L9.99913291,0.69316 C9.99444937,0.696469091 9.99023418,0.699778182 9.98648734,0.70356 C9.71531013,0.507378182 9.39729747,0.401014545 9.06242405,0.401014545 C8.5603481,0.401014545 8.09808228,0.630287273 7.79552532,1.03068727 L0.329955696,10.87996 C-0.0662721519,11.3980691 -0.108424051,12.0939236 0.218487342,12.6597782 L14.2452342,30.1327236 L14.2597532,30.1516327 L14.271462,30.17196 C15.1885,31.7035964 16.7935506,32.6183236 18.5648671,32.6183236 L18.5943734,32.6183236 C20.3717785,32.6126509 21.9744873,31.6842145 22.8793481,30.1350873 L22.8915253,30.1142873 L22.9055759,30.0949055 L36.6330443,12.6574145 C36.9426266,12.11236 36.9093734,11.43636 36.5459304,10.9286509 Z" id="Fill-4" fill="url(#linearGradient-6)" mask="url(#mask-5)"></path>
                            </g>
                        </g>
                    </g>
                </g>
            </g>
        </g>
    </g>
</svg>