<?xml version="1.0" encoding="UTF-8"?>
<svg width="164px" height="164px" viewBox="0 0 164 164" version="1.1" xmlns="http://www.w3.org/2000/svg" xmlns:xlink="http://www.w3.org/1999/xlink">
    <!-- Generator: Sketch 49.3 (51167) - http://www.bohemiancoding.com/sketch -->
    <title>logo</title>
    <desc>Created with Sketch.</desc>
    <defs>
        <polygon id="path-1" points="0.0002 0.798 163.086 0.798 163.086 143.1488 0.0002 143.1488"></polygon>
    </defs>
    <g id="logo" stroke="none" stroke-width="1" fill="none" fill-rule="evenodd">
        <g id="Page-1">
            <path d="M51.4277,139.862 C51.4277,139.862 51.8167,145.171 39.9627,142.968 C37.3927,145.171 36.1337,157.969 19.5787,155.876 C19.5787,155.876 15.8027,160.16 18.1107,160.946 C20.4187,161.733 28.6537,163.202 28.6537,163.202 C28.6537,163.202 34.4237,160.369 35.2097,158.639 C35.9967,156.908 45.2237,148.091 60.5767,149.633 C63.8087,146.255 62.0737,143.261 61.4217,141.175 C53.6587,144.132 51.6477,137.658 51.4277,139.862" id="Fill-1" fill="#2770F7"></path>
            <path d="M90.1401,114.0783 C90.1401,114.0783 91.2051,120.3623 87.7461,127.4863 C85.0021,133.1363 78.5141,134.4343 77.3951,136.0053 C76.3781,137.4343 77.1481,141.0333 80.6901,143.3173 C85.1221,146.1763 72.0351,152.0773 70.1811,155.0143 C69.1911,156.5803 70.8161,161.1143 73.7141,159.7343 C77.0181,158.1613 89.6071,146.9363 91.1281,143.0553 C92.6691,139.1223 89.7641,137.7393 88.6101,136.7953 C87.4561,135.8513 88.5151,132.3283 90.7081,130.0113 C94.4501,126.0603 96.5151,122.3963 94.5901,118.8223 C92.8731,115.6343 90.8741,113.7713 90.1401,114.0783" id="Fill-3" fill="#2770F7"></path>
            <path d="M95.3228,104.4186 C95.3228,104.4186 93.0898,109.1636 92.6748,111.6906 C92.6058,112.1116 99.7268,118.3756 105.1628,115.4376 C101.8778,113.9806 97.0818,111.1036 95.3228,104.4186" id="Fill-5" fill="#2770F7"></path>
            <path d="M57.8359,70.6198 C57.8359,70.6198 62.6689,71.6848 63.7089,71.1468 C64.7419,70.6118 69.4069,69.4568 73.1379,70.0458 C77.4249,70.7228 85.6799,73.0348 98.1509,102.3428 C106.2759,121.4348 115.1929,95.9008 114.2489,95.5028 C113.3049,95.1038 106.8849,103.0258 94.1909,82.5698 C96.6049,80.3668 99.0169,78.4778 99.0169,78.4778 C99.0169,78.4778 114.7529,92.4968 116.9359,92.1808 C119.3799,91.8258 127.9079,86.2708 125.2499,78.2278 C124.4109,79.5568 122.9669,84.5748 116.4629,83.1588 C116.4629,83.1588 106.1159,78.8368 97.3709,67.9478 C92.0209,61.2868 86.1279,50.8218 81.9839,52.1918 C68.1079,56.7828 78.3189,57.8668 80.8369,58.8108 C83.3549,59.7548 85.1699,61.6938 86.3239,63.0578 C87.4779,64.4208 94.1909,73.1278 94.4009,74.4918 C94.6109,75.8558 92.3029,78.3728 91.6739,78.0578 C91.0439,77.7438 84.9509,63.5278 72.2189,62.4278 C62.5099,61.5888 57.8359,70.6198 57.8359,70.6198" id="Fill-7" fill="#2770F7"></path>
            <path d="M118.4292,74.488 C112.3932,73.147 102.8252,61.968 96.2782,52.551 C98.4952,51.969 100.6722,51.676 102.7892,51.676 C111.0102,51.676 116.1492,55.951 118.4802,58.499 C121.3342,61.616 122.4742,64.828 122.3252,66.493 C121.9162,71.092 119.8192,73.378 118.4292,74.488 M88.7362,49.944 C88.7362,49.944 107.0222,80.274 120.1352,80.064 C120.1352,80.064 127.2682,76.34 126.7442,66.059 C126.2612,56.593 112.2352,39.139 88.7362,49.944" id="Fill-9" fill="#2770F7"></path>
            <path d="M59.6772,9.8937 C59.6772,9.8937 41.7452,7.9137 47.0722,18.6557 C54.3002,33.2357 88.7492,25.7587 109.8522,35.1227 C117.4092,38.4767 116.6472,44.2777 113.4062,48.4027 C108.5872,54.5377 114.3192,52.7737 114.9342,51.8577 C115.5492,50.9417 127.3562,35.5567 105.8952,30.1327 C86.1742,25.1487 56.5582,27.1007 52.6252,19.6337 C51.4942,17.4857 61.4842,16.6607 57.7352,12.7477 C56.4202,11.3757 59.6772,9.8937 59.6772,9.8937" id="Fill-11" fill="#2770F7"></path>
            <path d="M23.7393,114.6017 C23.7393,114.6017 24.2993,117.1217 23.2853,118.8717 C21.7303,121.5587 23.8033,122.7687 28.9963,122.7987 C31.4993,122.8127 33.2363,120.2827 33.1803,119.3737 C33.0903,117.9047 31.4043,117.5927 28.8613,117.0067 C26.5523,116.4747 23.7393,114.6017 23.7393,114.6017" id="Fill-13" fill="#2770F7"></path>
            <path d="M41.8413,91.2697 C41.8413,91.2697 48.3703,91.5177 50.1333,92.8397 C51.8963,94.1617 52.3223,88.8407 56.3313,88.5147 C61.0693,88.1287 69.6083,91.1767 73.1343,89.8367 C76.6603,88.4977 75.5583,79.8837 68.8743,76.8717 C73.0943,80.0237 73.0203,87.8627 68.1763,86.6967 C60.2423,84.7867 41.8413,80.2507 41.8413,91.2697" id="Fill-15" fill="#2770F7"></path>
            <path d="M59.6919,76.4309 C55.6509,76.4319 50.5299,76.7129 47.4389,77.4469 C45.3769,77.9369 38.3649,79.7399 40.4959,89.8769 C40.6079,83.2709 46.4169,81.9229 51.9789,82.0139 C58.6999,82.1239 63.8789,83.3329 65.2589,83.9619 C72.9139,87.4499 72.3999,76.4289 59.6919,76.4309" id="Fill-17" fill="#2770F7"></path>
            <path d="M56.9131,102.9631 C53.9411,103.8371 50.1061,103.0831 50.1061,103.0831 C46.3261,102.7121 48.3761,99.2081 48.3761,99.2081 C52.0341,97.6741 54.6991,98.1951 54.8751,98.9201 C55.2191,100.3371 50.3191,101.1221 50.3191,101.1221 C50.3191,101.1221 52.7881,102.5431 56.2741,101.3501 C59.6841,100.1831 59.9801,97.4741 57.7521,96.5371 C55.3391,95.5231 49.8091,97.8091 49.9491,97.3901 C50.0891,96.9701 53.7921,95.0431 54.8101,94.9211 C57.6861,94.5781 59.0041,95.4021 60.0341,96.2751 C62.9711,98.7671 59.8851,102.0881 56.9131,102.9631 M41.5241,100.6381 C40.4551,100.6391 39.6011,100.5391 37.7201,100.2451 C36.5421,100.0611 34.8121,100.5651 34.8121,100.5651 C34.8121,100.5651 37.4121,97.2201 41.0701,97.6931 C44.1631,98.0931 44.3091,97.3991 44.3091,97.3991 C44.3091,97.3991 43.9791,100.6341 41.5241,100.6381 M85.9941,114.5391 C89.4811,113.0241 95.7021,104.0261 89.8091,91.4901 C83.8301,81.0271 76.4401,68.6611 65.0541,73.4191 C73.6491,72.3701 80.6271,79.4801 82.3631,86.9171 C83.1021,90.0881 82.2121,97.7861 74.1631,97.5871 C68.2131,97.4401 65.3931,94.9561 59.1521,93.4871 C59.5711,93.1201 63.5381,93.7421 65.6351,94.3941 C70.4991,95.9051 75.0371,96.0491 77.1951,94.5361 C81.3041,91.6571 79.7481,81.2621 74.3101,79.1491 C76.0591,81.0951 79.4851,91.6421 71.6501,92.0661 C67.5261,92.2891 60.9591,89.3411 56.2291,90.3881 C54.4981,91.0081 53.8261,92.5041 52.5421,94.4841 C51.8571,95.5421 46.4581,92.0191 40.6531,92.5431 C40.6531,92.5431 36.5311,92.5401 33.5241,96.7361 C29.6431,103.0641 21.3761,100.1611 21.3761,106.7721 C21.3761,106.7721 23.6591,106.7721 27.0001,104.0351 C27.1381,104.3111 27.1011,105.0251 26.9331,105.3381 C26.1191,106.8631 23.2291,108.2621 22.2351,108.9571 C22.4271,110.9441 23.1871,112.8461 26.6861,114.4991 C30.1501,116.1351 35.0881,117.3711 35.8311,117.0681 C38.8251,114.4791 40.6901,112.7861 39.2741,107.6321 C40.9821,109.5431 41.8411,114.4541 38.2361,117.6451 C35.3111,120.2321 27.9531,128.4791 32.1501,137.0191 C29.2161,121.2281 49.9421,118.1231 44.4901,110.6271 C54.1131,118.4141 31.0471,123.7761 33.6181,135.4561 C36.3541,142.1411 47.5011,142.0301 49.7781,139.8271 C44.2691,125.0621 57.4181,125.8331 50.8071,112.3171 C56.0231,117.2381 53.7641,123.6841 52.2211,128.2021 C50.4321,133.4411 52.3551,136.9731 54.2591,138.9091 C57.1241,141.5531 69.8901,138.1741 72.5511,135.6761 C63.8821,133.9871 66.9971,118.5771 63.1201,114.0461 C68.9611,117.9391 65.4331,131.3951 73.8691,132.1241 C81.8201,132.8111 87.8571,126.3081 87.9061,117.0061 C79.7591,120.7371 77.3051,110.3181 67.9301,109.4211 C75.1001,107.3871 81.7271,116.3921 85.9941,114.5391" id="Fill-19" fill="#2770F7"></path>
            <g id="Group-23" transform="translate(0.000000, 0.202000)">
                <mask id="mask-2" fill="white">
                    <use xlink:href="#path-1"></use>
                </mask>
                <g id="Clip-22"></g>
                <path d="M161.0952,143.1488 L103.0852,143.1488 C101.9862,143.1488 101.0942,142.3388 101.0942,141.3408 C101.0942,140.3428 101.9862,139.5328 103.0852,139.5328 L159.1052,139.5328 L159.1052,4.4138 L3.9812,4.4138 L3.9812,141.3408 C3.9812,142.3388 3.0902,143.1488 1.9912,143.1488 C0.8912,143.1488 0.0002,142.3388 0.0002,141.3408 L0.0002,2.6058 C0.0002,1.6068 0.8912,0.7978 1.9912,0.7978 L161.0952,0.7978 C162.1952,0.7978 163.0862,1.6068 163.0862,2.6058 L163.0862,141.3408 C163.0862,142.3388 162.1952,143.1488 161.0952,143.1488" id="Fill-21" fill="#2770F7" mask="url(#mask-2)"></path>
            </g>
        </g>
    </g>
</svg>