<?xml version="1.0" encoding="UTF-8"?>
<svg width="18px" height="16px" viewBox="0 0 18 16" version="1.1" xmlns="http://www.w3.org/2000/svg" xmlns:xlink="http://www.w3.org/1999/xlink">
    <!-- Generator: Sketch 49.3 (51167) - http://www.bohemiancoding.com/sketch -->
    <title>面试</title>
    <desc>Created with Sketch.</desc>
    <defs>
        <polygon id="path-1" points="2.25165563e-05 0.0758309859 16.8849629 0.0758309859 16.8849629 15.8872676 2.25165563e-05 15.8872676"></polygon>
    </defs>
    <g id="申请成为老师" stroke="none" stroke-width="1" fill="none" fill-rule="evenodd">
        <g id="04_步骤" transform="translate(-1134.000000, -121.000000)">
            <g id="时间轴-copy" transform="translate(597.000000, 111.000000)">
                <g id="Group-2-Copy" transform="translate(522.250000, 0.000000)">
                    <g id="025" transform="translate(15.000000, 10.000000)">
                        <g id="Page-1" transform="translate(0.084437, 0.000000)">
                            <path d="M14.1373801,5.84983662 L14.1373801,9.3007662 C14.1373801,10.1494423 13.7525722,10.9670197 13.0625523,11.4603155 C13.0330556,11.4813859 13.002996,11.5020056 12.9720358,11.5221746 C12.5982609,11.766231 12.1554728,11.8828507 11.7093073,11.8828507 L6.86588344,11.8828507 L7.05558543,12.8092732 L7.96165166,13.3786254 L11.606857,13.3786254 L13.7982808,15.4874704 L13.7982808,13.4630197 L15.2100689,13.4630197 L16.0318106,13.0623437 L16.558698,12.0922028 L16.558698,7.47383662 L16.2425656,6.44048451 L15.6314662,5.99766761 L14.1373801,5.84983662 Z" id="Fill-1" fill="#FFDA00"></path>
                            <g id="Group-5" transform="translate(0.000000, 0.036845)">
                                <mask id="mask-2" fill="white">
                                    <use xlink:href="#path-1"></use>
                                </mask>
                                <g id="Clip-4"></g>
                                <path d="M13.8374596,13.0467042 C13.6443801,13.0467042 13.5001616,13.1536338 13.5001616,13.2491831 L13.5001616,14.2896338 L13.5001616,14.7801127 L13.1540821,14.4328451 L11.8715391,13.1458592 C11.8142344,13.0886197 11.7434199,13.0560563 11.6611219,13.0494085 L11.6275722,13.0467042 L8.43742649,13.0467042 C7.73018146,13.0467042 7.15488344,12.4708169 7.15488344,11.7629859 L7.15488344,9.6011831 L7.15488344,9.3983662 L7.35741987,9.3983662 L10.5974397,9.3983662 C11.6768834,9.3983662 12.554804,8.51949296 12.554804,7.43938028 L12.554804,6.35847887 L12.554804,6.1555493 L12.757453,6.1555493 L14.9175788,6.1555493 C15.6248238,6.1555493 16.2001219,6.7315493 16.2001219,7.43938028 L16.2001219,11.7629859 C16.2001219,12.4708169 15.6248238,13.0467042 14.9175788,13.0467042 L13.8374596,13.0467042 Z M6.48006225,8.72309859 L6.27752583,8.72647887 C6.22314834,8.72647887 6.11990993,8.73909859 6.03828742,8.82349296 L3.72065828,11.1429296 L3.37469139,11.4891831 L3.37469139,10.9996056 L3.37469139,9.06067606 C3.37469139,8.87453521 3.22349272,8.72309859 3.03739338,8.72309859 L1.95738675,8.72309859 C1.25002914,8.72309859 0.674731126,8.14721127 0.674731126,7.43938028 L0.674731126,2.03487324 C0.674731126,1.32692958 1.25002914,0.751042254 1.95738675,0.751042254 L10.5974397,0.751042254 C11.3047974,0.751042254 11.8800954,1.32692958 11.8800954,2.03487324 L11.8800954,7.43938028 C11.8800954,8.14721127 11.3047974,8.72309859 10.5974397,8.72309859 L6.48006225,8.72309859 Z M14.9277113,13.7253521 C16.0070424,13.7253521 16.8849629,12.8465915 16.8849629,11.7663662 L16.8849629,7.44276056 C16.8758437,6.36140845 15.9931947,5.48039437 14.9175788,5.48039437 L12.757453,5.48039437 L12.554804,5.48039437 L12.554804,5.27746479 L12.554804,2.03487324 C12.554804,0.954647887 11.6768834,0.0757746479 10.5974397,0.0757746479 L1.95738675,0.0757746479 C0.878168212,0.0757746479 2.25165563e-05,0.954647887 2.25165563e-05,2.03487324 L2.25165563e-05,7.43938028 C2.25165563e-05,8.51949296 0.878168212,9.3983662 1.95738675,9.3983662 L2.49733377,9.3983662 L2.69998278,9.3983662 L2.69998278,9.6011831 L2.69998278,12.3033803 C2.69998278,12.3090141 2.69975762,12.3153239 2.70020795,12.3214085 L2.70347285,12.3374085 L2.70347285,12.3418028 C2.70448609,12.3487887 2.70561192,12.3571268 2.70628742,12.3665915 C2.70673775,12.3695211 2.70730066,12.3729014 2.70786358,12.376507 C2.70797616,12.3774085 2.70820132,12.3783099 2.70831391,12.3793239 C2.71101589,12.3873239 2.71281722,12.3945352 2.71416821,12.4003944 C2.7161947,12.4051268 2.71777086,12.4094085 2.71934702,12.4138028 C2.72103576,12.4176338 2.72261192,12.4215775 2.72430066,12.4256338 L2.72238675,12.4220282 C2.72486358,12.4268732 2.7273404,12.432507 2.73004238,12.4384789 L2.73161854,12.440169 L2.73826093,12.4535775 L2.74479073,12.4601127 L2.75773775,12.4859155 C2.75818808,12.4867042 2.75863841,12.487493 2.75908874,12.488169 C2.76629404,12.4977465 2.77147285,12.5059718 2.7750755,12.511493 L2.78205563,12.5220845 L2.78228079,12.5224225 C2.78374437,12.5245634 2.78543311,12.5269296 2.78734702,12.5296338 C2.7881351,12.5306479 2.78914834,12.531662 2.79016159,12.5326761 C2.80018146,12.5409014 2.80941325,12.5500282 2.81763179,12.5600563 C2.81875762,12.5610704 2.81988344,12.5620845 2.82100927,12.5629859 L2.83789669,12.5715493 L2.85095629,12.5839437 L2.85602252,12.5870986 C2.85669801,12.5874366 2.85737351,12.5878873 2.85804901,12.5882254 C2.86885695,12.5936338 2.87820132,12.5993803 2.88563179,12.604338 C2.88968477,12.6060282 2.8934,12.6077183 2.8966649,12.6092958 C2.90623444,12.6131268 2.91411523,12.616507 2.92064503,12.6195493 C2.92526093,12.6214648 2.92965166,12.6232676 2.93359205,12.6249577 C2.93832053,12.6266479 2.94271126,12.6284507 2.94732715,12.6302535 L2.94777748,12.6303662 C2.95363179,12.6317183 2.96061192,12.6335211 2.96826755,12.6361127 C2.97141987,12.6367887 2.97457219,12.6374648 2.9777245,12.6382535 C2.98751921,12.6388169 2.99585033,12.6399437 3.00249272,12.6410704 L3.00688344,12.6410704 L3.02658543,12.6450141 C3.02692318,12.6446761 3.03210199,12.6444507 3.03739338,12.6444507 C3.04032053,12.6444507 3.04336026,12.6445634 3.04651258,12.6445634 C3.04955232,12.6445634 3.05236689,12.6444507 3.05529404,12.6442254 L3.07128079,12.6410704 L3.07567152,12.6410704 C3.08265166,12.6399437 3.09109536,12.6388169 3.10055232,12.6381408 C3.10347947,12.6376901 3.10685695,12.6371268 3.1104596,12.6366761 C3.11226093,12.6362254 3.11417483,12.6358873 3.11597616,12.6355493 C3.12295629,12.6334085 3.12948609,12.6317183 3.13567815,12.6303662 C3.13579073,12.6302535 3.13590331,12.6302535 3.13590331,12.6302535 L3.13579073,12.6302535 C3.13590331,12.6302535 3.13590331,12.6302535 3.13601589,12.6302535 L3.14524768,12.6256338 L3.15898278,12.6210141 C3.1628106,12.6194366 3.16630066,12.6180845 3.16956556,12.6168451 L3.17969801,12.6117746 L3.19241987,12.6053521 L3.19410861,12.6049014 L3.19467152,12.6044507 L3.20671788,12.5982535 L3.21730066,12.5929577 C3.22056556,12.5909296 3.22371788,12.5890141 3.2268702,12.5870986 L3.23204901,12.5839437 L3.23824106,12.5798873 C3.2406053,12.5780845 3.2431947,12.576169 3.24634702,12.5741408 C3.25073775,12.5708732 3.25479073,12.5679437 3.25850596,12.5654648 L3.25929404,12.5646761 L3.26458543,12.5611831 C3.2699894,12.5558873 3.27663179,12.5496901 3.28485033,12.5432676 C3.28924106,12.5393239 3.29408212,12.5352676 3.29948609,12.5310986 L6.14422781,9.68411268 L6.4901947,9.33785915 L6.4901947,9.82743662 L6.4901947,11.7663662 C6.4901947,12.8465915 7.36822781,13.7253521 8.44755894,13.7253521 L11.4176053,13.7253521 L11.5017046,13.7253521 L11.5610358,13.7848451 L13.5590424,15.788 C13.623102,15.852 13.7111417,15.8872676 13.8069497,15.8872676 L13.8159563,15.8871549 L13.8475921,15.8871549 C14.0407841,15.8871549 14.1850026,15.7802254 14.1850026,15.6846761 L14.1850026,13.928169 L14.1850026,13.7253521 L14.3876517,13.7253521 L14.9277113,13.7253521 Z" id="Fill-3" fill="#333333" mask="url(#mask-2)"></path>
                            </g>
                        </g>
                    </g>
                </g>
            </g>
        </g>
    </g>
</svg>