<?xml version="1.0" encoding="UTF-8"?>
<svg width="476px" height="447px" viewBox="0 0 476 447" version="1.1" xmlns="http://www.w3.org/2000/svg" xmlns:xlink="http://www.w3.org/1999/xlink">
    <!-- Generator: Sketch 49.3 (51167) - http://www.bohemiancoding.com/sketch -->
    <title>没有老师</title>
    <desc>Created with Sketch.</desc>
    <defs>
        <polygon id="path-1" points="0 0.8906 475.41 0.8906 475.41 446 0 446"></polygon>
    </defs>
    <g id="没有老师" stroke="none" stroke-width="1" fill="none" fill-rule="evenodd">
        <g id="Page-1">
            <path d="M85.8657,120.337 C85.8657,120.337 66.5987,287.242 200.1567,279.785 C200.1567,279.785 145.2417,314.36 93.0397,249.955 C93.0397,249.955 60.3867,213.089 85.8657,120.337" id="Fill-1" fill="#FFDA00"></path>
            <path d="M263.687,198.3165 C263.687,198.3165 267.008,299.9205 364.767,295.6155 C364.767,295.6155 340.494,316.4575 300.494,295.7485 C260.495,275.0395 252.642,221.2535 263.687,198.3165" id="Fill-3" fill="#FFDA00"></path>
            <g id="Group-7" transform="translate(0.000000, 0.110000)">
                <mask id="mask-2" fill="white">
                    <use xlink:href="#path-1"></use>
                </mask>
                <g id="Clip-6"></g>
                <path d="M309.3891,377.6616 L317.1691,379.8526 C322.8551,381.4536 328.9381,382.3346 335.2491,382.4696 L337.1481,382.4866 C353.9231,382.4836 368.1411,377.5226 379.4051,367.7436 C390.8011,357.8486 395.9531,345.7876 398.0101,339.4786 L399.3461,335.3836 L403.3311,337.0176 C404.5371,337.5136 405.7511,338.0446 407.0421,338.6416 L410.0881,340.0546 L409.2271,343.2996 C407.5051,349.7766 403.0401,362.3416 392.4751,373.7036 C378.9911,388.2056 360.5321,395.5586 337.6121,395.5586 C336.8111,395.5586 336.0001,395.5506 335.1821,395.5316 C329.0731,395.4076 323.0881,394.7146 317.4051,393.4706 L315.2151,392.9906 L314.4811,390.8726 C313.8191,388.9636 313.1071,387.0466 312.3661,385.1766 L309.3891,377.6616 Z M307.5011,435.6106 L260.6681,435.6106 L256.3681,435.6106 L256.6791,431.3216 C257.5821,418.8426 256.2371,403.7716 256.1791,403.1366 C255.9341,400.4476 253.6971,398.4196 250.9751,398.4186 C250.8221,398.4186 250.6641,398.4256 250.5091,398.4386 C247.6761,398.6976 245.5681,401.2326 245.8281,404.0886 C246.3331,409.5966 247.0631,422.5156 246.2091,431.9706 L245.8811,435.6106 L242.2261,435.6106 L74.5701,435.6106 L70.7081,435.6106 L70.5731,431.7516 C69.9521,414.1396 70.8511,403.0136 70.8891,402.5486 C71.1381,399.6806 69.0181,397.1566 66.1641,396.9066 C66.0271,396.8946 65.8811,396.8886 65.7371,396.8886 C63.0571,396.8886 60.7761,398.9706 60.5431,401.6276 C60.5021,402.0936 59.5501,413.1896 60.1631,431.4756 L60.3021,435.6106 L56.1651,435.6106 L14.8161,435.6106 L13.1111,435.6106 C11.7071,435.6106 10.6001,434.4186 10.7021,433.0186 L10.8271,431.3176 C12.8621,403.5316 21.5931,378.2956 36.0751,358.3396 C50.4891,338.4776 70.2621,324.2546 93.2571,317.2056 L94.2711,316.8946 C94.2711,316.8946 137.4291,363.9026 157.4031,381.2386 C158.9291,382.5636 161.2171,382.4946 162.6611,381.0786 L162.6651,381.0746 C190.1381,354.1426 219.1001,315.1156 219.1001,315.1156 L220.6021,315.4816 C247.0731,321.9406 269.9141,337.3206 286.6601,359.9616 C302.1261,380.8696 310.9481,406.2846 311.5001,431.5226 L311.5901,435.6106 L307.5011,435.6106 Z M119.7971,310.8806 C123.7851,310.6826 123.9711,307.1356 123.9391,305.7066 L123.9381,305.6606 L123.9381,305.6156 L123.9381,292.1826 L123.9381,286.1776 L129.4801,288.4916 C139.1861,292.5466 149.3911,294.6016 159.8091,294.6016 L170.8421,294.6016 C175.4101,294.6016 180.0221,294.1946 184.5441,293.3906 L189.2441,292.5546 L189.2441,297.3286 L189.2441,305.6156 C189.2441,307.9896 190.8561,310.0566 193.1621,310.6406 L210.0381,312.6886 L160.7371,369.9236 C160.2291,370.5136 159.3251,370.5426 158.7801,369.9866 L104.2101,314.3266 C104.2101,314.3266 118.6611,310.9356 119.7971,310.8806 Z M83.1781,197.2676 C83.0631,191.0666 79.2501,186.8726 84.9051,127.5246 L85.8661,120.2266 L91.4661,125.0036 C122.9481,151.8516 161.3681,163.6786 219.9341,164.5456 L220.0471,164.5476 L220.1601,164.5556 C223.8891,164.8216 231.6041,170.0686 238.0611,178.3886 C242.0481,183.5256 244.1191,190.2426 245.1891,196.1976 C246.5921,204.0156 246.9391,209.3426 245.6941,220.3466 C244.1981,233.5606 240.9181,244.6366 220.6081,263.3236 C206.3861,276.4086 189.0771,284.2126 170.8421,284.2126 L159.8091,284.2126 C117.5651,284.2126 83.1951,245.2136 83.1781,197.2676 Z M76.6441,113.3526 C73.9901,125.7686 72.2941,143.0316 71.6071,164.6616 L71.2351,176.3366 L64.3711,166.8856 C55.0771,154.0856 49.8621,142.2546 48.8701,131.7216 C47.4721,116.8076 48.2701,102.9956 51.2421,90.6686 L53.1971,82.5576 L58.2961,89.1606 C64.3521,97.0016 70.0321,103.7496 75.6591,109.7896 L77.0801,111.3146 L76.6441,113.3526 Z M63.5761,64.4586 C73.3261,49.4176 82.9081,40.6666 98.2201,29.8046 C113.6331,18.8706 131.3541,12.6546 149.4681,11.8286 C151.7061,11.7256 153.9991,11.6746 156.2841,11.6746 C215.8091,11.6746 266.0021,49.4416 273.0371,99.5236 C277.8061,133.4786 268.5181,162.9626 259.8871,181.7176 L256.3051,189.4986 L252.6381,181.7576 C250.8051,177.8876 248.4581,174.1256 245.6631,170.5766 C239.6261,162.8986 229.3151,153.8896 220.1181,153.7596 C133.9301,152.4836 100.7431,128.1116 62.8761,77.3726 L58.5771,73.0036 L63.5761,64.4586 Z M278.0471,164.7186 L279.6291,159.5776 L284.0971,162.5716 C298.4261,172.1776 314.0351,179.1826 331.8141,183.9896 C349.3861,188.7416 369.1921,191.3736 392.3631,192.0356 L395.1731,192.1166 L396.0491,194.7876 C398.6991,202.8656 402.4131,224.2926 397.5101,247.5616 C394.3361,262.6316 386.3901,282.9806 366.5511,294.3456 C366.3401,294.4666 366.1071,294.6346 365.8201,294.8736 L365.3421,295.2706 L364.7671,295.5056 C357.3041,298.5406 349.5261,300.0796 341.6471,300.0796 L332.5601,300.0796 C294.5831,300.0796 263.6871,264.9796 263.6871,221.8376 L263.6871,199.2416 L263.6871,198.2066 L264.1891,197.3016 C269.8951,187.0176 274.5571,176.0556 278.0471,164.7186 Z M268.5751,324.9256 L266.6711,325.5456 L265.0351,324.3926 C246.7741,311.5456 226.0041,304.0716 203.3021,302.1806 L199.6341,301.8746 L199.6341,298.1936 L199.6341,291.7926 L199.6341,289.1626 L202.0491,288.1196 C221.8601,279.5686 238.1951,263.2296 248.0441,242.1136 L253.0421,231.3986 L255.5761,242.9466 C260.0971,263.5456 271.1591,281.7106 286.7241,294.0966 L288.2331,295.2976 L288.2331,297.2256 L288.2331,315.6216 L288.2331,318.4766 L285.5321,319.4046 C282.8601,320.3226 280.2391,321.3026 277.7401,322.3176 L277.4621,322.4316 L277.1711,322.5006 C274.2281,323.2106 271.3351,324.0256 268.5751,324.9256 Z M283.8181,331.7236 C286.0271,331.2776 292.6731,330.2776 293.4281,330.2776 C296.2921,330.2776 298.6221,327.9476 298.6221,325.0836 L298.6221,308.2716 L298.6221,302.1966 L304.2031,304.5976 C313.2611,308.4936 322.8011,310.4696 332.5601,310.4696 L341.6471,310.4696 C347.4601,310.4696 353.2851,309.7476 358.9621,308.3246 L363.9351,307.0776 L363.9351,312.2046 L363.9351,325.9056 C363.9351,326.3016 363.9191,326.6826 363.9031,327.0556 C363.8881,327.3746 363.8681,327.8006 363.8871,327.9936 C363.9461,328.0616 364.0931,328.2176 364.4111,328.4486 C364.5061,328.4656 364.6231,328.4846 364.7191,328.4996 C364.8731,328.5246 365.0471,328.5536 365.2341,328.5886 C368.4951,328.6086 382.5361,331.0046 387.5291,332.1056 L391.8871,333.0666 L390.4561,337.2936 C386.6491,348.5466 373.8281,374.7186 337.1271,374.7186 L337.1051,374.7186 L337.0821,374.7186 L335.4551,374.6996 C323.0001,374.4346 311.9961,371.0946 302.7091,364.7676 L302.0011,364.2856 L301.5521,363.5546 C295.9251,354.3836 289.2751,345.9456 281.7851,338.4766 L276.4941,333.2016 L283.8181,331.7236 Z M278.5191,69.2906 C292.4531,59.3796 308.4751,53.7446 324.8521,52.9956 C326.8341,52.9076 328.8341,52.8626 330.8011,52.8626 C360.8171,52.8616 388.2091,63.2706 405.9551,81.4216 C419.5681,95.3496 426.8321,113.1236 426.4121,131.4686 L426.1371,142.2356 C425.2011,177.0166 423.7861,229.5716 432.5861,283.3916 C434.3621,294.2846 439.9841,307.3066 445.9361,321.0936 C451.5201,334.0336 457.8481,348.6996 461.5901,363.1176 L465.4971,386.5626 L454.3651,366.3026 C438.1251,341.3206 412.3231,325.0576 381.7101,320.5086 L381.2961,320.4466 L380.9051,320.3006 C379.5121,319.7826 378.2491,319.3336 377.0461,318.9276 L374.3251,318.0096 L374.3251,315.1376 L374.3251,303.9416 L374.3251,301.8226 L376.0781,300.6326 C392.1191,289.7476 403.0771,271.9866 407.7691,249.2686 C413.5831,221.1106 408.4341,192.1856 402.1821,183.8446 C401.2231,182.5706 399.6981,181.7936 398.1041,181.7696 C373.0161,181.4006 352.0121,178.8046 333.8921,173.8316 C315.1941,168.6996 298.9331,160.8836 284.1801,149.9346 L282.1821,148.4516 L282.6281,146.0046 C285.5641,129.9276 285.9311,113.7856 283.7201,98.0266 C282.5741,89.8686 280.3621,81.8136 277.1451,74.0876 L275.9171,71.1406 L278.5191,69.2906 Z M458.8811,435.6106 L425.0751,435.6106 L420.8821,435.6106 L421.0781,431.4226 C421.5511,421.3886 420.6681,410.3786 420.4871,408.2726 L420.4811,408.2086 C420.2421,405.5846 417.9461,403.5096 415.2561,403.5096 C415.1091,403.5096 414.9631,403.5156 414.8161,403.5276 C411.9871,403.7856 409.8761,406.3196 410.1331,409.1756 C410.5181,413.3766 411.1211,423.5286 410.6511,431.8376 L410.4361,435.6106 L406.6571,435.6106 L325.8871,435.6106 L321.9611,435.6106 L321.8871,431.6856 C321.7341,423.6026 320.7771,415.3736 319.0421,407.2276 L317.8621,401.6826 L323.4821,402.4306 C327.2291,402.9296 331.1151,403.2226 335.0301,403.3016 C335.8541,403.3186 336.6691,403.3246 337.4751,403.3246 C360.7331,403.3246 379.8991,396.3136 394.4421,382.4866 C406.2301,371.2796 412.3851,358.1396 415.4731,349.0896 L417.2151,343.9836 L421.5941,347.1346 C431.0741,353.9526 439.1811,362.6276 445.6911,372.9156 L446.4131,374.0586 L446.4101,374.0956 L446.4771,374.1826 L446.5781,374.3496 C456.6801,390.9246 462.3171,410.6876 462.8791,431.5026 L462.8801,431.5026 C462.9411,433.7526 461.1331,435.6106 458.8811,435.6106 Z M325.9151,446.0006 L464.1181,446.0006 C469.1971,446.0006 473.3131,441.8836 473.3131,436.8056 L473.3131,434.8306 C473.3131,426.3946 472.6081,418.0866 471.2171,410.1366 L470.8681,408.1406 L472.2701,406.6786 C472.9201,406.0006 473.3741,405.1656 473.5841,404.2626 C480.4341,374.8356 466.5971,342.7586 455.4791,316.9836 C449.7861,303.7996 444.4101,291.3446 442.8421,281.7186 C434.2001,228.8576 435.5981,176.9026 436.5231,142.5226 L436.8041,131.6916 C437.2831,110.5406 428.9651,90.1036 413.3861,74.1606 C393.4101,53.7186 364.2601,42.4606 331.3061,42.4606 C329.0231,42.4606 326.6941,42.5156 324.3831,42.6216 C306.8661,43.4186 289.6191,49.2456 274.5051,59.4746 L271.1011,61.7776 L268.8911,58.3116 C246.3021,22.8926 203.1531,0.8906 156.2841,0.8906 C153.8861,0.8906 151.4981,0.9456 148.9811,1.0586 C123.3851,2.2246 98.5461,13.1156 79.0411,31.7266 L78.8341,31.9246 L78.6021,32.0906 C73.0101,36.0756 67.9411,40.5506 63.5331,45.3906 C43.8471,67.0106 35.2011,97.1956 38.5301,132.6846 C41.0651,159.7656 66.5291,186.3176 71.6081,191.3646 L72.7881,192.5386 L72.7881,194.2026 L72.7881,197.2316 C72.7881,229.9626 87.4201,260.3386 111.9281,278.4866 L113.5481,279.6856 L113.5481,281.7016 L113.5481,298.9306 L113.5481,302.4326 L110.0771,302.8946 C78.4251,307.1156 51.2731,322.2646 31.5571,346.7036 C11.6031,371.4366 0.6911,403.9426 0.0001,440.7066 C-0.0529,443.6136 2.2891,446.0006 5.1981,446.0006 L313.1141,446.0006 L325.9151,446.0006 Z" id="Fill-5" fill="#ADADAD" mask="url(#mask-2)"></path>
            </g>
            <path d="M364.4809,155.5587 C342.1199,149.4097 325.7819,141.5797 314.5349,131.6257 C313.5829,130.7807 312.3649,130.3177 311.1019,130.3177 C309.6129,130.3177 308.1909,130.9577 307.2009,132.0757 C306.2839,133.1117 305.8239,134.4467 305.9079,135.8307 C305.9929,137.2167 306.6099,138.4857 307.6489,139.4047 C320.1049,150.4357 337.7939,158.9967 361.7289,165.5767 C362.1779,165.7017 362.6369,165.7627 363.1119,165.7627 C365.4399,165.7627 367.4979,164.1937 368.1149,161.9457 C368.8749,159.1827 367.2449,156.3187 364.4809,155.5587" id="Fill-8" fill="#ADADAD"></path>
            <path d="M173.1782,136.0167 C173.6242,136.1417 174.0842,136.2027 174.5592,136.2027 C176.8852,136.2027 178.9422,134.6307 179.5632,132.3807 C179.9302,131.0467 179.7542,129.6477 179.0692,128.4417 C178.3812,127.2347 177.2672,126.3677 175.9292,125.9987 C151.1232,119.1737 133.0012,110.4837 120.5272,99.4307 C119.5772,98.5877 118.3602,98.1247 117.0952,98.1247 C115.6052,98.1247 114.1832,98.7657 113.1942,99.8807 C111.3002,102.0217 111.5012,105.3117 113.6452,107.2117 C127.3372,119.3427 146.8112,128.7647 173.1782,136.0167" id="Fill-10" fill="#ADADAD"></path>
            <path d="M444.2299,25.6817 C442.8749,25.6817 441.5989,26.2097 440.6399,27.1687 L428.4269,39.3827 C427.4669,40.3407 426.9389,41.6167 426.9389,42.9727 C426.9389,44.3277 427.4669,45.6037 428.4259,46.5617 C429.3859,47.5217 430.6609,48.0497 432.0169,48.0497 C433.3729,48.0497 434.6469,47.5217 435.6059,46.5627 L447.8199,34.3487 C448.7789,33.3897 449.3069,32.1157 449.3069,30.7587 C449.3069,29.4027 448.7789,28.1277 447.8199,27.1697 C446.8599,26.2097 445.5849,25.6817 444.2299,25.6817" id="Fill-12" fill="#ADADAD"></path>
            <path d="M404.5004,16.8868 L399.2354,29.2368 C398.1384,31.8128 399.3404,34.8018 401.9144,35.8998 C402.5524,36.1698 403.2214,36.3078 403.9024,36.3078 C405.9424,36.3078 407.7774,35.0958 408.5774,33.2208 L413.8424,20.8708 C414.9394,18.2948 413.7384,15.3058 411.1634,14.2078 C410.5274,13.9378 409.8574,13.7998 409.1744,13.7998 C407.1354,13.8008 405.3014,15.0118 404.5004,16.8868" id="Fill-14" fill="#ADADAD"></path>
            <path d="M446.6762,66.6114 C445.3762,67.0004 444.3062,67.8714 443.6612,69.0644 C443.0172,70.2574 442.8762,71.6314 443.2652,72.9294 C443.9032,75.0644 445.9032,76.5554 448.1282,76.5554 C448.6162,76.5554 449.1072,76.4834 449.5832,76.3404 L462.8732,72.3684 C464.1732,71.9804 465.2432,71.1094 465.8882,69.9154 C466.5322,68.7214 466.6732,67.3494 466.2842,66.0504 C465.6462,63.9154 463.6472,62.4244 461.4242,62.4244 C460.9332,62.4244 460.4432,62.4964 459.9672,62.6384 L446.6762,66.6114 Z" id="Fill-16" fill="#ADADAD"></path>
        </g>
    </g>
</svg>