<?xml version="1.0" encoding="UTF-8"?>
<svg width="52px" height="48px" viewBox="0 0 52 48" version="1.1" xmlns="http://www.w3.org/2000/svg" xmlns:xlink="http://www.w3.org/1999/xlink">
    <!-- Generator: Sketch 49.3 (51167) - http://www.bohemiancoding.com/sketch -->
    <title>脑子</title>
    <desc>Created with Sketch.</desc>
    <defs>
        <polygon id="path-1" points="5.94285714e-05 0.0862822086 51.7700709 0.0862822086 51.7700709 47.705492 5.94285714e-05 47.705492"></polygon>
    </defs>
    <g id="申请成为老师" stroke="none" stroke-width="1" fill="none" fill-rule="evenodd">
        <g id="01_申请成为tutor" transform="translate(-734.000000, -1248.000000)">
            <g id="申请资格" transform="translate(555.000000, 1123.000000)">
                <g id="Group-17-Copy" transform="translate(1.000000, 125.000000)">
                    <g id="045" transform="translate(178.000000, 0.000000)">
                        <g id="Page-1">
                            <path d="M40.8870057,37.8369276 C40.2326971,38.201492 39.5406514,38.4977374 38.8298857,38.7171239 C37.7646286,39.0439951 36.6616343,39.2091975 35.5521029,39.2091975 C34.2259543,39.2091975 32.9310057,38.9792098 31.70232,38.5248294 L31.6841943,38.5201178 C30.8593257,38.2159215 30.0573371,37.8010012 29.3002171,37.2871362 L29.19176,37.2132221 L29.3115086,37.159038 C29.6876914,36.9894184 30.0689257,36.7800442 30.4448114,36.5376883 C30.6228,36.4225472 30.7443314,36.2458601 30.7880114,36.0394307 C30.8313943,35.8324123 30.7906857,35.6209767 30.6730171,35.4434061 C30.5259314,35.2198969 30.2769257,35.0864982 30.00712,35.0864982 C29.8514171,35.0864982 29.7001714,35.1315534 29.5688343,35.2172466 C28.89016,35.6560196 28.1541371,35.9746454 27.3812686,36.164584 C26.8208571,36.3035779 26.2387543,36.3736638 25.6513029,36.3736638 C24.70936,36.3736638 23.7974286,36.1960933 22.94136,35.8447804 L22.7844686,35.780584 L22.9389829,35.7099092 C23.9549143,35.2466945 24.9039886,34.6483141 25.7600571,33.9318479 L25.77224,33.9215411 L25.7879886,33.9171239 C26.7792571,33.6406086 27.794,33.5001423 28.8025029,33.5001423 C31.3401029,33.5001423 33.8179771,34.3765104 35.77912,35.966989 L35.7806057,35.9687558 L35.7823886,35.9696393 C35.7921943,35.9746454 35.802,35.9811239 35.8115086,35.9884859 L35.81656,35.9905472 L35.8272571,35.9984982 C37.3040571,37.0312344 39.04264,37.619308 40.8540229,37.6991117 L41.1137257,37.7103018 L40.8870057,37.8369276 Z M38.67032,46.3043632 C38.5698857,46.3302773 38.4673714,46.3432344 38.3648571,46.3432344 C37.8677371,46.3432344 37.41608,46.0369767 37.2410629,45.580535 C36.6417257,44.0330503 35.6133143,42.4405104 34.1846514,40.8470871 L34.0574743,40.7045595 L34.24824,40.7248785 C34.6788,40.7702282 35.1194629,40.7931975 35.5577486,40.7931975 C36.4661143,40.7931975 37.3590286,40.6992589 38.2115314,40.5131485 L38.2953257,40.4948908 L38.3015657,40.5797006 C38.4058629,42.0329521 38.7859086,43.3775411 39.4307086,44.5766577 C39.5287657,44.7592344 39.5786857,44.9506454 39.5786857,45.1458847 C39.5662057,45.6986209 39.2010171,46.1636025 38.67032,46.3043632 Z" id="Fill-1" fill="#FFDA00"></path>
                            <g id="Group-5" transform="translate(0.000000, 0.208196)">
                                <mask id="mask-2" fill="white">
                                    <use xlink:href="#path-1"></use>
                                </mask>
                                <g id="Clip-4"></g>
                                <path d="M44.0476251,35.4189644 L44.034848,35.4236761 L44.0211794,35.4236761 C43.8375451,35.4236761 43.6643109,35.480216 43.5204937,35.5871117 L43.5094994,35.5953571 L43.4967223,35.5988908 C42.7800137,35.8109153 42.0252709,35.9181055 41.2529966,35.9181055 C39.6237623,35.9181055 38.0598994,35.4304491 36.729888,34.5072589 C34.4870537,32.6973939 31.6615223,31.7023509 28.7694309,31.7023509 C28.4152366,31.7023509 28.083328,31.7158969 27.783808,31.7424 L27.6177051,31.7568294 L27.7175451,31.6249031 C28.307968,30.8451239 28.8006309,30.007038 29.1827566,29.1344982 L29.1886994,29.109173 C29.2510994,28.9663509 29.3325166,28.7770012 29.4076937,28.5779337 C30.1125166,27.1279215 31.6124937,26.194719 33.2325166,26.194719 C33.986368,26.194719 34.7259566,26.3931975 35.3710537,26.7686577 C35.4940709,26.839627 35.6331337,26.8773202 35.773088,26.8773202 C36.0577509,26.8773202 36.3141851,26.7303755 36.4588937,26.4841914 C36.6838309,26.1025472 36.5578423,25.6290258 36.1721509,25.4061055 C35.2845851,24.8895902 34.2680594,24.6163141 33.2325166,24.6163141 C32.2026194,24.6163141 31.1798537,24.8934184 30.2750537,25.4172957 L30.1493623,25.4903264 L30.1636251,25.3466209 L30.1665966,25.317762 C30.1772937,25.2144 30.1870994,25.1151607 30.192448,25.0109153 C30.2242423,24.5771485 29.892928,24.1993325 29.4549394,24.1678233 C29.435328,24.1663509 29.4160137,24.165762 29.3966994,24.165762 C28.9836709,24.1654675 28.6360137,24.4879215 28.6057051,24.8990135 C28.5355794,25.9450012 28.3136137,26.9715534 27.9454537,27.9506945 C27.8574994,28.1315043 27.7823223,28.3143755 27.7199223,28.5001914 C27.0902766,29.9281178 26.1367451,31.2314798 24.9597623,32.2759951 L24.9505509,32.283946 L24.9392594,32.2889521 C24.7966309,32.3493202 24.6789623,32.4503264 24.5898194,32.5887313 L24.5832823,32.5987436 L24.5737737,32.6061055 C23.419968,33.5340074 22.072128,34.2328049 20.676448,34.6274061 L20.6663451,34.629762 L20.6559451,34.629762 C20.6574309,34.6309399 20.6508937,34.6335902 20.6404937,34.6350626 C19.6652709,34.9101055 18.6493394,35.0496883 17.6206309,35.0496883 C14.8022309,35.0496883 12.121408,33.9948663 10.0714194,32.0792834 C9.08936229,30.9655656 8.55093943,29.5450012 8.55093943,28.0743755 C8.55093943,26.1523141 9.48426514,24.3200687 11.0475337,23.1724859 C11.401728,22.9157006 11.4780937,22.4197988 11.2177966,22.067308 C11.0665509,21.8626454 10.8329966,21.7451485 10.575968,21.7451485 C10.4051109,21.7451485 10.2413851,21.7984491 10.1026194,21.8991607 C8.41989943,23.1312589 7.29877943,25.0168049 7.027488,27.0716761 L7.01055086,27.2000687 L6.90803657,27.1199706 C6.821568,27.052535 6.73272229,27.0068908 6.644768,26.983627 L6.60703086,26.969492 C5.20273371,26.5731239 3.92591086,25.7100074 3.01813943,24.541811 C2.08927086,23.3432834 1.59839086,21.901811 1.59839086,20.3728785 C1.59839086,19.495627 1.76597943,18.6348663 2.09669943,17.815038 C2.17752229,17.6253939 2.17544229,17.4027681 2.091648,17.2037006 C1.82897371,16.4239215 1.69704229,15.6188172 1.69704229,14.8054675 C1.69704229,10.6706945 5.09130514,7.30657178 9.263488,7.30657178 C9.931168,7.30657178 10.5955794,7.39255951 11.2385966,7.56217914 L11.2703909,7.57130798 L11.2721737,7.57130798 L11.2980251,7.57808098 C11.3553737,7.58838773 11.4076709,7.59368834 11.4596709,7.59368834 C11.7544366,7.59368834 12.0221623,7.43496442 12.1579566,7.17935706 C13.4350766,5.49788466 15.087488,4.11589693 16.9425509,3.17386012 C18.9304366,2.15702577 21.0838309,1.64139387 23.343008,1.64139387 C25.2176823,1.64139387 27.0468937,2.0071362 28.7807223,2.72831411 L28.9197851,2.78632638 L28.7887451,2.86053497 C27.3684023,3.66475583 26.1602194,4.75462086 25.1971794,6.10009325 C24.5636709,6.99059632 24.066848,7.95736933 23.7212709,8.9739092 C23.6927451,9.02573742 23.6719451,9.06254724 23.6564937,9.1028908 C22.9840594,10.8450258 21.2701394,12.0146945 19.391008,12.0146945 C18.9518309,12.0146945 18.5946651,12.3689521 18.5946651,12.8038969 C18.5946651,13.2391362 18.9518309,13.5930994 19.391008,13.5930994 C20.6648594,13.5930994 21.8861166,13.2120442 22.9231451,12.4908663 C22.9573166,12.4678969 22.9882194,12.4475779 23.0119909,12.4240196 L23.1388709,12.2982773 L23.1388709,12.4761423 L23.1388709,12.5164859 C23.1388709,12.7600196 23.1483794,13.021811 23.1676937,13.3168785 C23.1997851,13.7329767 23.5394194,14.0474798 23.9583909,14.0474798 L24.0219794,14.0474798 C24.2296823,14.0324613 24.4237166,13.9361669 24.5630766,13.776854 C24.7021394,13.6178356 24.7701851,13.4149399 24.7547337,13.2061546 C24.7389851,12.9979583 24.7312594,12.7726822 24.7312594,12.5164859 C24.7312594,10.5249276 25.3401051,8.62082945 26.4918309,7.00973742 C27.6162194,5.43368834 29.177408,4.24134479 31.0066194,3.56139387 C32.0825737,3.16532025 33.2140937,2.96419141 34.3699794,2.96419141 C36.7227566,2.96419141 38.986688,3.81258405 40.7451794,5.35241227 C42.4861394,6.88105031 43.6132023,8.97037546 43.9192594,11.2357988 L43.9198537,11.2366822 L43.9249051,11.2561178 C43.928768,11.2705472 43.9302537,11.2829153 43.9323337,11.2952834 C43.9332251,11.3029399 43.9344137,11.3108908 43.9364937,11.3194307 L43.9388709,11.328265 L43.9388709,11.3373939 C43.9507566,11.3606577 43.9528366,11.3706699 43.9549166,11.3803877 L43.9656137,11.4133693 C43.9688823,11.4222037 43.9721509,11.4304491 43.9757166,11.4404613 C43.9783909,11.4439951 43.9810651,11.4557742 43.982848,11.4631362 L43.9920594,11.4837497 C43.997408,11.492584 44.0048366,11.5049521 44.0104823,11.5211485 C44.0137509,11.5246822 44.020288,11.5355779 44.0238537,11.5523632 L44.0422766,11.5782773 L44.0155337,11.6065472 L44.0193966,11.6136147 L44.0511909,11.5927067 C44.0538651,11.596535 44.0562423,11.6003632 44.0589166,11.6047804 C44.0684251,11.6156761 44.0752594,11.6262773 44.0814994,11.6359951 L44.0841737,11.6398233 L44.0933851,11.6554307 C44.0966537,11.6566086 44.1031909,11.6624982 44.109728,11.6719215 C44.1129966,11.6754552 44.1156709,11.678989 44.1183451,11.6825227 L44.1290423,11.6875288 L44.1317166,11.6937129 C44.1379566,11.6996025 44.1427109,11.705492 44.1474651,11.7107926 C44.1581623,11.7169767 44.1688594,11.7275779 44.1753966,11.733762 L44.1863909,11.7393571 L44.1899566,11.7452466 C44.1958994,11.7514307 44.201248,11.7573202 44.2068937,11.7614429 C44.2146194,11.7649767 44.2211566,11.7690994 44.2276937,11.7735166 L44.238688,11.7791117 L44.2535451,11.7914798 C44.2645394,11.7976638 44.2743451,11.8035534 44.2835566,11.8106209 C44.2930651,11.815627 44.303168,11.8212221 44.3126766,11.8282896 C44.317728,11.8309399 44.3236709,11.8344736 44.3293166,11.8380074 L44.3444709,11.8465472 L44.359328,11.8530258 C44.3685394,11.8565595 44.3777509,11.8603877 44.3854766,11.8639215 L44.4202423,11.8810012 C44.4252937,11.8821791 44.4374766,11.8863018 44.4544137,11.890719 L44.4597623,11.890719 L44.4808594,11.8983755 C46.0967223,12.3627681 47.5467794,13.3507436 48.5725166,14.6803141 C49.6261851,16.0502282 50.183328,17.6904736 50.183328,19.4240687 C50.1776823,20.6876761 49.8977737,21.8770748 49.3516251,22.9595779 L49.2933851,23.074719 L49.2229623,22.9669399 C47.4638766,20.2795288 44.4844251,18.6752098 41.2529966,18.6752098 C40.9469394,18.6752098 40.621568,18.6905227 40.284608,18.720854 C40.0730423,18.741173 39.8816823,18.8436515 39.7461851,19.008854 C39.6121737,19.1722896 39.5512594,19.3760687 39.5741394,19.5827926 C39.6133623,19.9809276 39.9616137,20.2921914 40.3669166,20.2921914 C40.392768,20.2921914 40.4186194,20.290719 40.444768,20.2883632 C40.6982309,20.2609767 40.962688,20.2474307 41.2529966,20.2474307 C44.3890423,20.2474307 47.233888,22.087038 48.4997166,24.933173 C48.5032823,24.9393571 48.5059566,24.9464245 48.5083337,24.9537865 C48.9433509,25.9447067 49.162048,26.9957006 49.162048,28.0858601 C49.162048,29.7814675 48.6271909,31.3916761 47.6154194,32.7424491 C46.7085394,33.957762 45.4750994,34.8836025 44.0476251,35.4189644 Z M40.848288,37.6287313 C40.1936823,37.9932957 39.5016366,38.2895411 38.791168,38.5089276 C37.7259109,38.8357988 36.6232137,39.0010012 35.513088,39.0010012 C34.1869394,39.0010012 32.892288,38.7710135 31.6636023,38.3166331 L31.6454766,38.3119215 C30.8203109,38.0077252 30.0183223,37.5928049 29.2614994,37.0789399 L29.1530423,37.0050258 L29.2724937,36.9508417 C29.6486766,36.7812221 30.030208,36.5718479 30.4063909,36.329492 C30.5837851,36.2143509 30.7059109,36.0376638 30.7489966,35.8312344 C30.7929737,35.624216 30.751968,35.4127804 30.6340023,35.2352098 C30.4869166,35.0117006 30.238208,34.8783018 29.9681051,34.8783018 C29.8129966,34.8783018 29.6611566,34.9233571 29.5301166,35.0087558 C28.8511451,35.4478233 28.1154194,35.7664491 27.3422537,35.9563877 C26.7821394,36.0953816 26.2000366,36.1654675 25.612288,36.1654675 C24.6703451,36.1654675 23.7587109,35.9878969 22.9026423,35.636584 L22.7457509,35.5723877 L22.899968,35.5017129 C23.9158994,35.0384982 24.8649737,34.4401178 25.7210423,33.7236515 L25.7335223,33.7133448 L25.7489737,33.7089276 C26.7405394,33.4324123 27.7549851,33.291946 28.763488,33.291946 C31.3013851,33.291946 33.7789623,34.1683141 35.7401051,35.7587926 C35.7412937,35.7596761 35.741888,35.760265 35.7421851,35.7605595 L35.743968,35.7614429 C35.7534766,35.7664491 35.7629851,35.7729276 35.7724937,35.7802896 L35.7775451,35.7823509 L35.7882423,35.7903018 C37.2656366,36.823038 39.0036251,37.4111117 40.8153051,37.4909153 L41.0747109,37.5021055 L40.848288,37.6287313 Z M38.6313051,46.0961669 C38.5314651,46.122081 38.4286537,46.135038 38.3261394,46.135038 C37.8290194,46.135038 37.3773623,45.8287804 37.2023451,45.3723387 C36.6027109,43.824854 35.5742994,42.2323141 34.1462309,40.6388908 L34.0184594,40.4963632 L34.2095223,40.5166822 C34.6400823,40.5620319 35.0807451,40.5850012 35.5190309,40.5850012 C36.4270994,40.5850012 37.3200137,40.4910626 38.1728137,40.3049521 L38.256608,40.2866945 L38.262848,40.3715043 C38.3671451,41.8247558 38.7468937,43.1693448 39.3916937,44.3684613 C39.4897509,44.551038 39.5396709,44.7424491 39.5396709,44.9376883 C39.5271909,45.4904245 39.1622994,45.9554061 38.6313051,46.0961669 Z M48.877088,33.6844859 C50.0941851,32.0554307 50.7372023,30.1195288 50.7372023,28.0858601 C50.7372023,26.9403387 50.5336594,25.8269153 50.1328137,24.7759215 L50.118848,24.7399951 L50.1408366,24.7084859 C51.206688,23.1689521 51.7700709,21.3558479 51.7700709,19.4641178 C51.7700709,17.3797988 51.0991223,15.4085595 49.829728,13.763308 C48.7288137,12.3274307 47.1744594,11.2007558 45.4528137,10.5903018 L45.4126994,10.5758724 L45.4046766,10.533762 C44.9565851,8.10107485 43.6726309,5.85302577 41.7899337,4.20306258 C39.7369737,2.40880491 37.0977509,1.42053497 34.3583909,1.42053497 C33.164768,1.42053497 31.983328,1.60723436 30.8470537,1.97503804 L30.816448,1.98475583 L30.7885166,1.96944294 C28.5100251,0.737639264 25.9314194,0.0862527607 23.3314194,0.0862527607 C20.8514651,0.0862527607 18.3869623,0.67638773 16.2041509,1.79216687 C14.2629166,2.78544294 12.5151223,4.20659632 11.1497509,5.90220368 L11.1212251,5.9375411 L11.0769509,5.92811779 C10.4963337,5.81091534 9.88421943,5.75143067 9.25784229,5.75143067 C4.20760229,5.75143067 0.0987108571,9.82347975 0.0987108571,14.8284368 C0.0987108571,15.730719 0.234208,16.6288785 0.501636571,17.4987681 L0.509065143,17.5226209 L0.500448,17.5455902 C0.168242286,18.4534675 5.94285714e-05,19.412584 5.94285714e-05,20.3958479 C5.94285714e-05,22.2681423 0.604745143,24.0403141 1.74874514,25.5221301 C2.751008,26.8198969 4.16303086,27.8323141 5.72451657,28.3729767 L5.75809371,28.3844613 L5.77027657,28.4174429 C6.42369371,30.2072834 7.51093943,31.8581301 8.91464229,33.1921178 C9.51873371,33.8644123 10.2321737,34.4218601 11.0401051,34.8538601 C11.0879451,34.8824245 11.1429166,34.904216 11.2100709,34.9221791 L11.2195794,34.9248294 L11.2281966,34.9301301 C13.1524937,36.0559215 15.3611566,36.6510626 17.6149851,36.6510626 C18.6582537,36.6510626 19.696768,36.5241423 20.7020023,36.2735411 L20.7337966,36.2655902 L20.7611337,36.2841423 C22.1984137,37.235308 23.8757851,37.7379828 25.612288,37.7379828 C26.1813166,37.7379828 26.7405394,37.6843877 27.2750994,37.5783755 L27.3104594,37.5716025 L27.3377966,37.5945718 C28.4274194,38.5127558 29.6385737,39.2304 30.9376823,39.7274798 L30.9498651,39.7318969 L30.9593737,39.7401423 C31.7818651,40.4398233 34.5539109,42.954081 35.704448,45.929492 C36.1168823,46.9919706 37.1640137,47.705492 38.3103909,47.705492 C38.5543451,47.705492 38.7938423,47.6754552 39.0229394,47.6159706 C40.2545966,47.2967558 41.1148251,46.1930503 41.1148251,44.9320933 C41.1148251,44.4735902 40.9995337,44.0203877 40.7814309,43.6213693 C40.186848,42.5123632 39.8617737,41.2517006 39.8148251,39.8732466 L39.8130423,39.819946 L39.8635566,39.8016883 C41.5082423,39.2018356 43.0504137,38.2330012 44.3233737,36.9997252 L44.3352594,36.9882405 L44.351008,36.9829399 C46.1713051,36.3586454 47.7366537,35.2178356 48.877088,33.6844859 Z" id="Fill-3" fill="#333333" mask="url(#mask-2)"></path>
                            </g>
                        </g>
                    </g>
                </g>
            </g>
        </g>
    </g>
</svg>