<?xml version="1.0" encoding="UTF-8"?>
<svg width="93px" height="106px" viewBox="0 0 93 106" version="1.1" xmlns="http://www.w3.org/2000/svg" xmlns:xlink="http://www.w3.org/1999/xlink">
    <!-- Generator: Sketch 49.3 (51167) - http://www.bohemiancoding.com/sketch -->
    <title>pingfen</title>
    <desc>Created with Sketch.</desc>
    <defs>
        <polygon id="path-1" points="0.0006 0.397 92.674 0.397 92.674 104.9998 0.0006 104.9998"></polygon>
    </defs>
    <g id="pingfen" stroke="none" stroke-width="1" fill="none" fill-rule="evenodd">
        <g id="Page-1">
            <path d="M91.171,91.3024 L91.182,91.1864 L91,76 C90.989,69.672 82.726,84 66,84 C49.269,84 40,69.672 40,76 L40.199,91.1674 C40.199,97.4964 48.953,103.9034 65.684,103.9034 C78.213,103.9034 90.992,99.5744 91.171,91.3024 Z" id="Fill-1" fill="#FFD811"></path>
            <g id="Group-5" transform="translate(0.000000, 0.603000)">
                <mask id="mask-2" fill="white">
                    <use xlink:href="#path-1"></use>
                </mask>
                <g id="Clip-4"></g>
                <path d="M45.7836,91.8678 L45.7836,83.0138 L45.7836,82.5088 L46.2266,82.7508 L46.4116,82.8508 C51.2856,85.5028 58.0866,86.9028 66.0796,86.9028 C74.0596,86.9028 80.8606,85.5018 85.7486,82.8498 L85.9336,82.7498 L86.3766,82.5118 L86.3766,83.0138 L86.3766,91.8678 C86.3766,94.1918 79.2126,98.7158 66.0796,98.7158 C52.9466,98.7158 45.7836,94.1918 45.7836,91.8678 Z M39.4986,55.6628 L39.4986,59.3568 L39.4986,59.6588 L39.1966,59.6568 C18.0056,59.5558 6.2846,52.2638 6.2846,47.2608 L6.2846,30.0758 L6.2846,29.5118 L6.7526,29.8268 L6.9466,29.9578 C14.1386,34.7748 26.6586,37.7678 39.6186,37.7678 C52.5826,37.7678 65.1016,34.7708 72.2916,29.9458 L72.4856,29.8148 L72.9536,29.4998 L72.9536,30.0638 L72.9536,42.5788 L72.9536,42.9138 L72.6206,42.8778 C70.5016,42.6468 68.3006,42.5298 66.0796,42.5298 C48.6296,42.5298 39.4986,49.1368 39.4986,55.6628 Z M39.4986,66.2538 L39.4986,87.5218 L39.4986,87.8238 L39.1966,87.8218 C18.0056,87.7218 6.2846,80.4288 6.2846,75.4258 L6.2846,58.2538 L6.2846,57.6888 L6.7526,58.0048 L6.9466,58.1358 C14.0506,62.8928 26.4086,65.8888 39.1996,65.9538 L39.4986,65.9548 L39.4986,66.2538 Z M39.6186,6.6808 C48.8766,6.6808 57.5096,8.1658 63.9276,10.8608 C69.5786,13.2348 72.9536,16.3078 72.9536,19.0838 C72.9536,24.2618 60.2716,31.4838 39.6186,31.4838 C30.3606,31.4838 21.7276,29.9998 15.3106,27.3048 C9.6586,24.9318 6.2846,21.8578 6.2846,19.0838 C6.2846,13.9048 18.9666,6.6808 39.6186,6.6808 Z M86.3766,55.6628 C86.3766,57.9868 79.2126,62.5108 66.0796,62.5108 C52.9466,62.5108 45.7836,57.9868 45.7836,55.6628 C45.7836,53.3388 52.9466,48.8138 66.0796,48.8138 C79.2126,48.8138 86.3766,53.3388 86.3766,55.6628 Z M86.3766,64.9058 L86.3766,73.7598 C86.3766,76.0838 79.2126,80.6068 66.0796,80.6068 C52.9466,80.6068 45.7836,76.0838 45.7836,73.7598 L45.7836,64.9058 L45.7836,64.3998 L46.2266,64.6418 L46.4116,64.7428 C51.2876,67.3928 58.0886,68.7948 66.0796,68.7948 C74.0576,68.7948 80.8596,67.3928 85.7486,64.7418 L85.9336,64.6408 L86.3766,64.4028 L86.3766,64.9058 Z M92.6616,92.0038 L92.6746,91.8588 L92.6736,55.6628 C92.6646,50.7668 87.6056,46.3528 79.4716,44.1428 L79.2506,44.0828 L79.2506,43.8528 L79.2506,19.0838 C79.2506,12.0298 72.4416,7.6628 66.7306,5.2418 C59.4676,2.1628 49.5896,0.3968 39.6306,0.3968 C29.6696,0.3968 19.7886,2.1628 12.5236,5.2418 C6.8096,7.6628 0.0006,12.0298 0.0006,19.0838 L0.0006,75.4258 C0.0006,82.4548 6.8456,86.8518 12.5896,89.3038 C19.9026,92.4238 29.7896,94.2268 39.7146,94.2518 L39.9216,94.2518 L39.9936,94.4458 C42.4056,100.8568 52.6446,104.9998 66.0796,104.9998 C79.1486,104.9998 92.4756,100.5358 92.6616,92.0038 Z" id="Fill-3" fill="#333333" mask="url(#mask-2)"></path>
            </g>
        </g>
    </g>
</svg>