<?xml version="1.0" encoding="UTF-8"?>
<svg width="153px" height="146px" viewBox="0 0 153 146" version="1.1" xmlns="http://www.w3.org/2000/svg" xmlns:xlink="http://www.w3.org/1999/xlink">
    <!-- Generator: Sketch 49.3 (51167) - http://www.bohemiancoding.com/sketch -->
    <title>钱包</title>
    <desc>Created with Sketch.</desc>
    <defs>
        <polygon id="path-1" points="0.0002 0.078 152.766 0.078 152.766 144.9999 0.0002 144.9999"></polygon>
    </defs>
    <g id="钱包" stroke="none" stroke-width="1" fill="none" fill-rule="evenodd">
        <g id="Page-1">
            <path d="M51.1107,140.7063 L27.1427,140.7063 C14.9497,140.7063 5.0647,130.8213 5.0647,118.6283 L5.0647,29.1173 C5.0647,16.9243 14.9497,7.0393 27.1427,7.0393 L51.1107,7.0393 L51.1107,140.7063 Z" id="Fill-1" fill="#FFDA00"></path>
            <g id="Group-5" transform="translate(0.000000, 0.922000)">
                <mask id="mask-2" fill="white">
                    <use xlink:href="#path-1"></use>
                </mask>
                <g id="Clip-4"></g>
                <path d="M90.8382,44.2189 C75.2132,44.2189 62.5182,56.9139 62.5182,72.5389 C62.5182,88.1639 75.2132,100.8599 90.8382,100.8599 L144.5632,100.8599 L144.5632,101.1329 L144.5632,116.2019 L144.5632,117.9809 C144.5512,128.3669 136.1332,136.7849 125.7462,136.7969 L27.0202,136.7969 C16.6322,136.7849 8.2152,128.3669 8.2032,117.9809 L8.2032,27.0979 C8.2152,16.7099 16.6322,8.2929 27.0202,8.2809 L125.7462,8.2809 C136.1332,8.2929 144.5512,16.7099 144.5632,27.0979 L144.5632,44.2189 L90.8382,44.2189 Z M144.5632,92.6569 L90.8382,92.6569 C81.4792,92.6449 73.3592,86.1909 71.2362,77.0759 C71.1982,76.9139 71.1622,76.7519 71.1292,76.5879 C71.0612,76.2609 71.0022,75.9309 70.9512,75.5979 C70.9012,75.2639 70.8582,74.9289 70.8222,74.5919 C70.6842,73.2279 70.6842,71.8539 70.8222,70.4899 C70.8562,70.1529 70.8992,69.8179 70.9512,69.4849 C71.0032,69.1509 71.0632,68.8209 71.1292,68.4939 C71.1622,68.3299 71.1982,68.1669 71.2362,68.0059 C73.3592,58.8899 81.4782,52.4339 90.8382,52.4219 L144.5632,52.4219 L144.5632,92.6569 Z M125.7462,0.0779 L27.0202,0.0779 C12.1252,0.0779 0.0002,12.1989 0.0002,27.0979 L0.0002,117.9809 C0.0002,132.8789 12.1252,144.9999 27.0202,144.9999 L125.7462,144.9999 C140.6452,144.9999 152.7662,132.8789 152.7662,117.9809 L152.7662,116.2019 L152.7662,101.1329 L152.7662,100.8599 L152.7662,92.6569 L152.7662,52.4219 L152.7662,44.2189 L152.7662,27.0979 C152.7662,12.1989 140.6412,0.0779 125.7462,0.0779 Z" id="Fill-3" fill="#333333" mask="url(#mask-2)"></path>
            </g>
            <path d="M92.9974,67.1487 C96.4824,67.1497 99.3094,69.9747 99.3094,73.4607 C99.3054,76.9477 96.4794,79.7727 92.9934,79.7757 L92.9934,79.7777 C89.5064,79.7767 86.6804,76.9487 86.6814,73.4607 C86.6824,69.9737 89.5104,67.1477 92.9974,67.1487 M78.4774,73.4627 C78.4784,81.4807 84.9794,87.9797 92.9974,87.9787 C101.0144,87.9777 107.5134,81.4777 107.5134,73.4607 C107.5034,65.4467 101.0084,58.9527 92.9934,58.9437 C84.9764,58.9447 78.4764,65.4457 78.4774,73.4627" id="Fill-6" fill="#333333"></path>
        </g>
    </g>
</svg>