<?xml version="1.0" encoding="UTF-8"?>
<svg width="174px" height="174px" viewBox="0 0 174 174" version="1.1" xmlns="http://www.w3.org/2000/svg" xmlns:xlink="http://www.w3.org/1999/xlink">
    <!-- Generator: Sketch 49.3 (51167) - http://www.bohemiancoding.com/sketch -->
    <title>qiandao</title>
    <desc>Created with Sketch.</desc>
    <defs>
        <polygon id="path-1" points="0 0.897 173.709 0.897 173.709 173 0 173"></polygon>
    </defs>
    <g id="qiandao" stroke="none" stroke-width="1" fill="none" fill-rule="evenodd">
        <g id="Page-1">
            <path d="M69.4957,137.785 C70.6937,138.961 72.3367,139.692 73.9057,139.818 C75.7957,139.971 77.7507,139.31 79.1647,137.931 L128.7777,89.71 C130.7237,87.799 130.7237,84.722 128.7777,82.81 C126.8097,80.911 123.6437,80.911 121.6767,82.81 L74.3357,128.85 L51.9437,107.08 C50.0097,105.203 46.8767,105.203 44.9327,107.08 C42.9867,108.969 42.9867,112.022 44.9327,113.899 L69.4957,137.785 Z" id="Fill-1" fill="#333333"></path>
            <g id="Group-5" transform="translate(0.000000, 0.103000)">
                <mask id="mask-2" fill="white">
                    <use xlink:href="#path-1"></use>
                </mask>
                <g id="Clip-4"></g>
                <path d="M163.7916,57.1938 L9.9186,57.1938 L9.9186,37.8878 C9.9186,29.9058 16.6136,23.4128 24.8236,23.4128 L43.4736,23.4128 L43.4736,31.2158 C43.4736,33.1278 45.0676,34.6778 47.0356,34.6778 L49.8406,34.6778 C51.8086,34.6778 53.4026,33.1278 53.4026,31.2158 L53.4026,23.4128 L120.3086,23.4128 L120.3086,31.2158 C120.3086,33.1278 121.9016,34.6778 123.8696,34.6778 L126.6746,34.6778 C128.6436,34.6778 130.2366,33.1278 130.2366,31.2158 L130.2366,23.4128 L148.8866,23.4128 C157.0966,23.4128 163.7916,29.9048 163.7916,37.8878 L163.7916,57.1938 Z M163.7916,148.8658 C163.7916,156.8508 157.0966,163.3418 148.8866,163.3418 L24.8236,163.3418 C16.6136,163.3418 9.9186,156.8508 9.9186,148.8658 L9.9186,66.9088 L163.7916,66.9088 L163.7916,148.8658 Z M148.8866,13.7668 L130.2366,13.7668 L130.2366,4.3568 C130.2366,2.4468 128.6426,0.8968 126.6746,0.8968 L123.8696,0.8968 C121.9016,0.8968 120.3086,2.4468 120.3086,4.3568 L120.3086,13.7668 L53.4026,13.7668 L53.4026,4.3568 C53.4026,2.4468 51.8086,0.8968 49.8406,0.8968 L47.0356,0.8968 C45.0666,0.8968 43.4736,2.4468 43.4736,4.3568 L43.4736,13.7668 L24.8236,13.7668 C11.1396,13.7668 -0.0004,24.5898 -0.0004,37.8888 L-0.0004,148.8658 C-0.0004,162.1768 11.1396,173.0008 24.8236,173.0008 L148.8866,173.0008 C162.5696,173.0008 173.7096,162.1768 173.7096,148.8658 L173.7096,37.8888 C173.7096,24.5898 162.5696,13.7668 148.8866,13.7668 Z" id="Fill-3" fill="#333333" mask="url(#mask-2)"></path>
            </g>
        </g>
    </g>
</svg>