<?xml version="1.0" encoding="UTF-8"?>
<svg width="173px" height="196px" viewBox="0 0 173 196" version="1.1" xmlns="http://www.w3.org/2000/svg" xmlns:xlink="http://www.w3.org/1999/xlink">
    <!-- Generator: Sketch 49.3 (51167) - http://www.bohemiancoding.com/sketch -->
    <title>renxiang</title>
    <desc>Created with Sketch.</desc>
    <defs>
        <polygon id="path-1" points="0.0002 0 172.6662 0 172.6662 195.3327 0.0002 195.3327"></polygon>
    </defs>
    <g id="renxiang" stroke="none" stroke-width="1" fill="none" fill-rule="evenodd">
        <g id="Page-1">
            <mask id="mask-2" fill="white">
                <use xlink:href="#path-1"></use>
            </mask>
            <g id="Clip-2"></g>
            <path d="M64.0002,111.9997 C27.3332,111.9997 0.0002,136.6667 0.0002,172.6667 L0.0002,176.6667 C0.0002,195.3327 29.3332,195.3327 66.6672,195.3327 L106.0002,195.3327 C141.3332,195.3327 172.6662,195.3327 172.6662,176.6667 L172.6662,172.6667 C172.6662,136.6667 145.3332,111.9997 108.6672,111.9997 L64.0002,111.9997 Z M84.0002,102.6667 C112.6672,102.6667 136.6662,79.3327 136.6662,51.3327 C136.6662,22.6667 113.3332,-0.0003 84.0002,-0.0003 C54.6672,-0.0003 32.0002,22.6667 32.0002,51.3327 C32.0002,79.9997 55.3332,102.6667 84.0002,102.6667 Z" id="Fill-1" fill="#E0E0E0" mask="url(#mask-2)"></path>
        </g>
    </g>
</svg>