<?xml version="1.0" encoding="UTF-8"?>
<svg width="175px" height="150px" viewBox="0 0 175 150" version="1.1" xmlns="http://www.w3.org/2000/svg" xmlns:xlink="http://www.w3.org/1999/xlink">
    <!-- Generator: Sketch 49.3 (51167) - http://www.bohemiancoding.com/sketch -->
    <title>shagnchaun</title>
    <desc>Created with Sketch.</desc>
    <defs>
        <polygon id="path-1" points="0 0.0003 175 0.0003 175 150 0 150"></polygon>
    </defs>
    <g id="shagnchaun" stroke="none" stroke-width="1" fill="none" fill-rule="evenodd">
        <g id="Page-1">
            <mask id="mask-2" fill="white">
                <use xlink:href="#path-1"></use>
            </mask>
            <g id="Clip-2"></g>
            <path d="M58.75,47.5003 C60.625,47.5003 62.5,46.8753 63.75,45.6253 L80.625,25.6253 L80.625,103.1253 C80.625,106.8753 83.75,110.0003 87.5,110.0003 C91.25,110.0003 94.375,106.8753 94.375,103.1253 L94.375,25.6253 L111.25,45.6253 C112.5,46.8753 114.375,47.5003 116.25,47.5003 C118.125,47.5003 120,46.8753 121.25,45.6253 C123.75,43.1253 123.75,38.7503 121.25,35.6253 L93.125,1.8753 C91.875,0.6253 90,0.0003 88.125,0.0003 L87.5,0.0003 C85.625,0.0003 83.75,0.6253 82.5,1.8753 L53.75,35.6253 C51.25,38.1253 51.25,42.5003 53.75,45.6253 C55,46.8753 56.875,47.5003 58.75,47.5003 M168.125,90.6253 C164.375,90.6253 161.25,93.7503 161.25,97.5003 L161.25,136.2503 L13.75,136.2503 L13.75,97.5003 C13.75,93.7503 10.625,90.6253 6.875,90.6253 C3.125,90.6253 0,93.7503 0,97.5003 L0,143.1253 C0,146.8753 3.125,150.0003 6.875,150.0003 L168.125,150.0003 C171.875,150.0003 175,146.8753 175,143.1253 L175,97.5003 C175,93.7503 171.875,90.6253 168.125,90.6253" id="Fill-1" fill="#333333" mask="url(#mask-2)"></path>
        </g>
    </g>
</svg>