<?xml version="1.0" encoding="UTF-8"?>
<svg width="133px" height="146px" viewBox="0 0 133 146" version="1.1" xmlns="http://www.w3.org/2000/svg" xmlns:xlink="http://www.w3.org/1999/xlink">
    <!-- Generator: Sketch 49.3 (51167) - http://www.bohemiancoding.com/sketch -->
    <title>上传</title>
    <desc>Created with Sketch.</desc>
    <defs>
        <polygon id="path-1" points="0 0.262 132.797 0.262 132.797 144.9997 0 144.9997"></polygon>
    </defs>
    <g id="上传" stroke="none" stroke-width="1" fill="none" fill-rule="evenodd">
        <g id="Page-1">
            <path d="M126.8789,139.1 L126.8789,89.664 C126.8789,87.454 125.3899,85.659 123.5579,85.659 L22.2099,85.659 C16.5989,85.659 11.3309,82.483 6.8649,79.307 L6.8649,139.1 L126.8789,139.1 Z" id="Fill-1" fill="#FFDA00"></path>
            <g id="Group-5" transform="translate(0.000000, 0.738000)">
                <mask id="mask-2" fill="white">
                    <use xlink:href="#path-1"></use>
                </mask>
                <g id="Clip-4"></g>
                <path d="M124.8369,127.2697 C124.8369,133.0597 120.4949,137.4017 114.7049,137.4017 L18.0929,137.0397 C12.3029,137.0397 7.9609,132.6977 7.9609,126.9077 L7.9609,18.3537 C7.9609,12.5647 12.3029,8.2227 18.0929,8.2227 L114.7049,7.8607 C120.4949,7.8607 124.8369,12.2027 124.8369,17.9927 L124.8369,127.2697 Z M114.3429,0.2617 L18.0929,0.2617 C8.3219,0.2617 -0.0001,8.5847 -0.0001,17.9927 L-0.0001,18.3537 L-0.0001,126.9077 L-0.0001,127.2697 C-0.0001,136.6777 8.3219,144.9997 18.0929,144.9997 L114.3429,144.9997 C124.1129,144.9997 132.4359,136.6777 132.7979,127.2697 L132.7979,17.9927 C132.4359,8.5847 124.1129,0.2617 114.3429,0.2617 Z" id="Fill-3" fill="#333333" mask="url(#mask-2)"></path>
            </g>
            <path d="M32.7373,40.4213 L89.1853,40.4213 C91.7173,40.4213 93.1653,38.6123 93.1653,36.4413 C93.1653,34.6313 91.3563,32.4613 89.1853,32.4613 L32.7373,32.4613 C30.9273,32.4613 28.7573,34.2703 28.7573,36.4413 C29.1193,38.6123 30.9273,40.4213 32.7373,40.4213" id="Fill-6" fill="#333333"></path>
            <path d="M93.165,69.3691 C93.165,67.5601 91.356,65.3891 89.186,65.3891 L32.737,65.3891 C30.928,65.3891 28.757,67.1981 28.757,69.3691 C28.757,71.1781 30.566,73.3491 32.737,73.3491 L89.186,73.3491 C91.718,73.3491 93.165,71.1781 93.165,69.3691" id="Fill-8" fill="#333333"></path>
            <path d="M32.7373,98.3168 C30.9273,98.3168 28.7573,100.1258 28.7573,102.2968 C28.7573,104.4678 30.5663,106.2768 32.7373,106.2768 L61.3233,106.2768 C63.1323,106.2768 65.3033,104.4678 65.3033,102.2968 C65.3033,100.1258 63.1323,98.3168 61.3233,98.3168 L32.7373,98.3168 Z" id="Fill-10" fill="#333333"></path>
            <path d="M112.3623,104.0385 L98.8963,93.8655 C98.6033,93.5585 98.2623,93.2935 97.8703,93.0975 C97.3303,92.8295 96.7463,92.7095 96.1663,92.7175 C95.5893,92.7105 95.0073,92.8305 94.4693,93.0975 C94.0763,93.2935 93.7353,93.5585 93.4433,93.8655 L79.9773,104.0385 C78.3423,105.2725 78.0183,107.5995 79.2543,109.2335 C80.4883,110.8685 82.8133,111.1915 84.4493,109.9565 L92.4133,103.9405 L92.4133,123.9215 C92.4133,125.9695 94.0733,127.6305 96.1223,127.6305 C96.1383,127.6305 96.1533,127.6255 96.1703,127.6255 C96.1853,127.6255 96.2013,127.6305 96.2163,127.6305 C98.2653,127.6305 99.9253,125.9695 99.9253,123.9215 L99.9253,103.9405 L107.8903,109.9565 C109.5243,111.1915 111.8513,110.8685 113.0863,109.2335 C114.3203,107.5995 113.9963,105.2725 112.3623,104.0385" id="Fill-12" fill="#333333"></path>
        </g>
    </g>
</svg>