<?xml version="1.0" encoding="UTF-8"?>
<svg width="124px" height="151px" viewBox="0 0 124 151" version="1.1" xmlns="http://www.w3.org/2000/svg" xmlns:xlink="http://www.w3.org/1999/xlink">
    <!-- Generator: Sketch 49.3 (51167) - http://www.bohemiancoding.com/sketch -->
    <title>摄像头</title>
    <desc>Created with Sketch.</desc>
    <defs>
        <polygon id="path-1" points="0 0.733 123.825 0.733 123.825 150 0 150"></polygon>
    </defs>
    <g id="摄像头" stroke="none" stroke-width="1" fill="none" fill-rule="evenodd">
        <g id="Page-1">
            <path d="M64.177,16.9669 C63.602,16.3909 62.712,16.0199 61.912,16.0199 C61.372,16.0199 60.374,16.1279 59.752,16.8539 L59.702,16.9119 L59.648,16.9669 C58.993,17.6219 58.701,18.3199 58.701,19.2309 C58.701,20.1419 58.993,20.8409 59.648,21.4949 C60.224,22.0709 61.113,22.4419 61.912,22.4419 C62.452,22.4419 63.45,22.3339 64.073,21.6079 L64.122,21.5499 L64.177,21.4949 C64.752,20.9199 65.123,20.0309 65.123,19.2309 C65.123,18.3199 64.831,17.6219 64.177,16.9669" id="Fill-1" fill="#333333"></path>
            <g id="Group-5" transform="translate(0.000000, 0.267000)">
                <mask id="mask-2" fill="white">
                    <use xlink:href="#path-1"></use>
                </mask>
                <g id="Clip-4"></g>
                <path d="M82.7698,143.2712 L40.9428,143.2712 L37.0948,143.2712 L39.3058,140.1222 L51.8538,122.2432 L52.5478,121.2542 L53.7478,121.4092 C56.5328,121.7692 59.2798,121.9522 61.9128,121.9522 C64.5458,121.9522 67.2938,121.7702 70.0798,121.4122 L71.2838,121.2562 L71.9768,122.2532 L84.4118,140.1292 L86.5978,143.2712 L82.7698,143.2712 Z M6.8818,61.4192 C6.8818,31.6672 31.5688,7.4612 61.9128,7.4612 C92.2558,7.4612 116.9428,31.5982 116.9428,61.2662 C116.9428,91.0182 92.2558,115.2232 61.9128,115.2232 C31.5688,115.2232 6.8818,91.0862 6.8818,61.4192 Z M110.0388,143.2712 L95.9668,143.2712 L94.9268,143.2712 L94.3308,142.4202 L80.0308,122.0452 L78.4638,119.8142 L81.0618,118.9902 C106.6398,110.8732 123.8258,87.7372 123.8258,61.4192 C123.8258,27.9562 96.0508,0.7322 61.9128,0.7322 C27.7738,0.7322 -0.0002,27.8882 -0.0002,61.2662 C-0.0002,87.6312 17.1898,110.8242 42.7748,118.9792 L45.3678,119.8052 L43.8038,122.0332 L29.4948,142.4202 L28.8978,143.2712 L27.8578,143.2712 L13.7868,143.2712 C11.9948,143.2712 10.4218,144.8432 10.4218,146.6362 C10.4218,148.5222 11.8998,150.0002 13.7868,150.0002 L110.0388,150.0002 C111.9248,150.0002 113.4028,148.5222 113.4028,146.6362 C113.4028,144.7492 111.9248,143.2712 110.0388,143.2712 Z" id="Fill-3" fill="#333333" mask="url(#mask-2)"></path>
            </g>
            <path d="M89.4143,61.5328 C89.4143,76.7208 77.1013,89.0338 61.9123,89.0338 C46.7243,89.0338 34.4103,76.7208 34.4103,61.5328 C34.4103,46.3438 46.7243,34.0318 61.9123,34.0318 C77.1013,34.0318 89.4143,46.3438 89.4143,61.5328" id="Fill-6" fill="#FFDA00"></path>
            <path d="M61.9124,85.2965 C48.6404,85.2965 37.8424,74.7055 37.8424,61.6865 C37.8424,48.5825 48.6404,37.9215 61.9124,37.9215 C75.1844,37.9215 85.9824,48.5135 85.9824,61.5325 C85.9824,74.6365 75.1844,85.2965 61.9124,85.2965 M61.9124,31.1935 C44.8454,31.1935 30.9604,44.8035 30.9604,61.5325 C30.9604,78.2615 44.8454,91.8725 61.9124,91.8725 C78.9794,91.8725 92.8644,78.2615 92.8644,61.5325 C92.8644,44.8035 78.9794,31.1935 61.9124,31.1935" id="Fill-8" fill="#333333"></path>
        </g>
    </g>
</svg>