<?xml version="1.0" encoding="UTF-8"?>
<svg width="173px" height="174px" viewBox="0 0 173 174" version="1.1" xmlns="http://www.w3.org/2000/svg" xmlns:xlink="http://www.w3.org/1999/xlink">
    <!-- Generator: Sketch 49.3 (51167) - http://www.bohemiancoding.com/sketch -->
    <title>shijain</title>
    <desc>Created with Sketch.</desc>
    <defs>
        <polygon id="path-1" points="0 0.5321 172.4678 0.5321 172.4678 173 0 173"></polygon>
    </defs>
    <g id="shijain" stroke="none" stroke-width="1" fill="none" fill-rule="evenodd">
        <g id="Page-1">
            <path d="M81.3589,99.8445 L114.6379,120.3425 C115.5859,120.8895 116.5789,121.1715 117.5719,121.1715 C119.5539,121.1715 121.3499,120.0295 122.5009,118.0365 C123.2959,116.6595 123.4059,115.0005 122.8129,113.3655 C122.2319,111.7665 121.0339,110.3505 119.5229,109.4805 L88.8689,90.3725 L88.8689,43.6175 C88.8689,40.1605 86.0559,37.3475 82.5989,37.3475 C79.1419,37.3475 76.3299,40.1605 76.3299,43.6175 L76.3299,94.5035 C76.3299,95.6245 77.2019,97.4615 81.3589,99.8445" id="Fill-1" fill="#FFFFFF"></path>
            <g id="Group-5" transform="translate(0.000000, 0.468000)">
                <mask id="mask-2" fill="white">
                    <use xlink:href="#path-1"></use>
                </mask>
                <g id="Clip-4"></g>
                <path d="M138.3198,138.8521 C124.3848,152.7871 105.8868,160.4601 86.2338,160.4601 C45.5988,160.4601 12.5388,127.4021 12.5388,86.7661 C12.5388,46.1311 45.5988,13.0711 86.2338,13.0711 C126.8698,13.0711 159.9278,46.1311 159.9278,86.7661 C159.9278,106.4191 152.2548,124.9171 138.3198,138.8521 M86.2338,0.5321 C38.6848,0.5321 -0.0002,39.2171 -0.0002,86.7661 C-0.0002,134.3161 38.6848,173.0001 86.2338,173.0001 C133.7838,173.0001 172.4678,134.3161 172.4678,86.7661 C172.4668,39.2171 133.7828,0.5321 86.2338,0.5321" id="Fill-3" fill="#FFFFFF" mask="url(#mask-2)"></path>
            </g>
        </g>
    </g>
</svg>