<?xml version="1.0" encoding="UTF-8"?>
<svg width="155px" height="148px" viewBox="0 0 155 148" version="1.1" xmlns="http://www.w3.org/2000/svg" xmlns:xlink="http://www.w3.org/1999/xlink">
    <!-- Generator: Sketch 49.3 (51167) - http://www.bohemiancoding.com/sketch -->
    <title>shijian</title>
    <desc>Created with Sketch.</desc>
    <defs>
        <polygon id="path-1" points="0.0006 0.354 154.444 0.354 154.444 147 0.0006 147"></polygon>
    </defs>
    <g id="shijian" stroke="none" stroke-width="1" fill="none" fill-rule="evenodd">
        <g id="Page-1">
            <g id="Group-3" transform="translate(0.000000, 0.646000)">
                <mask id="mask-2" fill="white">
                    <use xlink:href="#path-1"></use>
                </mask>
                <g id="Clip-2"></g>
                <path d="M116.6566,13.0273 C119.9936,9.8203 124.3396,8.0613 128.9576,8.0613 C138.7606,8.0613 146.7366,16.0373 146.7366,25.8403 C146.7366,31.4973 144.1846,36.6273 139.7136,40.0073 C134.4996,29.2433 126.5456,19.9343 116.6566,13.0273 M139.1066,70.6163 C139.1066,105.1093 111.0456,133.1723 76.5526,133.1723 C42.0586,133.1723 13.9976,105.1093 13.9976,70.6163 C13.9976,36.1233 42.0586,8.0613 76.5526,8.0613 C111.0456,8.0613 139.1066,36.1233 139.1066,70.6163 M13.7556,39.1343 C9.9576,35.7883 7.7926,30.9793 7.7926,25.8403 C7.7926,16.0373 15.7676,8.0613 25.5716,8.0613 C29.9286,8.0613 34.0536,9.6143 37.2586,12.4473 C27.3176,19.1783 19.2106,28.3833 13.7556,39.1343 M146.8146,70.7003 C146.8146,62.5883 145.4686,54.7053 142.8126,47.2623 C150.1046,42.5783 154.4446,34.6003 154.4446,25.8403 C154.4446,11.7873 143.0106,0.3533 128.9576,0.3533 C121.6976,0.3533 114.8036,3.4493 109.9786,8.8603 C99.6506,3.2943 88.1016,0.3533 76.5526,0.3533 C65.2186,0.3533 53.9856,3.1223 44.0416,8.3643 C39.2296,3.1953 32.6566,0.3533 25.4876,0.3533 C11.4336,0.3533 0.0006,11.7873 0.0006,25.8403 C0.0006,34.0593 3.8086,41.5603 10.4656,46.4823 C7.6376,54.1743 6.2056,62.3213 6.2056,70.7003 C6.2056,92.2133 15.8666,112.1943 32.7346,125.6073 L19.8196,140.6483 C18.4866,142.2653 18.6626,144.6833 20.2406,146.0623 C21.0586,146.6753 21.9166,147.0003 22.7196,147.0003 C23.7986,147.0003 24.8516,146.5103 25.6166,145.6503 L38.9176,130.0513 C50.0846,137.1363 63.0296,140.8803 76.3846,140.8803 C89.6526,140.8803 102.5976,137.1363 113.8476,130.0503 L126.9916,145.5753 C128.3486,147.1013 130.6976,147.3723 132.4616,146.0483 C133.2456,145.4023 133.7436,144.4393 133.8286,143.4043 C133.9116,142.3853 133.5876,141.3773 132.9456,140.6443 L120.2816,125.6103 C137.1516,112.1973 146.8146,92.2143 146.8146,70.7003" id="Fill-1" fill="#333333" mask="url(#mask-2)"></path>
            </g>
            <path d="M123.348,70.5932 C123.348,96.0682 102.697,116.7192 77.222,116.7192 C51.747,116.7192 31.097,96.0682 31.097,70.5932 C31.097,45.1182 51.747,24.4682 77.222,24.4682 C102.697,24.4682 123.348,45.1182 123.348,70.5932" id="Fill-4" fill="#FFDA00"></path>
            <path d="M112.2327,74.4087 L77.8507,74.4087 L77.8507,37.5127 C77.8507,35.3877 76.1227,33.6577 73.9977,33.6577 C71.8727,33.6577 70.1427,35.3877 70.1427,37.5127 L70.1427,78.2627 C70.1427,80.3877 71.8727,82.1167 73.9977,82.1167 L112.2327,82.1167 C114.3577,82.1167 116.0867,80.3877 116.0867,78.2627 C116.0867,76.1007 114.3937,74.4087 112.2327,74.4087" id="Fill-6" fill="#333333"></path>
        </g>
    </g>
</svg>