<?xml version="1.0" encoding="UTF-8"?>
<svg width="39px" height="43px" viewBox="0 0 39 43" version="1.1" xmlns="http://www.w3.org/2000/svg" xmlns:xlink="http://www.w3.org/1999/xlink">
    <!-- Generator: Sketch 49.3 (51167) - http://www.bohemiancoding.com/sketch -->
    <title>书</title>
    <desc>Created with Sketch.</desc>
    <defs>
        <polygon id="path-1" points="3.61904762e-05 0.170287288 37.8353333 0.170287288 37.8353333 42.6355932 3.61904762e-05 42.6355932"></polygon>
        <linearGradient x1="50%" y1="0%" x2="50%" y2="100%" id="linearGradient-3">
            <stop stop-color="#626262" offset="0%"></stop>
            <stop stop-color="#333333" offset="100%"></stop>
        </linearGradient>
        <linearGradient x1="50%" y1="0%" x2="50%" y2="100%" id="linearGradient-4">
            <stop stop-color="#FFEF00" offset="0%"></stop>
            <stop stop-color="#FFDA00" offset="100%"></stop>
        </linearGradient>
    </defs>
    <g id="申请成为老师" stroke="none" stroke-width="1" fill="none" fill-rule="evenodd">
        <g id="01_申请成为tutor" transform="translate(-839.000000, -1854.000000)">
            <g id="福利" transform="translate(362.000000, 1745.000000)">
                <g id="Group-19-Copy-2" transform="translate(404.400000, 80.000000)">
                    <g id="038" transform="translate(73.000000, 29.000000)">
                        <g id="Page-1">
                            <g id="Group-3" transform="translate(0.000000, 0.194229)">
                                <mask id="mask-2" fill="white">
                                    <use xlink:href="#path-1"></use>
                                </mask>
                                <g id="Clip-2"></g>
                                <path d="M4.4167219,39.844711 C3.49277905,39.844711 2.74942667,39.0958551 2.74942667,38.165889 L2.74942667,8.77429576 C3.27020762,8.98966017 3.84020762,9.11027881 4.43916,9.11027881 L35.0639029,9.11027881 L35.0639029,39.844711 L4.4167219,39.844711 Z M4.43916,2.93868559 L30.7373314,2.93868559 L30.7373314,6.29632966 L4.43916,6.29632966 C3.51557905,6.29632966 2.77186476,5.54783814 2.77186476,4.61750763 C2.77186476,3.68717712 3.51557905,2.93868559 4.43916,2.93868559 Z M37.8353695,7.68071102 C37.8353695,6.90926186 37.2270076,6.29632966 36.4608552,6.29632966 L33.48636,6.29632966 L33.48636,1.78388051 C33.4983029,1.70881271 33.5087981,1.63338051 33.5087981,1.55430424 C33.5087981,0.783219492 32.9004362,0.170287288 32.1342838,0.170287288 L4.43916,0.170287288 C1.98291238,0.170287288 3.61904762e-05,2.16687203 3.61904762e-05,4.64046525 L3.61904762e-05,38.165889 C3.61904762e-05,40.6391178 1.98291238,42.6357025 4.43916,42.6357025 L36.4380552,42.6357025 C37.2045695,42.6357025 37.8129314,42.0231347 37.8129314,41.2513212 L37.8129314,7.87129576 C37.822341,7.80825339 37.83356,7.74630424 37.8353695,7.68071102 Z" id="Fill-1" fill="url(#linearGradient-3)" mask="url(#mask-2)"></path>
                            </g>
                            <path d="M27.5595543,15.5898686 L9.64490667,15.5898686 C8.87875429,15.5898686 8.27003048,16.2024364 8.27003048,16.9738856 C8.27003048,17.7227415 8.87875429,18.3579025 9.64490667,18.3579025 L27.5595543,18.3579025 C28.3257067,18.3579025 28.9344305,17.7453347 28.9344305,16.9738856 C28.9344305,16.2024364 28.3257067,15.5898686 27.5595543,15.5898686" id="Fill-4" fill="url(#linearGradient-4)"></path>
                            <path d="M19.5375733,21.8976042 L9.64490667,21.8976042 C8.87875429,21.8976042 8.27003048,22.5105364 8.27003048,23.2816212 C8.27003048,24.0308415 8.87875429,24.6660025 9.64490667,24.6660025 L19.5375733,24.6660025 C20.3037257,24.6660025 20.9345257,24.0530703 20.9120876,23.2816212 C20.9120876,22.5105364 20.3037257,21.8976042 19.5375733,21.8976042" id="Fill-6" fill="url(#linearGradient-4)"></path>
                        </g>
                    </g>
                </g>
            </g>
        </g>
    </g>
</svg>