<?xml version="1.0" encoding="UTF-8"?>
<svg width="127px" height="143px" viewBox="0 0 127 143" version="1.1" xmlns="http://www.w3.org/2000/svg" xmlns:xlink="http://www.w3.org/1999/xlink">
    <!-- Generator: Sketch 49.3 (51167) - http://www.bohemiancoding.com/sketch -->
    <title>sousuo</title>
    <desc>Created with Sketch.</desc>
    <defs></defs>
    <g id="sousuo" stroke="none" stroke-width="1" fill="none" fill-rule="evenodd">
        <g id="Page-1" fill="#ADADAD">
            <path d="M57.127,123.79 C28.831,123.79 5.812,100.768 5.812,72.468 C5.812,44.172 28.831,21.151 57.127,21.151 C85.423,21.151 108.442,44.172 108.442,72.468 C108.442,100.768 85.423,123.79 57.127,123.79 M125.687,137.177 L101.372,112.249 L99.728,110.562 L101.226,108.744 C109.626,98.549 114.253,85.665 114.253,72.468 C114.253,40.967 88.626,15.34 57.127,15.34 C25.627,15.34 0,40.967 0,72.468 C0,103.972 25.627,129.602 57.127,129.602 C70.495,129.602 83.509,124.863 93.771,116.259 L95.638,114.693 L97.339,116.437 L121.527,141.234 C122.069,141.792 122.824,142.111 123.599,142.111 C124.369,142.111 125.089,141.818 125.635,141.286 C126.782,140.167 126.806,138.324 125.687,137.177" id="Fill-1"></path>
            <path d="M104.1846,16.1318 C104.8916,16.1318 105.5986,15.8608 106.1376,15.3218 L111.5136,9.9458 C112.5926,8.8678 112.5926,7.1178 111.5136,6.0388 C110.4346,4.9598 108.6856,4.9598 107.6066,6.0388 L102.2316,11.4148 C101.1516,12.4928 101.1516,14.2428 102.2316,15.3218 C102.7706,15.8608 103.4776,16.1318 104.1846,16.1318" id="Fill-3"></path>
            <path d="M90.7275,10.7412 C91.0815,10.8912 91.4495,10.9632 91.8105,10.9632 C92.8835,10.9632 93.9055,10.3342 94.3535,9.2832 L96.6705,3.8472 C97.2695,2.4442 96.6165,0.8202 95.2135,0.2222 C93.8075,-0.3748 92.1865,0.2762 91.5875,1.6792 L89.2705,7.1152 C88.6715,8.5192 89.3255,10.1432 90.7275,10.7412" id="Fill-5"></path>
            <path d="M108.6299,26.705 C108.9869,27.904 110.0869,28.679 111.2759,28.679 C111.5369,28.679 111.8039,28.641 112.0679,28.561 L117.9169,26.813 C119.3799,26.376 120.2109,24.837 119.7739,23.375 C119.3359,21.913 117.7969,21.081 116.3349,21.518 L110.4849,23.267 C109.0239,23.704 108.1929,25.244 108.6299,26.705" id="Fill-7"></path>
        </g>
    </g>
</svg>