<?xml version="1.0" encoding="UTF-8"?>
<svg width="53px" height="50px" viewBox="0 0 53 50" version="1.1" xmlns="http://www.w3.org/2000/svg" xmlns:xlink="http://www.w3.org/1999/xlink">
    <!-- Generator: Sketch 49.3 (51167) - http://www.bohemiancoding.com/sketch -->
    <title>天平</title>
    <desc>Created with Sketch.</desc>
    <defs>
        <polygon id="path-1" points="0.000277486911 0.177094972 52.7430471 0.177094972 52.7430471 49.7206704 0.000277486911 49.7206704"></polygon>
    </defs>
    <g id="申请成为老师" stroke="none" stroke-width="1" fill="none" fill-rule="evenodd">
        <g id="01_申请成为tutor" transform="translate(-719.000000, -1449.000000)">
            <g id="申请资格" transform="translate(555.000000, 1123.000000)">
                <g id="Group-17-Copy-3" transform="translate(0.000000, 326.000000)">
                    <g id="043" transform="translate(164.000000, 0.000000)">
                        <g id="Page-1">
                            <path d="M10.5736387,6.60022346 C9.6565445,6.60022346 8.91315707,7.34854749 8.91315707,8.27145251 C8.91315707,9.1949162 9.6565445,9.94324022 10.5736387,9.94324022 C11.490733,9.94324022 12.2338429,9.1949162 12.2338429,8.27145251 C12.2338429,7.34854749 11.490733,6.60022346 10.5736387,6.60022346" id="Fill-1" fill="#FFDA00"></path>
                            <path d="M42.1898037,6.60022346 C41.2727094,6.60022346 40.5295995,7.34854749 40.5295995,8.27145251 C40.5295995,9.1949162 41.2727094,9.94324022 42.1898037,9.94324022 C43.1068979,9.94324022 43.8500079,9.1949162 43.8500079,8.27145251 C43.8500079,7.34854749 43.1068979,6.60022346 42.1898037,6.60022346" id="Fill-3" fill="#FFDA00"></path>
                            <path d="M26.3714126,4.23030726 C24.1542921,4.23030726 22.3567319,6.03980447 22.3567319,8.27164804 C22.3567319,10.5037709 24.1542921,12.3132682 26.3714126,12.3132682 C28.5888105,12.3132682 30.3863707,10.5037709 30.3863707,8.27164804 C30.3863707,6.03980447 28.5888105,4.23030726 26.3714126,4.23030726" id="Fill-5" fill="#FFDA00"></path>
                            <g id="Group-9" transform="translate(0.000000, 0.102235)">
                                <mask id="mask-2" fill="white">
                                    <use xlink:href="#path-1"></use>
                                </mask>
                                <g id="Clip-8"></g>
                                <path d="M33.3969372,34.7149162 L33.3897225,34.6383799 L33.4660314,34.6383799 L51.1827382,34.6383799 L51.2590471,34.6383799 L51.2518325,34.7149162 C50.8034136,39.3534637 46.9657696,42.8515084 42.3242461,42.8515084 C37.6827225,42.8515084 33.844801,39.3534637 33.3969372,34.7149162 Z M33.6974555,33.0850279 L42.1719058,11.9696648 L42.2357277,11.8104469 L42.3003822,11.9693855 L50.8930419,33.0847486 L50.9321675,33.1811173 L50.8286649,33.1811173 L33.7618325,33.1811173 L33.6588848,33.1811173 L33.6974555,33.0850279 Z M42.6777644,7.14648045 C42.8500838,7.22636872 42.9988168,7.35793296 43.1014869,7.51826816 C43.3057173,7.83698324 43.3176492,8.18363128 43.2002723,8.47385475 C43.0446021,8.85960894 42.6458534,9.08977654 42.2321204,9.08782123 L42.1014241,9.08726257 C41.9673979,9.08670391 41.8322618,9.05793296 41.7165497,8.98949721 C41.4024346,8.80374302 41.1970942,8.46156425 41.1970942,8.09201117 C41.1970942,7.38083799 41.9468639,6.80765363 42.6777644,7.14648045 Z M26.3720785,11.7995531 C24.3411518,11.7995531 22.6889948,10.1364246 22.6889948,8.09201117 C22.6889948,6.04787709 24.3411518,4.3847486 26.3720785,4.3847486 C28.4027277,4.3847486 30.0548848,6.04787709 30.0548848,8.09201117 C30.0548848,10.1364246 28.4027277,11.7995531 26.3720785,11.7995531 Z M10.5078743,9.13810056 C9.94457592,9.13810056 9.46896335,8.65905028 9.46896335,8.09201117 C9.46896335,7.5252514 9.94457592,7.04620112 10.5078743,7.04620112 C10.9854293,7.04620112 11.4510524,7.5101676 11.5456754,8.08055866 C11.5467853,8.65905028 11.0708953,9.13810056 10.5078743,9.13810056 Z M19.0444817,32.9962011 L19.0833298,33.0920112 L18.9803822,33.0920112 L1.98541885,33.0920112 L1.8824712,33.0920112 L1.92131937,32.9962011 L10.4434974,11.9693855 L10.5078743,11.8104469 L10.5719738,11.9693855 L19.0444817,32.9962011 Z M19.3544346,34.6383799 L19.3469424,34.7149162 C18.8990785,39.3534637 15.0611571,42.8515084 10.4196335,42.8515084 C5.77810995,42.8515084 1.94046597,39.3534637 1.49204712,34.7149162 L1.48483246,34.6383799 L1.56114136,34.6383799 L19.2778482,34.6383799 L19.3544346,34.6383799 Z M52.7430471,33.8210615 C52.7430471,33.702905 43.3342984,10.4495531 43.3342984,10.4495531 L43.3087696,10.3867039 L43.3700942,10.3593296 C44.2716492,9.95821229 44.8102513,9.11156425 44.8108063,8.09368715 C44.8113613,7.0772067 44.1773037,6.12050279 43.2327382,5.71324022 C42.9053037,5.57189944 42.5700995,5.50039106 42.2360052,5.50039106 C41.1790576,5.50039106 40.2061885,6.24648045 39.8707068,7.31463687 L39.8551675,7.36351955 L31.4606335,7.38921788 L31.4509215,7.31715084 C31.1487382,5.06379888 29.3819791,3.24955307 27.1545916,2.90513966 L27.0957644,2.89620112 L27.0957644,2.83614525 L27.0957644,0.940614525 C27.0957644,0.549832402 26.8107853,0.216312849 26.4467225,0.180837989 C26.4214712,0.178324022 26.3964974,0.176927374 26.3720785,0.176927374 C26.1742304,0.176927374 25.9927539,0.255977654 25.8609476,0.398715084 C25.7238691,0.547597765 25.6481152,0.759050279 25.6481152,0.99452514 L25.6481152,2.83586592 L25.6481152,2.89592179 L25.5890105,2.90486034 C23.3310995,3.25178771 21.560733,5.06519553 21.283801,7.31547486 L21.274644,7.3875419 L12.9694607,7.36351955 L12.9159058,7.36351955 L12.9023089,7.31184358 C12.6073403,6.21128492 11.6672147,5.50039106 10.5078743,5.50039106 C9.08797382,5.50039106 7.9330733,6.66296089 7.9330733,8.09201117 C7.9330733,9.08139665 8.49859162,9.95094972 9.40930366,10.3607263 L9.47062827,10.3883799 L9.44537696,10.4509497 C6.21098953,18.3914525 0.0746439791,33.4967598 0.000277486911,33.8313966 C0.000832460733,39.652905 4.71422513,44.3973184 10.5078743,44.3973184 C15.8181414,44.3973184 20.235733,40.3889385 20.7834921,35.0732961 C20.8104084,34.8137989 20.8661832,34.5568156 20.9202932,34.307933 C20.9399948,34.2160335 20.9602513,34.1238547 20.9788429,34.0313966 C21.0079791,33.8875419 20.9913298,33.731676 20.9313927,33.5805587 L11.5553874,10.4143575 L11.5315236,10.355419 L11.5878534,10.3258101 C12.1636387,10.0272067 12.6209372,9.49564246 12.8426492,8.86743017 L12.8587435,8.82078212 L12.9078586,8.82078212 L21.295178,8.79284916 L21.306,8.86463687 C21.6403717,11.0735754 23.4015812,12.8523464 25.589288,13.1903352 L25.6481152,13.1995531 L25.6481152,13.2593296 L25.6481152,48.1048603 L25.6481152,48.1746927 L25.5787435,48.1746927 L18.3515969,48.1746927 C18.0019634,48.1746927 17.627911,48.3660335 17.627911,48.9031844 C17.627911,49.4082123 18.0491361,49.7207821 18.4398377,49.7207821 L34.0737277,49.7207821 C34.4727539,49.7207821 34.8268272,49.457933 34.916178,49.0956425 C34.9727853,48.8657542 34.9256126,48.6313966 34.7868691,48.4531844 C34.6492356,48.2760894 34.4411204,48.1746927 34.215801,48.1746927 L27.1651361,48.1746927 L27.0957644,48.1746927 L27.0957644,48.1048603 L27.0957644,13.2590503 L27.0957644,13.1995531 L27.1545916,13.1900559 C29.351733,12.8501117 31.069377,11.1110056 31.428445,8.86268156 L31.4400995,8.79061453 L39.8579424,8.82078212 L39.8737592,8.86910615 C40.0771571,9.49564246 40.5314031,10.026648 41.1193979,10.3258101 L41.1765602,10.3548603 L41.1524188,10.4143575 L31.8219215,33.4688268 C31.7594869,33.5867039 31.7292408,33.7026257 31.7292408,33.8210615 C31.7292408,39.652905 36.442911,44.3973184 42.2360052,44.3973184 C48.0296545,44.3973184 52.7430471,39.652905 52.7430471,33.8210615 Z" id="Fill-7" fill="#333333" mask="url(#mask-2)"></path>
                            </g>
                        </g>
                    </g>
                </g>
            </g>
        </g>
    </g>
</svg>