<?xml version="1.0" encoding="UTF-8"?>
<svg width="149px" height="149px" viewBox="0 0 149 149" version="1.1" xmlns="http://www.w3.org/2000/svg" xmlns:xlink="http://www.w3.org/1999/xlink">
    <!-- Generator: Sketch 49.3 (51167) - http://www.bohemiancoding.com/sketch -->
    <title>tiezhi</title>
    <desc>Created with Sketch.</desc>
    <defs>
        <polygon id="path-1" points="0 0 148.408552 0 148.408552 148.308865 0 148.308865"></polygon>
    </defs>
    <g id="tiezhi" stroke="none" stroke-width="1" fill="none" fill-rule="evenodd">
        <g id="Page-1" transform="translate(74.500000, 74.500000) scale(-1, 1) translate(-74.500000, -74.500000) ">
            <mask id="mask-2" fill="white">
                <use xlink:href="#path-1"></use>
            </mask>
            <g id="Clip-2"></g>
            <path d="M146.8694,49.2521 L139.8184,48.7831 C138.9984,48.7251 138.3144,48.0611 138.2754,47.2401 L137.6704,38.0611 C137.6114,37.2401 136.9474,36.5571 136.1274,36.5181 L126.9474,35.9121 C126.1274,35.8541 125.4434,35.1891 125.4044,34.3691 L124.7994,25.1701 C124.7404,24.3501 124.0764,23.6661 123.2564,23.6271 L114.0574,23.0221 C113.2364,22.9631 112.5534,22.2991 112.5144,21.4791 L111.9084,12.2791 C111.8494,11.4591 111.1854,10.7751 110.3654,10.7361 L101.1664,10.1311 C100.3464,10.0721 99.6624,9.4081 99.6234,8.5881 L99.1544,1.5571 C99.0574,0.1501 97.3574,-0.5139 96.3814,0.4631 L0.4634,96.2641 C-0.5136,97.2401 0.1504,98.9591 1.5574,99.0371 L8.5884,99.5061 C9.4084,99.5651 10.0924,100.2291 10.1314,101.0491 L10.7364,110.2291 C10.7954,111.0491 11.4594,111.7321 12.2794,111.7721 L21.4594,112.3771 C22.2794,112.4361 22.9634,113.1001 23.0024,113.9201 L23.6074,123.1191 C23.6664,123.9401 24.3304,124.6231 25.1504,124.6621 L34.3494,125.2681 C35.1704,125.3261 35.8534,125.9901 35.8924,126.8111 L36.4984,136.0101 C36.5564,136.8301 37.2214,137.5141 38.0414,137.5531 L47.2404,138.1581 C48.0604,138.2171 48.7444,138.8811 48.7834,139.7011 L49.2524,146.7521 C49.3494,148.1581 51.0494,148.8221 52.0254,147.8461 L147.9044,51.9671 C148.9394,51.0681 148.2754,49.3501 146.8694,49.2521" id="Fill-1" fill="#000000" mask="url(#mask-2)"></path>
        </g>
    </g>
</svg>