<?xml version="1.0" encoding="UTF-8"?>
<svg width="32px" height="32px" viewBox="0 0 32 32" version="1.1" xmlns="http://www.w3.org/2000/svg" xmlns:xlink="http://www.w3.org/1999/xlink">
    <!-- Generator: Sketch 49.3 (51167) - http://www.bohemiancoding.com/sketch -->
    <title>tiezhi</title>
    <desc>Created with Sketch.</desc>
    <defs>
        <polygon id="path-1" points="0 0 31.8729776 0 31.8729776 31.8515683 0 31.8515683"></polygon>
    </defs>
    <g id="个人中心-学生" stroke="none" stroke-width="1" fill="none" fill-rule="evenodd" opacity="0.1">
        <g id="01_学习工具" transform="translate(-1510.000000, -286.000000)">
            <g id="私人订制" transform="translate(1371.000000, 286.000000)">
                <g id="105" transform="translate(139.000000, 0.000000)">
                    <g id="Page-1" transform="translate(16.000000, 16.000000) scale(-1, 1) translate(-16.000000, -16.000000) ">
                        <mask id="mask-2" fill="white">
                            <use xlink:href="#path-1"></use>
                        </mask>
                        <g id="Clip-2"></g>
                        <path d="M31.5424215,10.5776322 L30.0281128,10.4769074 C29.8520054,10.464451 29.705106,10.321847 29.6967302,10.1455248 L29.5667973,8.17419597 C29.5541262,7.99787383 29.4115221,7.85118926 29.2354148,7.84281342 L27.2638711,7.71266577 C27.0877638,7.7002094 26.9408644,7.5573906 26.9324886,7.38128322 L26.8025557,5.40565906 C26.7898846,5.22955168 26.6472805,5.08265235 26.4711732,5.07427651 L24.495549,4.94434362 C24.3192268,4.93167248 24.1725423,4.78906846 24.1641664,4.61296107 L24.0340188,2.63712215 C24.0213477,2.46101477 23.8787436,2.31411544 23.7026362,2.3057396 L21.7270121,2.17580671 C21.5509047,2.16313557 21.4040054,2.02053154 21.3956295,1.84442416 L21.2949047,0.334410738 C21.2740725,0.0322362416 20.9089718,-0.110367785 20.6993611,0.0994577181 L0.0995221477,20.6741691 C-0.110303356,20.8837799 0.0323006711,21.2529611 0.334475168,21.2697128 L1.84448859,21.3704376 C2.02059597,21.3831087 2.1674953,21.5257128 2.17587114,21.7018201 L2.30580403,23.6733638 C2.31847517,23.8494711 2.46107919,23.9961557 2.63718658,24.0047463 L4.6087302,24.1346792 C4.78483758,24.1473503 4.93173691,24.2899544 4.94011275,24.4660617 L5.07004564,26.4416859 C5.08271678,26.6180081 5.22532081,26.7646926 5.40142819,26.7730685 L7.37705235,26.9032161 C7.5533745,26.9156725 7.70005906,27.0582765 7.7084349,27.2345987 L7.83858255,29.2102228 C7.85103893,29.3863302 7.99385772,29.5332295 8.1699651,29.5416054 L10.1455893,29.6715383 C10.3216966,29.6842094 10.468596,29.8268134 10.4769718,30.0029208 L10.5776966,31.5172295 C10.5985289,31.8191893 10.9636295,31.9617933 11.1732403,31.7521826 L31.7647034,11.1607195 C31.9869852,10.9676456 31.8443812,10.5986792 31.5424215,10.5776322" id="Fill-1" fill="#000000" mask="url(#mask-2)"></path>
                    </g>
                </g>
            </g>
        </g>
    </g>
</svg>