<?xml version="1.0" encoding="UTF-8"?>
<svg width="175px" height="176px" viewBox="0 0 175 176" version="1.1" xmlns="http://www.w3.org/2000/svg" xmlns:xlink="http://www.w3.org/1999/xlink">
    <!-- Generator: Sketch 49.3 (51167) - http://www.bohemiancoding.com/sketch -->
    <title>tishi</title>
    <desc>Created with Sketch.</desc>
    <defs>
        <polygon id="path-1" points="0 0.332 174.687 0.332 174.687 175 0 175"></polygon>
    </defs>
    <g id="tishi" stroke="none" stroke-width="1" fill="none" fill-rule="evenodd">
        <g id="Page-1">
            <g id="Group-3" transform="translate(0.000000, 0.668000)">
                <mask id="mask-2" fill="white">
                    <use xlink:href="#path-1"></use>
                </mask>
                <g id="Clip-2"></g>
                <path d="M87.3438,163.34 C45.5278,163.34 11.6408,129.453 11.6408,87.656 C11.6408,45.86 45.5468,11.973 87.3438,11.973 C129.1408,11.973 163.0278,45.86 163.0278,87.656 C163.0278,129.453 129.1408,163.34 87.3438,163.34 M87.3438,0.332 C39.1018,0.332 -0.0002,39.434 -0.0002,87.676 C-0.0002,135.899 39.1018,175 87.3438,175 C135.5668,175 174.6678,135.899 174.6878,87.676 C174.6878,39.434 135.5858,0.332 87.3438,0.332" id="Fill-1" fill="#8E8E8E" mask="url(#mask-2)"></path>
            </g>
            <path d="M87.3438,120.6779 C84.1298,120.6779 81.5238,123.2829 81.5238,126.4979 L81.5238,136.0109 C81.5238,139.2249 84.1298,141.8309 87.3438,141.8309 C90.5578,141.8309 93.1638,139.2249 93.1638,136.0109 L93.1638,126.4979 C93.1638,123.2829 90.5578,120.6779 87.3438,120.6779" id="Fill-4" fill="#8E8E8E"></path>
            <path d="M87.5225,30.84 C84.2265,30.74 81.5235,33.383 81.5235,36.657 L81.5235,106.714 C81.5235,109.929 84.1295,112.534 87.3435,112.534 C90.5575,112.534 93.1645,109.929 93.1645,106.714 L93.1645,36.902 C93.1645,33.715 90.7085,30.936 87.5225,30.84" id="Fill-6" fill="#8E8E8E"></path>
        </g>
    </g>
</svg>