<?xml version="1.0" encoding="UTF-8"?>
<svg width="45px" height="34px" viewBox="0 0 45 34" version="1.1" xmlns="http://www.w3.org/2000/svg" xmlns:xlink="http://www.w3.org/1999/xlink">
    <!-- Generator: Sketch 49.3 (51167) - http://www.bohemiancoding.com/sketch -->
    <title>Group 15</title>
    <desc>Created with Sketch.</desc>
    <defs>
        <linearGradient x1="50%" y1="0%" x2="50%" y2="100%" id="linearGradient-1">
            <stop stop-color="#FFEE27" offset="0%"></stop>
            <stop stop-color="#FFD811" offset="100%"></stop>
        </linearGradient>
        <linearGradient x1="50%" y1="0%" x2="50%" y2="100%" id="linearGradient-2">
            <stop stop-color="#626262" offset="0%"></stop>
            <stop stop-color="#333333" offset="100%"></stop>
        </linearGradient>
    </defs>
    <g id="个人中心-学生" stroke="none" stroke-width="1" fill="none" fill-rule="evenodd">
        <g id="01_学习工具" transform="translate(-1060.000000, -451.000000)">
            <g id="日历" transform="translate(581.000000, 163.000000)">
                <g id="Group-2" transform="translate(0.000000, 28.000000)">
                    <g id="Group-5-Copy-2" transform="translate(0.000000, 260.000000)">
                        <g id="Group-4-Copy-4" transform="translate(425.000000, 0.000000)">
                            <g id="今天" transform="translate(54.000000, -13.000000)">
                                <g id="Group-15">
                                    <polygon id="Rectangle-12" fill="url(#linearGradient-1)" transform="translate(27.119394, 23.341559) rotate(-53.000000) translate(-27.119394, -23.341559) " points="19.4203012 -4.15836994 35.4203012 17.8211369 35.1552709 38.4229004 18.8184862 50.8414883"></polygon>
                                    <path d="M23.2839114,24.3531017 L21.5339114,24.3531017 L21.5339114,29.9131017 L19.7839114,29.9131017 L19.7839114,24.3531017 L18.0339114,24.3531017 L18.0339114,22.7931017 L23.2839114,22.7931017 L23.2839114,24.3531017 Z M27.4939114,27.2231017 C27.4939114,28.2831017 27.3539114,28.7931017 26.9039114,29.2831017 C26.5839114,29.6231017 26.0439114,29.9731017 25.1739114,29.9731017 C24.3039114,29.9731017 23.7639114,29.6231017 23.4439114,29.2831017 C22.9939114,28.7931017 22.8539114,28.2831017 22.8539114,27.2231017 C22.8539114,26.1731017 22.9939114,25.6531017 23.4439114,25.1631017 C23.7639114,24.8231017 24.3039114,24.4731017 25.1739114,24.4731017 C26.0439114,24.4731017 26.5839114,24.8231017 26.9039114,25.1631017 C27.3539114,25.6531017 27.4939114,26.1731017 27.4939114,27.2231017 Z M25.8539114,27.2231017 C25.8539114,26.6931017 25.8239114,26.3131017 25.6139114,26.1031017 C25.5139114,26.0031017 25.3739114,25.9531017 25.1739114,25.9531017 C24.9739114,25.9531017 24.8339114,26.0031017 24.7339114,26.1031017 C24.5239114,26.3131017 24.4939114,26.6931017 24.4939114,27.2231017 C24.4939114,27.7531017 24.5239114,28.1331017 24.7339114,28.3431017 C24.8339114,28.4431017 24.9739114,28.4931017 25.1739114,28.4931017 C25.3739114,28.4931017 25.5139114,28.4431017 25.6139114,28.3431017 C25.8239114,28.1331017 25.8539114,27.7531017 25.8539114,27.2231017 Z M32.4939114,29.9131017 L30.9039114,29.9131017 L30.9039114,29.4731017 C30.5739114,29.8031017 30.2239114,29.9731017 29.6639114,29.9731017 C29.1439114,29.9731017 28.6639114,29.7931017 28.3539114,29.4831017 C27.8239114,28.9531017 27.8539114,28.0131017 27.8539114,27.2231017 C27.8539114,26.4331017 27.8239114,25.4931017 28.3539114,24.9631017 C28.6639114,24.6531017 29.1339114,24.4731017 29.6539114,24.4731017 C30.1839114,24.4731017 30.5539114,24.6231017 30.8539114,24.9231017 L30.8539114,22.7931017 L32.4939114,22.7931017 L32.4939114,29.9131017 Z M30.8539114,27.2231017 C30.8539114,26.4431017 30.7839114,25.9531017 30.1739114,25.9531017 C29.5639114,25.9531017 29.4939114,26.4431017 29.4939114,27.2231017 C29.4939114,28.0031017 29.5639114,28.4931017 30.1739114,28.4931017 C30.7839114,28.4931017 30.8539114,28.0031017 30.8539114,27.2231017 Z M37.4439114,29.9131017 L35.8439114,29.9131017 L35.8439114,29.4731017 C35.5139114,29.8031017 35.2139114,29.9631017 34.6439114,29.9631017 C34.1039114,29.9631017 33.6539114,29.7831017 33.3539114,29.4831017 C33.0439114,29.1731017 32.8839114,28.7231017 32.8839114,28.2231017 C32.8839114,27.4131017 33.4339114,26.6631017 34.7139114,26.6631017 L35.8039114,26.6631017 L35.8039114,26.5231017 C35.8039114,26.0331017 35.5639114,25.8531017 34.9939114,25.8531017 C34.5739114,25.8531017 34.3939114,25.9531017 34.1339114,26.2131017 L33.1139114,25.1931017 C33.6639114,24.6431017 34.1639114,24.4731017 35.0739114,24.4731017 C36.6139114,24.4731017 37.4439114,25.1131017 37.4439114,26.4231017 L37.4439114,29.9131017 Z M35.8039114,27.8931017 L35.8039114,27.7531017 L34.9739114,27.7531017 C34.6539114,27.7531017 34.4539114,27.9331017 34.4539114,28.1831017 C34.4539114,28.4231017 34.6339114,28.6331017 34.9939114,28.6331017 C35.3139114,28.6331017 35.4639114,28.6031017 35.6439114,28.4331017 C35.7639114,28.3231017 35.8039114,28.1531017 35.8039114,27.8931017 Z M42.6939114,24.5331017 L40.4639114,30.5531017 C40.3539114,30.8631017 40.2139114,31.0931017 40.0439114,31.2631017 C39.7239114,31.6031017 39.3139114,31.7131017 38.8339114,31.7131017 L38.2139114,31.7131017 L38.2139114,30.2331017 L38.5639114,30.2331017 C38.8539114,30.2331017 39.0039114,30.1631017 39.1139114,29.8331017 L39.2639114,29.3831017 L37.4739114,24.5331017 L39.1939114,24.5331017 L40.1039114,27.3231017 L40.9739114,24.5331017 L42.6939114,24.5331017 Z" id="Today" fill="url(#linearGradient-2)" transform="translate(30.363911, 27.253102) rotate(36.000000) translate(-30.363911, -27.253102) "></path>
                                </g>
                            </g>
                        </g>
                    </g>
                </g>
            </g>
        </g>
    </g>
</svg>