<?xml version="1.0" encoding="UTF-8"?>
<svg width="133px" height="107px" viewBox="0 0 133 107" version="1.1" xmlns="http://www.w3.org/2000/svg" xmlns:xlink="http://www.w3.org/1999/xlink">
    <!-- Generator: Sketch 49.3 (51167) - http://www.bohemiancoding.com/sketch -->
    <title>wechat</title>
    <desc>Created with Sketch.</desc>
    <defs>
        <polygon id="path-1" points="0.0004 0 132.4404 0 132.4404 106.6153 0.0004 106.6153"></polygon>
    </defs>
    <g id="wechat" stroke="none" stroke-width="1" fill="none" fill-rule="evenodd">
        <g id="Page-1">
            <mask id="mask-2" fill="white">
                <use xlink:href="#path-1"></use>
            </mask>
            <g id="Clip-2"></g>
            <path d="M97.3614,63.3423 C97.3614,66.1023 99.5984,68.3393 102.3584,68.3393 C105.1184,68.3393 107.3554,66.1023 107.3554,63.3423 C107.3554,60.5823 105.1184,58.3453 102.3584,58.3453 C99.5984,58.3453 97.3614,60.5823 97.3614,63.3423 M74.9744,63.3423 C74.9744,66.1023 77.2124,68.3393 79.9714,68.3393 C82.7314,68.3393 84.9684,66.1023 84.9684,63.3423 C84.9684,60.5823 82.7314,58.3453 79.9714,58.3453 C77.2124,58.3453 74.9744,60.5823 74.9744,63.3423 M57.7854,35.1583 C57.7854,38.4703 60.4694,41.1553 63.7814,41.1553 C67.0934,41.1553 69.7784,38.4703 69.7784,35.1583 C69.7784,31.8473 67.0934,29.1623 63.7814,29.1623 C60.4694,29.1623 57.7854,31.8473 57.7854,35.1583 M26.0044,34.5593 C26.0044,37.8703 28.6884,40.5553 32.0014,40.5553 C35.3124,40.5553 37.9974,37.8703 37.9974,34.5593 C37.9974,31.2473 35.3124,28.5633 32.0014,28.5633 C28.6884,28.5633 26.0044,31.2473 26.0044,34.5593 M114.3714,85.4883 C113.0514,86.5283 112.3724,88.1473 112.5324,89.8063 L113.1724,96.6213 L96.7824,92.8043 C96.1224,92.6043 95.4424,92.5243 94.7624,92.5243 C73.9954,92.1043 63.0024,83.4493 63.0024,67.5393 C63.0024,53.7673 76.6144,42.5543 93.3434,42.5543 C110.0744,42.5543 123.6454,53.7673 123.6454,67.5393 C123.6454,74.3553 120.3474,80.7313 114.3714,85.4883 M45.8924,74.2953 L45.1524,74.3153 L20.4074,83.3103 L22.6864,70.6973 C23.0864,68.4793 22.2464,66.2203 20.5274,64.8013 C12.9924,58.6053 8.8354,50.3503 8.8354,41.5743 C8.8354,23.5263 26.5644,8.8153 48.3714,8.8153 C66.9794,8.8153 82.8304,19.4083 86.9084,34.2593 C79.0324,35.3783 71.7574,38.5363 65.9404,43.4533 C58.3844,49.8503 54.2074,58.4243 54.2074,67.5793 C54.2074,69.7183 54.3674,71.7963 54.6874,73.7763 C51.8884,74.0553 48.9504,74.2553 45.8924,74.2953 M132.4404,67.5393 C132.4404,58.3853 128.2834,49.8103 120.7074,43.4133 C113.9514,37.6963 105.1974,34.3593 95.8224,33.8393 C93.7634,24.4043 87.9264,15.8303 79.3324,9.6543 C70.6774,3.4173 59.6644,-0.0007 48.3314,-0.0007 C35.5584,-0.0007 23.5254,4.2373 14.4314,11.9123 C5.1364,19.7873 0.0004,30.3013 0.0004,41.5343 C0.0004,47.3313 1.3594,52.9473 4.0574,58.2253 C6.3964,62.8213 9.6544,66.9803 13.7314,70.5573 L10.4144,89.0063 C10.1334,90.6053 10.7144,92.2443 11.9534,93.2833 C12.7724,93.9843 13.8324,94.3433 14.8714,94.3433 C15.3904,94.3433 15.9104,94.2633 16.4104,94.0633 L46.7324,83.0503 C50.4104,82.9703 53.9274,82.7103 57.2464,82.2503 C58.8654,85.6883 61.0844,88.7273 63.9024,91.2843 C70.8784,97.6413 81.1724,100.9993 94.5234,101.2793 C94.6034,101.2793 94.6634,101.2793 94.7234,101.2993 L116.9104,106.4953 C117.2504,106.5753 117.5904,106.6153 117.9294,106.6153 C119.0084,106.6153 120.0684,106.2363 120.9074,105.4963 C122.0074,104.5363 122.5664,103.1173 122.4464,101.6793 L121.4474,90.9853 C128.4634,84.7483 132.4404,76.2943 132.4404,67.5393" id="Fill-1" fill="#FFFFFF" mask="url(#mask-2)"></path>
        </g>
    </g>
</svg>