<?xml version="1.0" encoding="UTF-8"?>
<svg width="175px" height="175px" viewBox="0 0 175 175" version="1.1" xmlns="http://www.w3.org/2000/svg" xmlns:xlink="http://www.w3.org/1999/xlink">
    <!-- Generator: Sketch 49.3 (51167) - http://www.bohemiancoding.com/sketch -->
    <title>wenebn</title>
    <desc>Created with Sketch.</desc>
    <defs>
        <polygon id="path-1" points="0 0 175 0 175 174.9999 0 174.9999"></polygon>
    </defs>
    <g id="wenebn" stroke="none" stroke-width="1" fill="none" fill-rule="evenodd">
        <g id="Page-1">
            <mask id="mask-2" fill="white">
                <use xlink:href="#path-1"></use>
            </mask>
            <g id="Clip-2"></g>
            <path d="M12.5,140.5879 L12.5,34.4129 C12.5,23.4379 23.438,12.4999 34.413,12.4999 L140.588,12.4999 C151.562,12.4999 162.5,23.4379 162.5,34.4129 L162.5,124.3129 L118.125,124.3129 L118.125,162.4999 L34.413,162.4999 C23.438,162.4999 12.5,151.5629 12.5,140.5879 M140.588,-0.0001 L34.413,-0.0001 C16.125,-0.0001 0,16.1249 0,34.4129 L0,140.5879 C0,158.8749 16.125,174.9999 34.413,174.9999 L130.063,174.9999 L175,130.0629 L175,34.4129 C175,16.1249 158.875,-0.0001 140.588,-0.0001 M120.675,99.9999 L41.05,99.9999 C37.388,99.9999 34.413,97.4119 34.413,93.7499 C34.413,90.0879 37.388,87.4999 41.05,87.4999 L120.675,87.4999 C124.35,87.4999 127.313,90.0879 127.313,93.7499 C127.313,97.4119 124.35,99.9999 120.675,99.9999 M133.95,74.9999 L41.05,74.9999 C37.388,74.9999 34.413,72.4129 34.413,68.7499 C34.413,65.0879 37.388,62.4999 41.05,62.4999 L133.95,62.4999 C137.625,62.4999 140.588,65.0879 140.588,68.7499 C140.588,72.4129 137.625,74.9999 133.95,74.9999" id="Fill-1" fill="#FFFFFF" mask="url(#mask-2)"></path>
        </g>
    </g>
</svg>