<?xml version="1.0" encoding="UTF-8"?>
<svg width="161px" height="120px" viewBox="0 0 161 120" version="1.1" xmlns="http://www.w3.org/2000/svg" xmlns:xlink="http://www.w3.org/1999/xlink">
    <!-- Generator: Sketch 49.3 (51167) - http://www.bohemiancoding.com/sketch -->
    <title>wenjianjia</title>
    <desc>Created with Sketch.</desc>
    <defs>
        <polygon id="path-1" points="0.0006 0.684 137.9026 0.684 137.9026 118.9997 0.0006 118.9997"></polygon>
        <polygon id="path-3" points="0.738309713 0.398109713 12.115 0.398109713 12.115 7.674 0.738309713 7.674"></polygon>
    </defs>
    <g id="wenjianjia" stroke="none" stroke-width="1" fill="none" fill-rule="evenodd">
        <g id="Page-1">
            <g id="Group-3" transform="translate(0.000000, 0.316000)">
                <mask id="mask-2" fill="white">
                    <use xlink:href="#path-1"></use>
                </mask>
                <g id="Clip-2"></g>
                <path d="M8.8186,6.4787 L50.8626,6.4787 L71.6786,26.1647 C72.7506,27.1887 74.2316,27.6647 76.3456,27.6647 L129.0846,27.6647 C130.7546,27.6647 132.1076,29.0177 132.1076,30.6877 L132.1076,110.1817 C132.1076,111.8517 130.7546,113.2057 129.0846,113.2057 L8.8186,113.2057 C7.1486,113.2057 5.7956,111.8517 5.7956,110.1817 L5.7956,9.5017 C5.7956,7.8327 7.1486,6.4787 8.8186,6.4787 M6.0946,118.9997 L133.7056,118.9997 C136.6046,118.9997 137.9026,116.5907 137.9026,114.2047 L137.9026,26.8047 C137.9026,24.2187 136.4316,21.4687 133.7056,21.4687 L76.3456,21.4687 L76.0296,21.4687 L75.7986,21.2527 L54.6736,1.4667 C53.9166,0.7377 52.9136,0.6837 51.4686,0.6837 L6.0946,0.6837 C0.9266,0.6837 0.0006,1.6667 0.0006,4.8607 L0.0006,114.2047 C0.0006,116.7877 3.3516,118.9997 6.0946,118.9997" id="Fill-1" fill="#ADADAD" mask="url(#mask-2)"></path>
            </g>
            <path d="M72.4104,59.1307 C73.9164,54.5727 76.9224,51.9557 80.6544,51.9557 C81.0794,51.9557 81.5144,51.9907 81.9494,52.0617 C85.2534,52.5937 88.5974,55.3427 88.5974,59.5667 C88.5974,63.7997 83.7494,72.5507 70.0854,83.2787 L69.5914,83.6667 L69.0974,83.2787 C55.4314,72.5497 50.5834,63.7997 50.5834,59.5667 C50.5834,55.3417 53.9284,52.5937 57.2324,52.0617 C57.7424,51.9847 58.1424,51.9507 58.5384,51.9507 C62.2764,51.9507 65.2854,54.5687 66.7934,59.1357 C67.1874,60.3507 68.3104,61.1647 69.5914,61.1647 C70.8664,61.1647 71.9994,60.3477 72.4104,59.1307 M58.4744,46.0547 C57.7504,46.0547 57.0284,46.1117 56.3284,46.2257 C49.5954,47.3037 44.7094,52.9137 44.7094,59.5667 C44.7094,72.9227 66.9334,89.0547 67.8794,89.7347 C68.3854,90.1037 68.9984,90.3047 69.6104,90.3047 C70.2374,90.3047 70.8484,90.1057 71.3294,89.7447 C73.7084,87.9997 94.5134,72.3727 94.5134,59.5667 C94.5134,52.9337 89.6264,47.3227 82.8924,46.2257 C82.1934,46.1117 81.4714,46.0547 80.7454,46.0547 C78.3684,46.0547 73.8414,46.6927 70.2214,50.9697 L69.6124,51.6897 L69.0014,50.9707 C65.3614,46.6937 60.8444,46.0557 58.4744,46.0547" id="Fill-4" fill="#ADADAD"></path>
            <path d="M144.4094,17.4432 C143.7024,17.4432 142.9954,17.1732 142.4564,16.6342 C141.3774,15.5552 141.3774,13.8052 142.4564,12.7272 L147.8314,7.3512 C148.9114,6.2722 150.6594,6.2722 151.7384,7.3512 C152.8174,8.4302 152.8174,10.1802 151.7384,11.2582 L146.3634,16.6342 C145.8234,17.1732 145.1164,17.4432 144.4094,17.4432" id="Fill-6" fill="#ADADAD"></path>
            <path d="M132.0354,12.2752 C131.6744,12.2752 131.3064,12.2042 130.9534,12.0532 C129.5504,11.4552 128.8964,9.8322 129.4954,8.4272 L131.8124,2.9922 C132.4114,1.5872 134.0334,0.9362 135.4384,1.5342 C136.8414,2.1322 137.4944,3.7552 136.8954,5.1602 L134.5784,10.5952 C134.1314,11.6452 133.1094,12.2752 132.0354,12.2752" id="Fill-8" fill="#ADADAD"></path>
            <g id="Group-12" transform="translate(148.000000, 22.316000)">
                <mask id="mask-4" fill="white">
                    <use xlink:href="#path-3"></use>
                </mask>
                <g id="Clip-11"></g>
                <path d="M3.5012,7.674 C2.3122,7.674 1.2132,6.901 0.8552,5.701 C0.4172,4.239 1.2482,2.7 2.7112,2.263 L8.5612,0.515 C10.0222,0.077 11.5612,0.908 11.9982,2.371 C12.4362,3.833 11.6052,5.372 10.1432,5.81 L4.2922,7.558 C4.0282,7.637 3.7622,7.674 3.5012,7.674" id="Fill-10" fill="#ADADAD" mask="url(#mask-4)"></path>
            </g>
        </g>
    </g>
</svg>