<?xml version="1.0" encoding="UTF-8"?>
<svg width="99px" height="104px" viewBox="0 0 99 104" version="1.1" xmlns="http://www.w3.org/2000/svg" xmlns:xlink="http://www.w3.org/1999/xlink">
    <!-- Generator: Sketch 49.3 (51167) - http://www.bohemiancoding.com/sketch -->
    <title>wodeshoucang</title>
    <desc>Created with Sketch.</desc>
    <defs>
        <polygon id="path-1" points="0 0.879 98.6304 0.879 98.6304 103 0 103"></polygon>
    </defs>
    <g id="wodeshoucang" stroke="none" stroke-width="1" fill="none" fill-rule="evenodd">
        <g id="Page-1">
            <g id="Group-3" transform="translate(0.000000, 0.121000)">
                <mask id="mask-2" fill="white">
                    <use xlink:href="#path-1"></use>
                </mask>
                <g id="Clip-2"></g>
                <path d="M83.3054,0.879 L15.3264,0.879 C6.8624,0.879 -0.0006,7.74 -0.0006,16.205 L-0.0006,94.124 C-0.0006,99.202 4.1604,103 8.8574,103 C9.8814,103 10.9314,102.819 11.9694,102.432 L48.4294,88.445 C48.7154,88.339 49.0154,88.285 49.3154,88.285 C49.6164,88.285 49.9154,88.339 50.2014,88.445 L86.6614,102.432 C87.6994,102.819 88.7494,103 89.7744,103 C94.4704,103 98.6304,99.203 98.6304,94.124 L98.6304,16.205 C98.6304,7.74 91.7694,0.879 83.3054,0.879 M83.3054,6.879 C88.4474,6.879 92.6304,11.063 92.6304,16.205 L92.6304,94.124 C92.6304,95.9 91.1484,97 89.7744,97 C89.4374,97 89.0964,96.937 88.7604,96.811 L52.3004,82.824 C51.3424,82.467 50.3384,82.285 49.3154,82.285 C48.2924,82.285 47.2884,82.467 46.3304,82.824 L9.8704,96.811 C9.5344,96.937 9.1944,97 8.8574,97 C7.4834,97 5.9994,95.9 5.9994,94.124 L5.9994,16.205 C5.9994,11.063 10.1834,6.879 15.3264,6.879 L83.3054,6.879" id="Fill-1" fill="#333333" mask="url(#mask-2)"></path>
            </g>
            <path d="M52.7702,25.4219 L57.4102,34.8229 L67.7842,36.3299 C70.9482,36.7899 72.2102,40.6779 69.9212,42.9089 L62.4152,50.2269 L64.1872,60.5599 C64.7272,63.7109 61.4202,66.1129 58.5902,64.6259 L49.3112,59.7469 L40.0322,64.6259 C37.2022,66.1129 33.8952,63.7109 34.4352,60.5599 L36.2082,50.2269 L28.7012,42.9089 C26.4112,40.6779 27.6742,36.7899 30.8382,36.3299 L41.2122,34.8229 L45.8522,25.4219 C47.2672,22.5549 51.3552,22.5549 52.7702,25.4219" id="Fill-4" fill="#FFD811"></path>
            <path d="M49.3151,21.3701 C47.8131,21.3701 46.3111,22.1521 45.5391,23.7181 L40.4711,33.9831 L29.1421,35.6301 C25.6881,36.1321 24.3081,40.3781 26.8081,42.8141 L35.0061,50.8061 L33.0711,62.0891 C32.6041,64.8111 34.7671,67.0221 37.2211,67.0221 C37.8691,67.0221 38.5381,66.8681 39.1821,66.5291 L49.3151,61.2021 L59.4491,66.5291 C60.0931,66.8681 60.7611,67.0221 61.4101,67.0221 C63.8641,67.0221 66.0271,64.8111 65.5601,62.0891 L63.6251,50.8061 L71.8231,42.8141 C74.3231,40.3781 72.9431,36.1321 69.4881,35.6301 L58.1591,33.9831 L53.0921,23.7181 C52.3201,22.1521 50.8181,21.3701 49.3151,21.3701 M49.3151,29.6221 L52.7791,36.6401 L54.1741,39.4681 L57.2961,39.9221 L65.0411,41.0471 L59.4371,46.5091 L57.1781,48.7111 L57.7111,51.8191 L59.0341,59.5331 L52.1071,55.8911 L49.3151,54.4231 L46.5231,55.8911 L39.5961,59.5331 L40.9191,51.8191 L41.4531,48.7111 L39.1941,46.5091 L33.5901,41.0471 L41.3351,39.9221 L44.4561,39.4681 L45.8521,36.6401 L49.3151,29.6221" id="Fill-6" fill="#333333"></path>
        </g>
    </g>
</svg>