<?xml version="1.0" encoding="UTF-8"?>
<svg width="201px" height="58px" viewBox="0 0 201 58" version="1.1" xmlns="http://www.w3.org/2000/svg" xmlns:xlink="http://www.w3.org/1999/xlink">
    <!-- Generator: Sketch 49.3 (51167) - http://www.bohemiancoding.com/sketch -->
    <title>微信支付</title>
    <desc>Created with Sketch.</desc>
    <defs>
        <polygon id="path-1" points="0.8509 0.5089 20.021 0.5089 20.021 29.5789 0.8509 29.5789"></polygon>
    </defs>
    <g id="微信支付" stroke="none" stroke-width="1" fill="none" fill-rule="evenodd">
        <g id="Page-1">
            <path d="M23.5715,36.1832 C22.5405,36.7072 21.2795,36.3252 20.7145,35.3152 L20.5725,35.0032 L14.6745,22.0562 C14.6095,21.9132 14.5735,21.7582 14.5725,21.6002 C14.5715,21.0042 15.0555,20.5202 15.6525,20.5192 L15.6535,20.5192 C15.8865,20.5182 16.1135,20.5942 16.2995,20.7352 L23.2605,25.6802 C24.1135,26.2402 25.1815,26.3622 26.1385,26.0082 L58.8795,11.4362 C53.0085,4.5202 43.3395,0.0002 32.3905,0.0002 C14.5085,-0.0038 0.0005,12.1032 0.0005,27.0182 C0.0005,35.1412 4.3655,42.4812 11.1965,47.4292 C11.7675,47.8342 12.1055,48.4942 12.1035,49.1952 C12.0985,49.4342 12.0605,49.6712 11.9905,49.9012 L10.5285,55.3472 C10.4375,55.6022 10.3795,55.8692 10.3555,56.1382 C10.3595,56.7322 10.8425,57.2112 11.4365,57.2112 C11.6585,57.2042 11.8755,57.1332 12.0615,57.0102 L19.1565,52.9172 C19.6755,52.6002 20.2695,52.4282 20.8765,52.4192 C21.1995,52.4192 21.5215,52.4682 21.8305,52.5642 C25.2755,53.5502 28.8425,54.0482 32.4255,54.0432 C50.3215,54.0432 64.8305,41.9542 64.8305,27.0392 C64.8125,22.6022 63.5315,18.2632 61.1395,14.5262 L23.8255,36.0712 L23.5895,36.2082 L23.5715,36.1832 Z" id="Fill-1" fill="#00B700"></path>
            <path d="M81.6735,22.9108 C80.3465,26.3188 78.4485,29.4748 76.0615,32.2458 L76.8985,33.6938 C77.8475,32.5748 78.7595,31.4258 79.6315,30.2468 L79.6315,43.7208 L81.0765,43.7208 L81.0765,27.8278 C81.8205,26.4918 82.4905,25.1158 83.0825,23.7058 L81.6735,22.9108 Z M83.2345,15.8188 L81.8815,15.0388 C80.5545,17.8578 78.7245,20.4118 76.4815,22.5758 L77.3465,24.0978 C79.7565,21.6848 81.7465,18.8878 83.2345,15.8188 Z M95.1395,35.9748 L92.7425,38.0338 L92.7425,32.1748 L84.9225,32.1748 L84.9225,34.4598 C85.1575,37.6948 84.3605,39.9778 82.5275,41.3078 L83.3615,42.7568 C85.6035,40.9098 86.6445,38.3468 86.4835,35.0638 L86.4835,33.6198 L91.2975,33.6198 L91.2975,37.1088 C91.2375,38.2918 91.1815,38.6868 90.7565,39.2698 L91.6615,40.8348 C92.4625,40.1918 93.8625,38.9908 95.8635,37.2318 L95.1395,35.9748 Z M84.5625,29.0448 L93.8235,29.0448 L93.8235,27.6008 L84.5625,27.6008 L84.5625,29.0448 Z M94.5435,17.6198 L93.1015,17.6198 L93.1015,23.0308 L90.0935,23.0308 L90.0935,15.3348 L88.6485,15.3348 L88.6485,23.0308 L85.5235,23.0308 L85.5235,17.6198 L84.0785,17.6198 L84.0785,24.4758 L94.5435,24.4758 L94.5435,17.6198 Z M127.2195,18.8808 L128.4455,18.1748 C128.2055,17.6138 127.1765,15.5188 126.8595,14.7948 L125.4185,15.6288 C125.9305,16.5928 126.4145,17.5568 126.8595,18.5168 C126.9225,18.6258 126.9635,18.7458 126.9795,18.8708 L116.8755,18.8708 L116.8755,20.4348 L137.4435,20.4348 L137.4435,18.8808 L127.2195,18.8808 Z M108.3355,29.1018 L109.1895,30.5818 C110.1855,29.1078 111.1825,27.4508 112.1805,25.6098 L112.1805,43.7208 L113.7465,43.7208 L113.7465,22.3708 C114.7395,20.2238 115.5855,18.0128 116.2785,15.7518 L114.8265,14.9148 C113.4495,19.9658 111.2565,24.7578 108.3355,29.1018 Z M120.5585,42.1608 L133.6255,42.1608 L133.6255,35.8488 L120.5585,35.8488 L120.5585,42.1608 Z M118.9945,43.6178 L135.2015,43.6178 L135.2015,34.4348 L118.9945,34.4348 L118.9945,43.6178 Z M118.5595,30.1858 L135.6385,30.1858 L135.6385,28.6218 L118.5595,28.6218 L118.5595,30.1858 Z M118.5595,25.2558 L135.6385,25.2558 L135.6385,23.8118 L118.5595,23.8118 L118.5595,25.2558 Z" id="Fill-3" fill="#394144"></path>
            <path d="M179.8928,14.5582 C178.0038,19.6622 174.9808,24.5632 171.7168,27.8732 L172.3528,29.5222 C172.3528,29.5472 172.3878,29.5822 172.3988,29.6072 C173.8308,28.1432 175.1198,26.5472 176.2478,24.8392 L176.2478,43.6502 L177.7778,43.6502 L177.7778,22.4412 C179.1708,20.0722 180.3638,17.5912 181.3448,15.0242 L179.8928,14.5582 Z M147.4218,28.4742 L162.9618,28.4742 C161.1968,32.0732 158.4098,34.8302 155.0008,37.0022 C151.7758,34.8682 149.1628,31.9282 147.4218,28.4742 Z M165.2188,27.5662 L164.2028,26.8842 L163.8838,26.9482 L155.6368,26.9482 L155.6368,21.2402 L168.1508,21.2402 L168.1508,19.6832 L155.6368,19.6832 L155.6368,14.3322 L154.1118,14.3322 L154.1118,19.6832 L141.6258,19.6832 L141.6258,21.2402 L154.1068,21.2402 L154.1068,26.9482 L145.6308,26.9482 L145.6308,28.4742 C147.4338,32.2192 150.1718,35.4372 153.5808,37.8152 C149.8268,39.9342 145.4018,41.3082 140.8458,42.1562 L141.2898,43.6072 L141.3228,43.6852 C146.1928,42.7102 150.9398,41.1562 154.9798,38.7892 C158.7698,41.1562 163.3538,42.7462 168.6418,43.5582 L168.7018,43.4522 L169.1148,42.0922 C164.2118,41.3582 159.9658,39.9732 156.3998,37.8822 C160.2208,35.3502 163.3108,32.0082 165.2188,27.5662 Z M183.1708,27.9222 C184.9368,30.5502 187.0878,34.1492 188.1368,36.2262 L189.5068,35.3502 C188.4478,33.4042 186.2568,29.9002 184.4778,27.2722 L183.1708,27.9222 Z M102.7158,22.0702 C102.3938,27.2032 101.5518,31.2512 100.1908,34.2162 C99.1478,31.5702 98.3868,28.0012 97.9058,23.5112 C98.0718,23.0162 98.2718,22.5332 98.5068,22.0672 L102.7158,22.0702 Z M100.5008,14.9752 L98.9868,14.9752 C97.9788,19.6842 96.4878,23.6562 94.5118,26.8912 L95.4228,28.4742 L96.0978,27.1242 C96.4168,26.5642 96.6538,26.1222 96.8038,25.8002 C97.2738,30.0492 98.1168,33.4162 99.3288,35.9012 C98.1828,37.8882 96.4498,39.9122 94.1338,41.9722 L95.0058,43.4732 C97.4878,41.1472 99.1718,39.1452 100.0568,37.4692 C101.3808,39.6992 102.9848,41.7492 104.8288,43.5722 L105.7078,42.0462 C103.6558,40.0862 101.8748,37.9132 100.8968,36.0422 C102.6588,32.8372 103.7408,28.1872 104.1428,22.0912 L105.8278,22.0912 L105.8278,20.6252 L98.9868,20.6252 C99.5688,18.8702 100.2688,16.7722 100.5008,14.9752 Z" id="Fill-5" fill="#394144"></path>
            <g id="Group-9" transform="translate(180.000000, 14.211900)">
                <mask id="mask-2" fill="white">
                    <use xlink:href="#path-1"></use>
                </mask>
                <g id="Clip-8"></g>
                <path d="M15.7189,7.4489 L15.7189,0.5089 L14.1909,0.5089 L14.1909,7.4489 L0.8509,7.4489 L0.8509,9.0069 L14.1909,9.0069 L14.1909,27.0399 C14.1909,27.7849 13.9359,27.9789 13.2039,28.0429 C12.6249,28.0709 11.9959,28.2089 10.3409,28.2199 L10.3409,29.5789 C12.5979,29.5789 13.3609,29.5539 14.2259,29.3069 C15.2459,29.0499 15.7229,28.5299 15.7229,27.0049 L15.7229,8.9919 L20.0219,8.9919 L20.0219,7.4489 L15.7189,7.4489 Z" id="Fill-7" fill="#394144" mask="url(#mask-2)"></path>
            </g>
        </g>
    </g>
</svg>