<?xml version="1.0" encoding="UTF-8"?>
<svg width="42px" height="16px" viewBox="0 0 42 16" version="1.1" xmlns="http://www.w3.org/2000/svg" xmlns:xlink="http://www.w3.org/1999/xlink">
    <!-- Generator: Sketch 49.3 (51167) - http://www.bohemiancoding.com/sketch -->
    <title>x</title>
    <desc>Created with Sketch.</desc>
    <defs></defs>
    <g id="申请成为老师" stroke="none" stroke-width="1" fill="none" fill-rule="evenodd">
        <g id="01_申请成为tutor" transform="translate(-1022.000000, -1135.000000)">
            <g id="申请资格" transform="translate(555.000000, 1123.000000)">
                <g id="标题-copy" transform="translate(298.000000, 3.000000)">
                    <g id="049" transform="translate(169.000000, 9.000000)">
                        <g id="Group-10">
                            <g id="Group-7">
                                <path d="M0,0 L16.5,0 C17.3284271,-1.52179594e-16 18,0.671572875 18,1.5 L18,1.5 C18,2.32842712 17.3284271,3 16.5,3 L0,3 L0,0 Z" id="Rectangle-8" fill="#FFD811"></path>
                                <path d="M0,6.5 L13.5,6.5 C14.3284271,6.5 15,7.17157288 15,8 L15,8 C15,8.82842712 14.3284271,9.5 13.5,9.5 L0,9.5 L0,6.5 Z" id="Rectangle-8-Copy" fill="#FCE051"></path>
                                <path d="M0,13 L10.5,13 C11.3284271,13 12,13.6715729 12,14.5 L12,14.5 C12,15.3284271 11.3284271,16 10.5,16 L0,16 L0,13 Z" id="Rectangle-8-Copy-2" fill="#FFEC8D"></path>
                            </g>
                            <g id="Group-8" opacity="0.900000036" transform="translate(25.000000, 4.000000)" fill="#FFD811">
                                <rect id="Rectangle-9" transform="translate(4.500000, 4.000000) rotate(45.000000) translate(-4.500000, -4.000000) " x="3.6" y="0" width="1.8" height="8" rx="0.9"></rect>
                                <rect id="Rectangle-9-Copy" transform="translate(4.500000, 4.000000) scale(-1, 1) rotate(45.000000) translate(-4.500000, -4.000000) " x="3.6" y="0" width="1.8" height="8" rx="0.9"></rect>
                            </g>
                            <g id="Group-8-Copy" opacity="0.5" transform="translate(36.000000, 0.000000)" fill="#FFD811">
                                <rect id="Rectangle-9" transform="translate(3.214286, 3.000000) rotate(45.000000) translate(-3.214286, -3.000000) " x="2.57142857" y="0" width="1.28571429" height="6" rx="0.642857143"></rect>
                                <rect id="Rectangle-9-Copy" transform="translate(3.214286, 3.000000) scale(-1, 1) rotate(45.000000) translate(-3.214286, -3.000000) " x="2.57142857" y="0" width="1.28571429" height="6" rx="0.642857143"></rect>
                            </g>
                        </g>
                    </g>
                </g>
            </g>
        </g>
    </g>
</svg>