<?xml version="1.0" encoding="UTF-8"?>
<svg width="194px" height="193px" viewBox="0 0 194 193" version="1.1" xmlns="http://www.w3.org/2000/svg" xmlns:xlink="http://www.w3.org/1999/xlink">
    <!-- Generator: Sketch 49.3 (51167) - http://www.bohemiancoding.com/sketch -->
    <title>xiaoxi</title>
    <desc>Created with Sketch.</desc>
    <defs>
        <polygon id="path-1" points="0.0004 0.7787 193.123 0.7787 193.123 191.9997 0.0004 191.9997"></polygon>
    </defs>
    <g id="xiaoxi" stroke="none" stroke-width="1" fill="none" fill-rule="evenodd">
        <g id="Page-1">
            <path d="M132.1172,66.7876 L60.2452,66.7876 C57.8492,66.7876 55.9002,68.7366 55.9002,71.1326 C55.9002,73.5286 57.8492,75.4776 60.2452,75.4776 L132.1172,75.4776 C134.5132,75.4776 136.4622,73.5286 136.4622,71.1326 C136.4622,68.7366 134.5132,66.7876 132.1172,66.7876" id="Fill-1" fill="#DBDBDB"></path>
            <path d="M132.1172,112.3647 C134.5132,112.3647 136.4622,110.4157 136.4622,108.0187 C136.4622,105.6237 134.5132,103.6747 132.1172,103.6747 L60.2452,103.6747 C57.8492,103.6747 55.9002,105.6237 55.9002,108.0187 C55.9002,110.4157 57.8492,112.3647 60.2452,112.3647 L132.1172,112.3647 Z" id="Fill-3" fill="#DBDBDB"></path>
            <g id="Group-7" transform="translate(0.000000, 0.222000)">
                <mask id="mask-2" fill="white">
                    <use xlink:href="#path-1"></use>
                </mask>
                <g id="Clip-6"></g>
                <path d="M74.9014,169.3087 L74.6244,169.5857 L74.2144,169.7737 L51.7784,180.0407 L48.7764,181.4147 L48.2684,178.1527 C45.5104,160.4257 41.7224,151.9517 39.3164,150.0797 C20.3444,135.6617 9.4504,113.5907 9.4504,89.5437 C9.4504,68.3197 18.6024,48.2677 35.2194,33.0807 C51.8824,17.8547 74.0054,9.4677 97.5124,9.4677 C121.0194,9.4677 143.1414,17.8547 159.8054,33.0807 C176.4224,48.2677 185.5744,68.3197 185.5744,89.5437 C185.5744,110.6397 176.1774,130.6307 159.1164,145.8367 C142.1834,160.9287 120.0354,169.2407 96.7524,169.2407 L75.8374,169.2407 C75.5904,169.2407 75.0934,169.2407 74.9014,169.3087 Z M76.7964,177.5497 L77.3574,177.5497 L96.3714,177.5497 C149.7204,177.5497 193.1234,137.7297 193.1234,88.7837 C193.1234,65.3247 183.1964,43.2727 165.1724,26.6897 C147.0094,9.9807 122.7114,0.7787 96.7524,0.7787 C70.7474,0.7787 46.3804,9.9977 28.1384,26.7397 C9.9934,43.3927 0.0004,65.5627 0.0004,89.1637 C0.0004,115.4427 12.4144,140.2797 33.2084,155.6007 L33.5284,155.8367 L33.7584,156.1607 C36.3144,159.7377 39.8424,177.3047 41.4224,188.0517 L41.4504,188.2327 L41.4504,188.4147 C41.4504,189.2877 42.7524,191.1337 43.4904,191.5027 L43.8534,191.6847 L44.0834,191.9137 C44.3734,191.9997 45.1894,191.9997 45.7954,191.9997 C46.0404,191.9997 46.5384,191.9997 46.7294,191.9307 L46.9954,191.6647 L47.3864,191.4797 L76.2874,177.7897 L76.7964,177.5497 Z" id="Fill-5" fill="#DBDBDB" mask="url(#mask-2)"></path>
            </g>
        </g>
    </g>
</svg>