<?xml version="1.0" encoding="UTF-8"?>
<svg width="161px" height="162px" viewBox="0 0 161 162" version="1.1" xmlns="http://www.w3.org/2000/svg" xmlns:xlink="http://www.w3.org/1999/xlink">
    <!-- Generator: Sketch 49.3 (51167) - http://www.bohemiancoding.com/sketch -->
    <title>笑脸</title>
    <desc>Created with Sketch.</desc>
    <defs>
        <polygon id="path-1" points="0.000207981133 0.119 160.888 0.119 160.888 161 0.000207981133 161"></polygon>
    </defs>
    <g id="笑脸" stroke="none" stroke-width="1" fill="none" fill-rule="evenodd">
        <g id="Page-1">
            <path d="M155.1247,87.0923 C153.8227,103.8683 146.4437,119.7703 134.3467,131.8673 C122.2527,143.9613 106.2767,151.4173 89.3627,152.8633 C87.5607,152.9943 82.4227,153.9233 83.9777,153.0603 C133.0887,125.7873 132.4927,74.1033 119.4517,45.6473 C107.1877,18.8893 82.1317,9.3973 83.6057,9.3973 L83.6107,9.3973 C103.5517,9.3973 122.7507,17.7973 136.2867,32.4433 C150.0417,47.3253 156.7307,66.7343 155.1247,87.0923" id="Fill-1" fill="#FFDA00"></path>
            <g id="Group-5" transform="translate(0.000000, 0.881000)">
                <mask id="mask-2" fill="white">
                    <use xlink:href="#path-1"></use>
                </mask>
                <g id="Clip-4"></g>
                <path d="M151.8952,86.5311 C150.5932,103.3071 143.2142,119.2091 131.1172,131.3061 C119.0232,143.4001 103.0482,150.8561 86.1332,152.3021 C84.3312,152.4331 82.5252,152.4991 80.7482,152.4991 C60.1212,152.4991 40.4382,143.6111 26.7462,128.1131 C12.8892,112.4291 6.6912,92.2531 9.2922,71.3011 C11.3192,55.8181 18.6032,41.1261 29.8072,29.9221 C41.0112,18.7191 55.7032,11.4341 71.1752,9.4091 C74.2412,9.0291 77.3332,8.8361 80.3762,8.8361 L80.3812,8.8361 C100.3222,8.8361 119.5212,17.2361 133.0572,31.8821 C146.8122,46.7641 153.5012,66.1721 151.8952,86.5311 M87.0552,0.3911 C84.8202,0.2101 82.5582,0.1181 80.3332,0.1181 C57.9472,0.1181 36.4152,9.5441 21.2572,25.9781 C5.8822,42.6461 -1.5688,64.3781 0.2762,87.1701 C3.4352,126.2331 35.0532,157.8551 73.8232,160.7271 C76.0682,160.9081 78.3302,161.0001 80.5542,161.0001 C102.9412,161.0001 124.4732,151.5741 139.6312,135.1411 C155.0052,118.4721 162.4572,96.7401 160.6132,73.9481 C159.0822,55.1561 150.8022,37.3491 137.3002,23.8101 C123.7602,10.2341 105.9162,1.9161 87.0552,0.3911" id="Fill-3" fill="#333333" mask="url(#mask-2)"></path>
            </g>
            <path d="M60.9587,57.8999 C59.3627,56.3029 57.2407,55.4219 54.9837,55.4209 L54.9797,55.4209 C50.3207,55.4209 46.5297,59.2109 46.5267,63.8689 C46.5267,68.5389 50.3187,72.3299 54.9797,72.3299 C59.6397,72.3299 63.4317,68.5389 63.4317,63.8789 C63.4327,61.6199 62.5547,59.4969 60.9587,57.8999" id="Fill-6" fill="#333333"></path>
            <path d="M105.9138,55.4214 L105.9088,55.4214 C101.2518,55.4214 97.4598,59.2114 97.4568,63.8684 C97.4548,68.5394 101.2448,72.3324 105.9048,72.3354 C110.5668,72.3354 114.3588,68.5454 114.3608,63.8874 C114.3618,61.6194 113.4838,59.4974 111.8888,57.9004 C110.2928,56.3024 108.1718,55.4224 105.9138,55.4214" id="Fill-8" fill="#333333"></path>
            <path d="M111.3171,115.9663 C111.6181,114.8353 111.4311,113.6493 110.8081,112.7133 L110.7881,112.6833 L110.7691,112.6533 C104.9541,102.9603 93.0501,96.6973 80.4441,96.6973 C67.8471,96.6973 55.9531,102.9503 50.1321,112.6303 C49.0671,114.5743 49.7521,117.1903 51.6631,118.5013 C52.2581,118.8203 52.9421,118.9883 53.6441,118.9883 C55.1871,118.9883 56.6781,118.1893 57.5371,116.9033 C62.1411,109.5333 70.7131,105.1123 80.4441,105.1123 C90.1481,105.1123 98.9391,109.6503 103.3851,116.9553 C104.2411,118.4513 105.4431,119.1623 107.0801,119.1623 C107.6361,119.1623 108.5291,118.9663 109.1741,118.5363 L109.2531,118.4843 L109.3361,118.4423 C110.3201,117.9503 111.0241,117.0703 111.3171,115.9663" id="Fill-10" fill="#333333"></path>
        </g>
    </g>
</svg>