<?xml version="1.0" encoding="UTF-8"?>
<svg width="139px" height="146px" viewBox="0 0 139 146" version="1.1" xmlns="http://www.w3.org/2000/svg" xmlns:xlink="http://www.w3.org/1999/xlink">
    <!-- Generator: Sketch 49.3 (51167) - http://www.bohemiancoding.com/sketch -->
    <title>xilsio </title>
    <desc>Created with Sketch.</desc>
    <defs>
        <polygon id="path-1" points="0 0.1339 138.930326 0.1339 138.930326 60.9999 0 60.9999"></polygon>
    </defs>
    <g id="xilsio-" stroke="none" stroke-width="1" fill="none" fill-rule="evenodd">
        <g id="Page-1">
            <path d="M98.4713,141.9561 L8.8583,141.9561 C7.9263,141.9561 7.0433,141.4981 6.4353,140.6981 C5.8323,139.9061 5.5673,138.8631 5.7053,137.8361 C7.1873,126.9111 11.5153,116.6911 18.2213,108.2811 C25.6433,99.2831 35.2703,93.1191 46.0693,90.4431 L46.5063,90.3351 L46.8243,90.6921 L47.0873,90.9901 L47.1143,91.0191 L48.8083,90.1801 C54.6333,98.0691 61.2923,103.5461 64.6223,108.1441 L65.6753,109.5971 C66.5993,110.9001 67.9413,111.6201 69.4653,111.6381 C71.1363,111.3551 71.5653,111.8691 72.4453,110.6261 C73.9143,108.4151 81.7973,99.6691 88.1833,90.3571 C88.3333,89.8321 88.7793,89.5291 89.2113,89.5291 L89.2713,89.5291 L89.3303,89.5391 C100.1063,91.3191 117.8753,140.3541 98.4713,141.9561" id="Fill-1" fill="#FFDA00"></path>
            <path d="M92.0064,64.1538 C85.8654,70.2948 77.2774,73.8128 68.4364,73.8128 C59.7354,73.8128 51.3784,70.3958 44.9044,64.1928 C38.7644,58.0518 35.2464,49.4638 35.2464,40.6228 C35.2464,31.9218 38.6624,23.5648 44.8654,17.0908 C51.3694,10.8568 59.7354,7.4318 68.4364,7.4318 C77.1374,7.4318 85.4944,10.8488 91.9674,17.0518 C98.1094,23.1928 101.6264,31.7808 101.6264,40.6228 C101.6264,49.3238 98.2094,57.6808 92.0064,64.1538 M68.4364,0.0008 C46.0374,0.0008 27.8144,18.2228 27.8144,40.6228 C27.8144,63.0218 46.0374,81.2448 68.4364,81.2448 C90.8354,81.2448 109.0584,63.0218 109.0584,40.6228 C109.0584,18.2228 90.8354,0.0008 68.4364,0.0008" id="Fill-3" fill="#333333"></path>
            <g id="Group-7" transform="translate(0.000000, 84.116000)">
                <mask id="mask-2" fill="white">
                    <use xlink:href="#path-1"></use>
                </mask>
                <g id="Clip-6"></g>
                <path d="M47.5826,8.3069 L48.0106,8.2129 L48.2766,8.1549 L48.4706,8.3479 L48.7796,8.6579 L49.0366,8.9139 L49.0526,8.9299 L49.0916,8.9719 C54.7946,15.8149 61.5536,24.0839 64.8016,28.0569 L65.8416,29.3279 C66.6396,30.3259 67.8006,30.8839 69.1176,30.9089 C70.6026,30.6779 71.7936,30.0469 72.5646,29.0819 C73.9786,27.1979 82.1006,16.5339 88.3356,8.4769 C88.5646,7.8999 89.1466,7.5059 89.7826,7.5059 L89.8406,7.5059 L89.8776,7.5059 L89.9136,7.5109 L89.9716,7.5189 C100.5966,9.0739 110.6396,14.4219 118.2516,22.5779 C125.3536,30.1689 129.8956,39.5489 131.3876,49.7029 C131.5396,50.7349 131.2336,51.7809 130.5496,52.5729 C129.8616,53.3689 128.8656,53.8259 127.8146,53.8259 L11.3856,53.8259 C10.3306,53.8259 9.3306,53.3659 8.6426,52.5639 C7.9586,51.7679 7.6576,50.7199 7.8156,49.6879 C9.2756,40.1469 13.5406,31.2239 20.1486,23.8809 C27.4626,16.0249 36.9466,10.6419 47.5826,8.3069 M0.0326,51.8709 C-0.1894,54.0989 0.7336,56.7989 2.2286,58.2939 C3.9486,60.0139 6.2386,60.9999 8.5126,60.9999 L122.1236,60.9999 L130.6756,60.9999 C132.9576,60.9999 135.2406,59.9919 136.6336,58.3679 C138.3256,56.4319 139.1076,54.1879 138.8966,51.8719 C137.6376,39.0249 132.3296,27.1929 123.5476,17.6579 C114.8426,8.4409 103.4146,2.2799 91.3736,0.3139 C90.7606,0.1919 90.1876,0.1339 89.6046,0.1339 C86.8736,0.1339 84.2526,1.4549 82.5926,3.6689 C80.0156,7.0509 77.0436,10.9269 74.3586,14.4269 L74.3036,14.4989 C72.7116,16.5749 71.2236,18.5159 69.9826,20.1389 L69.3706,20.9379 L68.9876,21.4389 L68.5876,20.9529 L67.9476,20.1749 C66.9086,18.9139 65.7416,17.5019 64.5016,16.0029 C61.4126,12.2679 57.9326,8.0599 54.8246,4.2209 C53.0316,2.0709 50.5126,0.8839 47.7336,0.8839 C47.0946,0.8839 46.4436,0.9489 45.8016,1.0769 C20.2826,6.5809 2.3146,26.5199 0.0326,51.8709" id="Fill-5" fill="#333333" mask="url(#mask-2)"></path>
            </g>
        </g>
    </g>
</svg>