<?xml version="1.0" encoding="UTF-8"?>
<svg width="46px" height="43px" viewBox="0 0 46 43" version="1.1" xmlns="http://www.w3.org/2000/svg" xmlns:xlink="http://www.w3.org/1999/xlink">
    <!-- Generator: Sketch 49.3 (51167) - http://www.bohemiancoding.com/sketch -->
    <title>xinzi</title>
    <desc>Created with Sketch.</desc>
    <defs>
        <polygon id="path-1" points="0 0.0914082474 45.8580571 0.0914082474 45.8580571 42.556701 0 42.556701"></polygon>
        <linearGradient x1="50%" y1="0%" x2="50%" y2="100%" id="linearGradient-3">
            <stop stop-color="#626262" offset="0%"></stop>
            <stop stop-color="#333333" offset="100%"></stop>
        </linearGradient>
        <linearGradient x1="50%" y1="0%" x2="50%" y2="100%" id="linearGradient-4">
            <stop stop-color="#FFEF00" offset="0%"></stop>
            <stop stop-color="#FFDA00" offset="100%"></stop>
        </linearGradient>
    </defs>
    <g id="申请成为老师" stroke="none" stroke-width="1" fill="none" fill-rule="evenodd">
        <g id="01_申请成为tutor" transform="translate(-431.000000, -1854.000000)">
            <g id="福利" transform="translate(362.000000, 1745.000000)">
                <g id="Group-19" transform="translate(0.000000, 80.000000)">
                    <g id="041" transform="translate(69.000000, 29.000000)">
                        <g id="Page-1">
                            <g id="Group-3" transform="translate(0.000000, 0.351758)">
                                <mask id="mask-2" fill="white">
                                    <use xlink:href="#path-1"></use>
                                </mask>
                                <g id="Clip-2"></g>
                                <path d="M41.9668952,0.0914082474 L3.8911619,0.0914082474 C1.74230476,0.0914082474 0,1.85440825 0,4.02878969 L0,14.7756866 C0,15.6290371 0.4968,16.4305216 1.28887619,16.7213258 C2.91114286,17.3157897 4.08392381,18.9972227 4.08392381,20.9499546 C4.08392381,22.9022433 2.91114286,24.5841196 1.28887619,25.1785835 C0.4968,25.4689443 0,26.2713155 0,27.1237794 L0,38.6194082 C0,40.7937897 1.74230476,42.5567897 3.8911619,42.5567897 L41.9668952,42.5567897 C44.1157524,42.5567897 45.8580571,40.7937897 45.8580571,38.6194082 L45.8580571,27.1237794 C45.8580571,26.2713155 45.3612571,25.4689443 44.5683048,25.1785835 C42.9469143,24.5841196 41.7741333,22.9022433 41.7741333,20.9499546 C41.7741333,18.9750577 42.9434095,17.3109134 44.5608571,16.7213258 C45.3564381,16.4305216 45.8580571,15.6290371 45.8580571,14.7725835 L45.8580571,4.02878969 C45.8580571,1.85440825 44.1157524,0.0914082474 41.9668952,0.0914082474 M41.9668952,3.3780268 C42.3204381,3.3780268 42.610019,3.67104742 42.610019,4.02878969 L42.610019,14.0189753 C40.1978667,15.2876969 38.5260952,17.9239959 38.5260952,20.9499546 C38.5260952,23.9763567 40.1978667,26.6117691 42.610019,27.880934 L42.610019,38.6194082 C42.610019,38.9775938 42.3204381,39.2701711 41.9668952,39.2701711 L3.8911619,39.2701711 C3.53718095,39.2701711 3.2480381,38.9775938 3.2480381,38.6194082 L3.2480381,27.880934 C5.65975238,26.6117691 7.3319619,23.9763567 7.3319619,20.9499546 C7.3319619,17.9239959 5.69173333,15.2876969 3.28001905,14.0189753 L3.28001905,4.02878969 C3.28001905,3.67104742 3.5696,3.3780268 3.92314286,3.3780268 L41.9668952,3.3780268" id="Fill-1" fill="url(#linearGradient-3)" mask="url(#mask-2)"></path>
                            </g>
                            <path d="M29.8431352,18.1444041 L25.9519733,18.1444041 L30.421859,13.6537856 C30.9361829,13.1657134 30.807821,12.2223732 30.1971162,11.6035278 C29.5855352,10.9855691 28.6532686,10.8556825 28.1385067,11.3756722 L22.9930781,16.5498577 L18.1696495,11.7014969 C17.6873067,11.2129814 16.7865829,11.3109505 16.1758781,11.9289093 C15.5647352,12.5473113 15.4679162,13.458734 15.9506971,13.9463629 L20.1310019,18.1444041 L15.9506971,18.1444041 C15.4552114,18.1444041 15.0499733,18.5544557 15.0499733,19.0558268 L15.0499733,20.3892701 C15.0499733,20.8906412 15.4552114,21.3006928 15.9506971,21.3006928 L21.3208686,21.3006928 L21.3208686,23.676332 L15.9506971,23.676332 C15.4359352,23.676332 15.0499733,24.0992392 15.0499733,24.5873113 L15.0499733,25.8892804 C15.0499733,26.4097134 15.4679162,26.7998165 15.9506971,26.7998165 L21.3208686,26.7998165 L21.3208686,30.6888784 C21.3208686,31.5745897 22.0375924,32.2998268 22.9129067,32.2998268 C23.788659,32.2998268 24.5045067,31.5745897 24.5045067,30.6888784 L24.5045067,26.7998165 L29.8751162,26.7998165 C30.3898781,26.7998165 30.77584,26.3769093 30.77584,25.8892804 L30.77584,24.5873113 C30.77584,24.0664351 30.357459,23.676332 29.8751162,23.676332 L24.5369257,23.676332 L24.5369257,21.3006928 L29.9070971,21.3006928 C30.4025829,21.3006928 30.807821,20.8906412 30.807821,20.3897134 L30.807821,19.0558268 C30.743421,18.5673113 30.357459,18.1444041 29.8431352,18.1444041" id="Fill-4" fill="url(#linearGradient-4)"></path>
                        </g>
                    </g>
                </g>
            </g>
        </g>
    </g>
</svg>