<?xml version="1.0" encoding="UTF-8"?>
<svg width="105px" height="97px" viewBox="0 0 105 97" version="1.1" xmlns="http://www.w3.org/2000/svg" xmlns:xlink="http://www.w3.org/1999/xlink">
    <!-- Generator: Sketch 49.3 (51167) - http://www.bohemiancoding.com/sketch -->
    <title>xinzi</title>
    <desc>Created with Sketch.</desc>
    <defs>
        <polygon id="path-1" points="0 0.2062 104.676 0.2062 104.676 96 0 96"></polygon>
        <linearGradient x1="50%" y1="0%" x2="50%" y2="100%" id="linearGradient-3">
            <stop stop-color="#626262" offset="0%"></stop>
            <stop stop-color="#333333" offset="100%"></stop>
        </linearGradient>
        <linearGradient x1="50%" y1="0%" x2="50%" y2="100%" id="linearGradient-4">
            <stop stop-color="#FFEF00" offset="0%"></stop>
            <stop stop-color="#FFDA00" offset="100%"></stop>
        </linearGradient>
    </defs>
    <g id="xinzi" stroke="none" stroke-width="1" fill="none" fill-rule="evenodd">
        <g id="Page-1">
            <g id="Group-3" transform="translate(0.000000, 0.793500)">
                <mask id="mask-2" fill="white">
                    <use xlink:href="#path-1"></use>
                </mask>
                <g id="Clip-2"></g>
                <path d="M95.794,0.2062 L8.882,0.2062 C3.977,0.2062 0,4.1832 0,9.0882 L0,33.3312 C0,35.2562 1.134,37.0642 2.942,37.7202 C6.645,39.0612 9.322,42.8542 9.322,47.2592 C9.322,51.6632 6.645,55.4572 2.942,56.7982 C1.134,57.4532 0,59.2632 0,61.1862 L0,87.1182 C0,92.0232 3.977,96.0002 8.882,96.0002 L95.794,96.0002 C100.699,96.0002 104.676,92.0232 104.676,87.1182 L104.676,61.1862 C104.676,59.2632 103.542,57.4532 101.732,56.7982 C98.031,55.4572 95.354,51.6632 95.354,47.2592 C95.354,42.8042 98.023,39.0502 101.715,37.7202 C103.531,37.0642 104.676,35.2562 104.676,33.3242 L104.676,9.0882 C104.676,4.1832 100.699,0.2062 95.794,0.2062 M95.794,7.6202 C96.601,7.6202 97.262,8.2812 97.262,9.0882 L97.262,31.6242 C91.756,34.4862 87.94,40.4332 87.94,47.2592 C87.94,54.0862 91.756,60.0312 97.262,62.8942 L97.262,87.1182 C97.262,87.9262 96.601,88.5862 95.794,88.5862 L8.882,88.5862 C8.074,88.5862 7.414,87.9262 7.414,87.1182 L7.414,62.8942 C12.919,60.0312 16.736,54.0862 16.736,47.2592 C16.736,40.4332 12.992,34.4862 7.487,31.6242 L7.487,9.0882 C7.487,8.2812 8.148,7.6202 8.955,7.6202 L95.794,7.6202" id="Fill-1" fill="url(#linearGradient-3)" mask="url(#mask-2)"></path>
            </g>
            <path d="M68.1202,40.9304 L59.2382,40.9304 L69.4412,30.8004 C70.6152,29.6994 70.3222,27.5714 68.9282,26.1754 C67.5322,24.7814 65.4042,24.4884 64.2292,25.6614 L52.4842,37.3334 L41.4742,26.3964 C40.3732,25.2944 38.3172,25.5154 36.9232,26.9094 C35.5282,28.3044 35.3072,30.3604 36.4092,31.4604 L45.9512,40.9304 L36.4092,40.9304 C35.2782,40.9304 34.3532,41.8554 34.3532,42.9864 L34.3532,45.9944 C34.3532,47.1254 35.2782,48.0504 36.4092,48.0504 L48.6672,48.0504 L48.6672,53.4094 L36.4092,53.4094 C35.2342,53.4094 34.3532,54.3634 34.3532,55.4644 L34.3532,58.4014 C34.3532,59.5754 35.3072,60.4554 36.4092,60.4554 L48.6672,60.4554 L48.6672,69.2284 C48.6672,71.2264 50.3032,72.8624 52.3012,72.8624 C54.3002,72.8624 55.9342,71.2264 55.9342,69.2284 L55.9342,60.4554 L68.1932,60.4554 C69.3682,60.4554 70.2492,59.5014 70.2492,58.4014 L70.2492,55.4644 C70.2492,54.2894 69.2942,53.4094 68.1932,53.4094 L56.0082,53.4094 L56.0082,48.0504 L68.2662,48.0504 C69.3972,48.0504 70.3222,47.1254 70.3222,45.9954 L70.3222,42.9864 C70.1752,41.8844 69.2942,40.9304 68.1202,40.9304" id="Fill-4" fill="url(#linearGradient-4)"></path>
        </g>
    </g>
</svg>