<?xml version="1.0" encoding="UTF-8"?>
<svg width="88px" height="102px" viewBox="0 0 88 102" version="1.1" xmlns="http://www.w3.org/2000/svg" xmlns:xlink="http://www.w3.org/1999/xlink">
    <!-- Generator: Sketch 49.3 (51167) - http://www.bohemiancoding.com/sketch -->
    <title>xuexi</title>
    <desc>Created with Sketch.</desc>
    <defs>
        <polygon id="path-1" points="0 0.3514 87.1433 0.3514 87.1433 101 0 101"></polygon>
    </defs>
    <g id="xuexi" stroke="none" stroke-width="1" fill="none" fill-rule="evenodd">
        <g id="Page-1">
            <path d="M49.321,7.1812 L49.321,29.3612 C49.321,29.3612 82.047,29.8052 82.047,29.3612 C82.047,28.9172 49.321,7.1812 49.321,7.1812" id="Fill-1" fill="#FFD811"></path>
            <path d="M65.7321,50.7642 L21.4121,50.7642 C19.6191,50.7642 18.1601,52.2232 18.1601,54.0162 C18.1601,55.8092 19.6191,57.2682 21.4121,57.2682 L65.7321,57.2682 C67.5251,57.2682 68.9841,55.8092 68.9841,54.0162 C68.9841,52.2232 67.5251,50.7642 65.7321,50.7642" id="Fill-3" fill="#333333"></path>
            <path d="M65.7321,71.356 L21.4121,71.356 C19.6191,71.356 18.1601,72.815 18.1601,74.608 C18.1601,76.401 19.6191,77.86 21.4121,77.86 L65.7321,77.86 C67.5251,77.86 68.9841,76.401 68.9841,74.608 C68.9841,72.815 67.5251,71.356 65.7321,71.356" id="Fill-5" fill="#333333"></path>
            <g id="Group-9" transform="translate(0.000000, 0.649000)">
                <mask id="mask-2" fill="white">
                    <use xlink:href="#path-1"></use>
                </mask>
                <g id="Clip-8"></g>
                <path d="M80.6393,32.7754 L80.6393,90.3384 C80.6393,92.6304 78.7753,94.4964 76.4833,94.4964 L10.6603,94.4964 C8.3683,94.4964 6.5033,92.6304 6.5033,90.3384 L6.5033,7.0354 L6.5033,6.8554 L6.6843,6.8554 L45.4733,6.8554 L45.6533,6.8554 L45.6533,7.0354 L45.6533,29.3434 C45.6533,31.1364 47.1123,32.5954 48.9053,32.5954 L80.4593,32.5954 L80.6393,32.5954 L80.6393,32.7754 Z M52.1573,25.9114 L52.1573,9.9704 L52.1573,9.6114 L52.4453,9.8274 L73.7023,25.7674 L74.1343,26.0904 L73.5943,26.0904 L52.3373,26.0904 L52.1573,26.0904 L52.1573,25.9114 Z M85.8423,26.7414 L51.5233,1.0024 C50.9633,0.5824 50.2713,0.3514 49.5723,0.3514 L3.2513,0.3514 C1.4583,0.3514 -0.0007,1.8104 -0.0007,3.6034 L-0.0007,90.7074 C-0.0007,96.3824 4.6173,101.0004 10.2923,101.0004 L76.8503,101.0004 C82.5263,101.0004 87.1433,96.3824 87.1433,90.7074 L87.1433,29.3434 C87.1433,28.3254 86.6573,27.3524 85.8423,26.7414 Z" id="Fill-7" fill="#333333" mask="url(#mask-2)"></path>
            </g>
        </g>
    </g>
</svg>