<?xml version="1.0" encoding="UTF-8"?>
<svg width="147px" height="148px" viewBox="0 0 147 148" version="1.1" xmlns="http://www.w3.org/2000/svg" xmlns:xlink="http://www.w3.org/1999/xlink">
    <!-- Generator: Sketch 49.3 (51167) - http://www.bohemiancoding.com/sketch -->
    <title>xuexigongju </title>
    <desc>Created with Sketch.</desc>
    <defs>
        <polygon id="path-1" points="0 0.4003 146.5996 0.4003 146.5996 147 0 147"></polygon>
    </defs>
    <g id="xuexigongju-" stroke="none" stroke-width="1" fill="none" fill-rule="evenodd">
        <g id="Page-1">
            <path d="M6.457,53.2499 L6.457,96.5499 C10.483,94.2499 15.232,91.9499 20.291,91.9499 L111.656,91.9499 C113.308,91.9499 114.649,90.6499 114.649,89.0499 L114.649,53.2499 L6.457,53.2499 Z" id="Fill-1" fill="#FFDA00"></path>
            <path d="M29.5498,122.6 L117.0498,122.6 C119.5588,122.6 121.5998,120.559 121.5998,118.05 C121.5998,115.541 119.5588,113.5 117.0498,113.5 L29.5498,113.5 C27.0408,113.5 24.9998,115.541 24.9998,118.05 C24.9998,120.559 27.0408,122.6 29.5498,122.6" id="Fill-3" fill="#333333"></path>
            <g id="Group-7" transform="translate(0.000000, 0.600000)">
                <mask id="mask-2" fill="white">
                    <use xlink:href="#path-1"></use>
                </mask>
                <g id="Clip-6"></g>
                <path d="M9.0996,111.5503 C9.0996,103.5273 15.6266,97.0003 23.6496,97.0003 L115.6496,97.0003 C118.8756,97.0003 121.4996,94.3763 121.4996,91.1503 L121.4996,34.3503 L121.4996,33.1503 L121.4996,32.6003 L122.0496,32.6003 L122.7996,32.6003 L122.7996,32.5003 L123.3496,32.5003 L135.5496,32.5003 C136.6616,32.5003 137.5996,33.4393 137.5996,34.5503 L137.5996,135.9503 C137.5996,137.0613 136.6616,138.0003 135.5496,138.0003 L23.6496,138.0003 C15.6266,138.0003 9.0996,131.4733 9.0996,123.4503 L9.0996,111.5503 Z M112.7006,85.9503 C112.7006,87.0433 111.8436,87.9003 110.7496,87.9003 L23.7496,87.9003 C19.4976,87.9003 15.3766,89.0143 11.8306,91.1233 L10.0366,92.2193 L9.2006,92.7313 L9.2006,91.7503 L9.2006,90.9503 L9.2006,90.2003 L9.0996,90.2003 L9.0996,89.6503 L9.0996,23.8503 C9.0996,15.8823 15.5816,9.4003 23.5496,9.4003 L110.6496,9.4003 C111.7606,9.4003 112.7006,10.3393 112.7006,11.4503 L112.7006,85.9503 Z M137.9506,23.4003 L123.2496,23.4003 L122.0496,23.4003 L121.4996,23.4003 L121.4996,22.8503 L121.4996,21.6503 L121.4996,9.0503 L121.4996,7.7933 L121.4996,7.7343 L121.4906,7.6753 C120.8146,3.4593 117.2226,0.4003 112.9506,0.4003 L23.4506,0.4003 C10.5196,0.4003 -0.0004,10.9203 -0.0004,23.8503 L-0.0004,123.5503 C-0.0004,136.4803 10.5196,147.0003 23.4506,147.0003 L137.9506,147.0003 C142.7196,147.0003 146.5996,143.1193 146.5996,138.3503 L146.5996,32.0503 C146.5996,27.2803 142.7196,23.4003 137.9506,23.4003 Z" id="Fill-5" fill="#333333" mask="url(#mask-2)"></path>
            </g>
        </g>
    </g>
</svg>