<?xml version="1.0" encoding="UTF-8"?>
<svg width="23px" height="25px" viewBox="0 0 23 25" version="1.1" xmlns="http://www.w3.org/2000/svg" xmlns:xlink="http://www.w3.org/1999/xlink">
    <!-- Generator: Sketch 49.3 (51167) - http://www.bohemiancoding.com/sketch -->
    <title>协议</title>
    <desc>Created with Sketch.</desc>
    <defs>
        <polygon id="path-1" points="4.49255587e-05 0.10755102 22.9425054 0.10755102 22.9425054 24.829932 4.49255587e-05 24.829932"></polygon>
    </defs>
    <g id="申请成为老师" stroke="none" stroke-width="1" fill="none" fill-rule="evenodd">
        <g id="01_申请成为tutor" transform="translate(-382.000000, -2247.000000)">
            <g id="申请流程" transform="translate(339.000000, 2159.000000)">
                <g id="Group-20-Copy-5" transform="translate(0.000000, 73.000000)">
                    <g id="029" transform="translate(43.000000, 15.000000)">
                        <g id="Page-1">
                            <polygon id="Fill-1" fill="#FFDA00" points="12.2621898 6.69795918 17.4062993 6.69795918 17.4062993 1.04013605 12.2621898 1.04013605"></polygon>
                            <g id="Group-9" transform="translate(0.000000, 0.062585)">
                                <path d="M10.642335,17.0612755 L5.04124745,17.0612755 C4.72176569,17.0612755 4.46205036,17.3294728 4.46205036,17.6592347 C4.4647365,17.982534 4.72646642,18.2517517 5.04527664,18.2571939 L10.6388095,18.2571939 C10.9579555,18.2571939 11.2176708,17.9889966 11.2176708,17.6592347 C11.218846,17.4964796 11.1587438,17.3457993 11.0482766,17.2330442 C10.9398241,17.1223299 10.7957803,17.0612755 10.642335,17.0612755" id="Fill-2" fill="#333333"></path>
                                <path d="M15.4804438,12.1030612 L5.04112993,12.1030612 C4.72198394,12.1030612 4.46210073,12.3712585 4.46210073,12.7010204 C4.46478686,13.0244898 4.72634891,13.2935374 5.04549489,13.2989796 L15.4804438,13.2989796 C15.7997577,13.2989796 16.059473,13.0307823 16.059473,12.7010204 C16.0606482,12.5454082 15.997692,12.3923469 15.8863854,12.2787415 C15.7755825,12.1654762 15.6313708,12.1030612 15.4804438,12.1030612" id="Fill-4" fill="#333333"></path>
                                <g id="Group-8">
                                    <mask id="mask-2" fill="white">
                                        <use xlink:href="#path-1"></use>
                                    </mask>
                                    <g id="Clip-7"></g>
                                    <path d="M21.7845927,20.8123129 C21.7845927,22.3703061 20.5501474,23.6378231 19.032819,23.6378231 L3.91342482,23.6378231 C2.39609635,23.6378231 1.16165109,22.3703061 1.16165109,20.8123129 L1.16165109,4.12506803 C1.16165109,2.56707483 2.39609635,1.29955782 3.91342482,1.29955782 L11.3865781,1.29955782 L11.6384029,1.29955782 L11.6384029,1.55465986 L11.6384029,7.27812925 C11.6384029,7.72727891 11.9738336,7.96945578 12.2892861,7.96945578 C12.4239285,7.96945578 12.558235,7.92608844 12.6776,7.84411565 L13.8245781,7.0592517 C14.0522277,6.90176871 14.3601255,6.81469388 14.6905197,6.81469388 C15.0249431,6.81469388 15.3363664,6.90329932 15.567038,7.06435374 L16.5931401,7.78034014 C16.7249285,7.87251701 16.8612496,7.91911565 16.9982423,7.91911565 C17.3533153,7.91911565 17.6420745,7.59751701 17.6420745,7.20210884 L17.6420745,1.55465986 L17.6420745,1.29955782 L17.8938993,1.29955782 L19.032819,1.29955782 C20.5501474,1.29955782 21.7845927,2.56707483 21.7845927,4.12506803 L21.7845927,20.8123129 Z M12.8001547,5.85397959 L12.8001547,1.61554422 L12.8001547,1.36044218 L13.0519796,1.36044218 L16.2284978,1.36044218 L16.4803226,1.36044218 L16.4803226,1.61554422 L16.4803226,5.78544218 L16.4803226,6.2385034 L16.0978847,6.00363946 C15.7015124,5.75993197 15.2037387,5.6257483 14.6963956,5.6257483 C14.1442277,5.6257483 13.6100234,5.78204082 13.1923299,6.06588435 L12.8001547,6.33221088 L12.8001547,5.85397959 Z M19.032819,0.10755102 L3.91342482,0.10755102 C1.7556219,0.111122449 6.71532847e-05,1.91333333 6.71532847e-05,4.12506803 L6.71532847e-05,20.8123129 C-0.00345839416,21.8686054 0.412556204,22.9038095 1.14184088,23.6531293 C1.88019124,24.4119728 2.86331533,24.83 3.9095635,24.83 L19.0291255,24.83 C21.1865927,24.8228571 22.9424832,23.0204762 22.9424832,20.8123129 L22.9424832,4.12506803 C22.9460088,3.06503401 22.5299942,2.03017007 21.801381,1.2847619 C21.069746,0.536632653 20.0606,0.10755102 19.032819,0.10755102 Z" id="Fill-6" fill="#333333" mask="url(#mask-2)"></path>
                                </g>
                            </g>
                        </g>
                    </g>
                </g>
            </g>
        </g>
    </g>
</svg>