<?xml version="1.0" encoding="UTF-8"?>
<svg width="151px" height="124px" viewBox="0 0 151 124" version="1.1" xmlns="http://www.w3.org/2000/svg" xmlns:xlink="http://www.w3.org/1999/xlink">
    <!-- Generator: Sketch 49.3 (51167) - http://www.bohemiancoding.com/sketch -->
    <title>银行卡</title>
    <desc>Created with Sketch.</desc>
    <defs>
        <polygon id="path-1" points="0.0003 0.878 150.766 0.878 150.766 123 0.0003 123"></polygon>
    </defs>
    <g id="银行卡" stroke="none" stroke-width="1" fill="none" fill-rule="evenodd">
        <g id="Page-1">
            <path d="M6.2046,47.8713 C6.2046,47.8713 7.5476,57.6803 33.4186,57.6803 L145.0656,57.6803 L145.0656,108.5073 C145.0656,108.5073 145.7566,119.2073 128.8136,119.2073 L16.4586,119.2073 C16.4586,119.2073 3.7006,115.5043 4.7366,106.2923 C5.7726,97.0813 6.2046,47.8713 6.2046,47.8713" id="Fill-1" fill="#FFDA00"></path>
            <path d="M61.061,86.9308 L22.87,86.9308 C20.79,86.9308 19.096,88.6228 19.096,90.7038 C19.096,92.7848 20.79,94.4788 22.87,94.4788 L61.061,94.4788 C63.143,94.4788 64.836,92.7848 64.836,90.7038 C64.836,88.6228 63.143,86.9308 61.061,86.9308" id="Fill-3" fill="#333333"></path>
            <path d="M102.4048,67.8351 L22.8698,67.8351 C20.7898,67.8351 19.0958,69.5271 19.0958,71.6081 C19.0958,73.6891 20.7898,75.3831 22.8698,75.3831 L102.4048,75.3831 C104.4868,75.3831 106.1798,73.6891 106.1798,71.6081 C106.1798,69.5271 104.4868,67.8351 102.4048,67.8351" id="Fill-5" fill="#333333"></path>
            <g id="Group-9" transform="translate(0.000000, 0.122000)">
                <mask id="mask-2" fill="white">
                    <use xlink:href="#path-1"></use>
                </mask>
                <g id="Clip-8"></g>
                <path d="M143.2173,29.5217 L7.5493,29.5217 L7.5493,18.9737 C7.5493,13.1577 12.2803,8.4247 18.0963,8.4247 L132.6703,8.4247 C138.4873,8.4247 143.2173,13.1577 143.2173,18.9737 L143.2173,29.5217 Z M143.2173,104.9047 C143.2173,110.7207 138.4873,115.4527 132.6703,115.4527 L18.0963,115.4527 C12.2803,115.4527 7.5473,110.7207 7.5473,104.9047 L7.5473,37.0697 L143.2173,37.0697 L143.2173,104.9047 Z M132.6703,0.8777 L18.0963,0.8777 C8.1173,0.8777 0.0003,8.9967 0.0003,18.9737 L0.0003,104.9047 C0.0003,114.8817 8.1173,123.0007 18.0963,123.0007 L132.6703,123.0007 C142.6493,123.0007 150.7663,114.8817 150.7663,104.9047 L150.7663,18.9737 C150.7663,8.9967 142.6493,0.8777 132.6703,0.8777 Z" id="Fill-7" fill="#333333" mask="url(#mask-2)"></path>
            </g>
        </g>
    </g>
</svg>