<?xml version="1.0" encoding="UTF-8"?>
<svg width="136px" height="153px" viewBox="0 0 136 153" version="1.1" xmlns="http://www.w3.org/2000/svg" xmlns:xlink="http://www.w3.org/1999/xlink">
    <!-- Generator: Sketch 49.3 (51167) - http://www.bohemiancoding.com/sketch -->
    <title>印章</title>
    <desc>Created with Sketch.</desc>
    <defs></defs>
    <g id="印章" stroke="none" stroke-width="1" fill="none" fill-rule="evenodd">
        <g id="Page-1">
            <polygon id="Fill-1" fill="#FFDA00" points="11.234 147.282 124.965 147.282 124.965 129.317 11.234 129.317"></polygon>
            <path d="M14.233,145.676 L120.754,145.676 L120.754,131.317 L14.233,131.317 L14.233,145.676 Z M6.959,117.336 C6.958,115.439 8.477,113.892 10.375,113.857 C20.536,113.345 34.643,110.301 43.329,105.001 C54.019,98.422 60.346,90.199 60.346,81.786 L60.346,78.243 C60.752,74.774 60.228,71.258 58.827,68.059 C56.194,64.151 53.02,60.637 49.401,57.621 C43.017,52.196 39.338,44.239 39.344,35.86 C39.344,20.418 51.861,7.9 67.304,7.9 C82.745,7.9 95.264,20.418 95.264,35.86 C95.269,44.239 91.591,52.196 85.206,57.621 C75.78,67.236 74.452,69.577 74.452,77.294 L74.452,81.786 C74.452,90.199 80.524,98.676 91.468,105.001 C100.153,110.301 114.261,113.345 124.422,113.857 C126.319,113.892 127.839,115.439 127.838,117.336 L127.838,124.358 L10.628,124.358 L10.627,124.358 L7.212,124.358 L6.95899951,124.358 L6.959,117.336 Z M124.422,106.646 C109.936,106.646 81.663,94.5 81.663,81.849 L81.663,77.231 C81.663,72.234 81.663,71.411 90.203,62.745 C90.763,62.261 91.307,61.759 91.836,61.241 C106.01,47.353 106.242,24.604 92.353,10.431 C92.221,10.295 92.086,10.16 91.95,10.027 C78.203,-3.498 56.095,-3.317 42.569,10.431 C42.029,10.98 41.507,11.547 41.003,12.131 C28.035,27.151 29.699,49.84 44.721,62.808 C53.323,71.538 53.323,72.36 53.323,78.307 L53.323,81.849 C53.323,94.627 25.113,106.646 10.628,106.646 C4.748,106.681 0,111.457 0,117.336 L0,127.711 C0,129.703 1.614,131.317 3.605,131.317 L7.021,131.317 L7.021,149.345 C7.021,151.337 8.637,152.951 10.628,152.951 L124.359,152.951 C124.381,152.951 124.401,152.951 124.423,152.951 C126.414,152.915 128,151.273 127.965,149.282 L127.965,131.317 L131.381,131.317 C133.279,131.357 134.884,129.919 135.05,128.027 L135.05,117.336 C135.05,111.457 130.302,106.681 124.422,106.646 Z" id="Fill-2" fill="#333333"></path>
        </g>
    </g>
</svg>