<?xml version="1.0" encoding="UTF-8"?>
<svg width="157px" height="169px" viewBox="0 0 157 169" version="1.1" xmlns="http://www.w3.org/2000/svg" xmlns:xlink="http://www.w3.org/1999/xlink">
    <!-- Generator: Sketch 49.3 (51167) - http://www.bohemiancoding.com/sketch -->
    <title>zan</title>
    <desc>Created with Sketch.</desc>
    <defs>
        <polygon id="path-1" points="0 0 156.871 0 156.871 168.106 0 168.106"></polygon>
    </defs>
    <g id="zan" stroke="none" stroke-width="1" fill="none" fill-rule="evenodd">
        <g id="Page-1">
            <mask id="mask-2" fill="white">
                <use xlink:href="#path-1"></use>
            </mask>
            <g id="Clip-2"></g>
            <path d="M11.212,156.869 L33.611,156.869 L33.611,67.172 L11.212,67.172 L11.212,156.869 Z M44.823,156.868 L44.823,66.843 C52.172,66.363 57.475,65.328 60.606,63.762 C68.864,59.672 79.419,48.46 82.752,36.742 C84.243,31.515 86.793,18.586 87.096,17.071 C87.752,13.687 90.985,11.187 94.773,11.187 C95.076,11.187 95.379,11.212 95.682,11.238 C101.01,11.793 103.864,16.843 103.485,21.187 C101.717,40.808 98.233,52.626 98.182,52.702 L93.813,67.146 L134.445,67.146 C137.752,67.146 140.783,68.535 142.954,71.035 C145.126,73.535 146.035,76.742 145.531,80.025 L136.894,137.752 C135.227,148.813 125.91,156.843 114.722,156.843 L44.823,156.843 L44.823,156.868 Z M94.798,0 C85.707,0 77.778,6.212 76.111,15 C76.111,15 73.409,28.762 71.995,33.712 C69.672,41.869 61.54,50.884 55.657,53.762 C51.212,55.96 34.697,55.985 33.687,55.985 L11.212,55.985 C5.025,55.985 0,60.985 0,67.197 L0,156.894 C0,163.08 5,168.106 11.212,168.106 L114.697,168.106 C131.338,168.106 145.48,155.935 147.954,139.47 L156.617,81.742 C158.661,68.182 148.157,56.01 134.445,56.01 L108.94,56.01 C108.94,56.01 112.727,43.46 114.647,22.273 C115.606,11.54 108.005,1.313 96.843,0.152 C96.161,0.05 95.48,0 94.798,0 Z" id="Fill-1" fill="#333333" mask="url(#mask-2)"></path>
        </g>
    </g>
</svg>