<?xml version="1.0" encoding="UTF-8"?>
<svg width="199px" height="61px" viewBox="0 0 199 61" version="1.1" xmlns="http://www.w3.org/2000/svg" xmlns:xlink="http://www.w3.org/1999/xlink">
    <!-- Generator: Sketch 49.3 (51167) - http://www.bohemiancoding.com/sketch -->
    <title>支付宝</title>
    <desc>Created with Sketch.</desc>
    <defs>
        <polygon id="path-1" points="0 0.5133 59.6314 0.5133 59.6314 60 0 60"></polygon>
    </defs>
    <g id="支付宝" stroke="none" stroke-width="1" fill="none" fill-rule="evenodd">
        <g id="Page-1">
            <g id="Group-3" transform="translate(0.000000, 0.486700)">
                <mask id="mask-2" fill="white">
                    <use xlink:href="#path-1"></use>
                </mask>
                <g id="Clip-2"></g>
                <path d="M49.0984,37.8633 C57.6854,40.7313 59.6314,40.8843 59.6314,40.8843 L59.6314,10.0503 C59.6314,4.7833 55.3614,0.5133 50.0944,0.5133 L9.5364,0.5133 C4.2694,0.5133 -0.0006,4.7833 -0.0006,10.0503 L-0.0006,50.4633 C-0.0006,55.7303 4.2694,60.0003 9.5364,60.0003 L50.0834,60.0003 C55.3504,60.0003 59.6204,55.7303 59.6204,50.4633 L59.6204,50.0713 C59.6204,50.0713 44.1104,43.6243 36.2764,39.8703 C31.0234,46.3123 24.2454,50.2263 17.2024,50.2263 C5.3054,50.2263 1.2644,39.8443 6.8944,33.0093 C8.1244,31.5233 10.2154,30.0993 13.4574,29.3013 C18.5304,28.0573 26.6044,30.0783 34.1714,32.5683 C35.5794,29.9683 36.7064,27.2243 37.5304,24.3843 L14.2174,24.3843 L14.2174,22.0253 L26.2264,22.0253 L26.2264,17.7863 L11.6954,17.7863 L11.6954,15.4543 L26.2554,15.4543 L26.2554,9.4253 C26.2474,8.8733 26.6884,8.4193 27.2404,8.4113 C27.2554,8.4103 27.2714,8.4113 27.2864,8.4113 L33.1644,8.4113 L33.1644,15.4543 L47.5614,15.4543 L47.5614,17.8103 L33.1644,17.8103 L33.1644,22.0493 L44.9194,22.0493 C43.8604,26.4423 42.1844,30.6623 39.9424,34.5863 C43.5104,35.8713 46.7104,37.0903 49.0984,37.8873 L49.0984,37.8633 Z M14.4824,32.8263 C12.9914,32.9743 10.1944,33.6323 8.6644,34.9813 C4.0724,38.9663 6.8244,46.2533 16.0994,46.2533 C21.4904,46.2533 26.8804,42.8123 31.1124,37.3123 C25.1074,34.3813 20.0034,32.2823 14.4824,32.8263 Z" id="Fill-1" fill="#25ABEE" mask="url(#mask-2)"></path>
            </g>
            <path d="M139.4925,16.2699 C139.2655,15.7989 138.7925,15.4969 138.2695,15.4889 L133.1275,15.4889 L137.1325,28.1029 L143.2155,28.1029 L139.4925,16.2699 Z M195.9445,30.9749 C195.8055,30.5029 195.3775,30.1749 194.8855,30.1659 L189.1275,30.1659 L190.7945,35.7959 L184.0305,35.7959 L184.0305,24.8919 L197.3055,24.8919 L197.3055,22.2999 L184.0305,22.2999 L184.0305,17.1669 L197.3055,17.1669 L197.3055,14.5709 L164.1725,14.5709 L164.1725,17.1669 L177.4465,17.1669 L177.4465,22.2999 L164.1755,22.2999 L164.1755,24.8959 L177.4495,24.8959 L177.4495,35.7959 L164.1755,35.7959 L164.1755,38.3919 L198.1165,38.3919 L198.0895,38.3039 L198.1165,38.3039 L195.9445,30.9749 Z M124.3005,2.5429 L117.2215,19.2899 L122.6505,19.2899 L122.6505,39.2149 L128.5925,39.2149 L128.5925,12.7839 L126.4405,12.7839 L130.9165,2.5429 L124.3005,2.5429 Z M171.0815,8.3789 L190.4165,8.3789 L190.4165,12.2079 L197.322634,12.2079 L197.3225,7.6719 C197.3205,7.6629 197.3205,7.6539 197.3225,7.6439 C197.3345,6.6399 196.5385,5.8119 195.5345,5.7829 L184.3555,5.7829 L184.3555,2.2149 L177.1285,2.2149 L177.1285,5.7829 L164.1765,5.7829 L164.1765,12.2079 L171.0815,12.2079 L171.0815,8.3789 Z" id="Fill-4" fill="#394144"></path>
            <path d="M192.4261,44.641 L189.4101,51.19 L186.3481,44.641 L183.3631,44.641 L188.0151,53.698 L188.0151,60.01 L190.7591,60.01 L190.7591,53.698 L190.7771,53.662 L195.4151,44.641 L192.4261,44.641 Z M168.1351,54.976 L170.3391,48.619 L172.4581,54.976 L168.1351,54.976 Z M169.1701,44.641 L163.5191,60.01 L166.3941,60.01 L167.4531,56.915 L173.1051,56.915 L174.1291,60.01 L177.0051,60.01 L171.3531,44.641 L169.1701,44.641 Z M148.1431,51.992 L145.0871,51.992 L145.0871,46.732 L148.1431,46.732 C149.6761,46.732 150.5941,48.075 150.5941,49.37 C150.5941,50.667 149.7361,51.992 148.1461,51.992 L148.1431,51.992 Z M148.2981,44.641 L142.3251,44.641 L142.3251,60.01 L145.0871,60.01 L145.0871,54.09 L148.2981,54.09 C151.2801,54.09 153.3601,52.144 153.3601,49.36 C153.3601,46.577 151.2801,44.641 148.2981,44.641 Z M124.8221,60.01 L127.5881,60.01 L127.5881,44.641 L124.8221,44.641 L124.8221,60.01 Z M104.6081,44.641 L101.8451,44.641 L101.8451,60.01 L111.1501,60.01 L111.1501,57.918 L104.6081,57.918 L104.6081,44.641 Z M80.3621,54.976 L82.5661,48.619 L84.6861,54.976 L80.3621,54.976 Z M81.3861,44.641 L75.7351,60.01 L78.6101,60.01 L79.6701,56.915 L85.3221,56.915 L86.3461,60.01 L89.2211,60.01 L83.5701,44.641 L81.3861,44.641 Z M109.9241,36.782 C105.1771,35.094 100.6171,32.921 96.3181,30.297 C101.4011,26.535 105.8551,21.427 107.6201,14.596 L95.7741,14.596 L95.7741,10.357 L109.5211,10.357 L109.5211,7.704 L95.7741,7.704 L95.7741,2.321 L89.6451,2.321 C88.9621,2.332 88.4181,2.895 88.4301,3.578 L88.4301,7.704 L74.7781,7.704 L74.7781,10.35 L88.4301,10.35 L88.4301,14.589 L76.9071,14.589 L76.9071,17.234 L99.8671,17.234 C99.8671,17.234 98.5961,22.201 92.3011,27.538 C86.6501,23.278 84.7741,19.876 84.7741,19.876 L78.6071,19.876 C81.0971,24.193 84.6361,27.647 88.4471,30.395 C84.9471,32.67 80.4051,34.864 74.5341,36.62 L74.5341,39.798 C80.7901,38.441 86.7991,36.124 92.3471,32.932 C97.8341,36.075 103.7571,38.384 109.9241,39.785 L109.9241,36.782 Z M152.5081,2.848 L146.3341,2.848 L146.3341,9.301 L131.1201,9.301 L131.1201,11.897 L146.3341,11.897 L146.3341,35.086 C146.2911,35.614 145.8651,36.028 145.3381,36.058 L142.2011,36.058 L142.2011,38.745 L150.2021,38.745 C151.4851,38.677 152.4931,37.624 152.5081,36.34 L152.5081,11.893 L155.0161,11.893 L155.0161,9.301 L152.5081,9.301 L152.5081,2.848 Z" id="Fill-6" fill="#394144"></path>
        </g>
    </g>
</svg>