<?xml version="1.0" encoding="utf-8"?>
<!-- Generator: Adobe Illustrator 21.0.0, SVG Export Plug-In . SVG Version: 6.00 Build 0)  -->
<svg version="1.1" id="图层_1" xmlns="http://www.w3.org/2000/svg" xmlns:xlink="http://www.w3.org/1999/xlink" x="0px" y="0px"
	 viewBox="0 0 269 121" style="enable-background:new 0 0 269 121;" xml:space="preserve">
<style type="text/css">
	.st0{fill:#FFD811;}
	.st1{fill:#333333;}
	.st2{fill:#333333;stroke:#333333;}
</style>
<title>zhejiao</title>
<desc>Created with Sketch.</desc>
<g id="申请成为老师">
	<g id="_x30_1_x5F_申请成为tutor" transform="translate(-358.000000, -271.000000)">
		<g id="banner" transform="translate(335.000000, 100.000000)">
			<g id="zhejiao" transform="translate(0.000000, 119.000000)">
				<g>
					<path class="st0" d="M176.3,53c-13.5,0-26.9,2.8-39.4,8.1L27.5,108c-2.6,1.1-4.2,3.6-4.2,6.4v57.9L291.2,53H176.3z"/>
					
						<g id="Group" transform="translate(106.801193, 103.722352) rotate(-25.000000) translate(-106.801193, -103.722352) translate(29.301193, 89.222352)">
						<path id="关于" class="st1" d="M6.9,4.8C7.6,5.8,8.3,6.9,9,8L7.9,8.6l3.9,0c0.7-1.1,1.3-2.5,1.9-4l2,0.6
							c-0.4,1.3-1,2.4-1.6,3.4l3.7,0l0,2l-6.5,0v0.5c0,0.9-0.1,1.8-0.3,2.6l7.9,0l0,2l-6.9,0c1,2.3,3.4,4.1,7.4,5.5l-1.2,2
							c-4.1-1.7-6.8-3.9-7.9-6.6c-0.4,0.8-0.8,1.6-1.3,2.3c-1.4,1.8-3.6,3.2-6.7,4.1l-1.1-1.8c3.1-1,5.1-2.3,6.2-3.8
							c0.3-0.5,0.6-1.1,0.9-1.7l-6.7,0l0-2l7.3,0c0.2-0.8,0.3-1.7,0.3-2.6v-0.5l-6.5,0l0-2l4.2,0c-0.6-1.1-1.3-2.1-2-2.9L6.9,4.8z
							 M22.6,5.3l15.2,0v2l-6.3,0l0,4.6l7.7,0v2.1l-7.7,0l0,6.7c0,1.4-0.8,2.2-2.3,2.2h-3.2l-0.4-2c1,0.1,2,0.1,2.9,0.1
							c0.6,0,0.9-0.3,0.9-0.8l0-6.2l-8,0V12l8,0l0-4.6l-6.8,0V5.3z"/>
						<path id="HD-EDUCATION" class="st2" d="M46.4,6.3l2.5,0l0,7.6l3.2,0l0-7.6l2.5,0l0,17.8l-2.5,0l0-7.9h-3.2l0,7.9l-2.5,0
							L46.4,6.3z M57,6.3l3.8,0c1.5,0,2.6,0.4,3.3,1.2c0.8,0.8,1.2,1.9,1.2,3.4v8.3c0,1.7-0.4,2.9-1.2,3.7c-0.8,0.8-2,1.2-3.5,1.2
							l-3.6,0L57,6.3z M59.6,21.7l1.2,0c0.7,0,1.2-0.2,1.5-0.5c0.3-0.4,0.5-0.9,0.5-1.7l0-8.6c0-0.7-0.1-1.2-0.4-1.6
							c-0.3-0.4-0.8-0.6-1.5-0.6l-1.2,0L59.6,21.7z M72.3,6.3l7.6,0v2.4l-5.1,0l0,5.2l4.4,0v2.4l-4.4,0v5.2l5.1,0v2.6l-7.6,0
							L72.3,6.3z M81.6,6.3l3.8,0c1.5,0,2.6,0.4,3.3,1.2s1.2,1.9,1.2,3.4l0,8.3c0,1.7-0.4,2.9-1.2,3.7c-0.8,0.8-2,1.2-3.5,1.2
							l-3.5,0L81.6,6.3z M84.1,21.7h1.2c0.7,0,1.2-0.2,1.5-0.5s0.4-0.9,0.4-1.7l0-8.6c0-0.7-0.1-1.2-0.4-1.6
							c-0.3-0.4-0.8-0.6-1.6-0.6h-1.2L84.1,21.7z M100.5,20.1c0,0.6-0.1,1.1-0.3,1.6s-0.5,0.9-0.9,1.3s-0.8,0.7-1.3,0.9
							c-0.5,0.2-1,0.3-1.6,0.3c-0.6,0-1.1-0.1-1.6-0.3c-0.5-0.2-0.9-0.5-1.3-0.9c-0.4-0.4-0.7-0.8-0.9-1.3s-0.3-1-0.3-1.6l0-13.8
							l2.5,0l0,13.6c0,0.6,0.2,1.1,0.5,1.4c0.3,0.3,0.7,0.4,1.1,0.4c0.4,0,0.8-0.1,1.1-0.5c0.3-0.3,0.4-0.8,0.4-1.4l0-13.5l2.6,0
							L100.5,20.1z M111,20.2c0,0.6-0.1,1.1-0.3,1.6c-0.2,0.5-0.5,0.9-0.9,1.3s-0.8,0.7-1.3,0.9c-0.5,0.2-1,0.3-1.6,0.3
							c-0.5,0-1-0.1-1.5-0.2c-0.5-0.1-0.9-0.4-1.3-0.7c-0.4-0.3-0.7-0.8-1-1.3c-0.3-0.5-0.4-1.2-0.4-2l0-9.8c0-0.6,0.1-1.1,0.3-1.6
							c0.2-0.5,0.5-0.9,0.8-1.3c0.4-0.4,0.8-0.7,1.3-0.9c0.5-0.2,1.1-0.3,1.7-0.3c0.6,0,1.1,0.1,1.6,0.3c0.5,0.2,0.9,0.5,1.3,0.9
							s0.7,0.8,0.9,1.3c0.2,0.5,0.3,1.1,0.3,1.7v1l-2.6,0v-0.9c0-0.5-0.1-0.9-0.4-1.3c-0.3-0.4-0.7-0.5-1.1-0.5
							c-0.6,0-1.1,0.2-1.3,0.6c-0.2,0.4-0.3,0.9-0.3,1.5l0,9.1c0,0.5,0.1,0.9,0.3,1.3c0.2,0.4,0.6,0.5,1.2,0.5c0.2,0,0.3,0,0.5-0.1
							c0.2-0.1,0.4-0.2,0.5-0.3c0.2-0.1,0.3-0.3,0.4-0.6c0.1-0.2,0.2-0.5,0.2-0.9v-0.9h2.6V20.2z M116.9,11.5L116.9,11.5l-1.3,6.4
							h2.6L116.9,11.5z M115.9,6.3l2.1,0l4,17.8h-2.6l-0.8-3.8h-3.5l-0.8,3.8l-2.6,0L115.9,6.3z M123.5,8.7l-2.9,0V6.3l8.4,0l0,2.4
							l-3,0l0,15.4l-2.6,0L123.5,8.7z M130.2,6.3l2.6,0l0,17.8l-2.6,0L130.2,6.3z M135.1,10.5c0-0.7,0.1-1.3,0.4-1.9
							c0.2-0.6,0.6-1,1-1.4s0.9-0.6,1.4-0.8s1-0.3,1.5-0.3c0.5,0,1,0.1,1.5,0.3c0.5,0.2,1,0.5,1.4,0.8c0.4,0.4,0.7,0.8,1,1.4
							c0.3,0.6,0.4,1.2,0.4,1.9v9.4c0,0.7-0.1,1.4-0.4,1.9s-0.6,1-1,1.4c-0.4,0.4-0.9,0.6-1.4,0.8c-0.5,0.2-1,0.3-1.5,0.3
							c-0.5,0-1-0.1-1.5-0.3s-1-0.5-1.4-0.8c-0.4-0.4-0.7-0.8-1-1.4s-0.4-1.2-0.4-1.9V10.5z M137.6,19.9c0,0.6,0.2,1.1,0.5,1.4
							c0.3,0.3,0.7,0.4,1.2,0.4c0.5,0,0.9-0.1,1.2-0.4c0.3-0.3,0.5-0.7,0.5-1.4v-9.4c0-0.6-0.2-1.1-0.5-1.4
							c-0.3-0.3-0.7-0.4-1.2-0.4c-0.5,0-0.9,0.1-1.2,0.4c-0.3,0.3-0.5,0.7-0.5,1.4V19.9z M145.8,6.3l2.4,0l3.9,10.7h0.1l0-10.7
							l2.6,0l0,17.8l-2.4,0l-3.9-10.7h-0.1v10.7l-2.5,0L145.8,6.3z"/>
					</g>
				</g>
			</g>
		</g>
	</g>
</g>
</svg>
