<?xml version="1.0" encoding="UTF-8"?>
<svg width="150px" height="145px" viewBox="0 0 150 145" version="1.1" xmlns="http://www.w3.org/2000/svg" xmlns:xlink="http://www.w3.org/1999/xlink">
    <!-- Generator: Sketch 49.3 (51167) - http://www.bohemiancoding.com/sketch -->
    <title>zhengzaikao</title>
    <desc>Created with Sketch.</desc>
    <defs>
        <polygon id="path-1" points="0.0001 0.1722 149.667 0.1722 149.667 144 0.0001 144"></polygon>
    </defs>
    <g id="zhengzaikao" stroke="none" stroke-width="1" fill="none" fill-rule="evenodd">
        <g id="Page-1">
            <g id="Group-7" transform="translate(0.000000, 0.828000)">
                <mask id="mask-2" fill="white">
                    <use xlink:href="#path-1"></use>
                </mask>
                <g id="Clip-6"></g>
                <path d="M134.0481,54.3932 C132.4791,51.6032 130.3431,49.1722 127.7351,47.3472 C125.4181,45.6092 122.8831,44.3722 120.2171,43.5842 L125.4461,37.1762 C131.8031,37.1762 137.6511,41.2452 139.4311,47.3472 L134.0481,54.3932 Z M98.3241,101.1542 C96.8611,97.6692 94.4821,94.5952 91.3751,92.3512 C88.9531,90.6012 86.2431,89.3682 83.4021,88.6912 L113.2381,52.1342 C116.4661,52.1252 119.9251,52.9542 122.3951,54.9752 C125.0381,56.7362 126.9131,59.6432 127.6991,62.7032 L98.3241,101.1542 Z M85.7811,99.9782 C88.3241,102.0132 89.8501,105.0632 90.3591,107.8602 C90.3711,107.9762 90.4111,108.0852 90.4341,108.1982 L74.0861,115.2342 L78.2891,97.5792 C80.8301,97.3652 83.5081,98.1602 85.7811,99.9782 Z M112.0281,121.8552 C112.0281,129.1032 106.1321,135.0002 98.8841,135.0002 L22.1441,135.0002 C14.8971,135.0002 9.0001,129.1032 9.0001,121.8552 L9.0001,22.3162 C9.0001,15.0682 14.8971,9.1722 22.1441,9.1722 L98.8841,9.1722 C106.1321,9.1722 112.0281,15.0682 112.0281,22.3162 L112.0281,38.9372 L71.5431,88.5372 C71.0341,89.0462 70.7801,89.8092 70.5261,90.5712 L62.8981,122.6072 C62.3901,124.6422 62.1591,126.2102 63.6851,127.4812 C64.1941,127.9892 65.9471,128.8492 67.7761,128.2502 C72.0011,126.5262 99.2581,114.2172 99.2581,114.2172 C100.0211,113.9632 100.7831,113.4542 101.2911,112.6912 L112.0281,98.6072 L112.0281,121.8552 Z M149.6011,47.3472 C147.8211,34.8882 136.3791,25.4802 122.9031,27.2602 C122.2541,27.4232 121.6111,27.7082 121.0281,28.1442 L121.0281,22.3162 C121.0281,10.1372 111.0641,0.1722 98.8841,0.1722 L22.1441,0.1722 C9.9651,0.1722 0.0001,10.1372 0.0001,22.3162 L0.0001,121.8552 C0.0001,134.0352 9.9651,144.0002 22.1441,144.0002 L98.8841,144.0002 C111.0641,144.0002 121.0281,134.0352 121.0281,121.8552 L121.0281,86.8012 L148.5841,50.6522 C149.3471,49.8892 149.8561,48.6182 149.6011,47.3472 Z" id="Fill-5" fill="#FFD811" mask="url(#mask-2)"></path>
            </g>
            <path d="M50.4905,81.3135 L29.3865,81.3135 C26.8445,81.3135 24.5555,83.6025 24.5555,86.1455 C24.5555,88.6875 26.5905,90.9755 29.3865,90.9755 L50.4905,90.9755 C53.2875,90.9755 55.3215,88.9415 55.3215,86.1455 C55.3215,83.6025 53.2875,81.3135 50.4905,81.3135" id="Fill-8" fill="#FFD811"></path>
            <path d="M29.387,65.0411 L69.066,65.0411 C71.863,65.0411 73.897,63.0071 73.897,60.2101 C73.897,57.6671 71.863,55.3791 69.066,55.3791 L29.387,55.3791 C26.844,55.3791 24.556,57.6671 24.556,60.2101 C24.556,62.7531 26.59,65.0411 29.387,65.0411" id="Fill-10" fill="#FFD811"></path>
            <path d="M29.387,39.8692 L69.066,39.8692 C71.863,39.8692 73.897,37.8352 73.897,35.0382 C73.897,32.4962 71.863,30.2072 69.066,30.2072 L29.387,30.2072 C26.844,30.2072 24.556,32.4962 24.556,35.0382 C24.556,37.5812 26.59,39.8692 29.387,39.8692" id="Fill-12" fill="#FFD811"></path>
        </g>
    </g>
</svg>