<?xml version="1.0" encoding="UTF-8"?>
<svg width="121px" height="139px" viewBox="0 0 121 139" version="1.1" xmlns="http://www.w3.org/2000/svg" xmlns:xlink="http://www.w3.org/1999/xlink">
    <!-- Generator: Sketch 49.3 (51167) - http://www.bohemiancoding.com/sketch -->
    <title>填写资料</title>
    <desc>Created with Sketch.</desc>
    <defs>
        <polygon id="path-1" points="0.0005 0.0861 120.524 0.0861 120.524 138 0.0005 138"></polygon>
    </defs>
    <g id="填写资料" stroke="none" stroke-width="1" fill="none" fill-rule="evenodd">
        <g id="Page-1">
            <path d="M76.4328,95.605 C76.1928,97.047 75.4718,133.579 76.4328,133.579 C77.3948,133.579 114.8868,95.125 114.8868,95.125 L76.4328,95.605 Z" id="Fill-1" fill="#FFDA00"></path>
            <g id="Group-5" transform="translate(0.000000, 0.914000)">
                <mask id="mask-2" fill="white">
                    <use xlink:href="#path-1"></use>
                </mask>
                <g id="Clip-4"></g>
                <path d="M114.2355,90.4781 L114.2355,91.0261 L113.6875,91.0261 L80.5315,91.0261 C76.5175,91.0261 73.2535,94.2671 73.2535,98.2521 L73.2535,131.7301 L12.6435,131.7301 C9.1395,131.7301 6.2805,128.8791 6.2695,125.3751 L6.2695,12.6601 C6.2855,9.1591 9.1445,6.3121 12.6425,6.3121 L107.8525,6.3121 C111.3725,6.3121 114.2355,9.1601 114.2355,12.6601 L114.2355,90.4781 Z M108.5515,97.9361 L80.2045,126.1101 L79.2695,127.0391 L79.2695,125.7221 L79.2695,98.2521 C79.2695,97.5731 79.8475,96.9991 80.5315,96.9991 L108.1665,96.9991 L109.4945,96.9991 L108.5515,97.9361 Z M120.5135,92.9131 L120.5135,12.6601 C120.5135,5.7271 114.8385,0.0861 107.8615,0.0861 L12.6615,0.0861 C5.6795,0.0861 0.0005,5.7301 0.0005,12.6681 L0.0005,125.3741 C0.0005,132.3121 5.6755,137.9571 12.6525,137.9571 L75.0505,137.9571 C75.0585,137.9571 75.0655,137.9541 75.0735,137.9541 C75.1855,137.9761 75.2975,138.0001 75.4185,138.0001 C76.2755,138.0001 77.3205,137.4271 78.3615,136.3871 L118.9105,96.0891 C119.8645,95.1351 120.4205,94.2061 120.5175,93.4031 C120.5345,93.2611 120.5135,92.9131 120.5135,92.9131 Z" id="Fill-3" fill="#333333" mask="url(#mask-2)"></path>
            </g>
            <path d="M18.2961,39.4263 L102.0791,39.4263 C104.0891,39.4263 105.7281,37.7983 105.7401,35.7973 C105.7321,33.7973 104.0931,32.1653 102.0881,32.1653 L102.0881,31.8923 C102.0871,31.8923 102.0871,31.8923 102.0861,31.8923 L102.0851,32.1653 L18.2961,32.1653 C16.2851,32.1653 14.6481,33.7933 14.6351,35.7953 C14.6351,37.7963 16.2771,39.4263 18.2961,39.4263" id="Fill-6" fill="#333333"></path>
            <path d="M102.8009,63.3022 C102.6909,63.2922 102.5799,63.2872 102.4689,63.2872 C102.3589,63.2872 102.2479,63.2922 102.1379,63.3022 L18.2869,63.3042 C16.2769,63.3042 14.6389,64.9332 14.6259,66.9342 C14.6259,68.9302 16.2689,70.5572 18.2869,70.5572 L102.0879,70.5572 C102.2499,70.5692 102.3629,70.5742 102.4739,70.5742 C104.3669,70.5742 105.9249,69.1512 106.0979,67.2622 C106.1859,66.2932 105.8919,65.3472 105.2689,64.5992 C104.6469,63.8512 103.7699,63.3912 102.8009,63.3022" id="Fill-8" fill="#333333"></path>
        </g>
    </g>
</svg>