<?xml version="1.0" encoding="UTF-8"?>
<svg width="201px" height="178px" viewBox="0 0 201 178" version="1.1" xmlns="http://www.w3.org/2000/svg" xmlns:xlink="http://www.w3.org/1999/xlink">
    <!-- Generator: Sketch 49.3 (51167) - http://www.bohemiancoding.com/sketch -->
    <title>上一步</title>
    <desc>Created with Sketch.</desc>
    <defs>
        <polygon id="path-1" points="0 6.00389602e-05 200.137199 6.00389602e-05 200.137199 177.910866 0 177.910866"></polygon>
    </defs>
    <g id="上一步" stroke="none" stroke-width="1" fill="none" fill-rule="evenodd">
        <g id="Page-1">
            <mask id="mask-2" fill="white">
                <use xlink:href="#path-1"></use>
            </mask>
            <g id="Clip-2"></g>
            <path d="M193.4324,81.9331 L23.4894,81.9331 L92.6074,11.8141 C95.2204,9.0821 95.1684,4.7631 92.4924,2.0931 C89.9384,-0.5979 85.6854,-0.7089 82.9944,1.8461 C82.9574,1.8801 82.9214,1.9151 82.8864,1.9501 L2.5174,83.4911 C2.0684,83.8721 1.6694,84.3091 1.3304,84.7921 C0.4404,85.9941 -0.0266,87.4561 0.0014,88.9521 C-0.0366,90.7661 0.6594,92.5181 1.9314,93.8121 L82.8864,175.9541 C85.5154,178.5711 89.7694,178.5621 92.3884,175.9331 C92.4234,175.8971 92.4584,175.8611 92.4924,175.8251 C95.1684,173.1551 95.2204,168.8361 92.6074,166.1041 L23.3894,95.8561 L193.4324,95.8561 C197.1954,95.7861 200.1934,92.6861 200.1364,88.9231 C200.1364,85.0631 197.1344,81.9471 193.4324,81.9471 L193.4324,81.9331 Z" id="Fill-1" fill="#333333" mask="url(#mask-2)"></path>
        </g>
    </g>
</svg>