<?xml version="1.0" encoding="UTF-8"?>
<svg width="108px" height="135px" viewBox="0 0 108 135" version="1.1" xmlns="http://www.w3.org/2000/svg" xmlns:xlink="http://www.w3.org/1999/xlink">
    <!-- Generator: Sketch 49.3 (51167) - http://www.bohemiancoding.com/sketch -->
    <title>下载</title>
    <desc>Created with Sketch.</desc>
    <defs>
        <polygon id="path-1" points="0 0.7301 107.013818 0.7301 107.013818 116.4071 0 116.4071"></polygon>
        <polygon id="path-3" points="0.0042 0.2402 107.024 0.2402 107.024 11 0.0042 11"></polygon>
    </defs>
    <g id="下载" stroke="none" stroke-width="1" fill="none" fill-rule="evenodd">
        <g id="Page-1">
            <g id="Group-3" transform="translate(0.000000, 0.270000)">
                <mask id="mask-2" fill="white">
                    <use xlink:href="#path-1"></use>
                </mask>
                <g id="Clip-2"></g>
                <path d="M88.7024822,72.993 L54.5064822,104.057 L20.2984822,73.008 L38.0014822,73.008 L38.0014822,11.745 L71.0124822,11.745 L71.0124822,72.993 L88.7024822,72.993 Z M50.7084822,115.109 C51.7044822,116.105 53.0884822,116.677 54.5064822,116.677 C55.9244822,116.677 57.3074822,116.105 58.2684822,115.142 L106.426482,71.426 C107.992482,69.86 108.438482,67.614 107.591482,65.566 C106.743482,63.519 104.842482,62.247 102.628482,62.247 L81.7574822,62.247 L81.7574822,10.745 C81.7574822,5.372 77.3854822,1 72.0124822,1 L37.0014822,1 C31.6274822,1 27.2554822,5.372 27.2554822,10.745 L27.2554822,62.247 L6.38448222,62.247 C4.17148222,62.247 2.26948222,63.518 1.42248222,65.565 C0.573482223,67.613 1.01948222,69.859 2.62148222,71.459 L50.7084822,115.109 Z" id="Fill-1" fill="#8E8E8E" mask="url(#mask-2)"></path>
            </g>
            <g id="Group-6" transform="translate(0.000000, 123.270000)">
                <mask id="mask-4" fill="white">
                    <use xlink:href="#path-3"></use>
                </mask>
                <g id="Clip-5"></g>
                <path d="M102.624,0 L6.38,0 C3.413,0 1,2.414 1,5.38 C1,8.346 3.413,10.76 6.38,10.76 L102.639,10.76 C105.605,10.76 108.02,8.346 108.02,5.374 C108.002,2.411 105.581,0 102.624,0" id="Fill-4" fill="#8E8E8E" mask="url(#mask-4)"></path>
            </g>
        </g>
    </g>
</svg>