<?xml version="1.0" encoding="UTF-8"?>
<svg width="182px" height="165px" viewBox="0 0 182 165" version="1.1" xmlns="http://www.w3.org/2000/svg" xmlns:xlink="http://www.w3.org/1999/xlink">
    <!-- Generator: Sketch 49.3 (51167) - http://www.bohemiancoding.com/sketch -->
    <title>下载次数</title>
    <desc>Created with Sketch.</desc>
    <defs></defs>
    <g id="下载次数" stroke="none" stroke-width="1" fill="none" fill-rule="evenodd">
        <g id="Page-1" fill="#696969">
            <path d="M35.5396,70.4852 C36.2286,71.3252 37.8946,72.8832 37.9106,72.8992 L85.2136,119.9432 C87.0576,121.7942 88.8296,122.6912 90.6376,122.6912 C91.3616,122.6912 92.1136,122.5442 92.8726,122.2552 C93.7456,121.9402 94.4546,121.4682 95.1906,120.7162 L95.2616,120.6442 L95.2966,120.6212 C97.5746,118.5682 145.9176,70.4462 147.3336,68.8212 C149.0986,66.1952 148.8936,63.6642 146.7246,61.2952 C145.5086,59.9662 144.0796,59.2932 142.4786,59.2932 C141.4036,59.2932 140.2466,59.5912 139.0416,60.1812 C137.7736,60.9732 124.2936,74.1672 99.0116,99.3772 L97.2996,101.0832 L97.3056,98.6662 C97.3076,97.8112 97.4856,13.0902 97.1986,7.3742 C96.9546,2.6082 94.8686,0.1282 90.9976,0.0042 C90.9016,0.0012 90.8076,0.0002 90.7126,0.0002 C87.0576,0.0002 84.9476,2.3352 84.4416,6.9422 C84.2646,8.7922 84.2876,67.6262 84.3246,98.4762 L84.3266,100.8812 L82.6196,99.1882 C82.3226,98.8932 52.8016,69.6312 44.6716,61.8172 C42.9416,60.1702 41.0446,59.2972 39.1856,59.2972 C37.6726,59.2972 36.2506,59.8882 35.0706,61.0052 C33.3016,62.6782 31.4266,65.4822 35.5396,70.4852" id="Fill-1"></path>
            <path d="M0.0005,121.5809 L0.0005,148.0559 C0.0005,156.9229 6.8615,164.1359 15.2955,164.1359 L166.3035,164.1359 C174.7195,164.1359 181.5675,156.9229 181.5675,148.0559 L181.5675,121.5809 C181.5675,117.8019 178.7465,114.6589 175.1465,114.4269 C174.9905,114.4159 174.8385,114.4109 174.6855,114.4109 C170.8905,114.4119 167.8035,117.4989 167.8035,121.2939 L167.8035,144.5869 C167.8035,147.3269 165.5725,149.5559 162.8325,149.5559 L18.7345,149.5559 C15.9945,149.5559 13.7655,147.3269 13.7655,144.5869 L13.7655,121.2939 C13.7655,117.4989 10.6775,114.4109 6.8825,114.4109 C6.7295,114.4109 6.5755,114.4159 6.4215,114.4269 C2.8205,114.6589 0.0005,117.8019 0.0005,121.5809" id="Fill-3"></path>
        </g>
    </g>
</svg>