<?xml version="1.0" encoding="UTF-8"?>
<svg width="125px" height="107px" viewBox="0 0 125 107" version="1.1" xmlns="http://www.w3.org/2000/svg" xmlns:xlink="http://www.w3.org/1999/xlink">
    <!-- Generator: Sketch 49.3 (51167) - http://www.bohemiancoding.com/sketch -->
    <title>举报</title>
    <desc>Created with Sketch.</desc>
    <defs>
        <polygon id="path-1" points="0 0 130.910004 0 130.910004 110.269997 0 110.269997"></polygon>
    </defs>
    <g id="举报" stroke="none" stroke-width="1" fill="none" fill-rule="evenodd">
        <g id="Page-1">
            <path d="M62.4565,67.8316 C65.7215,67.8316 68.3775,65.1756 68.3775,61.9106 L68.3775,39.5246 C68.3775,36.2596 65.7215,33.6036 62.4565,33.6036 C59.1915,33.6036 56.5355,36.2596 56.5355,39.5246 L56.5355,61.9106 C56.5355,65.1756 59.1915,67.8316 62.4565,67.8316" id="Fill-1" fill="#8E8E8E"></path>
            <path d="M56.5371,77.8853 C56.6091,81.1323 59.2021,83.6713 62.4561,83.6713 C65.7111,83.6713 68.3051,81.1323 68.3761,77.8853 L68.3781,77.8853 L68.3781,77.7503 L68.3761,77.7503 C68.3051,74.5033 65.7111,71.9643 62.4561,71.9643 C59.2021,71.9643 56.6091,74.5033 56.5371,77.7503 L56.5361,77.7503 L56.5361,77.8853 L56.5371,77.8853 Z" id="Fill-3" fill="#8E8E8E"></path>
            <g id="Group-7" transform="translate(0.000000, 0.275000)">
                <mask id="mask-2" fill="white">
                    <use xlink:href="#path-1"></use>
                </mask>
                <g id="Clip-6"></g>
                <path d="M62.4565,0.7251 C57.0295,0.7251 51.6025,3.3141 48.3075,8.4911 L2.6505,80.2221 C-4.4565,91.3871 3.5635,106.0001 16.7995,106.0001 L108.1135,106.0001 C121.3495,106.0001 129.3705,91.3871 122.2625,80.2221 L76.6055,8.4911 C73.3105,3.3141 67.8835,0.7251 62.4565,0.7251 M62.4565,12.7251 C63.4355,12.7251 65.2585,13.0121 66.4825,14.9351 L112.1395,86.6651 C113.4585,88.7381 112.8045,90.5991 112.2975,91.5241 C111.7895,92.4491 110.5715,94.0001 108.1135,94.0001 L16.7995,94.0001 C14.3425,94.0001 13.1235,92.4491 12.6165,91.5241 C12.1085,90.5991 11.4545,88.7381 12.7735,86.6651 L58.4305,14.9351 C59.6545,13.0121 61.4785,12.7251 62.4565,12.7251" id="Fill-5" fill="#8E8E8E" mask="url(#mask-2)"></path>
            </g>
        </g>
    </g>
</svg>