<?xml version="1.0" encoding="UTF-8"?>
<svg width="105px" height="118px" viewBox="0 0 105 118" version="1.1" xmlns="http://www.w3.org/2000/svg" xmlns:xlink="http://www.w3.org/1999/xlink">
    <!-- Generator: Sketch 49.3 (51167) - http://www.bohemiancoding.com/sketch -->
    <title>书</title>
    <desc>Created with Sketch.</desc>
    <defs>
        <polygon id="path-1" points="0.0001 0.4673 104.545 0.4673 104.545 117 0.0001 117"></polygon>
        <linearGradient x1="50%" y1="0%" x2="50%" y2="100%" id="linearGradient-3">
            <stop stop-color="#626262" offset="0%"></stop>
            <stop stop-color="#333333" offset="100%"></stop>
        </linearGradient>
        <linearGradient x1="50%" y1="0%" x2="50%" y2="100%" id="linearGradient-4">
            <stop stop-color="#FFEF00" offset="0%"></stop>
            <stop stop-color="#FFDA00" offset="100%"></stop>
        </linearGradient>
    </defs>
    <g id="书" stroke="none" stroke-width="1" fill="none" fill-rule="evenodd">
        <g id="Page-1">
            <g id="Group-3" transform="translate(0.000000, 0.533000)">
                <mask id="mask-2" fill="white">
                    <use xlink:href="#path-1"></use>
                </mask>
                <g id="Clip-2"></g>
                <path d="M12.2041,109.3413 C9.6511,109.3413 7.5971,107.2863 7.5971,104.7343 L7.5971,24.0783 C9.0361,24.6693 10.6111,25.0003 12.2661,25.0003 L96.8871,25.0003 L96.8871,109.3413 L12.2041,109.3413 Z M12.2661,8.0643 L84.9321,8.0643 L84.9321,17.2783 L12.2661,17.2783 C9.7141,17.2783 7.6591,15.2243 7.6591,12.6713 C7.6591,10.1183 9.7141,8.0643 12.2661,8.0643 Z M104.5451,21.0773 C104.5451,18.9603 102.8641,17.2783 100.7471,17.2783 L92.5281,17.2783 L92.5281,4.8953 C92.5611,4.6893 92.5901,4.4823 92.5901,4.2653 C92.5901,2.1493 90.9091,0.4673 88.7921,0.4673 L12.2661,0.4673 C5.4791,0.4673 0.0001,5.9463 0.0001,12.7343 L0.0001,104.7343 C0.0001,111.5213 5.4791,117.0003 12.2661,117.0003 L100.6841,117.0003 C102.8021,117.0003 104.4831,115.3193 104.4831,113.2013 L104.4831,21.6003 C104.5091,21.4273 104.5401,21.2573 104.5451,21.0773 Z" id="Fill-1" fill="url(#linearGradient-3)" mask="url(#mask-2)"></path>
            </g>
            <path d="M76.1514,42.7815 L26.6504,42.7815 C24.5334,42.7815 22.8514,44.4625 22.8514,46.5795 C22.8514,48.6345 24.5334,50.3775 26.6504,50.3775 L76.1514,50.3775 C78.2684,50.3775 79.9504,48.6965 79.9504,46.5795 C79.9504,44.4625 78.2684,42.7815 76.1514,42.7815" id="Fill-4" fill="url(#linearGradient-4)"></path>
            <path d="M53.9854,60.0911 L26.6504,60.0911 C24.5334,60.0911 22.8514,61.7731 22.8514,63.8891 C22.8514,65.9451 24.5334,67.6881 26.6504,67.6881 L53.9854,67.6881 C56.1024,67.6881 57.8454,66.0061 57.7834,63.8891 C57.7834,61.7731 56.1024,60.0911 53.9854,60.0911" id="Fill-6" fill="url(#linearGradient-4)"></path>
        </g>
    </g>
</svg>