<?xml version="1.0" encoding="UTF-8"?>
<svg width="137px" height="147px" viewBox="0 0 137 147" version="1.1" xmlns="http://www.w3.org/2000/svg" xmlns:xlink="http://www.w3.org/1999/xlink">
    <!-- Generator: Sketch 49.3 (51167) - http://www.bohemiancoding.com/sketch -->
    <title>协议</title>
    <desc>Created with Sketch.</desc>
    <defs>
        <polygon id="path-1" points="0.000267600067 0.6324 136.657532 0.6324 136.657532 146 0.000267600067 146"></polygon>
    </defs>
    <g id="协议" stroke="none" stroke-width="1" fill="none" fill-rule="evenodd">
        <g id="Page-1">
            <polygon id="Fill-1" fill="#FFDA00" points="73.04 39.384 103.681 39.384 103.681 6.116 73.04 6.116"></polygon>
            <g id="Group-9" transform="translate(0.000000, 0.368000)">
                <path d="M63.3913,100.3203 L30.0283,100.3203 C28.1253,100.3203 26.5783,101.8973 26.5783,103.8363 C26.5943,105.7373 28.1533,107.3203 30.0523,107.3523 L63.3703,107.3523 C65.2713,107.3523 66.8183,105.7753 66.8183,103.8363 C66.8253,102.8793 66.4673,101.9933 65.8093,101.3303 C65.1633,100.6793 64.3053,100.3203 63.3913,100.3203" id="Fill-2" fill="#333333"></path>
                <path d="M92.2096,71.166 L30.0276,71.166 C28.1266,71.166 26.5786,72.743 26.5786,74.682 C26.5946,76.584 28.1526,78.166 30.0536,78.198 L92.2096,78.198 C94.1116,78.198 95.6586,76.621 95.6586,74.682 C95.6656,73.767 95.2906,72.867 94.6276,72.199 C93.9676,71.533 93.1086,71.166 92.2096,71.166" id="Fill-4" fill="#333333"></path>
                <g id="Group-8">
                    <mask id="mask-2" fill="white">
                        <use xlink:href="#path-1"></use>
                    </mask>
                    <g id="Clip-7"></g>
                    <path d="M129.7604,122.3764 C129.7604,131.5374 122.4074,138.9904 113.3694,138.9904 L23.3104,138.9904 C14.2724,138.9904 6.9194,131.5374 6.9194,122.3764 L6.9194,24.2554 C6.9194,15.0944 14.2724,7.6414 23.3104,7.6414 L67.8244,7.6414 L69.3244,7.6414 L69.3244,9.1414 L69.3244,42.7954 C69.3244,45.4364 71.3224,46.8604 73.2014,46.8604 C74.0034,46.8604 74.8034,46.6054 75.5144,46.1234 L82.3464,41.5084 C83.7024,40.5824 85.5364,40.0704 87.5044,40.0704 C89.4964,40.0704 91.3514,40.5914 92.7254,41.5384 L98.8374,45.7484 C99.6224,46.2904 100.4344,46.5644 101.2504,46.5644 C103.3654,46.5644 105.0854,44.6734 105.0854,42.3484 L105.0854,9.1414 L105.0854,7.6414 L106.5854,7.6414 L113.3694,7.6414 C122.4074,7.6414 129.7604,15.0944 129.7604,24.2554 L129.7604,122.3764 Z M76.2444,34.4214 L76.2444,9.4994 L76.2444,7.9994 L77.7444,7.9994 L96.6654,7.9994 L98.1654,7.9994 L98.1654,9.4994 L98.1654,34.0184 L98.1654,36.6824 L95.8874,35.3014 C93.5264,33.8684 90.5614,33.0794 87.5394,33.0794 C84.2504,33.0794 81.0684,33.9984 78.5804,35.6674 L76.2444,37.2334 L76.2444,34.4214 Z M113.3694,0.6324 L23.3104,0.6324 C10.4574,0.6534 0.0004,11.2504 0.0004,24.2554 L0.0004,122.3764 C-0.0206,128.5874 2.4574,134.6744 6.8014,139.0804 C11.1994,143.5424 17.0554,146.0004 23.2874,146.0004 L113.3474,146.0004 C126.1984,145.9584 136.6574,135.3604 136.6574,122.3764 L136.6574,24.2554 C136.6784,18.0224 134.2004,11.9374 129.8604,7.5544 C125.5024,3.1554 119.4914,0.6324 113.3694,0.6324 Z" id="Fill-6" fill="#333333" mask="url(#mask-2)"></path>
                </g>
            </g>
        </g>
    </g>
</svg>