<?xml version="1.0" encoding="UTF-8"?>
<svg width="115px" height="121px" viewBox="0 0 115 121" version="1.1" xmlns="http://www.w3.org/2000/svg" xmlns:xlink="http://www.w3.org/1999/xlink">
    <!-- Generator: Sketch 49.3 (51167) - http://www.bohemiancoding.com/sketch -->
    <title>咖啡</title>
    <desc>Created with Sketch.</desc>
    <defs>
        <linearGradient x1="50%" y1="0%" x2="50%" y2="100%" id="linearGradient-1">
            <stop stop-color="#FFEF00" offset="0%"></stop>
            <stop stop-color="#FFDA00" offset="100%"></stop>
        </linearGradient>
        <polygon id="path-2" points="0.00606220302 0.548 17.8035574 0.548 17.8035574 40.5054 0.00606220302 40.5054"></polygon>
        <polygon id="path-4" points="0 0.114 114.6357 0.114 114.6357 75 0 75"></polygon>
        <linearGradient x1="50%" y1="0%" x2="50%" y2="100%" id="linearGradient-6">
            <stop stop-color="#626262" offset="0%"></stop>
            <stop stop-color="#333333" offset="100%"></stop>
        </linearGradient>
    </defs>
    <g id="咖啡" stroke="none" stroke-width="1" fill="none" fill-rule="evenodd">
        <g id="Page-1">
            <path d="M68.9355,25.7847 C71.4315,27.8977 72.7755,30.0107 72.5835,31.5467 C72.3915,33.0837 70.2805,34.4267 69.7045,34.8097 C69.6945,34.8137 69.6865,34.8187 69.6765,34.8227 C67.7795,35.7817 67.0165,38.0977 67.9755,39.9947 C68.5515,41.3427 69.8955,42.1097 71.4315,42.1097 C72.0065,42.1097 72.5835,41.9177 73.1555,41.9147 C73.7295,41.7207 79.4915,38.6517 80.2585,32.6977 C80.8345,28.4777 78.7235,24.2547 73.9205,20.0247 C72.1945,18.4877 70.0815,16.1847 70.2735,13.8797 C70.4655,11.3847 73.5385,9.4637 73.5385,9.4637 C75.4575,8.3167 76.0305,6.0097 74.8825,4.0887 C73.7355,2.1667 71.4265,1.5917 69.5065,2.7427 C68.9355,3.1267 63.1745,6.7687 62.5985,13.1127 C62.2175,17.5287 64.3305,21.7537 68.9355,25.7847" id="Fill-1" fill="url(#linearGradient-1)"></path>
            <path d="M48.1924,25.7847 C50.6894,27.8977 52.0324,30.0107 51.8404,31.5467 C51.6494,33.0837 49.5384,34.4267 48.9614,34.8097 C48.9524,34.8137 48.9434,34.8187 48.9344,34.8227 C47.0364,35.7817 46.2744,38.0977 47.2324,39.9947 C47.8094,41.3427 49.1534,42.1097 50.6894,42.1097 C51.2684,42.1097 51.8444,41.9177 52.4194,41.9147 C52.9944,41.7207 58.7554,38.6517 59.5244,32.6977 C60.0944,28.4777 57.9794,24.2547 53.1804,20.0247 C51.4524,18.4877 49.3384,16.1847 49.5324,13.8797 C49.7234,11.3847 52.7964,9.4637 52.7964,9.4637 C54.7154,8.3167 55.2884,6.0097 54.1404,4.0887 C52.9934,2.1667 50.6834,1.5917 48.7634,2.7427 C48.1924,3.1267 42.4324,6.7687 41.8564,13.1127 C41.4754,17.5287 43.5884,21.7537 48.1924,25.7847" id="Fill-3" fill="url(#linearGradient-1)"></path>
            <g id="Group-7" transform="translate(18.000000, 0.452000)">
                <mask id="mask-3" fill="white">
                    <use xlink:href="#path-2"></use>
                </mask>
                <g id="Clip-6"></g>
                <path d="M6.3867,24.1814 C8.8837,26.2924 10.2267,28.4084 10.0347,29.9434 C9.8427,31.4784 7.7307,32.8234 7.1557,33.2064 C7.1457,33.2104 7.1357,33.2154 7.1257,33.2204 C5.2297,34.1794 4.4677,36.4944 5.4267,38.3914 C6.0017,39.7384 7.3467,40.5054 8.8837,40.5054 C9.4577,40.5054 10.0347,40.3144 10.6067,40.3114 C11.1827,40.1174 16.9427,37.0464 17.7107,31.0944 C18.2877,26.8694 16.1757,22.6444 11.3737,18.4214 C9.6457,16.8844 7.5337,14.5804 7.7257,12.2764 C7.9177,9.7804 10.9907,7.8594 10.9907,7.8594 C12.9107,6.7114 13.4817,4.4034 12.3347,2.4834 C11.1867,0.5634 8.8787,-0.0136 6.9577,1.1394 C6.3867,1.5234 0.6247,5.1634 0.0497,11.5074 C-0.3313,15.9244 1.7827,20.1494 6.3867,24.1814" id="Fill-5" fill="url(#linearGradient-1)" mask="url(#mask-3)"></path>
            </g>
            <g id="Group-10" transform="translate(0.000000, 45.452000)">
                <mask id="mask-5" fill="white">
                    <use xlink:href="#path-4"></use>
                </mask>
                <g id="Clip-9"></g>
                <path d="M106.7637,37.363 C106.7637,43.316 101.7707,48.308 95.8197,48.308 L92.9577,48.308 C94.1207,45.503 94.9077,42.864 95.4287,40.631 C96.9647,34.486 96.7737,29.878 96.7737,29.109 L96.7737,21.429 C102.2937,21.389 106.7637,21.178 106.7637,26.81 L106.7637,37.363 Z M78.5367,56.184 C71.6297,63.29 61.4467,66.938 48.3887,66.938 C35.5237,66.938 25.5377,63.29 18.4337,56.184 C12.6727,50.425 10.1767,43.128 9.0247,38.14 C7.6807,32.572 7.8727,28.346 7.8727,28.155 L7.8727,7.796 C24.9617,7.987 88.9057,7.987 88.9057,7.987 L88.9057,28.918 C88.9057,28.918 88.9057,33.147 87.7537,38.519 C86.6027,43.511 84.1057,50.425 78.5367,56.184 Z M96.7737,13.561 L96.7737,8.182 C96.7737,3.765 93.3167,0.117 88.8997,0.117 L88.9057,0.114 L7.8727,0.114 C3.4567,0.114 -0.0003,3.571 -0.0003,7.987 L-0.0003,28.146 C-0.0003,28.723 -0.0003,33.715 1.3437,40.051 C2.6887,46.005 5.9517,54.839 12.8657,61.943 C21.3137,70.584 33.2197,75 48.3897,75 C63.5597,75 75.6557,70.587 84.0997,61.946 C85.9017,60.092 87.4377,58.147 88.7557,56.181 L95.8197,56.181 C106.1877,56.181 114.6357,47.733 114.6357,37.363 L114.6357,26.805 C114.6357,16.653 111.4997,13.682 96.7737,13.561 Z" id="Fill-8" fill="url(#linearGradient-6)" mask="url(#mask-5)"></path>
            </g>
        </g>
    </g>
</svg>