<?xml version="1.0" encoding="UTF-8"?>
<svg width="157px" height="175px" viewBox="0 0 157 175" version="1.1" xmlns="http://www.w3.org/2000/svg" xmlns:xlink="http://www.w3.org/1999/xlink">
    <!-- Generator: Sketch 49.3 (51167) - http://www.bohemiancoding.com/sketch -->
    <title>回放</title>
    <desc>Created with Sketch.</desc>
    <defs>
        <polygon id="path-1" points="0.000207254425 0.000658261948 156.079 0.000658261948 156.079 174.65181 0.000207254425 174.65181"></polygon>
    </defs>
    <g id="回放" stroke="none" stroke-width="1" fill="none" fill-rule="evenodd">
        <g id="Page-1">
            <mask id="mask-2" fill="white">
                <use xlink:href="#path-1"></use>
            </mask>
            <g id="Clip-2"></g>
            <path d="M126.612,35.379 C105.31,18.503 78.156,14.606 54.286,22.244 L61.953,11.94 C64.346,8.723 63.955,4.074 60.812,1.586 C57.56,-0.989 52.847,-0.352 50.389,2.951 L32.908,26.445 C30.495,29.69 31.168,34.276 34.411,36.69 L59.617,55.444 C62.833,57.838 67.482,57.446 69.97,54.304 C72.546,51.051 71.908,46.339 68.604,43.881 L58.387,36.278 C77.819,29.94 99.985,33.04 117.379,46.744 C143.287,67.157 149.174,104.6 130.739,131.951 C110.359,162.188 69.124,168.98 40.202,147.46 C19.342,131.939 10.764,106.055 16.266,82.245 C16.952,79.275 15.682,76.19 13.11,74.555 C13.067,74.527 13.025,74.501 12.982,74.474 C8.773,71.797 3.142,74.026 2.015,78.886 C-4.784,108.205 5.771,140.092 31.462,159.207 C66.571,185.331 116.425,177.555 141.849,141.627 C165.662,107.978 158.925,60.976 126.612,35.379" id="Fill-1" fill="#FFFFFF" mask="url(#mask-2)"></path>
        </g>
    </g>
</svg>