<?xml version="1.0" encoding="UTF-8"?>
<svg width="150px" height="175px" viewBox="0 0 150 175" version="1.1" xmlns="http://www.w3.org/2000/svg" xmlns:xlink="http://www.w3.org/1999/xlink">
    <!-- Generator: Sketch 49.3 (51167) - http://www.bohemiancoding.com/sketch -->
    <title>地址</title>
    <desc>Created with Sketch.</desc>
    <defs>
        <polygon id="path-1" points="0 0 149.9997 0 149.9997 174.959 0 174.959"></polygon>
    </defs>
    <g id="地址" stroke="none" stroke-width="1" fill="none" fill-rule="evenodd">
        <g id="Page-1">
            <mask id="mask-2" fill="white">
                <use xlink:href="#path-1"></use>
            </mask>
            <g id="Clip-2"></g>
            <path d="M75.0187,99.9995 C61.2127,99.9995 50.0187,88.8065 50.0187,74.9995 C50.0187,61.1935 61.2127,49.9995 75.0187,49.9995 C88.8257,49.9995 100.0187,61.1935 100.0187,74.9995 C100.0187,88.8065 88.8257,99.9995 75.0187,99.9995 Z M75.0187,37.4995 C54.3067,37.4995 37.5187,54.2875 37.5187,74.9995 C37.5187,95.7125 54.3067,112.4995 75.0187,112.4995 C95.7317,112.4995 112.5187,95.7125 112.5187,74.9995 C112.5187,54.2875 95.7317,37.4995 75.0187,37.4995 Z M85.3877,152.9995 C75.0127,163.3745 75.0057,163.3995 64.6127,152.9995 L30.8307,119.0375 C19.5497,107.7435 12.4997,92.2305 12.4997,74.9995 C12.4997,40.4805 40.4817,12.4995 74.9997,12.4995 C109.5187,12.4995 137.4997,40.4805 137.4997,74.9995 C137.4997,92.2305 130.4507,107.7435 119.1687,119.0375 L85.3877,152.9995 Z M149.9997,74.9995 C149.9997,33.5805 116.4187,-0.0005 74.9997,-0.0005 C33.5807,-0.0005 -0.0003,33.5805 -0.0003,74.9995 C-0.0003,95.4435 8.2057,113.9555 21.4687,127.4865 L21.4377,127.4865 L21.7447,127.7935 C21.8937,127.9435 22.0437,128.1005 22.2007,128.2495 L64.6067,170.6555 C70.3437,176.3935 79.6437,176.3935 85.3807,170.6555 L127.7877,128.2495 C127.9377,128.1005 128.0937,127.9495 128.2437,127.7935 L128.5497,127.4865 L128.5187,127.4865 C141.7937,113.9555 149.9997,95.4435 149.9997,74.9995 Z" id="Fill-1" fill="#696969" mask="url(#mask-2)"></path>
        </g>
    </g>
</svg>