<?xml version="1.0" encoding="UTF-8"?>
<svg width="129px" height="130px" viewBox="0 0 129 130" version="1.1" xmlns="http://www.w3.org/2000/svg" xmlns:xlink="http://www.w3.org/1999/xlink">
    <!-- Generator: Sketch 49.3 (51167) - http://www.bohemiancoding.com/sketch -->
    <title>地球</title>
    <desc>Created with Sketch.</desc>
    <defs>
        <polygon id="path-1" points="0 0.6409 128.356 0.6409 128.356 128.9999 0 128.9999"></polygon>
        <linearGradient x1="50%" y1="0%" x2="50%" y2="100%" id="linearGradient-3">
            <stop stop-color="#626262" offset="0%"></stop>
            <stop stop-color="#333333" offset="100%"></stop>
        </linearGradient>
        <linearGradient x1="50%" y1="0%" x2="50%" y2="100%" id="linearGradient-4">
            <stop stop-color="#FFEF00" offset="0%"></stop>
            <stop stop-color="#FFDA00" offset="100%"></stop>
        </linearGradient>
    </defs>
    <g id="地球" stroke="none" stroke-width="1" fill="none" fill-rule="evenodd">
        <g id="Page-1">
            <g id="Group-3" transform="translate(0.000000, 0.360000)">
                <mask id="mask-2" fill="white">
                    <use xlink:href="#path-1"></use>
                </mask>
                <g id="Clip-2"></g>
                <path d="M17.5108,75.5439 C17.6828,74.9719 18.7138,73.5039 19.1668,72.8579 C20.9928,70.2639 23.2308,67.0849 21.5098,63.5929 C20.3238,61.1809 17.2398,59.5689 11.1988,58.2069 C10.1758,57.9779 9.0698,57.7559 7.8288,57.5329 C11.4658,29.2699 35.6048,8.0149 64.1718,8.0149 C73.5178,8.0149 82.7988,10.3549 91.0138,14.7789 L91.2398,14.9009 L91.2838,14.8799 C91.8488,15.1349 93.7018,16.1349 94.8178,16.9849 L94.8558,17.0319 L94.9218,17.0749 C104.8178,23.4689 112.3888,32.6009 116.8188,43.4829 C117.8658,45.7639 118.1128,46.6259 118.1658,46.9399 C118.2138,47.2139 118.2708,47.5099 118.3648,47.8099 C120.0988,53.3149 120.9778,59.0379 120.9778,64.8199 C120.9778,96.1439 95.4938,121.6289 64.1708,121.6319 C43.3378,121.6289 24.2328,110.2429 14.2458,91.8979 C16.1158,88.2779 18.8738,81.5729 17.5108,75.5439 M10.3028,77.0569 C10.6388,78.4369 10.5648,80.1549 10.0848,82.1819 C8.2928,76.6159 7.3788,70.8199 7.3658,64.9279 C7.8398,65.0169 8.3658,65.1219 8.9608,65.2459 C11.8948,65.8719 13.5078,66.4419 14.3518,66.8149 C13.9788,67.4309 13.4528,68.1699 13.1708,68.5679 C11.5338,70.8929 9.5058,73.7759 10.3028,77.0569 M128.2668,61.3359 C127.5018,46.7739 121.7048,32.7879 111.9458,21.9529 C99.5668,8.2089 82.6018,0.6409 64.1778,0.6409 C63.0228,0.6409 61.8488,0.6709 60.6898,0.7319 C46.1288,1.4979 32.1428,7.2949 21.3078,17.0559 C6.7998,30.1259 -0.9332,48.8059 0.0898,68.3049 C0.8558,82.8659 6.6518,96.8529 16.4108,107.6879 C28.7898,121.4319 45.7538,128.9999 64.1778,128.9999 C65.3338,128.9999 66.5078,128.9689 67.6658,128.9079 C82.2278,128.1429 96.2138,122.3459 107.0488,112.5849 C121.5568,99.5159 129.2898,80.8349 128.2668,61.3359" id="Fill-1" fill="url(#linearGradient-3)" mask="url(#mask-2)"></path>
            </g>
            <path d="M50.8829,49.1295 C49.8649,49.2475 48.9039,49.3585 48.1039,49.3585 C46.7019,49.3585 45.2529,49.3585 43.3019,44.8965 C40.3969,38.2355 42.5529,27.5525 51.1049,21.9075 C55.8279,18.7915 59.0639,17.4625 61.9219,17.4625 C64.2069,17.4625 66.6929,18.2695 70.2329,20.1605 C74.6119,22.4935 78.0449,22.7925 80.5489,22.7925 C81.5619,22.7925 82.5099,22.7345 83.2729,22.6905 C83.9629,22.6465 84.6319,22.6085 85.2479,22.6085 C86.5839,22.6085 87.5989,22.7725 88.8319,23.6095 C91.1499,25.1925 92.3929,28.8125 93.7089,32.6435 C95.7839,38.6855 98.1349,45.5335 105.7069,48.1095 L105.8809,48.1695 C106.7009,48.4495 107.8589,48.8455 108.8619,49.2335 C107.7969,50.2725 106.2969,51.6085 104.9489,52.8105 L104.5559,53.1625 C103.5579,54.0555 102.4469,55.0495 101.2329,56.1565 C97.0649,59.9575 97.5779,64.5195 97.9899,68.1855 L97.9909,68.1855 C98.4629,72.3865 98.9469,76.7305 93.7389,82.5765 C92.2339,84.2685 91.3699,86.5675 90.4569,89.0035 C88.3749,94.5675 86.5759,99.3725 78.7859,99.5475 C78.5369,99.1395 78.0169,98.0195 77.5319,95.2965 C77.0079,92.3245 76.6989,88.4795 76.3719,84.4075 L76.3479,84.1045 C75.8359,77.6405 75.2569,70.3135 73.6519,64.2005 C71.5679,56.2755 68.0429,51.5825 62.8769,49.8565 C60.6389,49.1095 58.3619,48.7475 55.9169,48.7475 C54.1429,48.7475 52.5419,48.9355 51.1299,49.1015 L51.0699,49.1085 L50.8829,49.1295 Z M117.2079,49.1005 C117.2059,49.0645 117.2039,49.0255 117.2019,48.9835 C117.1509,48.0895 117.0429,46.2305 115.7289,44.7285 L115.7109,44.7085 L115.6919,44.6905 C114.0179,43.1435 111.2659,42.2055 108.0789,41.1205 C103.9329,39.7085 102.4249,35.3185 100.6799,30.2355 C99.2969,26.2145 97.7309,21.6565 94.3369,18.6085 C92.6479,16.8825 92.0159,16.6375 91.0449,16.3545 C90.7549,16.2695 90.4539,16.1825 90.0609,16.0175 C88.1479,15.3265 86.4829,15.2395 85.2409,15.2395 C84.4049,15.2395 83.5839,15.2855 82.8209,15.3365 C82.1199,15.3775 81.3209,15.4245 80.5349,15.4245 C78.7889,15.4245 76.6109,15.2145 73.6899,13.6555 C68.9959,11.1585 65.4749,10.0945 61.9159,10.0945 C57.5049,10.0945 53.0559,11.7875 47.0389,15.7555 C41.8169,19.1995 37.8849,24.4695 35.9669,30.5935 C34.0899,36.5735 34.2929,42.6995 36.5399,47.8435 C39.2229,53.9865 42.7849,56.7275 48.0909,56.7275 C49.3599,56.7275 50.5789,56.5825 51.8709,56.4305 L51.8879,56.1765 C51.9039,56.1745 51.9179,56.1725 51.9339,56.1705 L51.9629,56.4195 C53.2369,56.2705 54.5549,56.1155 55.9039,56.1155 C57.5679,56.1155 59.0369,56.3465 60.5289,56.8415 C63.1509,57.7195 65.1089,60.7385 66.5139,66.0715 C67.9429,71.4895 68.4909,78.4135 68.9769,84.5225 L68.9879,84.6805 L68.9929,84.7415 C69.4009,89.8915 69.7849,94.7555 70.6369,98.4505 C71.1689,100.7515 71.8609,102.5005 72.7489,103.7985 C74.1249,105.8115 76.1059,106.9195 78.3259,106.9195 C84.1009,106.9195 88.7229,105.0495 92.0629,101.3615 C94.8179,98.3205 96.2119,94.6005 97.3329,91.6105 C97.9429,89.9815 98.6269,88.1485 99.2239,87.4755 C106.6159,79.1735 105.8529,72.3455 105.2949,67.3595 C104.8939,63.7715 104.9279,62.7365 106.1789,61.5955 C107.5279,60.3675 108.7549,59.2675 109.8369,58.3005 C112.1539,56.2315 113.8289,54.7365 115.0239,53.4395 C115.6219,52.7825 116.8659,51.4205 117.2729,49.6285 L117.3839,49.1395 L117.2079,49.1005 Z" id="Fill-4" fill="url(#linearGradient-4)"></path>
        </g>
    </g>
</svg>