<?xml version="1.0" encoding="UTF-8"?>
<svg width="182px" height="174px" viewBox="0 0 182 174" version="1.1" xmlns="http://www.w3.org/2000/svg" xmlns:xlink="http://www.w3.org/1999/xlink">
    <!-- Generator: Sketch 49.3 (51167) - http://www.bohemiancoding.com/sketch -->
    <title>大脑</title>
    <desc>Created with Sketch.</desc>
    <defs>
        <polygon id="path-1" points="0.000176707162 0.826 181.804 0.826 181.804 173 0.000176707162 173"></polygon>
    </defs>
    <g id="大脑" stroke="none" stroke-width="1" fill="none" fill-rule="evenodd">
        <g id="Page-1">
            <path d="M136.0073,148.312 L135.9853,147.734 L135.4153,147.84 C132.5443,148.375 129.5483,148.601 126.5133,148.499 C125.0493,148.452 123.5783,148.327 122.1433,148.126 L120.8623,147.948 L121.6893,148.942 C126.2993,154.482 129.5693,159.973 131.4063,165.262 C132.0113,167.018 133.6593,168.143 135.4603,168.143 C135.7783,168.143 136.1023,168.108 136.4253,168.035 L136.4283,168.035 C138.3373,167.589 139.6933,165.959 139.8033,163.966 C139.8243,163.261 139.6693,162.566 139.3413,161.899 C137.3193,157.791 136.1973,153.221 136.0073,148.312" id="Fill-1" fill="#FFDA00"></path>
            <path d="M162.3208,114.0932 C157.1948,116.7422 151.7938,117.3242 146.7108,115.7942 C146.3858,115.6972 146.0898,115.5382 145.8288,115.3212 L145.4348,114.9912 L144.9698,115.5912 C139.6298,122.2722 132.0958,126.1042 124.3018,126.1042 C124.1188,126.1042 123.9348,126.1022 123.7528,126.0982 C119.1368,125.9912 114.9818,124.5282 112.0508,121.9752 L111.7198,121.6862 L111.3908,121.9782 C110.2858,122.9572 108.9988,123.7992 107.5668,124.4782 C101.9968,127.1132 94.0578,128.6242 85.7868,128.6242 C85.1948,128.6242 84.6028,128.6162 84.0138,128.6012 L82.3448,128.5572 L83.7158,129.5112 C86.7458,131.6202 90.1568,132.8002 93.6578,132.9242 C95.6568,132.9882 97.6398,132.8102 99.5598,132.3972 C102.2088,131.8292 104.7448,130.8172 107.0998,129.3872 C107.6578,129.0452 108.3108,128.9392 108.9468,129.0952 C109.5768,129.2472 110.1088,129.6372 110.4458,130.1922 C110.7878,130.7492 110.8908,131.4052 110.7388,132.0372 C110.5858,132.6682 110.1968,133.2002 109.6438,133.5362 C108.3628,134.3132 107.0678,134.9752 105.7968,135.5072 L104.9798,135.8482 L105.6928,136.3712 C108.1968,138.2082 110.8678,139.7132 113.6298,140.8452 L113.7268,140.8782 C117.8278,142.5552 122.1758,143.4782 126.6508,143.6222 C127.0518,143.6352 127.4548,143.6422 127.8558,143.6422 C131.2108,143.6422 134.5508,143.1912 137.8038,142.2982 C139.0388,141.9572 140.2978,141.5312 141.5478,141.0322 C144.0488,140.4792 161.6438,127.9562 163.0478,114.5892 L163.1438,113.6672 L162.3208,114.0932 Z" id="Fill-3" fill="#FFDA00"></path>
            <g id="Group-7" transform="translate(0.000000, 0.174000)">
                <mask id="mask-2" fill="white">
                    <use xlink:href="#path-1"></use>
                </mask>
                <g id="Clip-6"></g>
                <path d="M175.5307,86.1643 C173.1537,96.3483 167.6117,104.8153 160.7037,108.8173 C157.9267,110.4263 155.0797,111.2413 152.2387,111.2413 C150.9007,111.2413 149.5697,111.0563 148.2817,110.6903 L147.9587,110.5983 L148.0867,110.2873 C153.3757,97.4273 145.6287,81.7423 144.7267,79.9963 L144.6037,79.7573 L144.8277,79.6083 C148.5217,77.1533 151.1697,73.9183 152.6967,69.9913 C157.1427,58.5623 151.0587,44.8043 149.0897,40.8583 L146.5687,35.8203 C146.1087,34.8993 145.1817,34.3273 144.1517,34.3273 C143.7307,34.3273 143.3257,34.4243 142.9457,34.6133 C141.6147,35.2793 141.0727,36.9043 141.7387,38.2363 L144.2587,43.2733 C145.4827,45.7233 151.4027,58.4263 147.6647,68.0343 C145.9987,72.3173 142.6797,75.3573 137.5227,77.3293 C135.3107,78.1753 132.9657,78.6033 130.5497,78.6033 C113.4767,78.6033 97.3437,57.6443 97.1827,57.4333 C96.6697,56.7703 95.8907,56.3903 95.0497,56.3903 C94.4637,56.3903 93.9057,56.5753 93.4347,56.9273 C92.2427,57.8183 91.9967,59.5133 92.8877,60.7063 C93.6097,61.6563 110.8387,84.0243 130.5027,84.0243 C133.5977,84.0243 136.5957,83.4693 139.4497,82.3723 L139.5517,82.3283 L139.8037,82.2303 L139.9267,82.4723 C140.1987,83.0043 142.6157,87.8403 143.8267,93.7983 C145.3917,101.5073 144.3687,107.6883 140.7837,112.1703 C136.4317,117.6093 130.3777,120.7293 124.1727,120.7293 C124.0297,120.7293 123.8867,120.7273 123.7447,120.7253 C120.1777,120.6433 116.8967,119.4523 114.9657,117.5403 L114.8167,117.3933 L114.9037,117.2023 C117.4837,111.5253 116.3147,104.5093 114.5297,100.2253 C114.1087,99.2183 113.1307,98.5663 112.0387,98.5663 C111.6837,98.5663 111.3367,98.6363 111.0067,98.7723 C109.6357,99.3423 108.9777,100.9233 109.5427,102.2973 C109.7567,102.8183 114.6817,115.1213 105.2147,119.6053 C100.3577,121.9053 93.1407,123.2243 85.4147,123.2243 C76.7197,123.2243 69.2447,121.4943 65.9047,118.7113 C65.6907,118.5323 65.4687,118.3523 65.2397,118.1653 L65.1627,118.1013 C61.5507,115.1633 56.0927,110.7233 55.5397,92.9933 C55.4117,88.8913 55.4207,82.4433 56.1927,75.0253 L56.2117,74.8463 L56.3787,74.7783 C56.6247,74.6793 56.8167,74.5753 56.9837,74.4513 C57.4087,74.1373 61.3027,71.3743 67.1727,71.3743 C73.7907,71.3743 80.1487,74.8233 86.0717,81.6243 C89.2407,85.2633 90.4177,88.5163 89.3847,90.7843 C88.2017,93.3833 84.2747,94.7843 81.1797,94.7843 C80.4517,94.7853 79.7737,95.0673 79.2637,95.5783 C78.7557,96.0893 78.4747,96.7673 78.4767,97.4883 C78.4787,98.9753 79.6897,100.1853 81.1767,100.1853 C86.0877,100.1853 92.0467,97.9703 94.2997,93.0213 C95.6857,89.9733 96.0917,84.9053 90.1427,78.0763 C83.1687,70.0673 75.5097,66.0063 67.3797,66.0063 C63.2287,66.0063 59.7647,67.1133 57.5907,68.0433 L57.0867,68.2583 L57.1767,67.7183 C59.6197,53.0063 64.5407,40.7683 71.8017,31.3463 L71.8817,31.2433 L72.0107,31.2303 C74.4327,30.9853 78.2757,30.6933 82.8267,30.6933 C93.6317,30.6933 108.2377,32.3503 116.4677,40.2353 C129.5907,52.8123 126.1877,60.6063 126.0367,60.9323 C125.8217,61.3363 125.7117,61.7743 125.7117,62.2163 C125.7097,63.7053 126.9207,64.9173 128.4087,64.9183 C129.4107,64.9183 130.3237,64.3703 130.7937,63.4863 C131.0387,63.0263 136.5957,52.0473 120.2027,36.3363 C110.6637,27.1933 94.5747,25.2733 82.7577,25.2733 C81.1477,25.2733 79.5057,25.3103 77.8737,25.3823 L77.0717,25.4173 L77.6537,24.8643 C81.0257,21.6653 84.7667,18.9273 88.7757,16.7263 C98.2957,11.5003 108.4987,8.7373 118.2817,8.7373 C134.2207,8.7373 148.2307,15.7783 157.7287,28.5633 C172.4887,48.4323 160.3257,62.3253 159.8007,62.9073 C158.8557,63.9873 158.9247,65.6213 159.9587,66.6223 C160.4657,67.1123 161.1327,67.3833 161.8367,67.3833 C162.5747,67.3833 163.2637,67.0903 163.7777,66.5603 C163.8097,66.5243 167.5217,62.4163 169.3617,55.4083 L169.5517,54.6823 L169.9147,55.3403 C173.2747,61.4413 178.4727,73.5603 175.5307,86.1643 Z M162.7217,114.3943 C161.3227,127.7333 143.7227,140.2193 141.3617,140.6673 C140.1167,141.1653 138.8597,141.5903 137.6257,141.9313 C134.3947,142.8173 131.0647,143.2683 127.7287,143.2683 C127.3307,143.2683 126.9307,143.2613 126.5317,143.2483 C122.0677,143.1043 117.7337,142.1823 113.6477,140.5073 L113.5797,140.4863 C110.8347,139.3613 108.1777,137.8643 105.6847,136.0353 L105.2567,135.7223 L105.7467,135.5173 C107.0287,134.9813 108.3327,134.3143 109.6217,133.5333 C110.2197,133.1703 110.6407,132.5943 110.8067,131.9113 C110.9727,131.2273 110.8607,130.5173 110.4907,129.9133 C110.0107,129.1233 109.1727,128.6523 108.2467,128.6523 C107.7627,128.6523 107.2877,128.7873 106.8707,129.0423 C104.5347,130.4603 102.0187,131.4643 99.3927,132.0263 C97.7457,132.3833 96.0427,132.5623 94.3327,132.5623 C94.0677,132.5623 93.8027,132.5593 93.5387,132.5503 L93.4787,132.5483 C90.0757,132.4273 86.7027,131.2603 83.7047,129.1733 L82.8827,128.6013 L83.8837,128.6273 C84.4737,128.6433 85.0667,128.6503 85.6607,128.6503 C93.9627,128.6503 101.9317,127.1323 107.5257,124.4843 C108.9737,123.7983 110.2767,122.9463 111.3977,121.9533 L111.5947,121.7783 L111.7937,121.9513 C114.7597,124.5343 118.9597,126.0173 123.6217,126.1233 C123.8067,126.1273 123.9907,126.1293 124.1767,126.1293 C132.0307,126.1303 139.6207,122.2703 145.0007,115.5423 C145.0247,115.5123 145.0467,115.4803 145.0687,115.4493 C145.0937,115.4143 145.1187,115.3803 145.1447,115.3463 L145.3367,115.1013 L145.5747,115.3003 C145.8557,115.5343 146.1767,115.7073 146.5267,115.8123 C148.3977,116.3743 150.3247,116.6583 152.2527,116.6583 C155.6217,116.6583 158.9977,115.7973 162.2867,114.0973 L162.7807,113.8413 L162.7217,114.3943 Z M136.2567,167.6653 C135.9557,167.7333 135.6497,167.7683 135.3437,167.7683 C133.5927,167.7683 132.0347,166.6643 131.4697,165.0213 C129.6247,159.7103 126.3437,154.1983 121.7177,148.6403 L121.2207,148.0433 L121.9887,148.1503 C123.4297,148.3523 124.9087,148.4773 126.3807,148.5243 C126.8517,148.5403 127.3227,148.5483 127.7917,148.5483 C130.3537,148.5483 132.8887,148.3173 135.3267,147.8623 L135.6687,147.7993 L135.6807,148.1453 C135.8737,153.0823 137.0017,157.6813 139.0367,161.8133 C139.3497,162.4503 139.4987,163.1143 139.4767,163.7863 C139.3737,165.6853 138.0797,167.2403 136.2567,167.6653 Z M51.6677,68.0153 L51.6147,68.3533 L51.2867,68.2563 C49.2487,67.6553 47.1377,67.3513 45.0147,67.3513 C41.7557,67.3513 38.5017,68.0893 35.6057,69.4843 C30.2577,72.0633 26.6207,76.5793 25.6277,81.8723 C23.7567,91.8553 30.2677,96.1093 33.9727,96.9643 C34.1707,97.0103 34.3727,97.0333 34.5737,97.0333 C35.8207,97.0283 36.8917,96.1813 37.1827,94.9723 C37.5317,93.5433 36.6487,92.0803 35.2157,91.7103 C34.2697,91.4663 29.6187,89.8933 30.9357,82.8673 C31.6097,79.2783 34.1667,76.1743 37.9517,74.3493 C40.1177,73.3053 42.5537,72.7533 44.9987,72.7533 C46.9357,72.7533 48.8447,73.0863 50.6757,73.7443 L50.8977,73.8243 L50.8727,74.0593 C50.0227,81.9493 50.0077,88.8023 50.1427,93.1603 C50.3487,99.7473 51.2567,105.3723 52.8377,109.8793 L52.8977,110.0513 L52.7727,110.1843 C50.9687,112.0993 44.2907,118.3473 34.1057,118.3473 C31.9937,118.3473 29.8307,118.0743 27.6767,117.5353 C11.2737,113.4343 2.3157,94.8823 6.3747,73.4253 C7.6517,66.6743 11.2687,54.5053 21.1397,48.8613 L21.3887,48.7193 L21.5427,48.9613 C26.1137,56.1793 37.4267,56.7403 40.7857,56.7403 C41.2507,56.7403 41.5447,56.7293 41.6247,56.7263 C42.3447,56.6943 43.0097,56.3853 43.4977,55.8523 C43.9847,55.3213 44.2357,54.6323 44.2047,53.9113 C44.1417,52.4633 42.9587,51.3283 41.5097,51.3283 C41.4697,51.3283 41.4297,51.3293 41.3907,51.3313 C41.3787,51.3323 41.2067,51.3373 40.9077,51.3373 C38.8307,51.3373 28.3307,51.0483 25.6967,45.3413 C24.4197,42.5733 24.8657,39.0313 26.8917,35.8643 C30.9557,29.5153 40.4147,25.8723 52.8427,25.8723 C62.0347,25.8723 65.3037,28.2643 66.2827,29.2923 L66.4547,29.4733 L66.3087,29.6753 C58.9827,39.8293 54.0567,52.7293 51.6677,68.0153 Z M51.3537,19.9773 C54.6737,16.5743 61.4257,10.5083 69.3617,8.1273 C73.6327,6.8473 77.5287,6.1973 80.9437,6.1963 C86.5997,6.1963 89.6977,7.9973 91.0407,9.0703 L91.4197,9.3743 L90.9787,9.5773 C89.2767,10.3623 87.7067,11.1523 86.1777,11.9913 C80.0887,15.3353 74.6637,19.6953 70.0537,24.9533 L69.8537,25.1823 L69.6287,24.9783 C67.3427,22.9223 62.5747,20.4723 52.8427,20.4723 C52.4577,20.4723 52.0837,20.4783 51.7087,20.4853 L51.5747,20.4873 L50.8447,20.5003 L51.3537,19.9773 Z M172.1707,48.6823 C171.7907,48.1713 171.2227,47.8103 170.5787,47.6703 L170.3447,47.6193 L170.3427,47.3813 C170.2407,40.0153 167.4557,32.6003 162.0647,25.3423 C151.4997,11.1213 135.9827,3.2893 118.3737,3.2893 C111.2587,3.2893 104.0297,4.5873 96.8907,7.1483 L96.6797,7.2243 L96.5487,7.0433 C95.7857,6.0053 91.4477,0.8253 80.8367,0.8253 C76.9037,0.8253 72.5207,1.5423 67.8107,2.9553 C54.5557,6.9323 44.8337,19.0963 44.4267,19.6113 C44.1387,19.9753 43.9497,20.4133 43.8797,20.8803 L43.8457,21.0993 L43.6277,21.1323 C37.9507,21.9963 27.6347,24.6823 22.3427,32.9533 C20.2697,36.1923 19.3137,39.8813 19.6517,43.3373 L19.6717,43.5403 L19.4897,43.6333 C17.0597,44.8773 13.4237,47.2913 9.9057,51.7263 C5.6167,57.1323 2.6437,64.0953 1.0687,72.4213 C-3.5393,96.7813 7.0997,117.9573 26.3677,122.7733 C29.0077,123.4343 31.6517,123.7683 34.2267,123.7683 C44.4097,123.7683 51.6507,118.5843 55.0597,115.4953 L55.3267,115.2543 L55.5157,115.5593 C57.6187,118.9253 59.9127,120.7903 61.7567,122.2903 L61.8807,122.3913 C62.0757,122.5503 62.2657,122.7053 62.4497,122.8583 C64.9307,124.9273 68.9007,126.5513 73.9287,127.5563 L74.0307,127.5763 L74.0977,127.6543 C80.2797,134.8743 89.0097,137.6703 93.3687,137.7873 C93.6687,137.7953 93.9687,137.8003 94.2677,137.8003 C95.9027,137.8003 97.4847,137.6743 98.9697,137.4273 L99.1137,137.4023 L99.2207,137.5003 C102.7817,140.7313 106.7727,143.2953 111.0827,145.1203 L111.1307,145.1413 L111.1687,145.1763 C113.8597,147.6413 122.9167,156.4813 126.4657,166.7183 C127.7287,170.3493 131.1547,172.8713 134.9907,172.9943 C135.0967,172.9983 135.2037,173.0003 135.3097,173.0003 C136.0137,173.0003 136.7127,172.9223 137.3847,172.7683 C141.5407,171.8243 144.5387,168.1913 144.6767,163.9343 C144.7257,162.3873 144.3887,160.8443 143.7027,159.4733 C141.8207,155.6383 140.8637,151.3153 140.8567,146.6253 L140.8557,146.3853 L141.0907,146.3313 C147.6157,144.8603 170.6317,128.6183 168.9967,109.6823 C168.9947,109.6723 168.9897,109.6593 168.9707,109.6203 L168.8757,109.4233 L169.0187,109.2413 C174.5527,103.9643 178.7337,96.2033 180.7907,87.3903 C185.4207,67.5523 172.7137,49.4423 172.1707,48.6823 Z" id="Fill-5" fill="#333333" mask="url(#mask-2)"></path>
            </g>
        </g>
    </g>
</svg>