<?xml version="1.0" encoding="UTF-8"?>
<svg width="191px" height="179px" viewBox="0 0 191 179" version="1.1" xmlns="http://www.w3.org/2000/svg" xmlns:xlink="http://www.w3.org/1999/xlink">
    <!-- Generator: Sketch 49.3 (51167) - http://www.bohemiancoding.com/sketch -->
    <title>天平</title>
    <desc>Created with Sketch.</desc>
    <defs>
        <polygon id="path-1" points="0.001 0.634 190.074 0.634 190.074 178 0.001 178"></polygon>
    </defs>
    <g id="天平" stroke="none" stroke-width="1" fill="none" fill-rule="evenodd">
        <g id="Page-1">
            <path d="M38.105,23.6288 C34.8,23.6288 32.121,26.3078 32.121,29.6118 C32.121,32.9178 34.8,35.5968 38.105,35.5968 C41.41,35.5968 44.088,32.9178 44.088,29.6118 C44.088,26.3078 41.41,23.6288 38.105,23.6288" id="Fill-1" fill="#FFDA00"></path>
            <path d="M152.0425,23.6288 C148.7375,23.6288 146.0595,26.3078 146.0595,29.6118 C146.0595,32.9178 148.7375,35.5968 152.0425,35.5968 C155.3475,35.5968 158.0255,32.9178 158.0255,29.6118 C158.0255,26.3078 155.3475,23.6288 152.0425,23.6288" id="Fill-3" fill="#FFDA00"></path>
            <path d="M95.0366,15.1445 C87.0466,15.1445 80.5686,21.6225 80.5686,29.6125 C80.5686,37.6035 87.0466,44.0815 95.0366,44.0815 C103.0276,44.0815 109.5056,37.6035 109.5056,29.6125 C109.5056,21.6225 103.0276,15.1445 95.0366,15.1445" id="Fill-5" fill="#FFDA00"></path>
            <g id="Group-9" transform="translate(0.000000, 0.366000)">
                <mask id="mask-2" fill="white">
                    <use xlink:href="#path-1"></use>
                </mask>
                <g id="Clip-8"></g>
                <path d="M120.355,124.2794 L120.329,124.0054 L120.604,124.0054 L184.451,124.0054 L184.726,124.0054 L184.7,124.2794 C183.084,140.8854 169.254,153.4084 152.527,153.4084 C135.8,153.4084 121.969,140.8854 120.355,124.2794 Z M121.438,118.4444 L151.978,42.8514 L152.208,42.2814 L152.441,42.8504 L183.407,118.4434 L183.548,118.7884 L183.175,118.7884 L121.67,118.7884 L121.299,118.7884 L121.438,118.4444 Z M153.801,25.5844 C154.422,25.8704 154.958,26.3414 155.328,26.9154 C156.064,28.0564 156.107,29.2974 155.684,30.3364 C155.123,31.7174 153.686,32.5414 152.195,32.5344 L151.724,32.5324 C151.241,32.5304 150.754,32.4274 150.337,32.1824 C149.205,31.5174 148.465,30.2924 148.465,28.9694 C148.465,26.4234 151.167,24.3714 153.801,25.5844 Z M95.039,42.2424 C87.72,42.2424 81.766,36.2884 81.766,28.9694 C81.766,21.6514 87.72,15.6974 95.039,15.6974 C102.357,15.6974 108.311,21.6514 108.311,28.9694 C108.311,36.2884 102.357,42.2424 95.039,42.2424 Z M37.868,32.7144 C35.838,32.7144 34.124,30.9994 34.124,28.9694 C34.124,26.9404 35.838,25.2254 37.868,25.2254 C39.589,25.2254 41.267,26.8864 41.608,28.9284 C41.612,30.9994 39.897,32.7144 37.868,32.7144 Z M68.632,118.1264 L68.772,118.4694 L68.401,118.4694 L7.155,118.4694 L6.784,118.4694 L6.924,118.1264 L37.636,42.8504 L37.868,42.2814 L38.099,42.8504 L68.632,118.1264 Z M69.749,124.0054 L69.722,124.2794 C68.108,140.8854 54.277,153.4084 37.55,153.4084 C20.823,153.4084 6.993,140.8854 5.377,124.2794 L5.351,124.0054 L5.626,124.0054 L69.473,124.0054 L69.749,124.0054 Z M190.074,121.0794 C190.074,120.6564 156.167,37.4094 156.167,37.4094 L156.075,37.1844 L156.296,37.0864 C159.545,35.6504 161.486,32.6194 161.488,28.9754 C161.49,25.3364 159.205,21.9114 155.801,20.4534 C154.621,19.9474 153.413,19.6914 152.209,19.6914 C148.4,19.6914 144.894,22.3624 143.685,26.1864 L143.629,26.3614 L113.377,26.4534 L113.342,26.1954 C112.253,18.1284 105.886,11.6334 97.859,10.4004 L97.647,10.3684 L97.647,10.1534 L97.647,3.3674 C97.647,1.9684 96.62,0.7744 95.308,0.6474 C95.217,0.6384 95.127,0.6334 95.039,0.6334 C94.326,0.6334 93.672,0.9164 93.197,1.4274 C92.703,1.9604 92.43,2.7174 92.43,3.5604 L92.43,10.1524 L92.43,10.3674 L92.217,10.3994 C84.08,11.6414 77.7,18.1334 76.702,26.1894 L76.669,26.4474 L46.739,26.3614 L46.546,26.3614 L46.497,26.1764 C45.434,22.2364 42.046,19.6914 37.868,19.6914 C32.751,19.6914 28.589,23.8534 28.589,28.9694 C28.589,32.5114 30.627,35.6244 33.909,37.0914 L34.13,37.1904 L34.039,37.4144 C22.383,65.8414 0.269,119.9184 0.001,121.1164 C0.003,141.9574 16.989,158.9424 37.868,158.9424 C57.005,158.9424 72.925,144.5924 74.899,125.5624 C74.996,124.6334 75.197,123.7134 75.392,122.8224 C75.463,122.4934 75.536,122.1634 75.603,121.8324 C75.708,121.3174 75.648,120.7594 75.432,120.2184 L41.643,37.2834 L41.557,37.0724 L41.76,36.9664 C43.835,35.8974 45.483,33.9944 46.282,31.7454 L46.34,31.5784 L46.517,31.5784 L76.743,31.4784 L76.782,31.7354 C77.987,39.6434 84.334,46.0114 92.218,47.2214 L92.43,47.2544 L92.43,47.4684 L92.43,172.2154 L92.43,172.4654 L92.18,172.4654 L66.135,172.4654 C64.875,172.4654 63.527,173.1504 63.527,175.0734 C63.527,176.8814 65.045,178.0004 66.453,178.0004 L122.794,178.0004 C124.232,178.0004 125.508,177.0594 125.83,175.7624 C126.034,174.9394 125.864,174.1004 125.364,173.4624 C124.868,172.8284 124.118,172.4654 123.306,172.4654 L97.897,172.4654 L97.647,172.4654 L97.647,172.2154 L97.647,47.4674 L97.647,47.2544 L97.859,47.2204 C105.777,46.0034 111.967,39.7774 113.261,31.7284 L113.303,31.4704 L143.639,31.5784 L143.696,31.7514 C144.429,33.9944 146.066,35.8954 148.185,36.9664 L148.391,37.0704 L148.304,37.2834 L114.679,119.8184 C114.454,120.2404 114.345,120.6554 114.345,121.0794 C114.345,141.9574 131.332,158.9424 152.209,158.9424 C173.088,158.9424 190.074,141.9574 190.074,121.0794 Z" id="Fill-7" fill="#333333" mask="url(#mask-2)"></path>
            </g>
        </g>
    </g>
</svg>