<?xml version="1.0" encoding="UTF-8"?>
<svg width="125px" height="117px" viewBox="0 0 125 117" version="1.1" xmlns="http://www.w3.org/2000/svg" xmlns:xlink="http://www.w3.org/1999/xlink">
    <!-- Generator: Sketch 49.3 (51167) - http://www.bohemiancoding.com/sketch -->
    <title>奖学金</title>
    <desc>Created with Sketch.</desc>
    <defs>
        <linearGradient x1="50%" y1="0%" x2="50%" y2="100%" id="linearGradient-1">
            <stop stop-color="#626262" offset="0%"></stop>
            <stop stop-color="#333333" offset="100%"></stop>
        </linearGradient>
        <polygon id="path-2" points="0.5336 0.254284371 93.7636 0.254284371 93.7636 58 0.5336 58"></polygon>
        <linearGradient x1="50%" y1="0%" x2="50%" y2="100%" id="linearGradient-4">
            <stop stop-color="#FFEF00" offset="0%"></stop>
            <stop stop-color="#FFDA00" offset="100%"></stop>
        </linearGradient>
    </defs>
    <g id="奖学金" stroke="none" stroke-width="1" fill="none" fill-rule="evenodd">
        <g id="Page-1">
            <path d="M63.8073,61.5588 C62.7163,62.1418 61.2863,62.1418 60.1993,61.5588 L8.8643,34.0328 L60.2723,8.1418 C61.3643,7.6108 62.6383,7.6108 63.7303,8.1418 L63.7303,8.1458 L115.4333,34.0328 L63.8073,61.5588 Z M124.2893,34.5298 L124.2933,34.5338 C124.5033,31.8378 123.0363,29.1688 120.3823,27.8368 L67.2183,1.2198 C63.9273,-0.4102 60.0633,-0.4062 56.7763,1.2318 L3.9153,27.8448 C2.8203,28.3998 1.8753,29.2078 1.1923,30.2098 C-1.1497,33.6288 0.0933,38.1268 3.7443,40.0848 L56.5163,68.3798 C59.9413,70.1948 64.0413,70.1988 67.4713,68.3918 L116.5363,42.2288 L116.5363,81.3588 C116.5363,83.5028 118.2763,85.2428 120.4213,85.2428 C122.5673,85.2428 124.3053,83.5028 124.3053,81.3588 L124.3053,34.8788 C124.3053,34.7628 124.3013,34.6468 124.2893,34.5298 Z" id="Fill-1" fill="url(#linearGradient-1)"></path>
            <g id="Group-5" transform="translate(15.000000, 58.533000)">
                <mask id="mask-3" fill="white">
                    <use xlink:href="#path-2"></use>
                </mask>
                <g id="Clip-4"></g>
                <path d="M86.0026,38.6196 C86.0026,45.0416 80.7856,50.2466 74.3486,50.2466 L19.9646,50.2466 L19.9606,50.2466 C13.5336,50.2526 8.3166,45.0476 8.3116,38.6196 L8.3116,10.0646 L41.6096,26.7446 C45.0016,28.4136 48.9746,28.4176 52.3696,26.7566 L52.3776,26.7526 L86.0026,10.0146 L86.0026,38.6196 Z M87.2496,0.7316 L48.9006,19.8186 C47.7546,20.3906 46.2396,20.3906 45.0986,19.8186 L7.0576,0.7746 C4.0616,-0.7254 0.5336,1.4536 0.5336,4.8046 L0.5336,38.6236 C0.5336,49.3256 9.2316,58.0006 19.9566,58.0006 L74.3406,58.0006 C85.0556,58.0136 93.7506,49.3376 93.7636,38.6236 L93.7636,4.7656 C93.7636,1.4206 90.2456,-0.7584 87.2496,0.7316 Z" id="Fill-3" fill="url(#linearGradient-4)" mask="url(#mask-3)"></path>
            </g>
        </g>
    </g>
</svg>