<?xml version="1.0" encoding="UTF-8"?>
<svg width="158px" height="175px" viewBox="0 0 158 175" version="1.1" xmlns="http://www.w3.org/2000/svg" xmlns:xlink="http://www.w3.org/1999/xlink">
    <!-- Generator: Sketch 49.3 (51167) - http://www.bohemiancoding.com/sketch -->
    <title>奖杯</title>
    <desc>Created with Sketch.</desc>
    <defs>
        <polygon id="path-1" points="0 0.991 157.423 0.991 157.423 174 0 174"></polygon>
    </defs>
    <g id="奖杯" stroke="none" stroke-width="1" fill="none" fill-rule="evenodd">
        <g id="Page-1">
            <g id="Group-3" transform="translate(0.000000, 0.009000)">
                <mask id="mask-2" fill="white">
                    <use xlink:href="#path-1"></use>
                </mask>
                <g id="Clip-2"></g>
                <path d="M132.8495,70.695 L132.4655,70.724 L131.8275,70.774 L131.9345,70.142 L131.9985,69.763 C132.4745,66.952 132.7165,64.112 132.7165,61.323 L132.7165,31.721 L132.7165,31.385 L132.7165,30.826 L133.2725,30.888 L133.6065,30.926 C144.0655,32.108 151.9535,40.642 151.9535,50.776 C151.9535,61.116 143.5615,69.865 132.8495,70.695 Z M127.2455,17.632 L127.2455,17.932 L127.2455,18.432 L126.7455,18.432 L126.4465,18.432 L30.3715,18.432 L30.0725,18.432 L29.5725,18.432 L29.5725,17.932 L29.5725,17.632 L29.5725,10.952 C29.5725,8.475 31.5865,6.461 34.0635,6.461 L122.7545,6.461 C125.2315,6.461 127.2455,8.475 127.2455,10.952 L127.2455,17.632 Z M127.2455,24.558 L127.2455,24.858 L127.2455,61.323 C127.2455,78.817 117.0185,95.155 100.5535,103.963 C96.3645,106.194 93.0095,109.562 90.8535,113.705 L90.7695,113.866 L90.6285,114.135 L90.3255,114.135 L90.1435,114.135 L66.2285,114.135 L66.0545,114.135 L65.7645,114.135 L65.6205,113.883 L65.5345,113.732 C63.3205,109.856 60.0285,106.695 56.0155,104.591 C39.9515,96.132 29.5725,79.148 29.5725,61.323 L29.5725,24.858 L29.5725,24.558 L29.5725,24.058 L30.0725,24.058 L30.3715,24.058 L126.4465,24.058 L126.7455,24.058 L127.2455,24.058 L127.2455,24.558 Z M104.6685,141.968 L104.9425,141.966 C107.3565,141.966 109.1205,142.498 110.1895,143.545 C111.5505,144.888 111.7845,147.061 111.8415,148.579 L111.8535,148.889 L111.8725,149.409 L111.3535,149.409 L111.0415,149.409 L44.0325,149.409 L43.6685,149.409 L43.0625,149.409 L43.1775,148.814 L43.2455,148.457 C43.5895,146.675 44.3105,145.257 45.3895,144.238 C47.5905,142.147 50.8295,141.985 51.7705,141.985 C51.8995,141.985 51.9785,141.988 51.9985,141.989 L52.2275,141.988 C61.1995,141.988 68.4975,134.689 68.4975,125.717 L68.4975,124.78 C68.4975,123.464 68.3665,122.093 68.1065,120.71 L68.0385,120.354 L67.9275,119.761 L68.5305,119.761 L68.8925,119.761 L87.7885,119.761 L88.1375,119.761 L88.7195,119.761 L88.6315,120.337 L88.5795,120.681 C88.4075,121.814 88.3205,122.937 88.3205,124.018 L88.3205,125.698 C88.3205,134.67 95.6545,141.968 104.6685,141.968 Z M124.7275,154.898 L124.9615,154.898 L125.3525,154.898 L125.4465,155.277 L125.5035,155.505 C125.5205,155.573 125.5305,155.633 125.5385,155.693 L128.0305,167.565 L128.1055,167.926 L128.2325,168.53 L127.6165,168.53 L127.2465,168.53 L29.5905,168.53 L29.2215,168.53 L28.6065,168.53 L28.7325,167.927 L28.8075,167.566 L31.2685,155.75 L31.2785,155.699 C31.2875,155.633 31.2975,155.573 31.3145,155.504 L31.3705,155.277 L31.4655,154.898 L31.8565,154.898 L32.0905,154.898 L124.7275,154.898 Z M24.3065,70.644 L23.9135,70.602 C13.3995,69.463 5.4705,60.923 5.4705,50.737 C5.4705,40.92 13.0865,32.425 23.1885,30.979 L23.5315,30.93 L24.1015,30.848 L24.1015,31.425 L24.1015,31.771 L24.1015,61.323 C24.1015,64.067 24.3325,66.879 24.7895,69.677 L24.8535,70.067 L24.9585,70.716 L24.3065,70.644 Z M133.4505,25.409 L133.1745,25.386 L132.7165,25.347 L132.7165,24.888 L132.7165,24.612 L132.7165,10.952 C132.7165,5.46 128.2475,0.991 122.7545,0.991 L34.0635,0.991 C28.5705,0.991 24.1015,5.46 24.1015,10.952 L24.1015,24.627 L24.1015,24.897 L24.1015,25.347 L23.6545,25.394 L23.3855,25.423 C10.0535,26.834 -0.0005,37.725 -0.0005,50.757 C-0.0005,64.525 11.5345,75.954 25.7125,76.232 L25.9295,76.237 L26.2905,76.244 L26.3975,76.59 L26.4605,76.797 C30.7665,90.772 40.6135,102.671 53.4795,109.444 C59.3685,112.532 63.0275,118.408 63.0275,124.78 L63.0275,125.717 C63.0275,131.61 58.2305,136.455 52.3335,136.518 C52.1535,136.51 51.9575,136.504 51.7105,136.504 C49.8845,136.504 45.2525,136.863 41.7005,140.188 C39.4405,142.298 38.0895,145.161 37.6845,148.7 L37.6545,148.966 L37.6035,149.409 L37.1575,149.409 L36.8895,149.409 L32.0905,149.409 C29.0375,149.409 26.3705,151.672 25.8885,154.674 L23.3815,166.663 L23.3715,166.714 C23.3635,166.771 23.3555,166.823 23.3425,166.881 C23.0945,168.651 23.6345,170.456 24.8255,171.836 C26.0265,173.211 27.7565,174 29.5715,174 L127.2465,174 C129.0805,174 130.8095,173.206 131.9895,171.82 C133.1875,170.448 133.7255,168.63 133.4685,166.824 C133.4605,166.788 133.4535,166.744 133.4475,166.7 L130.9365,154.71 C130.4305,151.679 127.7625,149.409 124.7275,149.409 L118.1605,149.409 L117.8695,149.409 L117.3835,149.409 L117.3695,148.923 L117.3605,148.632 C117.2455,144.689 116.1745,141.761 114.0845,139.683 C111.9615,137.578 108.9695,136.509 105.1925,136.509 C105.0065,136.509 104.8205,136.512 104.6315,136.517 C101.7335,136.517 99.0205,135.393 96.9775,133.351 C94.9355,131.309 93.8105,128.598 93.8105,125.717 L93.8105,124.038 C93.8105,117.732 97.3835,111.894 103.1375,108.802 C116.3115,101.749 125.9545,90.381 130.2895,76.791 L130.3595,76.575 L130.4745,76.214 L130.8525,76.227 L131.0795,76.234 C131.1155,76.236 131.1505,76.239 131.1845,76.243 C145.6595,76.226 157.4235,64.817 157.4235,50.796 C157.4235,37.687 146.8925,26.536 133.4505,25.409 Z" id="Fill-1" fill="#333333" mask="url(#mask-2)"></path>
            </g>
            <path d="M90.4618,70.9247 L92.4088,82.2187 L82.2618,76.8747 C81.1138,76.2687 79.8588,75.9657 78.6048,75.9657 C77.3498,75.9657 76.0948,76.2687 74.9258,76.8747 L64.7778,82.2187 L66.7258,70.9247 C67.1578,68.3707 66.3148,65.7747 64.4758,63.9787 L56.2528,55.9727 L67.6118,54.3277 C70.1668,53.9597 72.3758,52.3577 73.5198,50.0437 L78.5828,39.7437 L83.6678,50.0437 C84.8148,52.3597 87.0218,53.9607 89.5748,54.3277 L100.9348,55.9727 L92.7118,63.9787 C90.8728,65.7747 90.0288,68.3707 90.4618,70.9247" id="Fill-4" fill="#FFDA00"></path>
            <path d="M99.5692,56.6767 L99.1332,57.1007 L91.7112,64.3267 C90.2372,65.7667 89.5642,67.8467 89.9112,69.8907 L91.6682,80.0827 L91.7712,80.6837 L91.9442,81.6837 L91.0462,81.2107 L90.5062,80.9267 L81.3462,76.1027 C80.4452,75.6257 79.4322,75.3747 78.4192,75.3747 C77.3942,75.3747 76.4012,75.6197 75.4662,76.1057 L66.3112,80.9267 L65.7722,81.2107 L64.8742,81.6837 L65.0472,80.6837 L65.1502,80.0827 L66.9082,69.8877 C67.2542,67.8457 66.5802,65.7667 65.1062,64.3267 L57.6842,57.1007 L57.2492,56.6767 L56.5222,55.9687 L57.5262,55.8227 L58.1282,55.7367 L68.3822,54.2517 C70.4272,53.9557 72.1962,52.6737 73.1122,50.8217 L77.6812,41.5267 L77.9502,40.9797 L78.3972,40.0697 L78.8462,40.9797 L79.1162,41.5257 L83.7062,50.8227 C84.6242,52.6747 86.3912,53.9567 88.4352,54.2517 L98.6892,55.7367 L99.2922,55.8227 L100.2962,55.9687 L99.5692,56.6767 Z M104.5722,54.5487 C103.8302,52.2547 101.8852,50.6147 99.4952,50.2687 L89.2412,48.7837 L89.0862,48.7617 L88.8262,48.7247 L88.7092,48.4887 L88.6392,48.3477 L84.0492,39.0707 C82.9952,36.9097 80.8392,35.5707 78.4192,35.5707 C76.0162,35.5707 73.8582,36.9107 72.7882,39.0707 L68.1982,48.3477 L68.1282,48.4887 L68.0112,48.7247 L67.7522,48.7617 L67.5952,48.7837 L57.3412,50.2687 C54.9582,50.6147 53.0122,52.2537 52.2652,54.5487 C51.5212,56.8487 52.1312,59.3187 53.8582,60.9917 L61.2812,68.2207 L61.3942,68.3297 L61.5832,68.5137 L61.5392,68.7737 L61.5112,68.9297 L59.7542,79.1247 C59.3402,81.4887 60.2972,83.8457 62.2512,85.2767 C63.3312,86.0707 64.6062,86.4887 65.9382,86.4887 C66.9622,86.4887 67.9562,86.2437 68.8902,85.7587 L78.0462,80.9377 L78.1852,80.8637 L78.4192,80.7407 L78.6512,80.8637 L78.7912,80.9367 L87.9702,85.7607 C88.8782,86.2337 89.8902,86.4837 90.8982,86.4837 C92.2232,86.4837 93.5002,86.0657 94.5902,85.2747 C96.5262,83.8577 97.4822,81.4987 97.0832,79.1207 L95.3262,68.9297 L95.2982,68.7737 L95.2542,68.5137 L95.4422,68.3297 L95.5552,68.2197 L102.9772,60.9937 C104.7102,59.3147 105.3202,56.8447 104.5722,54.5487 Z" id="Fill-6" fill="#333333"></path>
        </g>
    </g>
</svg>