<?xml version="1.0" encoding="UTF-8"?>
<svg width="58px" height="53px" viewBox="0 0 58 53" version="1.1" xmlns="http://www.w3.org/2000/svg" xmlns:xlink="http://www.w3.org/1999/xlink">
    <!-- Generator: Sketch 49.3 (51167) - http://www.bohemiancoding.com/sketch -->
    <title>心</title>
    <desc>Created with Sketch.</desc>
    <defs>
        <polygon id="path-1" points="0 0 58 0 58 53 0 53"></polygon>
    </defs>
    <g id="心" stroke="none" stroke-width="1" fill="none" fill-rule="evenodd">
        <g id="Page-1">
            <mask id="mask-2" fill="white">
                <use xlink:href="#path-1"></use>
            </mask>
            <g id="Clip-2"></g>
            <path d="M52.736685,5.25378467 C49.398527,1.93389159 44.7703738,0.0293430682 40.0385396,0.0293430682 L39.9788305,0.0298015537 L39.8996812,0.0293430682 C35.9783176,0.0293430682 32.1324005,1.32777384 29.027062,3.69264174 L28.3475812,3.20297929 L28.3137923,3.17913805 L28.2795405,3.15758923 L28.2286257,3.12503677 C25.2149338,1.08615201 21.6944084,0.00550182529 18.0442818,0 L18.0424304,0 L18.0410418,0 C16.4006603,0.000458485441 14.7686102,0.225116351 13.190715,0.667096317 L13.1666462,0.673515113 L13.1430403,0.68085088 L12.4556908,0.900006921 C9.75489331,1.76058409 7.2702522,3.26854271 5.2702272,5.26112043 C1.90800049,8.5782626 -0.014726623,13.1837489 8.49484517e-05,17.8914774 C8.49484517e-05,22.6666032 1.87374873,27.1542587 5.27578154,30.5241267 L27.2260675,52.2664233 C27.6944835,52.7368294 28.3290667,53 29.0057704,53 C29.6699768,53 30.2962285,52.7455406 30.7683474,52.2833873 L30.776216,52.2760515 L30.7947305,52.2577121 L52.7357592,30.5241267 C59.7545926,23.556065 59.7545926,12.2204709 52.736685,5.25378467" id="Fill-1" fill="#FFD811" mask="url(#mask-2)"></path>
        </g>
    </g>
</svg>