<?xml version="1.0" encoding="UTF-8"?>
<svg width="23px" height="26px" viewBox="0 0 23 26" version="1.1" xmlns="http://www.w3.org/2000/svg" xmlns:xlink="http://www.w3.org/1999/xlink">
    <!-- Generator: Sketch 49.3 (51167) - http://www.bohemiancoding.com/sketch -->
    <title>成功</title>
    <desc>Created with Sketch.</desc>
    <defs>
        <polygon id="path-1" points="0 0.1111 22.7676973 0.1111 22.7676973 25 0 25"></polygon>
    </defs>
    <g id="成功" stroke="none" stroke-width="1" fill="none" fill-rule="evenodd">
        <g id="Page-1">
            <path d="M18.7791,25.1001 L2.6361,25.1001 C1.6651,25.1001 0.8781,24.3121 0.8781,23.3411 L0.8781,14.4721 L14.1221,14.4721 C16.6941,14.4721 18.7791,16.5571 18.7791,19.1291 L18.7791,25.1001 Z" id="Fill-1" fill="#FFD811"></path>
            <path d="M17.8279,10.249 C17.9649,10.112 18.0399,9.931 18.0399,9.739 C18.0399,9.546 17.9649,9.364 17.8289,9.228 C17.5549,8.954 17.0799,8.957 16.8069,9.228 L9.4909,16.547 L9.2789,16.335 L5.5759,12.632 C5.4389,12.496 5.2579,12.421 5.0649,12.421 C4.8729,12.421 4.6919,12.496 4.5559,12.632 C4.4199,12.768 4.3449,12.949 4.3449,13.142 C4.3449,13.334 4.4199,13.516 4.5559,13.651 L8.9779,18.075 C9.2509,18.345 9.7269,18.348 10.0009,18.074 L17.8279,10.249 Z" id="Fill-3" fill="#333333"></path>
            <g id="Group-7" transform="translate(0.000000, 0.889000)">
                <mask id="mask-2" fill="white">
                    <use xlink:href="#path-1"></use>
                </mask>
                <g id="Clip-6"></g>
                <path d="M1.4148,3.5421 C1.4148,1.5251 2.9328,1.5251 3.4318,1.5251 L13.4048,1.5251 L13.6988,1.5241 C16.4628,1.5241 18.1468,1.9231 19.3308,2.8571 C20.7088,3.9451 21.3518,5.7661 21.3518,8.5861 L21.3518,21.5701 C21.3528,21.5871 21.4338,22.4541 20.8928,23.0501 C20.5708,23.4051 20.1068,23.5851 19.5138,23.5851 L3.4318,23.5851 C3.4108,23.5851 1.4148,23.5621 1.4148,21.5701 L1.4148,3.5421 Z M3.4318,25.0001 L19.5188,25.0001 C20.5298,25.0001 21.3238,24.7051 21.8778,24.1231 C22.8308,23.1211 22.7668,21.5961 22.7668,21.5801 L22.7658,8.5861 C22.8788,0.4511 17.7008,0.2681 14.2748,0.1471 C13.9678,0.1361 13.6748,0.1261 13.3988,0.1111 L3.4318,0.1111 C2.1498,0.1111 -0.0002,0.5571 -0.0002,3.5421 L-0.0002,21.5701 C-0.0002,24.9531 3.2918,25.0001 3.4318,25.0001 Z" id="Fill-5" fill="#333333" mask="url(#mask-2)"></path>
            </g>
        </g>
    </g>
</svg>