<?xml version="1.0" encoding="UTF-8"?>
<svg width="125px" height="124px" viewBox="0 0 125 124" version="1.1" xmlns="http://www.w3.org/2000/svg" xmlns:xlink="http://www.w3.org/1999/xlink">
    <!-- Generator: Sketch 49.3 (51167) - http://www.bohemiancoding.com/sketch -->
    <title>搜索</title>
    <desc>Created with Sketch.</desc>
    <defs>
        <polygon id="path-1" points="0.0005 -1.42108547e-14 124.984 -1.42108547e-14 124.984 123.707 0.0005 123.707"></polygon>
    </defs>
    <g id="搜索" stroke="none" stroke-width="1" fill="none" fill-rule="evenodd">
        <g id="Page-1">
            <mask id="mask-2" fill="white">
                <use xlink:href="#path-1"></use>
            </mask>
            <g id="Clip-2"></g>
            <path d="M56.6335,102.8588 C44.2005,102.8588 32.5085,98.3458 23.7145,89.5518 C14.9205,80.7578 10.0785,69.0668 10.0785,56.6328 C10.0785,44.1998 14.9205,32.5078 23.7145,23.7138 C32.5085,14.9198 44.2005,10.0778 56.6335,10.0778 C69.0675,10.0778 80.7585,14.9198 89.5525,23.7138 C98.3475,32.5078 102.8595,44.1998 102.8595,56.6328 C102.8595,69.0668 98.3465,80.7578 89.5525,89.5518 C80.7595,98.3458 69.0675,102.8588 56.6335,102.8588 M123.4775,115.0778 L100.5365,92.4338 C103.9465,88.2678 106.7125,83.6728 108.8205,78.6838 C111.7685,71.7018 112.9375,64.2738 112.9375,56.6328 C112.9375,48.9918 111.6035,41.5648 108.6555,34.5828 C105.8065,27.8308 101.8875,21.7708 96.6835,16.5828 C91.4795,11.3788 85.4195,7.2948 78.6845,4.4458 C71.7015,1.4988 64.2745,-0.0002 56.6335,-0.0002 C48.9925,-0.0002 41.5655,1.4988 34.5825,4.4458 C27.8305,7.2948 21.7705,11.3788 16.5835,16.5828 C11.3795,21.7868 7.2955,27.8468 4.4465,34.5828 C1.4985,41.5648 0.0005,48.9918 0.0005,56.6328 C0.0005,64.2738 1.4985,71.7008 4.4465,78.6838 C7.2955,85.4348 11.3795,91.4958 16.5835,96.6828 C21.7875,101.8868 27.8475,105.9708 34.5825,108.8198 C41.5655,111.7678 48.9925,112.9368 56.6335,112.9368 C64.2755,112.9368 71.7015,111.7678 78.6845,108.8198 C84.0855,106.5308 89.0595,103.4518 93.4885,99.6468 L116.3965,122.2578 C117.3395,123.1878 118.6115,123.7088 119.9365,123.7078 C121.2375,123.7078 122.5375,123.2128 123.5265,122.2088 C125.4865,120.2318 125.4695,117.0378 123.4775,115.0778" id="Fill-1" fill="#D2D2D2" mask="url(#mask-2)"></path>
        </g>
    </g>
</svg>