<?xml version="1.0" encoding="UTF-8"?>
<svg width="170px" height="169px" viewBox="0 0 170 169" version="1.1" xmlns="http://www.w3.org/2000/svg" xmlns:xlink="http://www.w3.org/1999/xlink">
    <!-- Generator: Sketch 49.3 (51167) - http://www.bohemiancoding.com/sketch -->
    <title>播放中</title>
    <desc>Created with Sketch.</desc>
    <defs>
        <polygon id="path-1" points="0.294 0.013 13.187 0.013 13.187 167.9995 0.294 167.9995"></polygon>
    </defs>
    <g id="播放中" stroke="none" stroke-width="1" fill="none" fill-rule="evenodd">
        <g id="Page-1">
            <g id="Group-3" transform="translate(52.000000, 0.987000)">
                <mask id="mask-2" fill="white">
                    <use xlink:href="#path-1"></use>
                </mask>
                <g id="Clip-2"></g>
                <path d="M6.74,0.0125 C3.185,0.0125 0.294,2.9055 0.294,6.4595 L0.294,161.5535 C0.294,165.1085 3.185,167.9995 6.74,167.9995 C10.296,167.9995 13.187,165.1085 13.187,161.5535 L13.187,6.4885 C13.112,2.9155 10.224,0.0125 6.74,0.0125" id="Fill-1" fill="#FFFFFF" mask="url(#mask-2)"></path>
            </g>
            <path d="M117.4812,63.8525 C117.4812,60.2975 114.5882,57.4055 111.0342,57.4055 C107.4792,57.4055 104.5862,60.2975 104.5862,63.8525 L104.5862,162.5405 C104.5862,166.0955 107.4792,168.9865 111.0342,168.9865 C114.5882,168.9865 117.4812,166.0955 117.4812,162.5405 L117.4812,63.8525 Z" id="Fill-4" fill="#FFFFFF"></path>
            <path d="M163.3279,19.8017 C159.7719,19.8017 156.8809,22.6937 156.8809,26.2487 L156.8809,162.5407 C156.8809,166.0947 159.7719,168.9867 163.3279,168.9867 C166.8829,168.9867 169.7739,166.0947 169.7739,162.5407 L169.7739,26.2487 C169.7739,22.6937 166.8829,19.8017 163.3279,19.8017" id="Fill-6" fill="#FFFFFF"></path>
            <path d="M6.447,91.0424 C2.892,91.0424 0,93.9344 0,97.4894 L0,162.5404 C0,166.0954 2.892,168.9864 6.447,168.9864 C10.002,168.9864 12.893,166.0954 12.893,162.5404 L12.893,97.4894 C12.893,93.9344 10.002,91.0424 6.447,91.0424" id="Fill-8" fill="#FFFFFF"></path>
        </g>
    </g>
</svg>