<?xml version="1.0" encoding="UTF-8"?>
<svg width="129px" height="146px" viewBox="0 0 129 146" version="1.1" xmlns="http://www.w3.org/2000/svg" xmlns:xlink="http://www.w3.org/1999/xlink">
    <!-- Generator: Sketch 49.3 (51167) - http://www.bohemiancoding.com/sketch -->
    <title>收支</title>
    <desc>Created with Sketch.</desc>
    <defs>
        <polygon id="path-1" points="0.0943038046 0.256389988 11.471 0.256389988 11.471 7.5332 0.0943038046 7.5332"></polygon>
        <polygon id="path-3" points="0 0.1816 110.9726 0.1816 110.9726 125.9996 0 125.9996"></polygon>
    </defs>
    <g id="收支" stroke="none" stroke-width="1" fill="none" fill-rule="evenodd">
        <g id="Page-1">
            <path d="M112.7654,16.1313 C112.0584,16.1313 111.3514,15.8613 110.8124,15.3213 C109.7324,14.2433 109.7324,12.4933 110.8124,11.4143 L116.1874,6.0393 C117.2664,4.9593 119.0154,4.9593 120.0944,6.0393 C121.1734,7.1173 121.1734,8.8673 120.0944,9.9453 L114.7184,15.3213 C114.1794,15.8613 113.4724,16.1313 112.7654,16.1313" id="Fill-1" fill="#ADADAD"></path>
            <path d="M100.3914,10.9633 C100.0304,10.9633 99.6624,10.8913 99.3094,10.7403 C97.9064,10.1433 97.2524,8.5193 97.8514,7.1153 L100.1684,1.6803 C100.7674,0.2753 102.3884,-0.3757 103.7944,0.2223 C105.1974,0.8193 105.8504,2.4433 105.2514,3.8473 L102.9344,9.2833 C102.4874,10.3333 101.4654,10.9633 100.3914,10.9633" id="Fill-3" fill="#ADADAD"></path>
            <g id="Group-7" transform="translate(117.000000, 21.145000)">
                <mask id="mask-2" fill="white">
                    <use xlink:href="#path-1"></use>
                </mask>
                <g id="Clip-6"></g>
                <path d="M2.8572,7.5332 C1.6682,7.5332 0.5692,6.7592 0.2112,5.5602 C-0.2268,4.0982 0.6042,2.5582 2.0662,2.1222 L7.9172,0.3732 C9.3782,-0.0648 10.9172,0.7672 11.3542,2.2292 C11.7922,3.6912 10.9612,5.2312 9.4982,5.6682 L3.6482,7.4162 C3.3842,7.4952 3.1182,7.5332 2.8572,7.5332" id="Fill-5" fill="#ADADAD" mask="url(#mask-2)"></path>
            </g>
            <g id="Group-10" transform="translate(0.000000, 19.145000)">
                <mask id="mask-4" fill="white">
                    <use xlink:href="#path-3"></use>
                </mask>
                <g id="Clip-9"></g>
                <path d="M95.7586,24.5986 L28.8486,24.5986 L25.9646,24.5986 L27.6176,22.2416 C27.6646,22.1716 29.5916,19.2916 29.5916,14.9586 C29.5916,10.6006 27.6366,7.7036 27.6156,7.6756 L26.0016,5.3266 L28.8486,5.3206 L96.1856,5.3206 L96.2236,5.3206 L96.2316,5.3216 C101.5246,5.3456 105.8246,9.6606 105.8246,14.9586 C105.8246,20.1806 101.2146,24.5946 95.7586,24.5986 Z M89.5756,31.2436 L89.5756,111.3576 L89.5756,111.4056 L89.5726,111.4536 C89.4996,112.5786 88.9936,113.6096 88.1496,114.3556 L88.1156,114.3846 L88.0806,114.4116 L81.8976,119.2486 C81.3186,119.6746 80.6756,119.8846 80.0036,119.8846 C79.3666,119.8846 78.7526,119.6946 78.2276,119.3326 L67.6606,111.8126 C66.6316,111.0796 65.1786,110.6606 63.6746,110.6606 C62.2116,110.6606 60.8076,111.0596 59.8236,111.7556 L49.1076,119.3226 C48.5356,119.7026 47.9126,119.8906 47.2696,119.8906 C46.6266,119.8906 46.0036,119.7026 45.4676,119.3466 L45.4456,119.3316 L45.4256,119.3176 L34.9206,111.8106 C33.9046,111.0836 32.4796,110.6666 31.0106,110.6666 C29.5256,110.6666 28.1456,111.0726 27.1256,111.8076 L16.6906,119.3146 L16.6586,119.3366 L16.6266,119.3576 C16.1076,119.6936 15.5046,119.8696 14.8846,119.8696 C14.2306,119.8696 13.5996,119.6736 13.0606,119.3026 L13.0296,119.2816 L12.9976,119.2576 L6.6966,114.4206 L6.6616,114.3936 L6.6286,114.3646 C5.7666,113.6176 5.2376,112.5356 5.1756,111.3966 L5.1736,111.3566 L5.1736,111.3166 L5.1736,29.4586 L5.1616,27.9586 L5.1616,16.2306 C5.1436,15.7016 5.0706,11.1096 7.9846,8.0486 C9.6666,6.2826 11.9606,5.3866 14.8036,5.3866 C15.1056,5.3866 15.4156,5.3966 15.7376,5.4166 L15.7946,5.4206 L15.8526,5.4296 C21.4256,6.2316 24.7956,10.4946 24.4376,16.2876 L24.4326,16.3716 L24.4176,16.4546 C23.2506,23.0796 17.1586,24.6536 14.9586,24.7026 C13.6586,24.8766 12.1716,25.4216 12.2696,27.0186 C12.3486,28.3046 13.4706,29.7436 14.8546,29.7436 L88.0756,29.7436 L89.5756,29.7436 L89.5756,31.2436 Z M110.9726,14.9626 C110.9726,6.8126 104.3416,0.1816 96.1916,0.1816 L14.7376,0.1816 C10.7966,0.1876 7.0916,1.7276 4.3086,4.5196 C1.5246,7.3116 -0.0064,11.0206 -0.0004,14.9626 L-0.0004,114.6706 C-0.0004,115.3476 0.4976,116.3286 1.0436,116.7286 L12.6986,125.2866 C13.4016,125.7516 14.2176,125.9966 15.0606,125.9966 C15.9306,125.9966 16.7686,125.7366 17.4866,125.2446 L30.0766,115.6616 C30.4106,115.4146 30.7806,115.2906 31.1656,115.2906 C31.5236,115.2906 31.8766,115.4006 32.1876,115.6086 L32.2166,115.6266 L32.2436,115.6476 L45.3606,125.3096 C45.9576,125.7476 46.8046,125.9996 47.6816,125.9996 C48.5876,125.9996 49.4516,125.7336 50.0556,125.2696 L62.5456,115.6656 C62.8626,115.4216 63.2396,115.2906 63.6346,115.2906 C63.9916,115.2906 64.3456,115.4006 64.6546,115.6076 L64.6876,115.6286 L64.7186,115.6526 L77.6996,125.3136 C78.2856,125.7496 79.1246,125.9996 80.0006,125.9996 C80.9106,125.9996 81.7866,125.7316 82.4026,125.2636 L93.6336,116.7746 C94.2516,116.2246 94.6336,115.4426 94.6856,114.6166 L94.6856,31.2326 L94.6856,29.7706 L96.1476,29.7336 C104.3216,29.5226 110.9726,22.8956 110.9726,14.9626 Z" id="Fill-8" fill="#ADADAD" mask="url(#mask-4)"></path>
            </g>
            <path d="M27.3123,97.7065 C27.3123,99.0405 28.3983,100.1265 29.7323,100.1265 C31.0673,100.1265 32.1533,99.0405 32.1533,97.7065 L32.1533,93.4665 L32.1533,92.6665 L32.9533,92.6665 L41.0103,92.6665 C42.3633,92.6665 43.4483,91.5805 43.4483,90.2465 C43.4483,88.9345 42.3323,87.8255 41.0103,87.8255 L32.9533,87.8255 L32.1533,87.8255 L32.1533,87.0255 L32.1533,81.7565 L32.1533,80.9555 L32.9533,80.9555 L41.0103,80.9555 C42.3633,80.9555 43.4483,79.8695 43.4483,78.5355 C43.4483,77.2235 42.3323,76.1145 41.0103,76.1145 L36.7073,76.1145 L34.9883,76.1145 L36.0933,74.8005 L40.3573,69.7285 C41.2193,68.7025 41.0923,67.1565 40.0743,66.2845 C39.6453,65.9375 39.1073,65.7475 38.5343,65.7475 C37.8043,65.7475 37.1153,66.0655 36.6433,66.6225 L30.4863,73.9615 C30.3963,74.0665 30.3183,74.1765 30.2503,74.2905 L29.5513,75.4585 L28.8713,74.2805 C28.7993,74.1585 28.7293,74.0585 28.6553,73.9725 L22.4863,66.6185 C22.0153,66.0635 21.3263,65.7445 20.5943,65.7445 C20.0213,65.7445 19.4823,65.9355 19.0353,66.2985 C18.0353,67.1575 17.9103,68.7025 18.7743,69.7285 L23.0323,74.8005 L24.1353,76.1145 L22.4193,76.1145 L19.2983,76.1145 C18.6403,76.1145 18.0323,76.3665 17.5753,76.8235 C17.1183,77.2805 16.8663,77.8895 16.8663,78.5355 C16.8823,79.8535 17.9773,80.9435 19.3053,80.9555 L26.5123,80.9555 L27.3123,80.9555 L27.3123,81.7565 L27.3123,87.0255 L27.3123,87.8255 L26.5123,87.8255 L19.2983,87.8255 C18.6403,87.8255 18.0323,88.0775 17.5753,88.5345 C17.1183,88.9915 16.8663,89.6005 16.8663,90.2465 C16.8823,91.5645 17.9773,92.6545 19.3053,92.6665 L26.5123,92.6665 L27.3123,92.6665 L27.3123,93.4665 L27.3123,97.7065 Z" id="Fill-11" fill="#ADADAD"></path>
            <path d="M76.3006,109.4086 L18.2736,109.4086 C17.0236,109.4086 15.9586,110.4406 15.8866,111.6926 L15.8886,111.8236 C15.8976,113.1396 16.9766,114.2286 18.2926,114.2496 L76.2946,114.2496 C77.5946,114.2496 78.6926,113.1406 78.6926,111.8296 C78.6926,110.5166 77.5976,109.4086 76.3006,109.4086" id="Fill-13" fill="#ADADAD"></path>
            <path d="M58.1121,71.7749 L75.7511,71.7749 C77.1051,71.7749 78.2071,70.6889 78.2071,69.3539 C78.2071,68.0429 77.0821,66.9339 75.7511,66.9339 L58.1081,66.9339 C56.7311,66.9339 55.6521,67.9969 55.6521,69.3539 C55.6741,70.6759 56.7771,71.7679 58.1121,71.7749" id="Fill-15" fill="#ADADAD"></path>
            <path d="M58.1121,93.0122 L75.7511,93.0122 C77.1051,93.0122 78.2071,91.9262 78.2071,90.5912 C78.2071,89.2802 77.0821,88.1712 75.7511,88.1712 L58.1081,88.1712 C56.7311,88.1712 55.6521,89.2352 55.6521,90.5912 C55.6741,91.9132 56.7771,93.0052 58.1121,93.0122" id="Fill-17" fill="#ADADAD"></path>
        </g>
    </g>
</svg>