<?xml version="1.0" encoding="UTF-8"?>
<svg width="152px" height="164px" viewBox="0 0 152 164" version="1.1" xmlns="http://www.w3.org/2000/svg" xmlns:xlink="http://www.w3.org/1999/xlink">
    <!-- Generator: Sketch 49.3 (51167) - http://www.bohemiancoding.com/sketch -->
    <title>无消息</title>
    <desc>Created with Sketch.</desc>
    <defs>
        <polygon id="path-1" points="0 0.9397 145.95331 0.9397 145.95331 137.9997 0 137.9997"></polygon>
    </defs>
    <g id="无消息" stroke="none" stroke-width="1" fill="none" fill-rule="evenodd">
        <g id="Page-1">
            <g id="Group-3" transform="translate(0.000000, 25.064000)">
                <mask id="mask-2" fill="white">
                    <use xlink:href="#path-1"></use>
                </mask>
                <g id="Clip-2"></g>
                <path d="M6.5718,48.6727 L71.2138,88.4217 C72.2748,89.0727 73.5908,89.0707 74.6498,88.4217 L139.2918,48.6727 L139.2918,125.3077 C139.2898,128.6867 136.5388,131.4377 133.1598,131.4397 L12.7038,131.4397 C9.3248,131.4377 6.5738,128.6867 6.5718,125.3077 L6.5718,48.6727 Z M18.5158,38.9057 L18.5158,48.3137 L10.0568,43.1137 L18.5158,38.9057 Z M25.0758,8.5997 C25.0918,7.9967 25.5748,7.5147 26.1758,7.4997 L119.9158,7.4997 C120.4008,7.5277 120.7638,7.8907 120.7908,8.3477 L120.8118,52.3197 L120.5578,52.4877 L72.9308,81.7707 L25.0708,52.3437 L25.0758,8.5997 Z M127.3428,39.8407 L135.5508,43.2707 L127.3428,48.3167 L127.3428,39.8407 Z M1.3448,40.1607 C0.8488,40.5507 0.5078,40.9807 0.2928,41.4577 C0.2498,41.5517 0.2218,41.6427 0.1938,41.7337 L0.1478,41.8727 C0.1298,41.9307 0.1088,41.9877 0.0948,42.0487 C0.0758,42.1307 0.0638,42.2197 0.0518,42.3097 C0.0308,42.4507 0.0178,42.5627 0.0138,42.6757 L0.0028,42.7947 L-0.0002,125.2997 C-0.0002,132.3027 5.6968,137.9997 12.6998,137.9997 L133.1598,137.9997 C140.1538,137.9947 145.8468,132.3017 145.8518,125.3077 L145.8518,43.4977 L145.8658,43.4427 C146.2418,41.8447 145.3758,40.2047 143.8508,39.6277 L143.8358,39.6207 L127.3428,32.7307 L127.3428,8.3757 C127.3378,4.2817 124.0018,0.9457 119.9068,0.9397 L26.1878,0.9397 C21.9678,0.9437 18.5258,4.3807 18.5158,8.6007 L18.5158,31.5367 C18.5158,31.5367 1.4778,40.0627 1.3448,40.1607 Z" id="Fill-1" fill="#ADADAD" mask="url(#mask-2)"></path>
            </g>
            <path d="M98.0279,51.4037 L42.1879,51.4037 C40.3819,51.4057 38.9129,52.8757 38.9109,54.6797 C38.9099,55.5567 39.2509,56.3817 39.8699,57.0017 C40.4889,57.6217 41.3119,57.9637 42.1879,57.9637 L98.0279,57.9637 C99.8369,57.9637 101.3079,56.4927 101.3079,54.6837 C101.3079,52.8757 99.8369,51.4037 98.0279,51.4037" id="Fill-4" fill="#ADADAD"></path>
            <path d="M82.9673,71.1762 L45.3233,71.1762 C43.5153,71.1762 42.0433,72.6472 42.0433,74.4552 C42.0433,76.2642 43.5153,77.7362 45.3233,77.7362 L82.9673,77.7362 C84.7763,77.7362 86.2473,76.2642 86.2473,74.4552 C86.2473,72.6472 84.7763,71.1762 82.9673,71.1762" id="Fill-6" fill="#ADADAD"></path>
            <path d="M136.8824,20.434 C135.9864,20.434 135.0914,20.092 134.4074,19.409 C133.0404,18.042 133.0404,15.826 134.4074,14.459 L141.2174,7.65 C142.5844,6.283 144.7994,6.283 146.1664,7.65 C147.5334,9.016 147.5334,11.233 146.1664,12.599 L139.3574,19.409 C138.6734,20.092 137.7784,20.434 136.8824,20.434" id="Fill-8" fill="#ADADAD"></path>
            <path d="M121.2076,13.8871 C120.7496,13.8871 120.2846,13.7961 119.8366,13.6061 C118.0596,12.8481 117.2316,10.7911 117.9896,9.0131 L120.9256,2.1271 C121.6846,0.3491 123.7376,-0.4759 125.5186,0.2811 C127.2956,1.0381 128.1226,3.0951 127.3646,4.8731 L124.4296,11.7591 C123.8616,13.0891 122.5676,13.8871 121.2076,13.8871" id="Fill-10" fill="#ADADAD"></path>
            <path d="M140.7984,36.3275 C139.2914,36.3275 137.9004,35.3475 137.4454,33.8285 C136.8924,31.9765 137.9444,30.0265 139.7974,29.4735 L147.2074,27.2585 C149.0594,26.7035 151.0084,27.7575 151.5634,29.6095 C152.1164,31.4615 151.0644,33.4115 149.2114,33.9655 L141.8014,36.1805 C141.4674,36.2795 141.1294,36.3275 140.7984,36.3275" id="Fill-12" fill="#ADADAD"></path>
        </g>
    </g>
</svg>