<?xml version="1.0" encoding="UTF-8"?>
<svg width="12px" height="11px" viewBox="0 0 12 11" version="1.1" xmlns="http://www.w3.org/2000/svg" xmlns:xlink="http://www.w3.org/1999/xlink">
    <!-- Generator: Sketch 49.3 (51167) - http://www.bohemiancoding.com/sketch -->
    <title>日历</title>
    <desc>Created with Sketch.</desc>
    <defs>
        <polygon id="path-1" points="0 0.0673469388 11.955375 0.0673469388 11.955375 10.9251476 0 10.9251476"></polygon>
    </defs>
    <g id="日历" stroke="none" stroke-width="1" fill="none" fill-rule="evenodd">
        <g id="Page-1">
            <g id="Group-3" transform="translate(0.000000, 0.007483)">
                <mask id="mask-2" fill="white">
                    <use xlink:href="#path-1"></use>
                </mask>
                <g id="Clip-2"></g>
                <path d="M11.0357475,9.52223605 C11.0357475,9.79304558 10.8263475,10.007583 10.5736725,10.007583 L1.3817475,10.007583 C1.1285475,10.007583 0.9195975,9.79386871 0.9195975,9.52223605 L0.9195975,2.42955578 C0.9195975,2.15754898 1.1277975,1.94413401 1.3831725,1.94413401 L2.7589725,1.94413401 L2.7589725,2.4496102 C2.7589725,2.70156259 2.9648475,2.90569864 3.2187225,2.90569864 C3.4745475,2.90569864 3.6785475,2.70148776 3.6785475,2.4496102 L3.6785475,1.94413401 L8.2768725,1.94413401 L8.2768725,2.44773946 C8.2768725,2.69946735 8.4826725,2.90345374 8.7366975,2.90345374 C8.9923725,2.90345374 9.1965225,2.69946735 9.1965225,2.44773946 L9.1965225,1.94413401 L10.5785475,1.94413401 C10.8283725,1.94413401 11.0357475,2.15739932 11.0357475,2.42955578 L11.0357475,9.52223605 Z M10.5785475,1.02664422 L9.1965225,1.02664422 L9.1965225,0.523038776 C9.1965225,0.271310884 8.9905725,0.0673244898 8.7366975,0.0673244898 C8.4809475,0.0673244898 8.2768725,0.271385714 8.2768725,0.523038776 L8.2768725,1.02664422 L3.6785475,1.02664422 L3.6785475,0.523412925 C3.6785475,0.271460544 3.4726725,0.0673244898 3.2187225,0.0673244898 C2.9630475,0.0673244898 2.7589725,0.271535374 2.7589725,0.523412925 L2.7589725,1.02664422 L1.3831725,1.02664422 C0.6141975,1.02664422 -5.25e-05,1.65626327 -5.25e-05,2.42955578 L-5.25e-05,9.52223605 C-5.25e-05,10.2955286 0.6154725,10.9251476 1.3817475,10.9251476 L10.5736725,10.9251476 C11.3397225,10.9251476 11.9553975,10.294481 11.9553975,9.52223605 L11.9553975,2.42955578 C11.9553975,1.65678707 11.3426475,1.02664422 10.5785475,1.02664422 Z" id="Fill-1" fill="#8E8E8E" mask="url(#mask-2)"></path>
            </g>
            <path d="M8.733525,4.32900136 L3.221925,4.32900136 C2.965875,4.32900136 2.75895,4.53440952 2.75895,4.78778367 C2.75895,5.04295374 2.96625,5.24656599 3.221925,5.24656599 L8.733525,5.24656599 C8.989575,5.24656599 9.1965,5.04115782 9.1965,4.78778367 C9.1965,4.53261361 8.9892,4.32900136 8.733525,4.32900136" id="Fill-4" fill="#8E8E8E"></path>
            <path d="M8.733525,6.69239252 L3.221925,6.69239252 C2.965875,6.69239252 2.75895,6.89780068 2.75895,7.15117483 C2.75895,7.4063449 2.96625,7.60995714 3.221925,7.60995714 L8.733525,7.60995714 C8.989575,7.60995714 9.1965,7.40454898 9.1965,7.15117483 C9.1965,6.89600476 8.9892,6.69239252 8.733525,6.69239252" id="Fill-6" fill="#8E8E8E"></path>
        </g>
    </g>
</svg>