<?xml version="1.0" encoding="UTF-8"?>
<svg width="172px" height="173px" viewBox="0 0 172 173" version="1.1" xmlns="http://www.w3.org/2000/svg" xmlns:xlink="http://www.w3.org/1999/xlink">
    <!-- Generator: Sketch 49.3 (51167) - http://www.bohemiancoding.com/sketch -->
    <title>时间</title>
    <desc>Created with Sketch.</desc>
    <defs>
        <polygon id="path-1" points="0 0.132 171.8677 0.132 171.8677 171.9999 0 171.9999"></polygon>
    </defs>
    <g id="时间" stroke="none" stroke-width="1" fill="none" fill-rule="evenodd">
        <g id="Page-1">
            <path d="M88.2686,43.3176 C88.2686,40.0256 85.5906,37.3476 82.2986,37.3476 C79.0076,37.3476 76.3296,40.0256 76.3296,43.3176 L76.3296,94.2036 C76.7836,97.6466 76.9626,97.8506 81.2076,100.2846 L114.4936,119.7856 C115.3886,120.3026 116.3316,120.5716 117.2726,120.5716 C119.1436,120.5716 120.8446,119.4836 121.9406,117.5876 C122.6906,116.2886 122.7926,114.7186 122.2306,113.1686 C121.6736,111.6336 120.5236,110.2756 119.0736,109.4396 L88.9166,91.9996 L88.2686,91.6246 L88.2686,90.8746 L88.2686,43.3176 Z" id="Fill-1" fill="#696969"></path>
            <g id="Group-5" transform="translate(0.000000, 0.868000)">
                <mask id="mask-2" fill="white">
                    <use xlink:href="#path-1"></use>
                </mask>
                <g id="Clip-4"></g>
                <path d="M85.9337,160.0609 C45.1327,160.0609 11.9397,126.8669 11.9397,86.0659 C11.9397,45.2649 45.1327,12.0719 85.9337,12.0719 C126.7347,12.0719 159.9287,45.2649 159.9287,86.0659 C159.9287,126.8669 126.7347,160.0609 85.9337,160.0609 M85.9337,0.1319 C38.5497,0.1319 -0.0003,38.6819 -0.0003,86.0659 C-0.0003,133.4509 38.5497,171.9999 85.9337,171.9999 C133.3177,171.9999 171.8677,133.4509 171.8677,86.0659 C171.8677,38.6819 133.3177,0.1319 85.9337,0.1319" id="Fill-3" fill="#696969" mask="url(#mask-2)"></path>
            </g>
        </g>
    </g>
</svg>