<?xml version="1.0" encoding="UTF-8"?>
<svg width="146px" height="139px" viewBox="0 0 146 139" version="1.1" xmlns="http://www.w3.org/2000/svg" xmlns:xlink="http://www.w3.org/1999/xlink">
    <!-- Generator: Sketch 49.3 (51167) - http://www.bohemiancoding.com/sketch -->
    <title>消息</title>
    <desc>Created with Sketch.</desc>
    <defs></defs>
    <g id="消息" stroke="none" stroke-width="1" fill="none" fill-rule="evenodd">
        <g id="Page-1">
            <polygon id="Fill-1" fill="#FFDA00" points="4.23 133.483 141.56 133.483 141.56 83.448 4.23 83.448"></polygon>
            <g id="Group-8" transform="translate(0.000000, 0.061000)" fill="#333333">
                <path d="M6.5723,48.6728 L71.2143,88.4218 C72.2753,89.0728 73.5913,89.0708 74.6503,88.4218 L139.2923,48.6728 L139.2923,125.3078 C139.2903,128.6868 136.5393,131.4378 133.1603,131.4398 L12.7043,131.4398 C9.3253,131.4378 6.5743,128.6868 6.5723,125.3078 L6.5723,48.6728 Z M18.5163,38.9058 L18.5163,48.3138 L10.0573,43.1138 L18.5163,38.9058 Z M25.0763,8.5998 C25.0923,7.9968 25.5753,7.5148 26.1763,7.4998 L119.9163,7.4998 C120.4013,7.5268 120.7643,7.8908 120.7913,8.3478 L120.8123,52.3198 L120.5583,52.4878 L72.9313,81.7708 L25.0713,52.3438 L25.0763,8.5998 Z M127.3433,39.8408 L135.5513,43.2708 L127.3433,48.3168 L127.3433,39.8408 Z M1.3453,40.1608 C0.8493,40.5508 0.5083,40.9808 0.2933,41.4578 C0.2503,41.5518 0.2223,41.6428 0.1943,41.7338 L0.1483,41.8728 C0.1303,41.9308 0.1093,41.9878 0.0953,42.0488 C0.0763,42.1308 0.0643,42.2198 0.0523,42.3098 C0.0313,42.4508 0.0183,42.5628 0.0143,42.6758 L0.0033,42.7948 L0.0003,125.2998 C0.0003,132.3028 5.6973,137.9998 12.7003,137.9998 L133.1603,137.9998 C140.1543,137.9948 145.8473,132.3018 145.8523,125.3078 L145.8523,43.4978 L145.8663,43.4428 C146.2423,41.8448 145.3763,40.2048 143.8513,39.6278 L143.8363,39.6208 L127.3433,32.7308 L127.3433,8.3758 C127.3383,4.2818 124.0023,0.9458 119.9073,0.9398 L26.1883,0.9398 C21.9683,0.9438 18.5263,4.3808 18.5163,8.6008 L18.5163,31.5368 C18.5163,31.5368 1.4783,40.0628 1.3453,40.1608 Z" id="Fill-2"></path>
                <path d="M98.0283,26.3398 L42.1883,26.3398 C40.3823,26.3418 38.9133,27.8118 38.9113,29.6158 C38.9103,30.4928 39.2513,31.3178 39.8703,31.9378 C40.4893,32.5578 41.3123,32.8998 42.1883,32.8998 L98.0283,32.8998 C99.8373,32.8998 101.3083,31.4288 101.3083,29.6198 C101.3083,27.8118 99.8373,26.3398 98.0283,26.3398" id="Fill-4"></path>
                <path d="M82.9678,46.1123 L45.3238,46.1123 C43.5158,46.1123 42.0438,47.5833 42.0438,49.3913 C42.0438,51.2003 43.5158,52.6723 45.3238,52.6723 L82.9678,52.6723 C84.7768,52.6723 86.2478,51.2003 86.2478,49.3913 C86.2478,47.5833 84.7768,46.1123 82.9678,46.1123" id="Fill-6"></path>
            </g>
        </g>
    </g>
</svg>