<?xml version="1.0" encoding="UTF-8"?>
<svg width="180px" height="181px" viewBox="0 0 180 181" version="1.1" xmlns="http://www.w3.org/2000/svg" xmlns:xlink="http://www.w3.org/1999/xlink">
    <!-- Generator: Sketch 49.3 (51167) - http://www.bohemiancoding.com/sketch -->
    <title>添加</title>
    <desc>Created with Sketch.</desc>
    <defs>
        <polygon id="path-1" points="0.0002 0.51 179.491 0.51 179.491 180 0.0002 180"></polygon>
    </defs>
    <g id="添加" stroke="none" stroke-width="1" fill="none" fill-rule="evenodd">
        <g id="Page-1">
            <path d="M98.4464,58.4204 C98.4464,48.8094 90.6554,44.0184 81.0444,44.0184 L81.0444,82.0334 L57.4304,82.0334 C47.8094,82.0334 43.0084,89.8344 43.0084,99.4554 L81.0444,99.4554 L81.0444,123.0694 C81.0444,132.6804 88.8354,137.4714 98.4464,137.4714 L98.4464,99.4554 L122.0594,99.4554 C131.6814,99.4554 136.4814,91.6554 136.4814,82.0334 L98.4464,82.0334 L98.4464,58.4204 Z" id="Fill-1" fill="#000000"></path>
            <g id="Group-5" transform="translate(0.000000, 0.490000)">
                <mask id="mask-2" fill="white">
                    <use xlink:href="#path-1"></use>
                </mask>
                <g id="Clip-4"></g>
                <path d="M89.7452,167.4841 C47.1722,167.4841 12.5372,132.8491 12.5372,90.2761 C12.5372,47.7021 47.1722,13.0671 89.7452,13.0671 C132.3182,13.0671 166.9532,47.7021 166.9532,90.2761 C166.9532,132.8491 132.3182,167.4841 89.7452,167.4841 M89.7452,0.5091 C40.2592,0.5091 0.0002,40.7691 0.0002,90.2551 C0.0002,139.7401 40.2592,180.0001 89.7452,180.0001 C139.2312,180.0001 179.4912,139.7401 179.4912,90.2551 C179.4912,40.7691 139.2312,0.5091 89.7452,0.5091" id="Fill-3" fill="#000000" mask="url(#mask-2)"></path>
            </g>
        </g>
    </g>
</svg>