<?xml version="1.0" encoding="UTF-8"?>
<svg width="181px" height="189px" viewBox="0 0 181 189" version="1.1" xmlns="http://www.w3.org/2000/svg" xmlns:xlink="http://www.w3.org/1999/xlink">
    <!-- Generator: Sketch 49.3 (51167) - http://www.bohemiancoding.com/sketch -->
    <title>灯泡</title>
    <desc>Created with Sketch.</desc>
    <defs>
        <polygon id="path-1" points="0 0.2555 18.2645 0.2555 18.2645 6.0805 0 6.0805"></polygon>
        <polygon id="path-3" points="0.6685 0.2555 18.932 0.2555 18.932 6.0805 0.6685 6.0805"></polygon>
    </defs>
    <g id="灯泡" stroke="none" stroke-width="1" fill="none" fill-rule="evenodd">
        <g id="Page-1">
            <path d="M81.2603,96.4856 L100.8893,96.4856 L91.1423,114.5316 L81.2603,96.4856 Z M108.2903,150.4236 L108.2903,159.5906 C108.1683,164.8476 103.8513,169.1056 98.6663,169.1056 L83.6043,169.1056 C78.3583,169.1056 74.0893,164.8386 74.0893,159.5906 L74.0893,150.4236 L74.0893,149.4236 L75.0893,149.4236 L107.2903,149.4236 L108.2903,149.4236 L108.2903,150.4236 Z M98.6853,175.7476 L98.6853,179.3496 C98.6853,181.3116 97.0273,182.9696 95.0643,182.9696 L87.2043,182.9696 C85.2423,182.9696 83.5853,181.3116 83.5853,179.3496 L83.5853,175.7476 L83.5853,174.7476 L84.5853,174.7476 L97.6853,174.7476 L98.6853,174.7476 L98.6853,175.7476 Z" id="Fill-1" fill="#FFDA00"></path>
            <path d="M109.8745,131.1926 L109.6835,131.2766 L109.6785,131.2766 L108.1815,131.9186 L108.1815,142.8296 L108.1815,143.8296 L107.1815,143.8296 L94.9555,143.8296 L93.9555,143.8296 L93.9555,142.8296 L93.9555,121.3436 L106.7375,97.5996 C107.5245,96.2866 107.4825,94.6306 106.6505,93.2426 C105.7335,91.7756 104.0925,90.8896 102.2695,90.8896 L79.8935,90.8896 C78.0695,90.8896 76.4285,91.7756 75.5025,93.2576 C74.6785,94.6306 74.6445,96.2136 75.4155,97.5876 L88.3155,121.4536 L88.3155,142.8296 L88.3155,143.8296 L87.3155,143.8296 L75.0905,143.8296 L74.0905,143.8296 L74.0905,142.8296 L74.0905,131.9186 L72.4035,131.1956 C55.0615,123.7486 43.8545,106.6776 43.8545,87.7076 C43.8545,61.5766 65.1145,40.3176 91.2455,40.3176 C117.3765,40.3176 138.6365,61.5766 138.6365,87.7076 C138.5235,106.5596 127.2345,123.6266 109.8745,131.1926 Z M81.2605,96.5316 L100.8895,96.5316 L91.1425,114.5776 L81.2605,96.5316 Z M108.2905,150.4686 L108.2905,159.6366 C108.1685,164.8936 103.8515,169.1516 98.6665,169.1516 L83.6035,169.1516 C78.3575,169.1516 74.0895,164.8836 74.0895,159.6366 L74.0895,150.4686 L74.0895,149.4686 L75.0895,149.4686 L107.2905,149.4686 L108.2905,149.4686 L108.2905,150.4686 Z M98.6855,175.7936 L98.6855,179.3956 C98.6855,181.3576 97.0265,183.0156 95.0635,183.0156 L87.2045,183.0156 C85.2425,183.0156 83.5855,181.3576 83.5855,179.3956 L83.5855,175.7936 L83.5855,174.7936 L84.5855,174.7936 L97.6855,174.7936 L98.6855,174.7936 L98.6855,175.7936 Z M136.2825,115.8416 C141.5825,107.3906 144.3845,97.6626 144.3845,87.7066 C144.1705,58.5776 120.4585,34.8526 91.4585,34.6756 L91.1365,34.6756 C61.8955,34.6756 38.1045,58.4646 38.1045,87.7066 C38.1045,97.6826 40.8935,107.4126 46.1665,115.8416 C51.4315,124.2566 58.9415,131.0126 67.8885,135.3806 L68.4485,135.6546 L68.4485,136.2796 L68.4485,159.6366 C68.4485,165.6136 71.9855,171.0386 77.4595,173.4586 L78.0555,173.7216 L78.0555,174.3736 L78.0555,179.3946 C78.0555,184.5016 82.2095,188.6546 87.3155,188.6546 L95.1755,188.6546 C100.2805,188.6546 104.4355,184.5016 104.4355,179.3946 L104.4355,174.3746 L104.4355,173.7226 L105.0305,173.4596 C110.5035,171.0396 114.0405,165.6136 114.0405,159.6366 L114.0405,136.2796 L114.0405,135.6566 L114.5995,135.3816 C123.5125,131.0056 131.0105,124.2486 136.2825,115.8416 Z" id="Fill-3" fill="#333333"></path>
            <g id="Group-7" transform="translate(0.000000, 77.655000)">
                <mask id="mask-2" fill="white">
                    <use xlink:href="#path-1"></use>
                </mask>
                <g id="Clip-6"></g>
                <path d="M-0.0005,3.1675 C-0.0005,4.7755 1.3045,6.0805 2.9125,6.0805 L15.3525,6.0805 C16.9605,6.0805 18.2645,4.7755 18.2645,3.1675 C18.2645,1.5595 16.9605,0.2555 15.3525,0.2555 L2.9125,0.2555 C1.3045,0.2555 -0.0005,1.5595 -0.0005,3.1675" id="Fill-5" fill="#333333" mask="url(#mask-2)"></path>
            </g>
            <path d="M41.7915,36.1331 C42.9295,34.9951 42.9295,33.1511 41.7915,32.0131 L32.9965,23.2191 C31.8595,22.0811 30.0155,22.0811 28.8775,23.2181 C27.7395,24.3561 27.7395,26.2001 28.8775,27.3381 L37.6725,36.1331 C38.8105,37.2701 40.6535,37.2701 41.7915,36.1331" id="Fill-8" fill="#333333"></path>
            <path d="M139.3481,36.1321 L139.3481,36.1331 C140.4851,37.2701 142.3291,37.2701 143.4671,36.1331 L152.2621,27.3371 C153.4001,26.2001 153.4001,24.3561 152.2621,23.2191 C151.1241,22.0811 149.2811,22.0811 148.1431,23.2191 L139.3481,32.0141 C138.2101,33.1511 138.2101,34.9951 139.3481,36.1321" id="Fill-10" fill="#333333"></path>
            <g id="Group-14" transform="translate(162.000000, 77.655000)">
                <mask id="mask-4" fill="white">
                    <use xlink:href="#path-3"></use>
                </mask>
                <g id="Clip-13"></g>
                <path d="M0.6685,3.1675 C0.6685,4.7755 1.9735,6.0805 3.5815,6.0805 L16.0205,6.0805 C17.6285,6.0805 18.9325,4.7755 18.9325,3.1675 C18.9325,1.5595 17.6285,0.2555 16.0205,0.2555 L3.5815,0.2555 C1.9735,0.2555 0.6685,1.5595 0.6685,3.1675" id="Fill-12" fill="#333333" mask="url(#mask-4)"></path>
            </g>
            <path d="M87.5532,2.9124 L87.5532,15.3504 C87.5532,16.9594 88.8572,18.2634 90.4662,18.2634 C92.0742,18.2634 93.3792,16.9594 93.3792,15.3504 L93.3792,2.9124 C93.3792,1.3044 92.0742,0.0004 90.4662,0.0004 C88.8572,0.0004 87.5532,1.3044 87.5532,2.9124" id="Fill-15" fill="#333333"></path>
        </g>
    </g>
</svg>