<?xml version="1.0" encoding="UTF-8"?>
<svg width="151px" height="162px" viewBox="0 0 151 162" version="1.1" xmlns="http://www.w3.org/2000/svg" xmlns:xlink="http://www.w3.org/1999/xlink">
    <!-- Generator: Sketch 49.3 (51167) - http://www.bohemiancoding.com/sketch -->
    <title>点赞次数</title>
    <desc>Created with Sketch.</desc>
    <defs>
        <polygon id="path-1" points="0 0 150.471 0 150.471 161.2867 0 161.2867"></polygon>
    </defs>
    <g id="点赞次数" stroke="none" stroke-width="1" fill="none" fill-rule="evenodd">
        <g id="Page-1">
            <mask id="mask-2" fill="white">
                <use xlink:href="#path-1"></use>
            </mask>
            <g id="Clip-2"></g>
            <path d="M129.1406,64.1227 C132.3996,64.1227 135.3746,65.4817 137.5196,67.9507 C139.6566,70.4097 140.5576,73.5547 140.0576,76.8057 L131.7456,132.3607 C130.1226,143.1317 121.0446,150.9477 110.1606,150.9477 L42.8886,150.9477 L42.8886,150.7227 L42.7636,150.7227 L42.7636,150.7157 L42.6386,150.7227 L42.6386,150.6977 L42.6386,64.0807 L42.6386,63.8467 L42.8716,63.8307 C49.9066,63.3717 54.9846,62.3837 57.9666,60.8927 C65.8806,56.9717 75.9686,46.2297 79.1516,35.0427 C80.0286,31.9667 81.4906,25.3557 83.2676,16.4277 L83.3276,16.1297 C83.9866,12.7327 87.1976,10.2667 90.9606,10.2667 C91.2636,10.2667 91.5646,10.2917 91.8566,10.3147 C97.1196,10.8637 99.9696,15.8527 99.5936,20.1617 C97.9276,38.6597 94.7706,49.5807 94.4726,50.5407 L94.4806,50.5437 L90.3736,64.1227 L129.1406,64.1227 Z M32.3476,64.3957 L32.3476,150.7227 L32.3476,150.9727 L32.0976,150.9727 L10.5406,150.9727 L10.2906,150.9727 L10.2906,150.7227 L10.2906,64.3957 L10.2906,64.1457 L10.5406,64.1457 L32.0976,64.1457 L32.3476,64.1457 L32.3476,64.3957 Z M92.9276,0.1437 C92.2756,0.0477 91.6256,-0.0003 90.9846,-0.0003 C82.2706,-0.0003 74.8106,5.9847 73.2456,14.2317 C73.2196,14.3667 70.6276,27.5447 69.2796,32.2637 C66.9976,40.2707 59.0926,48.9427 53.4246,51.7167 C49.1696,53.8187 33.8986,53.8807 32.1706,53.8807 L10.5406,53.8807 C4.7286,53.8807 -0.0004,58.6087 -0.0004,64.4207 L-0.0004,150.7467 C-0.0004,156.5587 4.7286,161.2867 10.5406,161.2867 L110.1356,161.2867 C117.8226,161.2867 125.2636,158.5247 131.0896,153.5097 C136.9146,148.4937 140.7536,141.5437 141.8966,133.9397 L150.2326,78.3827 C151.1586,72.2427 149.3686,66.0247 145.3206,61.3207 C141.2656,56.6077 135.3676,53.9047 129.1406,53.9047 L104.5946,53.9047 L104.2576,53.9047 L104.3556,53.5827 C104.3916,53.4617 108.0156,41.2897 109.8376,21.1627 C110.7796,10.6417 103.1926,1.2127 92.9276,0.1437 Z" id="Fill-1" fill="#696969" mask="url(#mask-2)"></path>
        </g>
    </g>
</svg>