<?xml version="1.0" encoding="UTF-8"?>
<svg width="201px" height="158px" viewBox="0 0 201 158" version="1.1" xmlns="http://www.w3.org/2000/svg" xmlns:xlink="http://www.w3.org/1999/xlink">
    <!-- Generator: Sketch 49.3 (51167) - http://www.bohemiancoding.com/sketch -->
    <title>眼睛</title>
    <desc>Created with Sketch.</desc>
    <defs>
        <polygon id="path-1" points="0.0004 0.5317 201 0.5317 201 156.9997 0.0004 156.9997"></polygon>
    </defs>
    <g id="眼睛" stroke="none" stroke-width="1" fill="none" fill-rule="evenodd">
        <g id="Page-1">
            <g id="Group-3" transform="translate(0.000000, 0.469000)">
                <mask id="mask-2" fill="white">
                    <use xlink:href="#path-1"></use>
                </mask>
                <g id="Clip-2"></g>
                <path d="M189.6094,78.7657 C189.6094,91.0837 178.9464,107.6967 162.4434,121.0867 C143.9254,136.1137 121.3484,144.7307 100.5004,144.7307 C79.6594,144.7307 57.0844,136.1137 38.5644,121.0867 C22.0564,107.6957 11.3904,91.0827 11.3904,78.7657 C11.3904,66.4487 22.0564,49.8357 38.5644,36.4447 C57.0844,21.4177 79.6594,12.8007 100.5004,12.8007 C121.3404,12.8007 143.9164,21.4177 162.4354,36.4447 C178.9434,49.8357 189.6094,66.4487 189.6094,78.7657 M170.7414,27.0407 C150.4944,10.1937 124.8914,0.5317 100.5004,0.5317 C76.1084,0.5317 50.5054,10.1937 30.2584,27.0407 C11.3114,42.8057 0.0004,62.1417 0.0004,78.7657 C0.0004,95.3897 11.3114,114.7257 30.2584,130.4907 C50.5054,147.3377 76.1084,156.9997 100.5004,156.9997 C124.8914,156.9997 150.4944,147.3377 170.7414,130.4907 C189.6884,114.7257 201.0004,95.3897 201.0004,78.7657 C201.0004,62.1417 189.6884,42.8057 170.7414,27.0407" id="Fill-1" fill="#696969" mask="url(#mask-2)"></path>
            </g>
            <path d="M124.8047,79.2317 C124.7287,92.1507 114.1847,102.6607 101.3007,102.6607 L99.6997,102.6607 C86.8157,102.6607 76.2717,92.1507 76.1957,79.2367 C76.2527,66.3187 86.7967,55.8087 99.6997,55.8087 L101.3007,55.8087 C114.1847,55.8087 124.7287,66.3187 124.8047,79.2317 M101.1637,43.9297 L99.8357,43.9297 C80.3367,43.9297 64.4727,59.7677 64.4727,79.2347 C64.4727,98.7017 80.3367,114.5397 99.8357,114.5397 L101.1637,114.5397 C120.6627,114.5397 136.5277,98.7017 136.5277,79.2327 C136.4677,59.7667 120.6047,43.9297 101.1637,43.9297" id="Fill-4" fill="#696969"></path>
        </g>
    </g>
</svg>