<?xml version="1.0" encoding="UTF-8"?>
<svg width="146px" height="147px" viewBox="0 0 146 147" version="1.1" xmlns="http://www.w3.org/2000/svg" xmlns:xlink="http://www.w3.org/1999/xlink">
    <!-- Generator: Sketch 49.3 (51167) - http://www.bohemiancoding.com/sketch -->
    <title>科目选择</title>
    <desc>Created with Sketch.</desc>
    <defs>
        <polygon id="path-1" points="0 0.9002 145.0998 0.9002 145.0998 146 0 146"></polygon>
    </defs>
    <g id="科目选择" stroke="none" stroke-width="1" fill="none" fill-rule="evenodd">
        <g id="Page-1">
            <path d="M5.707,52.5 L5.707,95.8 C9.733,93.5 14.482,91.2 19.541,91.2 L110.906,91.2 C112.558,91.2 113.899,89.9 113.899,88.3 L113.899,52.5 L5.707,52.5 Z" id="Fill-1" fill="#FFDA00"></path>
            <path d="M116.2998,113.5 L28.7998,113.5 C26.7038,113.5 24.9998,115.205 24.9998,117.3 C24.9998,119.396 26.7038,121.1 28.7998,121.1 L116.2998,121.1 C118.3958,121.1 120.0998,119.396 120.0998,117.3 C120.0998,115.205 118.3958,113.5 116.2998,113.5" id="Fill-3" fill="#333333"></path>
            <g id="Group-7" transform="translate(0.000000, 0.100000)">
                <mask id="mask-2" fill="white">
                    <use xlink:href="#path-1"></use>
                </mask>
                <g id="Clip-6"></g>
                <path d="M121.2998,31.6002 L121.2998,31.5002 L122.5998,31.5002 L134.7998,31.5002 C136.3178,31.5002 137.5998,32.7822 137.5998,34.3002 L137.5998,135.7002 C137.5998,137.2182 136.3178,138.5002 134.7998,138.5002 L22.8998,138.5002 C14.4638,138.5002 7.5998,131.6362 7.5998,123.2002 L7.5998,111.3002 C7.5998,102.8642 14.4638,96.0002 22.8998,96.0002 L114.8998,96.0002 C117.7118,96.0002 119.9998,93.7122 119.9998,90.9002 L119.9998,34.1002 L119.9998,32.9002 L119.9998,31.6002 L121.2998,31.6002 Z M7.5998,89.4002 L7.5998,23.6002 C7.5998,15.2192 14.4188,8.4002 22.7998,8.4002 L109.8998,8.4002 C111.4178,8.4002 112.6998,9.6822 112.6998,11.2002 L112.6998,85.7002 C112.6998,87.2142 111.5138,88.4002 109.9998,88.4002 L22.9998,88.4002 C18.8838,88.4002 14.8948,89.4782 11.4638,91.5172 L9.6778,92.6092 L7.6998,93.8182 L7.6998,91.5002 L7.6998,90.7002 L7.5998,90.7002 L7.5998,89.4002 Z M119.9998,21.4002 L119.9998,8.8002 L119.9998,7.5432 C119.3968,3.7822 116.1278,0.9002 112.1998,0.9002 L22.6998,0.9002 C10.1828,0.9002 -0.0002,11.0832 -0.0002,23.6002 L-0.0002,123.3002 C-0.0002,135.8172 10.1828,146.0002 22.6998,146.0002 L137.1998,146.0002 C141.5558,146.0002 145.0998,142.4562 145.0998,138.1002 L145.0998,31.8002 C145.0998,27.4442 141.5558,23.9002 137.1998,23.9002 L122.4998,23.9002 L121.2998,23.9002 L119.9998,23.9002 L119.9998,22.6002 L119.9998,21.4002 Z" id="Fill-5" fill="#333333" mask="url(#mask-2)"></path>
            </g>
        </g>
    </g>
</svg>