<?xml version="1.0" encoding="UTF-8"?>
<svg width="110px" height="173px" viewBox="0 0 110 173" version="1.1" xmlns="http://www.w3.org/2000/svg" xmlns:xlink="http://www.w3.org/1999/xlink">
    <!-- Generator: Sketch 49.3 (51167) - http://www.bohemiancoding.com/sketch -->
    <title>笔尖</title>
    <desc>Created with Sketch.</desc>
    <defs>
        <polygon id="path-1" points="0 0.1106 109.654921 0.1106 109.654921 172 0 172"></polygon>
    </defs>
    <g id="笔尖" stroke="none" stroke-width="1" fill="none" fill-rule="evenodd">
        <g id="Page-1">
            <path d="M69.2127,103.3462 C69.2127,111.4542 62.6407,118.0272 54.5317,118.0272 C46.4237,118.0272 39.8507,111.4542 39.8507,103.3462 C39.8507,95.2382 46.4237,88.6642 54.5317,88.6642 C62.6407,88.6642 69.2127,95.2382 69.2127,103.3462" id="Fill-1" fill="#FFDA00"></path>
            <path d="M65.9314,109.9253 C63.5354,113.7883 59.3924,116.0943 54.8464,116.0943 C52.4864,116.0943 50.1704,115.4503 48.1284,114.2303 C47.6524,114.0213 47.1984,113.7293 46.8074,113.3803 C41.5064,109.4023 40.1074,101.8743 43.6374,96.1543 C45.4624,93.2343 48.3424,91.1633 51.7564,90.3103 C52.7704,90.0563 53.8134,89.9283 54.8544,89.9283 C57.2604,89.9283 59.6214,90.6093 61.6834,91.8983 C67.8094,95.7403 69.7124,103.8263 65.9314,109.9253 M66.0124,87.8353 L65.9674,87.8013 L65.9224,87.7663 C65.5514,87.4693 65.2314,87.2123 64.9524,87.0723 L64.8454,87.0203 L64.7434,86.9583 C61.7324,85.1403 58.2924,84.1793 54.7954,84.1793 C53.3324,84.1793 51.8684,84.3483 50.4424,84.6813 C45.6044,85.8103 41.4624,88.8053 38.7794,93.1143 C36.1534,97.4123 35.3624,102.5293 36.5664,107.5003 C37.7444,112.3653 40.7154,116.4593 44.9324,119.0293 C47.9344,120.9013 51.3514,121.8813 54.8414,121.8813 C61.4504,121.8813 67.4424,118.5203 70.8704,112.8903 C75.9164,104.5893 73.7844,93.5823 66.0124,87.8353" id="Fill-3" fill="#333333"></path>
            <g id="Group-7" transform="translate(0.000000, 0.890000)">
                <mask id="mask-2" fill="white">
                    <use xlink:href="#path-1"></use>
                </mask>
                <g id="Clip-6"></g>
                <path d="M15.0925,148.5236 C15.1415,145.3666 17.7495,142.7966 20.9075,142.7966 L89.6245,143.1436 C91.9855,143.1566 94.1145,144.5586 95.0965,146.9616 C95.3335,147.5416 95.4285,148.1696 95.4155,148.7956 L95.1515,161.5836 C95.0855,164.7156 92.4695,167.2786 89.3355,167.2786 L89.3295,167.2786 L89.3195,167.2786 L20.6905,167.0186 C18.9505,167.0116 17.3335,166.2486 16.2105,164.8846 C15.2955,163.7756 14.8785,162.3356 14.9015,160.8976 L15.0925,148.5236 Z M6.4225,77.2056 L5.9435,75.7526 L6.8375,74.5116 L46.8575,19.0076 L52.3855,11.3386 L52.2895,20.7936 L51.8205,67.1846 C51.8215,68.3796 53.1135,69.4156 54.6455,69.4156 L54.6895,69.4156 L54.7335,69.4166 L54.8295,69.4186 C56.2855,69.4186 57.5635,68.4036 57.5635,67.2486 L58.0325,20.1696 L58.1255,10.8546 L63.4865,18.4716 L102.9425,74.5406 L103.7965,75.7546 L103.3485,77.1706 L84.6545,136.2596 L83.9895,138.3596 L81.7885,138.3556 L28.7115,138.2616 L26.5455,138.2576 L25.8675,136.2006 L6.4225,77.2056 Z M18.7105,171.8106 L90.6325,171.9986 L90.8215,172.0006 C95.7435,172.0006 99.7035,168.6956 99.8385,164.4756 L100.3075,146.4566 C100.3725,144.1586 99.2445,141.9906 97.2105,140.4996 C96.0885,139.6576 94.7215,139.0646 93.2305,138.7666 L89.9505,138.1116 L90.9575,134.9216 L109.3695,76.5856 L109.4295,76.3976 L109.5125,76.2186 C109.7315,75.7496 109.6975,75.3086 109.4135,74.9106 L58.1055,1.5596 L58.0855,1.5326 L58.0675,1.5046 C57.7395,1.0136 57.5295,0.8596 57.4895,0.8336 L57.4205,0.7876 L57.3545,0.7376 C56.8045,0.3256 56.1465,0.1166 55.3965,0.1166 L55.3315,0.1166 L55.2665,0.1136 C55.2195,0.1116 55.1715,0.1106 55.1245,0.1106 C54.1375,0.1106 53.2415,0.5706 52.7895,1.3106 L52.7335,1.4036 L52.6695,1.4926 L0.3445,74.6296 C0.0005,75.1116 -0.0915,75.7046 0.0925,76.2566 L19.3535,134.5076 L20.3995,137.6696 L17.1445,138.3796 C13.2345,139.2336 10.4575,142.2236 10.3925,145.6526 L9.9215,163.7106 C9.8935,165.4476 10.7365,167.3476 12.2355,168.8956 C13.9965,170.7126 16.3565,171.7756 18.7105,171.8106 Z" id="Fill-5" fill="#333333" mask="url(#mask-2)"></path>
            </g>
        </g>
    </g>
</svg>