<?xml version="1.0" encoding="UTF-8"?>
<svg width="175px" height="163px" viewBox="0 0 175 163" version="1.1" xmlns="http://www.w3.org/2000/svg" xmlns:xlink="http://www.w3.org/1999/xlink">
    <!-- Generator: Sketch 49.3 (51167) - http://www.bohemiancoding.com/sketch -->
    <title>脑子</title>
    <desc>Created with Sketch.</desc>
    <defs>
        <polygon id="path-1" points="0.0002 0.293 174.2262 0.293 174.2262 161.9999 0.0002 161.9999"></polygon>
    </defs>
    <g id="脑子" stroke="none" stroke-width="1" fill="none" fill-rule="evenodd">
        <g id="Page-1">
            <path d="M137.6005,128.4879 C135.3985,129.7259 133.0695,130.7319 130.6775,131.4769 C127.0925,132.5869 123.3805,133.1479 119.6465,133.1479 C115.1835,133.1479 110.8255,132.3669 106.6905,130.8239 L106.6295,130.8079 C103.8535,129.7749 101.1545,128.3659 98.6065,126.6209 L98.2415,126.3699 L98.6445,126.1859 C99.9105,125.6099 101.1935,124.8989 102.4585,124.0759 C103.0575,123.6849 103.4665,123.0849 103.6135,122.3839 C103.7595,121.6809 103.6225,120.9629 103.2265,120.3599 C102.7315,119.6009 101.8935,119.1479 100.9855,119.1479 C100.4615,119.1479 99.9525,119.3009 99.5105,119.5919 C97.2265,121.0819 94.7495,122.1639 92.1485,122.8089 C90.2625,123.2809 88.3035,123.5189 86.3265,123.5189 C83.1565,123.5189 80.0875,122.9159 77.2065,121.7229 L76.6785,121.5049 L77.1985,121.2649 C80.6175,119.6919 83.8115,117.6599 86.6925,115.2269 L86.7335,115.1919 L86.7865,115.1769 C90.1225,114.2379 93.5375,113.7609 96.9315,113.7609 C105.4715,113.7609 113.8105,116.7369 120.4105,122.1379 L120.4155,122.1439 L120.4215,122.1469 C120.4545,122.1639 120.4875,122.1859 120.5195,122.2109 L120.5365,122.2179 L120.5725,122.2449 C125.5425,125.7519 131.3935,127.7489 137.4895,128.0199 L138.3635,128.0579 L137.6005,128.4879 Z M130.1405,157.2419 C129.8025,157.3299 129.4575,157.3739 129.1125,157.3739 C127.4395,157.3739 125.9195,156.3339 125.3305,154.7839 C123.3135,149.5289 119.8525,144.1209 115.0445,138.7099 L114.6165,138.2259 L115.2585,138.2949 C116.7075,138.4489 118.1905,138.5269 119.6655,138.5269 C122.7225,138.5269 125.7275,138.2079 128.5965,137.5759 L128.8785,137.5139 L128.8995,137.8019 C129.2505,142.7369 130.5295,147.3029 132.6995,151.3749 C133.0295,151.9949 133.1975,152.6449 133.1975,153.3079 C133.1555,155.1849 131.9265,156.7639 130.1405,157.2419 Z" id="Fill-1" fill="#FFDA00"></path>
            <g id="Group-5" transform="translate(0.000000, 0.707000)">
                <mask id="mask-2" fill="white">
                    <use xlink:href="#path-1"></use>
                </mask>
                <g id="Clip-4"></g>
                <path d="M148.2372,120.2769 L148.1942,120.2929 L148.1482,120.2929 C147.5302,120.2929 146.9472,120.4849 146.4632,120.8479 L146.4262,120.8759 L146.3832,120.8879 C143.9712,121.6079 141.4312,121.9719 138.8322,121.9719 C133.3492,121.9719 128.0862,120.3159 123.6102,117.1809 C116.0622,111.0349 106.5532,107.6559 96.8202,107.6559 C95.6282,107.6559 94.5112,107.7019 93.5032,107.7919 L92.9442,107.8409 L93.2802,107.3929 C95.2672,104.7449 96.9252,101.8989 98.2112,98.9359 L98.2312,98.8499 C98.4412,98.3649 98.7152,97.7219 98.9682,97.0459 C101.3402,92.1219 106.3882,88.9529 111.8402,88.9529 C114.3772,88.9529 116.8662,89.6269 119.0372,90.9019 C119.4512,91.1429 119.9192,91.2709 120.3902,91.2709 C121.3482,91.2709 122.2112,90.7719 122.6982,89.9359 C123.4552,88.6399 123.0312,87.0319 121.7332,86.2749 C118.7462,84.5209 115.3252,83.5929 111.8402,83.5929 C108.3742,83.5929 104.9322,84.5339 101.8872,86.3129 L101.4642,86.5609 L101.5122,86.0729 L101.5222,85.9749 C101.5582,85.6239 101.5912,85.2869 101.6092,84.9329 C101.7162,83.4599 100.6012,82.1769 99.1272,82.0699 C99.0612,82.0649 98.9962,82.0629 98.9312,82.0629 C97.5412,82.0619 96.3712,83.1569 96.2692,84.5529 C96.0332,88.1049 95.2862,91.5909 94.0472,94.9159 C93.7512,95.5299 93.4982,96.1509 93.2882,96.7819 C91.1692,101.6309 87.9602,106.0569 83.9992,109.6039 L83.9682,109.6309 L83.9302,109.6479 C83.4502,109.8529 83.0542,110.1959 82.7542,110.6659 L82.7322,110.6999 L82.7002,110.7249 C78.8172,113.8759 74.2812,116.2489 69.5842,117.5889 L69.5502,117.5969 L69.5152,117.5969 C69.5202,117.6009 69.4982,117.6099 69.4632,117.6149 C66.1812,118.5489 62.7622,119.0229 59.3002,119.0229 C49.8152,119.0229 40.7932,115.4409 33.8942,108.9359 C30.5892,105.1539 28.7772,100.3299 28.7772,95.3359 C28.7772,88.8089 31.9182,82.5869 37.1792,78.6899 C38.3712,77.8179 38.6282,76.1339 37.7522,74.9369 C37.2432,74.2419 36.4572,73.8429 35.5922,73.8429 C35.0172,73.8429 34.4662,74.0239 33.9992,74.3659 C28.3362,78.5499 24.5632,84.9529 23.6502,91.9309 L23.5932,92.3669 L23.2482,92.0949 C22.9572,91.8659 22.6582,91.7109 22.3622,91.6319 L22.2352,91.5839 C17.5092,90.2379 13.2122,87.3069 10.1572,83.3399 C7.0312,79.2699 5.3792,74.3749 5.3792,69.1829 C5.3792,66.2039 5.9432,63.2809 7.0562,60.4969 C7.3282,59.8529 7.3212,59.0969 7.0392,58.4209 C6.1552,55.7729 5.7112,53.0389 5.7112,50.2769 C5.7112,36.2359 17.1342,24.8119 31.1752,24.8119 C33.4222,24.8119 35.6582,25.1039 37.8222,25.6799 L37.9292,25.7109 L37.9352,25.7109 L38.0222,25.7339 C38.2152,25.7689 38.3912,25.7869 38.5662,25.7869 C39.5582,25.7869 40.4592,25.2479 40.9162,24.3799 C45.2142,18.6699 50.7752,13.9769 57.0182,10.7779 C63.7082,7.3249 70.9552,5.5739 78.5582,5.5739 C84.8672,5.5739 91.0232,6.8159 96.8582,9.2649 L97.3262,9.4619 L96.8852,9.7139 C92.1052,12.4449 88.0392,16.1459 84.7982,20.7149 C82.6662,23.7389 80.9942,27.0219 79.8312,30.4739 C79.7352,30.6499 79.6652,30.7749 79.6132,30.9119 C77.3502,36.8279 71.5822,40.7999 65.2582,40.7999 C63.7802,40.7999 62.5782,42.0029 62.5782,43.4799 C62.5782,44.9579 63.7802,46.1599 65.2582,46.1599 C69.5452,46.1599 73.6552,44.8659 77.1452,42.4169 C77.2602,42.3389 77.3642,42.2699 77.4442,42.1899 L77.8712,41.7629 L77.8712,42.3669 L77.8712,42.5039 C77.8712,43.3309 77.9032,44.2199 77.9682,45.2219 C78.0762,46.6349 79.2192,47.7029 80.6292,47.7029 L80.8432,47.7029 C81.5422,47.6519 82.1952,47.3249 82.6642,46.7839 C83.1322,46.2439 83.3612,45.5549 83.3092,44.8459 C83.2562,44.1389 83.2302,43.3739 83.2302,42.5039 C83.2302,35.7409 85.2792,29.2749 89.1552,23.8039 C92.9392,18.4519 98.1932,14.4029 104.3492,12.0939 C107.9702,10.7489 111.7782,10.0659 115.6682,10.0659 C123.5862,10.0659 131.2052,12.9469 137.1232,18.1759 C142.9822,23.3669 146.7752,30.4619 147.8052,38.1549 L147.8072,38.1579 L147.8242,38.2239 C147.8372,38.2729 147.8422,38.3149 147.8492,38.3569 C147.8522,38.3829 147.8562,38.4099 147.8632,38.4389 L147.8712,38.4689 L147.8712,38.4999 C147.9112,38.5789 147.9182,38.6129 147.9252,38.6459 L147.9612,38.7579 C147.9722,38.7879 147.9832,38.8159 147.9952,38.8499 C148.0042,38.8619 148.0132,38.9019 148.0192,38.9269 L148.0502,38.9969 C148.0682,39.0269 148.0932,39.0689 148.1122,39.1239 C148.1232,39.1359 148.1452,39.1729 148.1572,39.2299 L148.2192,39.3179 L148.1292,39.4139 L148.1422,39.4379 L148.2492,39.3669 C148.2582,39.3799 148.2662,39.3929 148.2752,39.4079 C148.3072,39.4449 148.3302,39.4809 148.3512,39.5139 L148.3602,39.5269 L148.3912,39.5799 C148.4022,39.5839 148.4242,39.6039 148.4462,39.6359 C148.4572,39.6479 148.4662,39.6599 148.4752,39.6719 L148.5112,39.6889 L148.5202,39.7099 C148.5412,39.7299 148.5572,39.7499 148.5732,39.7679 C148.6092,39.7889 148.6452,39.8249 148.6672,39.8459 L148.7042,39.8649 L148.7162,39.8849 C148.7362,39.9059 148.7542,39.9259 148.7732,39.9399 C148.7992,39.9519 148.8212,39.9659 148.8432,39.9809 L148.8802,39.9999 L148.9302,40.0419 C148.9672,40.0629 149.0002,40.0829 149.0312,40.1069 C149.0632,40.1239 149.0972,40.1429 149.1292,40.1669 C149.1462,40.1759 149.1662,40.1879 149.1852,40.1999 L149.2362,40.2289 L149.2862,40.2509 C149.3172,40.2629 149.3482,40.2759 149.3742,40.2879 L149.4912,40.3459 C149.5082,40.3499 149.5492,40.3639 149.6062,40.3789 L149.6242,40.3789 L149.6952,40.4049 C155.1332,41.9819 160.0132,45.3369 163.4652,49.8519 C167.0112,54.5039 168.8862,60.0739 168.8862,65.9609 C168.8672,70.2519 167.9252,74.2909 166.0872,77.9669 L165.8912,78.3579 L165.6542,77.9919 C159.7342,68.8659 149.7072,63.4179 138.8322,63.4179 C137.8022,63.4179 136.7072,63.4699 135.5732,63.5729 C134.8612,63.6419 134.2172,63.9899 133.7612,64.5509 C133.3102,65.1059 133.1052,65.7979 133.1822,66.4999 C133.3142,67.8519 134.4862,68.9089 135.8502,68.9089 C135.9372,68.9089 136.0242,68.9039 136.1122,68.8959 C136.9652,68.8029 137.8552,68.7569 138.8322,68.7569 C149.3862,68.7569 158.9602,75.0039 163.2202,84.6689 C163.2322,84.6899 163.2412,84.7139 163.2492,84.7389 C164.7132,88.1039 165.4492,91.6729 165.4492,95.3749 C165.4492,101.1329 163.6492,106.6009 160.2442,111.1879 C157.1922,115.3149 153.0412,118.4589 148.2372,120.2769 Z M137.4702,127.7809 C135.2672,129.0189 132.9382,130.0249 130.5472,130.7699 C126.9622,131.8799 123.2512,132.4409 119.5152,132.4409 C115.0522,132.4409 110.6952,131.6599 106.5602,130.1169 L106.4992,130.1009 C103.7222,129.0679 101.0232,127.6589 98.4762,125.9139 L98.1112,125.6629 L98.5132,125.4789 C99.7792,124.9029 101.0632,124.1919 102.3292,123.3689 C102.9262,122.9779 103.3372,122.3779 103.4822,121.6769 C103.6302,120.9739 103.4922,120.2559 103.0952,119.6529 C102.6002,118.8939 101.7632,118.4409 100.8542,118.4409 C100.3322,118.4409 99.8212,118.5939 99.3802,118.8839 C97.0952,120.3749 94.6192,121.4569 92.0172,122.1019 C90.1322,122.5739 88.1732,122.8119 86.1952,122.8119 C83.0252,122.8119 79.9572,122.2089 77.0762,121.0159 L76.5482,120.7979 L77.0672,120.5579 C80.4862,118.9849 83.6802,116.9529 86.5612,114.5199 L86.6032,114.4849 L86.6552,114.4699 C89.9922,113.5309 93.4062,113.0539 96.8002,113.0539 C105.3412,113.0539 113.6792,116.0299 120.2792,121.4309 C120.2832,121.4339 120.2852,121.4359 120.2862,121.4369 L120.2922,121.4399 C120.3242,121.4569 120.3562,121.4789 120.3882,121.5039 L120.4052,121.5109 L120.4412,121.5379 C125.4132,125.0449 131.2622,127.0419 137.3592,127.3129 L138.2322,127.3509 L137.4702,127.7809 Z M130.0092,156.5349 C129.6732,156.6229 129.3272,156.6669 128.9822,156.6669 C127.3092,156.6669 125.7892,155.6269 125.2002,154.0769 C123.1822,148.8219 119.7212,143.4139 114.9152,138.0029 L114.4852,137.5189 L115.1282,137.5879 C116.5772,137.7419 118.0602,137.8199 119.5352,137.8199 C122.5912,137.8199 125.5962,137.5009 128.4662,136.8689 L128.7482,136.8069 L128.7692,137.0949 C129.1202,142.0299 130.3982,146.5959 132.5682,150.6679 C132.8982,151.2879 133.0662,151.9379 133.0662,152.6009 C133.0242,154.4779 131.7962,156.0569 130.0092,156.5349 Z M164.4902,114.3869 C168.5862,108.8549 170.7502,102.2809 170.7502,95.3749 C170.7502,91.4849 170.0652,87.7039 168.7162,84.1349 L168.6692,84.0129 L168.7432,83.9059 C172.3302,78.6779 174.2262,72.5209 174.2262,66.0969 C174.2262,59.0189 171.9682,52.3249 167.6962,46.7379 C163.9912,41.8619 158.7602,38.0359 152.9662,35.9629 L152.8312,35.9139 L152.8042,35.7709 C151.2962,27.5099 146.9752,19.8759 140.6392,14.2729 C133.7302,8.1799 124.8482,4.8239 115.6292,4.8239 C111.6122,4.8239 107.6362,5.4579 103.8122,6.7069 L103.7092,6.7399 L103.6152,6.6879 C95.9472,2.5049 87.2692,0.2929 78.5192,0.2929 C70.1732,0.2929 61.8792,2.2969 54.5332,6.0859 C48.0002,9.4589 42.1182,14.2849 37.5232,20.0429 L37.4272,20.1629 L37.2782,20.1309 C35.3242,19.7329 33.2642,19.5309 31.1562,19.5309 C14.1602,19.5309 0.3322,33.3589 0.3322,50.3549 C0.3322,53.4189 0.7882,56.4689 1.6882,59.4229 L1.7132,59.5039 L1.6842,59.5819 C0.5662,62.6649 0.0002,65.9219 0.0002,69.2609 C0.0002,75.6189 2.0352,81.6369 5.8852,86.6689 C9.2582,91.0759 14.0102,94.5139 19.2652,96.3499 L19.3782,96.3889 L19.4192,96.5009 C21.6182,102.5789 25.2772,108.1849 30.0012,112.7149 C32.0342,114.9979 34.4352,116.8909 37.1542,118.3579 C37.3152,118.4549 37.5002,118.5289 37.7262,118.5899 L37.7582,118.5989 L37.7872,118.6169 C44.2632,122.4399 51.6962,124.4609 59.2812,124.4609 C62.7922,124.4609 66.2872,124.0299 69.6702,123.1789 L69.7772,123.1519 L69.8692,123.2149 C74.7062,126.4449 80.3512,128.1519 86.1952,128.1519 C88.1102,128.1519 89.9922,127.9699 91.7912,127.6099 L91.9102,127.5869 L92.0022,127.6649 C95.6692,130.7829 99.7452,133.2199 104.1172,134.9079 L104.1582,134.9229 L104.1902,134.9509 C106.9582,137.3269 116.2872,145.8649 120.1592,155.9689 C121.5472,159.5769 125.0712,161.9999 128.9292,161.9999 C129.7502,161.9999 130.5562,161.8979 131.3272,161.6959 C135.4722,160.6119 138.3672,156.8639 138.3672,152.5819 C138.3672,151.0249 137.9792,149.4859 137.2452,148.1309 C135.2442,144.3649 134.1502,140.0839 133.9922,135.4029 L133.9862,135.2219 L134.1562,135.1599 C139.6912,133.1229 144.8812,129.8329 149.1652,125.6449 L149.2052,125.6059 L149.2582,125.5879 C155.3842,123.4679 160.6522,119.5939 164.4902,114.3869 Z" id="Fill-3" fill="#333333" mask="url(#mask-2)"></path>
            </g>
        </g>
    </g>
</svg>