<?xml version="1.0" encoding="UTF-8"?>
<svg width="180px" height="156px" viewBox="0 0 180 156" version="1.1" xmlns="http://www.w3.org/2000/svg" xmlns:xlink="http://www.w3.org/1999/xlink">
    <!-- Generator: Sketch 49.3 (51167) - http://www.bohemiancoding.com/sketch -->
    <title>评论</title>
    <desc>Created with Sketch.</desc>
    <defs>
        <polygon id="path-1" points="0 0.301 187.5109 0.301 187.5109 154.9999 0 154.9999"></polygon>
    </defs>
    <g id="评论" stroke="none" stroke-width="1" fill="none" fill-rule="evenodd">
        <g id="Page-1">
            <g id="Group-3" transform="translate(0.000000, 0.699000)">
                <mask id="mask-2" fill="white">
                    <use xlink:href="#path-1"></use>
                </mask>
                <g id="Clip-2"></g>
                <path d="M168.3459,106.1649 C168.3459,116.6029 159.8539,125.0949 149.4149,125.0949 L39.9019,125.0949 C37.9049,125.0949 36.4019,125.2399 35.0749,125.9639 L13.1139,138.5769 L11.0169,139.7809 L11.0169,137.3629 L11.0169,30.0999 C11.0169,19.6609 19.5089,11.1689 29.9479,11.1689 L149.4149,11.1689 C159.8539,11.1689 168.3459,19.6609 168.3459,30.0999 L168.3459,106.1649 Z M26.3819,0.3009 C11.8349,0.3009 -0.0001,12.1359 -0.0001,26.6829 L-0.0001,147.9109 C-0.0001,149.7389 -0.0001,151.3179 0.9209,152.5849 C1.9559,154.1369 3.5649,154.9999 5.3649,154.9999 C6.3779,154.9999 7.4019,154.7219 8.3329,154.1929 C8.6249,153.9639 8.9249,153.8649 9.1669,153.8219 L38.1689,137.3349 C39.0559,136.8029 40.0109,136.5579 41.2379,136.5579 L153.1299,136.5579 C167.6769,136.5579 179.5109,124.7229 179.5109,110.1759 L179.5109,26.8309 C179.2299,12.2149 167.2619,0.3009 152.8329,0.3009 L26.3819,0.3009 Z" id="Fill-1" fill="#696969" mask="url(#mask-2)"></path>
            </g>
            <path d="M47.7868,79.7389 C44.7078,79.7389 42.2038,82.2439 42.2038,85.3219 C42.2038,88.3999 44.7078,90.9039 47.7868,90.9039 L94.4358,90.9039 C97.5138,90.9039 100.0178,88.3999 100.0178,85.3219 C100.0178,82.2439 97.5138,79.7389 94.4358,79.7389 L47.7868,79.7389 Z" id="Fill-4" fill="#696969"></path>
            <path d="M47.7863,47.3523 C44.7083,47.3523 42.2033,49.8563 42.2033,52.9343 C42.2033,56.0123 44.7083,58.5173 47.7863,58.5173 L131.5763,58.5173 C134.6453,58.5173 137.1443,56.0273 137.1593,52.9603 C137.0303,49.8103 134.6943,47.3473 131.8313,47.3473 C131.7873,47.3473 103.7723,47.3489667 47.7863,47.3523 Z" id="Fill-6" fill="#696969"></path>
        </g>
    </g>
</svg>