<?xml version="1.0" encoding="UTF-8"?>
<svg width="120px" height="149px" viewBox="0 0 120 149" version="1.1" xmlns="http://www.w3.org/2000/svg" xmlns:xlink="http://www.w3.org/1999/xlink">
    <!-- Generator: Sketch 49.3 (51167) - http://www.bohemiancoding.com/sketch -->
    <title>课程</title>
    <desc>Created with Sketch.</desc>
    <defs>
        <polygon id="path-1" points="0.0005 0.3386 108.8235 0.3386 108.8235 127 0.0005 127"></polygon>
        <polygon id="path-3" points="0.952753743 0.630589988 12.33 0.630589988 12.33 7.9074 0.952753743 7.9074"></polygon>
    </defs>
    <g id="课程" stroke="none" stroke-width="1" fill="none" fill-rule="evenodd">
        <g id="Page-1">
            <g id="Group-3" transform="translate(0.000000, 21.771000)">
                <mask id="mask-2" fill="white">
                    <use xlink:href="#path-1"></use>
                </mask>
                <g id="Clip-2"></g>
                <path d="M102.7445,26.1886 L102.7445,119.8236 L102.7445,121.0226 L101.5455,121.0226 L12.3245,121.0226 C8.9375,121.0226 6.0775,118.1166 6.0775,114.6756 L6.0775,25.2056 L6.0775,23.4276 L7.7255,24.0916 C9.2025,24.6866 10.7495,24.9886 12.3245,24.9886 L101.5455,24.9886 L102.7445,24.9886 L102.7445,26.1886 Z M12.3245,6.4176 L88.3235,6.4176 L89.5225,6.4176 L89.5225,7.6176 L89.5225,17.7096 L89.5225,18.9106 L88.3235,18.9106 L12.3245,18.9106 C8.8805,18.9106 6.0775,16.1086 6.0775,12.6646 C6.0775,9.2196 8.8805,6.4176 12.3245,6.4176 Z M108.8215,123.9086 L108.8235,123.8936 L108.8225,21.9496 C108.8225,20.3016 107.4315,18.9106 105.7835,18.9106 L96.8015,18.9106 L95.6005,18.9106 L95.6005,17.7096 L95.6005,4.2806 L95.6005,4.1496 L95.6295,4.0216 C95.6785,3.8036 95.7025,3.5876 95.7025,3.3776 C95.7025,1.7316 94.3095,0.3386 92.6635,0.3386 L12.3245,0.3386 C5.5285,0.3386 0.0005,5.8686 0.0005,12.6646 L0.0005,114.6756 C0.0005,121.4706 5.5285,127.0006 12.3245,127.0006 L105.7835,127.0006 C105.8875,127.0006 105.9885,126.9946 106.0895,126.9846 C107.5625,126.8326 108.7285,125.5776 108.8215,124.0556 L108.8195,124.0246 L108.8185,123.9876 L108.8205,123.9516 L108.8215,123.9086 Z" id="Fill-1" fill="#ADADAD" mask="url(#mask-2)"></path>
            </g>
            <path d="M50.0365,85.0075 L23.7955,85.0075 C22.1475,85.0075 20.7565,86.3995 20.7565,88.0465 C20.7565,89.6945 22.1475,91.0855 23.7955,91.0855 L50.0365,91.0855 C51.7155,91.0855 52.9895,89.7985 53.0755,88.0225 C53.0615,86.3855 51.6765,85.0075 50.0365,85.0075" id="Fill-4" fill="#ADADAD"></path>
            <path d="M23.7953,72.111 L74.3603,72.111 C76.0073,72.111 77.3993,70.719 77.3993,69.072 C77.3993,67.424 76.0073,66.033 74.3603,66.033 L23.7953,66.033 C22.1483,66.033 20.7563,67.424 20.7563,69.072 C20.7563,70.719 22.1483,72.111 23.7953,72.111" id="Fill-6" fill="#ADADAD"></path>
            <path d="M103.6244,16.1315 C102.9174,16.1315 102.2104,15.8615 101.6704,15.3215 C100.5914,14.2435 100.5914,12.4935 101.6704,11.4145 L107.0464,6.0395 C108.1254,4.9605 109.8744,4.9605 110.9534,6.0395 C112.0324,7.1175 112.0324,8.8675 110.9534,9.9455 L105.5774,15.3215 C105.0384,15.8615 104.3314,16.1315 103.6244,16.1315" id="Fill-8" fill="#ADADAD"></path>
            <path d="M91.2504,10.9636 C90.8894,10.9636 90.5214,10.8916 90.1674,10.7406 C88.7654,10.1436 88.1114,8.5196 88.7104,7.1156 L91.0274,1.6806 C91.6264,0.2756 93.2474,-0.3754 94.6524,0.2226 C96.0564,0.8196 96.7094,2.4436 96.1104,3.8476 L93.7934,9.2836 C93.3454,10.3336 92.3234,10.9636 91.2504,10.9636" id="Fill-10" fill="#ADADAD"></path>
            <g id="Group-14" transform="translate(107.000000, 20.771000)">
                <mask id="mask-4" fill="white">
                    <use xlink:href="#path-3"></use>
                </mask>
                <g id="Clip-13"></g>
                <path d="M3.7152,7.9074 C2.5262,7.9074 1.4272,7.1334 1.0692,5.9344 C0.6322,4.4724 1.4632,2.9324 2.9252,2.4964 L8.7752,0.7474 C10.2362,0.3094 11.7762,1.1414 12.2132,2.6034 C12.6512,4.0654 11.8192,5.6054 10.3572,6.0424 L4.5072,7.7914 C4.2432,7.8694 3.9772,7.9074 3.7152,7.9074" id="Fill-12" fill="#ADADAD" mask="url(#mask-4)"></path>
            </g>
        </g>
    </g>
</svg>