<?xml version="1.0" encoding="UTF-8"?>
<svg width="128px" height="148px" viewBox="0 0 128 148" version="1.1" xmlns="http://www.w3.org/2000/svg" xmlns:xlink="http://www.w3.org/1999/xlink">
    <!-- Generator: Sketch 49.3 (51167) - http://www.bohemiancoding.com/sketch -->
    <title>资料</title>
    <desc>Created with Sketch.</desc>
    <defs>
        <polygon id="path-1" points="0.848824689 0.376 8.69351759 0.376 8.69351759 11.3385 0.848824689 11.3385"></polygon>
    </defs>
    <g id="资料" stroke="none" stroke-width="1" fill="none" fill-rule="evenodd">
        <g id="Page-1">
            <path d="M111.9846,17.1304 C111.2776,17.1304 110.5716,16.8604 110.0316,16.3204 C108.9526,15.2424 108.9526,13.4924 110.0316,12.4144 L115.4076,7.0384 C116.4866,5.9594 118.2346,5.9594 119.3136,7.0384 C120.3936,8.1164 120.3936,9.8664 119.3136,10.9454 L113.9386,16.3204 C113.3986,16.8604 112.6916,17.1304 111.9846,17.1304" id="Fill-1" fill="#ADADAD"></path>
            <g id="Group-5" transform="translate(96.000000, 0.624000)">
                <mask id="mask-2" fill="white">
                    <use xlink:href="#path-1"></use>
                </mask>
                <g id="Clip-4"></g>
                <path d="M3.6106,11.3385 C3.2496,11.3385 2.8816,11.2675 2.5286,11.1165 C1.1256,10.5185 0.4726,8.8945 1.0706,7.4905 L3.3876,2.0555 C3.9876,0.6505 5.6086,-0.0005 7.0136,0.5975 C8.4176,1.1955 9.0696,2.8185 8.4716,4.2235 L6.1546,9.6585 C5.7066,10.7085 4.6846,11.3385 3.6106,11.3385" id="Fill-3" fill="#ADADAD" mask="url(#mask-2)"></path>
            </g>
            <path d="M119.0764,29.6773 C117.8874,29.6773 116.7884,28.9033 116.4304,27.7043 C115.9924,26.2423 116.8234,24.7033 118.2864,24.2663 L124.1364,22.5183 C125.5974,22.0793 127.1364,22.9113 127.5744,24.3743 C128.0114,25.8353 127.1804,27.3753 125.7184,27.8123 L119.8684,29.5613 C119.6044,29.6393 119.3384,29.6773 119.0764,29.6773" id="Fill-6" fill="#ADADAD"></path>
            <path d="M104.262,104.2506 L104.262,104.7506 L103.762,104.7506 L73.5,104.7506 C69.837,104.7506 66.858,107.7096 66.858,111.3466 L66.858,141.9016 L11.539,141.9016 C8.342,141.9016 5.732,139.2996 5.722,136.1016 L5.722,33.2266 C5.737,30.0306 8.346,27.4336 11.539,27.4336 L98.437,27.4336 C101.649,27.4336 104.262,30.0316 104.262,33.2266 L104.262,104.2506 Z M99.075,111.0586 L73.202,136.7716 L72.35,137.6196 L72.35,136.4176 L72.35,111.3466 C72.35,110.7266 72.877,110.2026 73.5,110.2026 L98.723,110.2026 L99.936,110.2026 L99.075,111.0586 Z M109.992,106.4736 L109.992,33.2266 C109.992,26.8976 104.813,21.7506 98.446,21.7506 L11.556,21.7506 C5.184,21.7506 0,26.9016 0,33.2336 L0,136.1006 C0,142.4326 5.18,147.5846 11.547,147.5846 L68.498,147.5846 C68.506,147.5846 68.512,147.5826 68.52,147.5826 C68.621,147.6026 68.723,147.6236 68.834,147.6236 C69.616,147.6236 70.571,147.1016 71.52,146.1506 L108.53,109.3726 C109.4,108.5016 109.908,107.6536 109.996,106.9206 C110.011,106.7906 109.992,106.4736 109.992,106.4736 Z" id="Fill-8" fill="#ADADAD"></path>
            <path d="M16.6985,56.8218 L93.1675,56.8218 C95.0025,56.8218 96.4975,55.3358 96.5085,53.5088 C96.5015,51.6838 95.0065,50.1948 93.1755,50.1948 L93.1755,49.9458 L93.1745,49.9458 L93.1735,50.1948 L16.6985,50.1948 C14.8635,50.1948 13.3685,51.6808 13.3575,53.5078 C13.3575,55.3338 14.8555,56.8218 16.6985,56.8218" id="Fill-10" fill="#ADADAD"></path>
            <path d="M93.8264,78.6138 C93.7244,78.6038 93.6244,78.5998 93.5234,78.5998 C93.4224,78.5998 93.3214,78.6038 93.2214,78.6138 L16.6904,78.6158 C14.8554,78.6158 13.3604,80.1018 13.3494,81.9278 C13.3494,83.7508 14.8474,85.2348 16.6904,85.2348 L93.1754,85.2348 C93.3234,85.2468 93.4264,85.2508 93.5274,85.2508 C95.2564,85.2508 96.6784,83.9508 96.8344,82.2278 C96.9164,81.3428 96.6464,80.4798 96.0784,79.7978 C95.5104,79.1148 94.7104,78.6948 93.8264,78.6138" id="Fill-12" fill="#ADADAD"></path>
        </g>
    </g>
</svg>