<?xml version="1.0" encoding="UTF-8"?>
<svg width="59px" height="61px" viewBox="0 0 59 61" version="1.1" xmlns="http://www.w3.org/2000/svg" xmlns:xlink="http://www.w3.org/1999/xlink">
    <!-- Generator: Sketch 49.3 (51167) - http://www.bohemiancoding.com/sketch -->
    <title>重新</title>
    <desc>Created with Sketch.</desc>
    <defs>
        <polygon id="path-1" points="0 0 58.4365 0 58.4365 60.455 0 60.455"></polygon>
    </defs>
    <g id="重新" stroke="none" stroke-width="1" fill="none" fill-rule="evenodd">
        <g id="Page-1">
            <mask id="mask-2" fill="white">
                <use xlink:href="#path-1"></use>
            </mask>
            <g id="Clip-2"></g>
            <path d="M30.2275,0 C13.5595,0 -0.0005,13.56 -0.0005,30.228 C-0.0005,46.896 13.5595,60.455 30.2275,60.455 C42.4935,60.455 53.4565,53.134 58.1575,41.803 C58.3445,41.42 58.4365,41.025 58.4365,40.63 C58.4365,39.201 57.2745,38.038 55.8455,38.038 C54.5905,38.038 53.5185,38.934 53.2965,40.167 L53.2625,40.278 C49.2625,49.437 40.2205,55.354 30.2275,55.354 C16.3725,55.354 5.1005,44.083 5.1005,30.228 C5.1005,16.372 16.3725,5.1 30.2275,5.1 C35.8595,5.1 41.1765,6.916 45.6055,10.354 L46.7555,11.246 L44.6245,11.249 C43.1655,11.252 42.0195,12.364 42.0165,13.782 C42.0155,14.472 42.2845,15.121 42.7715,15.609 C43.2635,16.102 43.9175,16.373 44.6155,16.373 L52.3705,16.359 C52.4785,16.359 52.5835,16.352 52.6875,16.34 C53.8525,16.278 54.8095,15.508 55.1035,14.419 L56.2625,7.353 C56.4345,6.659 56.3385,5.978 56.0005,5.394 C55.6535,4.791 55.0895,4.36 54.4145,4.181 C53.0625,3.813 51.5875,4.662 51.2235,6.013 L50.8735,8.132 L50.1955,7.534 C44.6905,2.676 37.5985,0 30.2275,0" id="Fill-1" fill="#696969" mask="url(#mask-2)"></path>
        </g>
    </g>
</svg>