<?xml version="1.0" encoding="UTF-8"?>
<svg width="152px" height="144px" viewBox="0 0 152 144" version="1.1" xmlns="http://www.w3.org/2000/svg" xmlns:xlink="http://www.w3.org/1999/xlink">
    <!-- Generator: Sketch 49.3 (51167) - http://www.bohemiancoding.com/sketch -->
    <title>钻石</title>
    <desc>Created with Sketch.</desc>
    <defs>
        <polygon id="path-1" points="0 0.8493 151.17 0.8493 151.17 123 0 123"></polygon>
    </defs>
    <g id="钻石" stroke="none" stroke-width="1" fill="none" fill-rule="evenodd">
        <g id="Page-1">
            <g id="Group-3" transform="translate(0.000000, 20.340000)">
                <mask id="mask-2" fill="white">
                    <use xlink:href="#path-1"></use>
                </mask>
                <g id="Clip-2"></g>
                <path d="M139.4068,39.5423 L116.9588,39.5423 L115.9608,39.5423 L115.4318,38.6953 L97.2948,9.6763 L95.5738,6.9223 L98.8208,6.9223 L121.2698,6.9223 L122.2678,6.9223 L122.7968,7.7693 L140.9328,36.7873 L142.6548,39.5423 L139.4068,39.5423 Z M138.2828,48.6463 L89.9278,100.2263 L80.1578,110.6463 L87.0368,98.1273 L115.8908,45.6143 L136.9698,45.6143 L141.1248,45.6143 L138.2828,48.6463 Z M75.5038,107.1983 L43.6918,45.6143 L108.6118,45.6143 L75.5038,107.1983 Z M61.2428,100.2263 L12.8868,48.6463 L10.0458,45.6143 L14.1998,45.6143 L36.3348,45.6143 L64.1718,98.2003 L69.4868,109.0193 L61.2428,100.2263 Z M10.2358,36.7873 L28.3738,7.7683 L28.9018,6.9223 L29.8998,6.9223 L52.3488,6.9223 L55.5958,6.9223 L53.8758,9.6763 L35.7378,38.6953 L35.2098,39.5423 L34.2118,39.5423 L11.7618,39.5423 L8.5148,39.5423 L10.2358,36.7873 Z M62.7588,6.9223 L63.7558,6.9223 L87.4138,6.9223 L88.4118,6.9223 L88.9398,7.7683 L107.0778,36.7873 L108.7998,39.5413 L105.5518,39.5413 L45.6188,39.5413 L42.3718,39.5413 L44.0928,36.7873 L62.2288,7.7683 L62.7588,6.9223 Z M150.3288,44.6373 C150.7128,44.2273 151.1708,43.5373 151.1708,42.5783 C151.1708,42.0923 151.0018,41.5973 150.6368,41.0183 L149.6778,39.4883 L149.7548,39.4403 L127.4748,3.7953 L127.4058,3.8383 L126.4558,2.3243 C125.8658,1.3873 124.9538,0.8493 123.9508,0.8493 L27.2188,0.8493 C26.2178,0.8493 25.3038,1.3873 24.7158,2.3253 L23.7638,3.8373 L23.6948,3.7953 L1.4138,39.4453 L1.4898,39.4933 L0.5318,41.0183 C0.1698,41.5963 -0.0002,42.0923 -0.0002,42.5783 C-0.0002,43.5373 0.4578,44.2273 0.8418,44.6373 L2.0688,45.9463 L2.0488,45.9653 L72.1418,120.7313 L72.1428,120.7313 L73.3898,122.0223 C73.9808,122.6523 74.7608,123.0003 75.5858,123.0003 C76.4098,123.0003 77.1888,122.6523 77.7808,122.0213 L79.0298,120.6883 L79.0508,120.7083 L149.1608,45.9233 L150.3288,44.6373 Z" id="Fill-1" fill="#ADADAD" mask="url(#mask-2)"></path>
            </g>
            <path d="M132.8697,16.1314 C132.1627,16.1314 131.4557,15.8614 130.9167,15.3214 C129.8367,14.2434 129.8367,12.4934 130.9167,11.4144 L136.2917,6.0394 C137.3707,4.9604 139.1197,4.9604 140.1987,6.0394 C141.2777,7.1174 141.2777,8.8674 140.1987,9.9454 L134.8227,15.3214 C134.2837,15.8614 133.5767,16.1314 132.8697,16.1314" id="Fill-4" fill="#ADADAD"></path>
            <path d="M120.4957,10.9634 C120.1347,10.9634 119.7667,10.8914 119.4137,10.7404 C118.0107,10.1434 117.3567,8.5194 117.9557,7.1154 L120.2727,1.6804 C120.8717,0.2754 122.4927,-0.3756 123.8987,0.2224 C125.3017,0.8194 125.9547,2.4434 125.3557,3.8474 L123.0387,9.2834 C122.5917,10.3334 121.5697,10.9634 120.4957,10.9634" id="Fill-6" fill="#ADADAD"></path>
            <path d="M139.9615,28.6782 C138.7725,28.6782 137.6735,27.9042 137.3155,26.7052 C136.8775,25.2432 137.7085,23.7032 139.1705,23.2672 L145.0215,21.5182 C146.4825,21.0802 148.0215,21.9122 148.4585,23.3742 C148.8965,24.8362 148.0655,26.3762 146.6025,26.8132 L140.7525,28.5622 C140.4885,28.6402 140.2225,28.6782 139.9615,28.6782" id="Fill-8" fill="#ADADAD"></path>
        </g>
    </g>
</svg>