<?xml version="1.0" encoding="UTF-8"?>
<svg width="151px" height="142px" viewBox="0 0 151 142" version="1.1" xmlns="http://www.w3.org/2000/svg" xmlns:xlink="http://www.w3.org/1999/xlink">
    <!-- Generator: Sketch 49.3 (51167) - http://www.bohemiancoding.com/sketch -->
    <title>面试</title>
    <desc>Created with Sketch.</desc>
    <defs>
        <polygon id="path-1" points="0.0002 0.673 149.9782 0.673 149.9782 140.9995 0.0002 140.9995"></polygon>
    </defs>
    <g id="面试" stroke="none" stroke-width="1" fill="none" fill-rule="evenodd">
        <g id="Page-1" transform="translate(0.750000, 0.000000)">
            <path d="M125.5732,51.9173 L125.5732,82.5443 C125.5732,90.0763 122.1552,97.3323 116.0262,101.7103 C115.7642,101.8973 115.4972,102.0803 115.2222,102.2593 C111.9022,104.4253 107.9692,105.4603 104.0062,105.4603 L60.9852,105.4603 L62.6702,113.6823 L70.7182,118.7353 L103.0962,118.7353 L122.5612,137.4513 L122.5612,119.4843 L135.1012,119.4843 L142.4002,115.9283 L147.0802,107.3183 L147.0802,66.3303 L144.2722,57.1593 L138.8442,53.2293 L125.5732,51.9173 Z" id="Fill-1" fill="#FFDA00"></path>
            <g id="Group-5" transform="translate(0.000000, 0.327000)">
                <mask id="mask-2" fill="white">
                    <use xlink:href="#path-1"></use>
                </mask>
                <g id="Clip-4"></g>
                <path d="M122.9092,115.7895 C121.1942,115.7895 119.9132,116.7385 119.9132,117.5865 L119.9132,126.8205 L119.9132,131.1735 L116.8392,128.0915 L105.4472,116.6695 C104.9382,116.1615 104.3092,115.8725 103.5782,115.8135 L103.2802,115.7895 L74.9442,115.7895 C68.6622,115.7895 63.5522,110.6785 63.5522,104.3965 L63.5522,85.2105 L63.5522,83.4105 L65.3512,83.4105 L94.1302,83.4105 C103.7182,83.4105 111.5162,75.6105 111.5162,66.0245 L111.5162,56.4315 L111.5162,54.6305 L113.3162,54.6305 L132.5032,54.6305 C138.7852,54.6305 143.8952,59.7425 143.8952,66.0245 L143.8952,104.3965 C143.8952,110.6785 138.7852,115.7895 132.5032,115.7895 L122.9092,115.7895 Z M57.5582,77.4175 L55.7592,77.4475 C55.2762,77.4475 54.3592,77.5595 53.6342,78.3085 L33.0482,98.8935 L29.9752,101.9665 L29.9752,97.6215 L29.9752,80.4135 C29.9752,78.7615 28.6322,77.4175 26.9792,77.4175 L17.3862,77.4175 C11.1032,77.4175 5.9932,72.3065 5.9932,66.0245 L5.9932,18.0595 C5.9932,11.7765 11.1032,6.6655 17.3862,6.6655 L94.1302,6.6655 C100.4132,6.6655 105.5232,11.7765 105.5232,18.0595 L105.5232,66.0245 C105.5232,72.3065 100.4132,77.4175 94.1302,77.4175 L57.5582,77.4175 Z M132.5932,121.8125 C142.1802,121.8125 149.9782,114.0135 149.9782,104.4265 L149.9782,66.0545 C149.8972,56.4575 142.0572,48.6385 132.5032,48.6385 L113.3162,48.6385 L111.5162,48.6385 L111.5162,46.8375 L111.5162,18.0595 C111.5162,8.4725 103.7182,0.6725 94.1302,0.6725 L17.3862,0.6725 C7.8002,0.6725 0.0002,8.4725 0.0002,18.0595 L0.0002,66.0245 C0.0002,75.6105 7.8002,83.4105 17.3862,83.4105 L22.1822,83.4105 L23.9822,83.4105 L23.9822,85.2105 L23.9822,109.1925 C23.9822,109.2425 23.9802,109.2985 23.9842,109.3525 L24.0132,109.4945 L24.0132,109.5335 C24.0222,109.5955 24.0322,109.6695 24.0382,109.7535 C24.0422,109.7795 24.0472,109.8095 24.0522,109.8415 C24.0532,109.8495 24.0552,109.8575 24.0562,109.8665 C24.0802,109.9375 24.0962,110.0015 24.1082,110.0535 C24.1262,110.0955 24.1402,110.1335 24.1542,110.1725 C24.1692,110.2065 24.1832,110.2415 24.1982,110.2775 L24.1812,110.2455 C24.2032,110.2885 24.2252,110.3385 24.2492,110.3915 L24.2632,110.4065 L24.3222,110.5255 L24.3802,110.5835 L24.4952,110.8125 C24.4992,110.8195 24.5032,110.8265 24.5072,110.8325 C24.5712,110.9175 24.6172,110.9905 24.6492,111.0395 L24.7112,111.1335 L24.7132,111.1365 C24.7262,111.1555 24.7412,111.1765 24.7582,111.2005 C24.7652,111.2095 24.7742,111.2185 24.7832,111.2275 C24.8722,111.3005 24.9542,111.3815 25.0272,111.4705 C25.0372,111.4795 25.0472,111.4885 25.0572,111.4965 L25.2072,111.5725 L25.3232,111.6825 L25.3682,111.7105 C25.3742,111.7135 25.3802,111.7175 25.3862,111.7205 C25.4822,111.7685 25.5652,111.8195 25.6312,111.8635 C25.6672,111.8785 25.7002,111.8935 25.7292,111.9075 C25.8142,111.9415 25.8842,111.9715 25.9422,111.9985 C25.9832,112.0155 26.0222,112.0315 26.0572,112.0465 C26.0992,112.0615 26.1382,112.0775 26.1792,112.0935 L26.1832,112.0945 C26.2352,112.1065 26.2972,112.1225 26.3652,112.1455 C26.3932,112.1515 26.4212,112.1575 26.4492,112.1645 C26.5362,112.1695 26.6102,112.1795 26.6692,112.1895 L26.7082,112.1895 L26.8832,112.2245 C26.8862,112.2215 26.9322,112.2195 26.9792,112.2195 C27.0052,112.2195 27.0322,112.2205 27.0602,112.2205 C27.0872,112.2205 27.1122,112.2195 27.1382,112.2175 L27.2802,112.1895 L27.3192,112.1895 C27.3812,112.1795 27.4562,112.1695 27.5402,112.1635 C27.5662,112.1595 27.5962,112.1545 27.6282,112.1505 C27.6442,112.1465 27.6612,112.1435 27.6772,112.1405 C27.7392,112.1215 27.7972,112.1065 27.8522,112.0945 C27.8532,112.0935 27.8542,112.0935 27.8542,112.0935 L27.8532,112.0935 C27.8542,112.0935 27.8542,112.0935 27.8552,112.0935 L27.9372,112.0525 L28.0592,112.0115 C28.0932,111.9975 28.1242,111.9855 28.1532,111.9745 L28.2432,111.9295 L28.3562,111.8725 L28.3712,111.8685 L28.3762,111.8645 L28.4832,111.8095 L28.5772,111.7625 C28.6062,111.7445 28.6342,111.7275 28.6622,111.7105 L28.7082,111.6825 L28.7632,111.6465 C28.7842,111.6305 28.8072,111.6135 28.8352,111.5955 C28.8742,111.5665 28.9102,111.5405 28.9432,111.5185 L28.9502,111.5115 L28.9972,111.4805 C29.0452,111.4335 29.1042,111.3785 29.1772,111.3215 C29.2162,111.2865 29.2592,111.2505 29.3072,111.2135 L54.5752,85.9465 L57.6482,82.8735 L57.6482,87.2185 L57.6482,104.4265 C57.6482,114.0135 65.4472,121.8125 75.0342,121.8125 L101.4152,121.8125 L102.1622,121.8125 L102.6892,122.3405 L120.4362,140.1185 C121.0052,140.6865 121.7872,140.9995 122.6382,140.9995 L122.7182,140.9985 L122.9992,140.9985 C124.7152,140.9985 125.9962,140.0495 125.9962,139.2015 L125.9962,123.6125 L125.9962,121.8125 L127.7962,121.8125 L132.5932,121.8125 Z" id="Fill-3" fill="#333333" mask="url(#mask-2)"></path>
            </g>
        </g>
    </g>
</svg>