<?xml version="1.0" encoding="UTF-8"?>
<svg width="181px" height="163px" viewBox="0 0 181 163" version="1.1" xmlns="http://www.w3.org/2000/svg" xmlns:xlink="http://www.w3.org/1999/xlink">
    <!-- Generator: Sketch 49.3 (51167) - http://www.bohemiancoding.com/sketch -->
    <title>页面 1</title>
    <desc>Created with Sketch.</desc>
    <defs>
        <polygon id="path-1" points="0.0004 0.7753 180.067 0.7753 180.067 49 0.0004 49"></polygon>
    </defs>
    <g id="页面-1" stroke="none" stroke-width="1" fill="none" fill-rule="evenodd">
        <g id="Page-1">
            <path d="M43.5742,61.678 C41.9402,60.121 40.1622,59.298 38.4342,59.298 C37.0532,59.298 35.7502,59.841 34.6642,60.868 C32.9032,62.534 31.3702,65.039 35.1752,69.668 L35.1762,69.668 C35.7562,70.375 37.0872,71.643 37.4802,72.015 L84.8152,119.089 C87.2532,121.537 89.4702,122.23 91.9442,121.288 C92.7572,120.995 93.3932,120.572 94.0832,119.867 L94.2332,119.729 C96.6102,117.589 144.7182,69.701 146.2062,67.993 C147.8092,65.6 147.6262,63.339 145.6042,61.133 C143.7202,59.074 141.3012,58.766 138.5112,60.131 C137.6952,60.644 130.0662,67.868 98.6142,99.232 L96.0462,101.79 L96.0542,98.165 C96.0562,97.313 96.2362,12.63 95.9492,6.9 C95.7172,2.375 93.8462,0.119 90.2312,0.004 L89.9622,0 C86.5562,0 84.6682,2.125 84.1882,6.497 C84.0132,8.32 84.0372,67.133 84.0742,97.976 L84.0772,101.582 L81.5172,99.044 C81.2392,98.768 51.6962,69.485 43.5742,61.678" id="Fill-1" fill="#696969"></path>
            <g id="Group-5" transform="translate(0.000000, 113.886000)">
                <mask id="mask-2" fill="white">
                    <use xlink:href="#path-1"></use>
                </mask>
                <g id="Clip-4"></g>
                <path d="M180.0674,7.1953 C180.0674,3.8103 177.5544,0.9973 174.3474,0.7893 C174.2074,0.7803 174.0704,0.7753 173.9344,0.7753 C170.5534,0.7763 167.8024,3.5273 167.8024,6.9083 L167.8024,30.2013 C167.8024,33.3543 165.2364,35.9203 162.0824,35.9203 L17.9844,35.9203 C14.8304,35.9203 12.2644,33.3543 12.2644,30.2013 L12.2644,6.9083 C12.2644,3.5263 9.5134,0.7753 6.1314,0.7753 C5.9974,0.7753 5.8604,0.7803 5.7224,0.7893 C2.5134,0.9973 0.0004,3.8103 0.0004,7.1953 L0.0004,33.6703 C0.0004,42.1233 6.5254,49.0003 14.5454,49.0003 L165.5524,49.0003 C173.5564,49.0003 180.0674,42.1233 180.0674,33.6703 L180.0674,7.1953 Z" id="Fill-3" fill="#696969" mask="url(#mask-2)"></path>
            </g>
        </g>
    </g>
</svg>