<?xml version="1.0" encoding="UTF-8"?>
<svg width="79px" height="110px" viewBox="0 0 79 110" version="1.1" xmlns="http://www.w3.org/2000/svg" xmlns:xlink="http://www.w3.org/1999/xlink">
    <!-- Generator: Sketch 49.3 (51167) - http://www.bohemiancoding.com/sketch -->
    <title>领带</title>
    <desc>Created with Sketch.</desc>
    <defs>
        <polygon id="path-1" points="0.755322648 0.539 63.0736739 0.539 63.0736739 51.0998 0.755322648 51.0998"></polygon>
        <linearGradient x1="50%" y1="0%" x2="50%" y2="100%" id="linearGradient-3">
            <stop stop-color="#FFEF00" offset="0%"></stop>
            <stop stop-color="#FFDA00" offset="100%"></stop>
        </linearGradient>
        <polygon id="path-4" points="0 0.8483 78.6666816 0.8483 78.6666816 69 0 69"></polygon>
        <linearGradient x1="50%" y1="0%" x2="50%" y2="100%" id="linearGradient-6">
            <stop stop-color="#626262" offset="0%"></stop>
            <stop stop-color="#333333" offset="100%"></stop>
        </linearGradient>
    </defs>
    <g id="领带" stroke="none" stroke-width="1" fill="none" fill-rule="evenodd">
        <g id="Page-1">
            <g id="Group-3" transform="translate(9.000000, 0.461000)">
                <mask id="mask-2" fill="white">
                    <use xlink:href="#path-1"></use>
                </mask>
                <g id="Clip-2"></g>
                <path d="M9.2342,23.3518 L20.1472,7.7468 L20.4462,7.3198 L20.9662,7.3198 L42.6812,7.3198 L43.2142,7.3198 L43.5122,7.7628 L54.5892,24.2968 L55.1092,25.0728 L54.3702,25.6448 L32.1292,42.8428 L31.4892,43.3368 L30.8722,42.8158 L9.4082,24.6888 L8.7112,24.0998 L9.2342,23.3518 Z M1.9662,27.3248 L29.2142,50.3068 C29.8202,50.8188 30.5922,51.0998 31.3912,51.0998 C32.1302,51.0998 32.8512,50.8528 33.4752,50.3838 L61.7522,28.5398 C63.1652,27.4468 63.4942,25.4328 62.5002,23.9558 L47.8342,2.0778 C47.1982,1.1278 46.1232,0.5388 45.0272,0.5388 L18.6832,0.5388 C17.5982,0.5388 16.5632,1.0918 15.9162,2.0178 L1.3772,22.7918 C0.3602,24.2388 0.6142,26.1868 1.9662,27.3248 Z" id="Fill-1" fill="url(#linearGradient-3)" mask="url(#mask-2)"></path>
            </g>
            <g id="Group-6" transform="translate(0.000000, 40.461000)">
                <mask id="mask-5" fill="white">
                    <use xlink:href="#path-4"></use>
                </mask>
                <g id="Clip-5"></g>
                <path d="M70.8485,25.9143 L42.9925,60.3473 C42.1345,61.7473 40.7315,62.0183 40.1285,62.1353 C40.0625,62.1473 40.0055,62.1573 39.9625,62.1683 L39.8005,62.2273 L39.6515,62.2193 C39.1385,62.2193 37.3965,62.0843 36.3285,60.3663 L7.9195,25.9603 L7.4595,25.3533 L7.9215,24.7483 L19.8735,9.1313 L38.2135,24.6003 C38.8205,25.1113 39.5925,25.3933 40.3915,25.3933 C41.1305,25.3933 41.8515,25.1453 42.4755,24.6773 L60.7085,10.5923 L70.8595,24.7343 L71.2855,25.3283 L70.8485,25.9143 Z M78.0305,23.1183 L63.9525,3.4963 C63.3165,2.6113 62.2855,2.0833 61.1935,2.0833 C60.4845,2.0833 59.8055,2.3033 59.2305,2.7203 L41.1285,17.1363 L40.4895,17.6303 L39.8715,17.1083 L21.3495,1.4663 C21.3395,1.4733 21.3305,1.4803 21.3225,1.4883 C20.7435,1.0733 20.0645,0.8483 19.3495,0.8483 C18.2775,0.8483 17.2905,1.3333 16.6445,2.1803 L0.7045,23.0153 C-0.1415,24.1113 -0.2315,25.5833 0.4665,26.7803 L30.4155,63.7423 L30.4465,63.7823 L30.4715,63.8253 C32.4295,67.0653 35.8565,69.0003 39.6385,69.0003 L39.7015,69.0003 C43.4965,68.9883 46.9185,67.0243 48.8505,63.7473 L48.8765,63.7033 L48.9065,63.6623 L78.2165,26.7753 C78.8775,25.6223 78.8065,24.1923 78.0305,23.1183 Z" id="Fill-4" fill="url(#linearGradient-6)" mask="url(#mask-5)"></path>
            </g>
        </g>
    </g>
</svg>